<svg xmlns="http://www.w3.org/2000/svg" xmlns:xlink="http://www.w3.org/1999/xlink" width="1920" zoomAndPan="magnify" viewBox="0 0 1440 809.999993" height="1080" preserveAspectRatio="xMidYMid meet" version="1.0"><defs><g/></defs><g fill="#f4b640" fill-opacity="1"><g transform="translate(583.800865, 429.912088)"><g><path d="M 3.21875 14.328125 L 11.3125 12.9375 L 11.3125 -45.96875 L 3.21875 -47.359375 L 3.21875 -53.65625 L 19.6875 -53.65625 L 20.578125 -47.109375 C 22.359375 -49.554688 24.53125 -51.421875 27.09375 -52.703125 C 29.65625 -53.992188 32.625 -54.640625 36 -54.640625 C 42.644531 -54.640625 47.804688 -52.003906 51.484375 -46.734375 C 55.171875 -41.460938 57.015625 -34.492188 57.015625 -25.828125 L 57.015625 -24.796875 C 57.015625 -17.054688 55.164062 -10.8125 51.46875 -6.0625 C 47.769531 -1.320312 42.660156 1.046875 36.140625 1.046875 C 32.835938 1.046875 29.9375 0.492188 27.4375 -0.609375 C 24.945312 -1.722656 22.828125 -3.367188 21.078125 -5.546875 L 21.078125 12.9375 L 29.15625 14.328125 L 29.15625 20.625 L 3.21875 20.625 Z M 47.203125 -25.828125 C 47.203125 -31.941406 46.007812 -36.945312 43.625 -40.84375 C 41.25 -44.75 37.710938 -46.703125 33.015625 -46.703125 C 30.242188 -46.703125 27.863281 -46.070312 25.875 -44.8125 C 23.894531 -43.5625 22.296875 -41.847656 21.078125 -39.671875 L 21.078125 -13.53125 C 22.296875 -11.320312 23.890625 -9.613281 25.859375 -8.40625 C 27.828125 -7.195312 30.25 -6.59375 33.125 -6.59375 C 37.75 -6.59375 41.25 -8.273438 43.625 -11.640625 C 46.007812 -15.015625 47.203125 -19.398438 47.203125 -24.796875 Z M 47.203125 -25.828125 "/></g></g></g><g fill="#f4b640" fill-opacity="1"><g transform="translate(645.282567, 429.912088)"><g><path d="M 4.40625 -47.359375 L 4.40625 -53.65625 L 21.21875 -53.65625 L 22.15625 -45.859375 C 23.675781 -48.609375 25.550781 -50.757812 27.78125 -52.3125 C 30.019531 -53.863281 32.578125 -54.640625 35.453125 -54.640625 C 36.210938 -54.640625 36.992188 -54.582031 37.796875 -54.46875 C 38.609375 -54.351562 39.234375 -54.226562 39.671875 -54.09375 L 38.375 -45.015625 L 32.828125 -45.3125 C 30.242188 -45.3125 28.078125 -44.707031 26.328125 -43.5 C 24.578125 -42.300781 23.222656 -40.609375 22.265625 -38.421875 L 22.265625 -7.640625 L 30.34375 -6.25 L 30.34375 0 L 4.40625 0 L 4.40625 -6.25 L 12.5 -7.640625 L 12.5 -45.96875 Z M 4.40625 -47.359375 "/></g></g></g><g fill="#f4b640" fill-opacity="1"><g transform="translate(687.278535, 429.912088)"><g><path d="M 4.40625 -6.25 L 12.5 -7.640625 L 12.5 -45.96875 L 4.40625 -47.359375 L 4.40625 -53.65625 L 22.265625 -53.65625 L 22.265625 -7.640625 L 30.34375 -6.25 L 30.34375 0 L 4.40625 0 Z M 22.265625 -67.390625 L 12.5 -67.390625 L 12.5 -77.34375 L 22.265625 -77.34375 Z M 22.265625 -67.390625 "/></g></g></g><g fill="#f4b640" fill-opacity="1"><g transform="translate(720.647233, 429.912088)"><g><path d="M 2.96875 -6.25 L 11.0625 -7.640625 L 11.0625 -45.96875 L 2.96875 -47.359375 L 2.96875 -53.65625 L 19.78125 -53.65625 L 20.484375 -45.671875 C 22.265625 -48.515625 24.5 -50.71875 27.1875 -52.28125 C 29.882812 -53.851562 32.953125 -54.640625 36.390625 -54.640625 C 42.179688 -54.640625 46.660156 -52.941406 49.828125 -49.546875 C 53.003906 -46.160156 54.59375 -40.929688 54.59375 -33.859375 L 54.59375 -7.640625 L 62.671875 -6.25 L 62.671875 0 L 36.734375 0 L 36.734375 -6.25 L 44.828125 -7.640625 L 44.828125 -33.671875 C 44.828125 -38.390625 43.890625 -41.738281 42.015625 -43.71875 C 40.148438 -45.707031 37.300781 -46.703125 33.46875 -46.703125 C 30.65625 -46.703125 28.164062 -46.023438 26 -44.671875 C 23.84375 -43.316406 22.117188 -41.46875 20.828125 -39.125 L 20.828125 -7.640625 L 28.90625 -6.25 L 28.90625 0 L 2.96875 0 Z M 2.96875 -6.25 "/></g></g></g><g fill="#f4b640" fill-opacity="1"><g transform="translate(785.996333, 429.912088)"><g><path d="M 21.46875 -66.59375 L 21.46875 -53.65625 L 31.640625 -53.65625 L 31.640625 -46.40625 L 21.46875 -46.40625 L 21.46875 -13.828125 C 21.46875 -11.316406 21.988281 -9.546875 23.03125 -8.515625 C 24.070312 -7.492188 25.453125 -6.984375 27.171875 -6.984375 C 28.023438 -6.984375 28.988281 -7.054688 30.0625 -7.203125 C 31.144531 -7.359375 32.050781 -7.519531 32.78125 -7.6875 L 34.109375 -0.984375 C 33.179688 -0.390625 31.828125 0.09375 30.046875 0.46875 C 28.265625 0.851562 26.476562 1.046875 24.6875 1.046875 C 20.726562 1.046875 17.570312 -0.148438 15.21875 -2.546875 C 12.875 -4.941406 11.703125 -8.703125 11.703125 -13.828125 L 11.703125 -46.40625 L 3.21875 -46.40625 L 3.21875 -53.65625 L 11.703125 -53.65625 L 11.703125 -66.59375 Z M 21.46875 -66.59375 "/></g></g></g><g fill="#a6a6a6" fill-opacity="1"><g transform="translate(823.189553, 429.912088)"><g><path d="M 5.65625 -29.296875 C 5.65625 -42.328125 8.28125 -53.453125 13.53125 -62.671875 C 18.789062 -71.890625 24.3125 -78.039062 30.09375 -81.125 L 30.390625 -81.0625 L 32.234375 -75.3125 C 27.703125 -71.78125 23.765625 -66.113281 20.421875 -58.3125 C 17.085938 -50.507812 15.421875 -40.875 15.421875 -29.40625 L 15.421875 -28.765625 C 15.421875 -17.253906 17.082031 -7.609375 20.40625 0.171875 C 23.726562 7.953125 27.671875 13.765625 32.234375 17.609375 L 30.390625 22.953125 L 30.09375 22.953125 C 24.3125 19.878906 18.789062 13.738281 13.53125 4.53125 C 8.28125 -4.664062 5.65625 -15.796875 5.65625 -28.859375 Z M 5.65625 -29.296875 "/></g></g></g><g fill="#a6a6a6" fill-opacity="1"><g transform="translate(856.012849, 429.912088)"><g><path d="M 4.40625 -6.25 L 12.5 -7.640625 L 12.5 -45.96875 L 4.40625 -47.359375 L 4.40625 -53.65625 L 22.265625 -53.65625 L 22.265625 -7.640625 L 30.34375 -6.25 L 30.34375 0 L 4.40625 0 Z M 22.265625 -67.390625 L 12.5 -67.390625 L 12.5 -77.34375 L 22.265625 -77.34375 Z M 22.265625 -67.390625 "/></g></g></g><g fill="#a6a6a6" fill-opacity="1"><g transform="translate(889.381547, 429.912088)"><g><path d="M 27.125 -28.859375 C 27.125 -15.796875 24.488281 -4.664062 19.21875 4.53125 C 13.945312 13.738281 8.429688 19.878906 2.671875 22.953125 L 2.375 22.953125 L 0.546875 17.609375 C 5.003906 14.128906 8.921875 8.414062 12.296875 0.46875 C 15.671875 -7.476562 17.359375 -17.222656 17.359375 -28.765625 L 17.359375 -29.40625 C 17.359375 -40.738281 15.617188 -50.390625 12.140625 -58.359375 C 8.671875 -66.328125 4.804688 -72.128906 0.546875 -75.765625 L 2.375 -81.125 L 2.671875 -81.125 C 8.429688 -78.039062 13.945312 -71.890625 19.21875 -62.671875 C 24.488281 -53.453125 27.125 -42.328125 27.125 -29.296875 Z M 27.125 -28.859375 "/></g></g></g><g fill="#5271ff" fill-opacity="1"><g transform="translate(415.466049, 696.023491)"><g><path d="M 23.453125 -47.359375 L 17.296875 -46.265625 L 24.296875 -19.53125 L 25.4375 -13.046875 L 25.734375 -13.046875 L 27.125 -19.53125 L 37.828125 -53.65625 L 45.671875 -53.65625 L 56.421875 -19.53125 L 57.96875 -12.296875 L 58.265625 -12.296875 L 59.703125 -19.53125 L 66.296875 -46.265625 L 60.046875 -47.359375 L 60.046875 -53.65625 L 80.46875 -53.65625 L 80.46875 -47.359375 L 75.8125 -46.65625 L 62.28125 0 L 54.390625 0 L 43.984375 -32.671875 L 41.75 -41.703125 L 41.453125 -41.65625 L 39.375 -32.671875 L 29.15625 0 L 21.265625 0 L 7.734375 -46.65625 L 3.03125 -47.359375 L 3.03125 -53.65625 L 23.453125 -53.65625 Z M 23.453125 -47.359375 "/></g></g></g><g fill="#5271ff" fill-opacity="1"><g transform="translate(499.408405, 696.023491)"><g><path d="M 3.078125 -6.25 L 11.15625 -7.640625 L 11.15625 -69.671875 L 3.078125 -71.046875 L 3.078125 -77.34375 L 20.921875 -77.34375 L 20.921875 -46.515625 C 22.773438 -49.085938 25.039062 -51.082031 27.71875 -52.5 C 30.394531 -53.925781 33.367188 -54.640625 36.640625 -54.640625 C 42.390625 -54.640625 46.851562 -52.921875 50.03125 -49.484375 C 53.207031 -46.046875 54.796875 -40.757812 54.796875 -33.625 L 54.796875 -7.640625 L 62.875 -6.25 L 62.875 0 L 36.9375 0 L 36.9375 -6.25 L 45.015625 -7.640625 L 45.015625 -33.71875 C 45.015625 -38.144531 44.0625 -41.414062 42.15625 -43.53125 C 40.257812 -45.644531 37.429688 -46.703125 33.671875 -46.703125 C 30.992188 -46.703125 28.554688 -46.066406 26.359375 -44.796875 C 24.160156 -43.523438 22.347656 -41.796875 20.921875 -39.609375 L 20.921875 -7.640625 L 29 -6.25 L 29 0 L 3.078125 0 Z M 3.078125 -6.25 "/></g></g></g><g fill="#5271ff" fill-opacity="1"><g transform="translate(564.955833, 696.023491)"><g><path d="M 4.40625 -6.25 L 12.5 -7.640625 L 12.5 -45.96875 L 4.40625 -47.359375 L 4.40625 -53.65625 L 22.265625 -53.65625 L 22.265625 -7.640625 L 30.34375 -6.25 L 30.34375 0 L 4.40625 0 Z M 22.265625 -67.390625 L 12.5 -67.390625 L 12.5 -77.34375 L 22.265625 -77.34375 Z M 22.265625 -67.390625 "/></g></g></g><g fill="#5271ff" fill-opacity="1"><g transform="translate(598.324531, 696.023491)"><g><path d="M 3.078125 -71.046875 L 3.078125 -77.34375 L 20.921875 -77.34375 L 20.921875 -7.640625 L 29 -6.25 L 29 0 L 3.078125 0 L 3.078125 -6.25 L 11.15625 -7.640625 L 11.15625 -69.671875 Z M 3.078125 -71.046875 "/></g></g></g><g fill="#5271ff" fill-opacity="1"><g transform="translate(630.304932, 696.023491)"><g><path d="M 28.90625 1.046875 C 21.4375 1.046875 15.492188 -1.441406 11.078125 -6.421875 C 6.671875 -11.398438 4.46875 -17.851562 4.46875 -25.78125 L 4.46875 -27.96875 C 4.46875 -35.601562 6.738281 -41.957031 11.28125 -47.03125 C 15.820312 -52.101562 21.203125 -54.640625 27.421875 -54.640625 C 34.628906 -54.640625 40.09375 -52.457031 43.8125 -48.09375 C 47.53125 -43.726562 49.390625 -37.910156 49.390625 -30.640625 L 49.390625 -24.546875 L 14.578125 -24.546875 L 14.421875 -24.296875 C 14.523438 -19.140625 15.832031 -14.898438 18.34375 -11.578125 C 20.851562 -8.253906 24.375 -6.59375 28.90625 -6.59375 C 32.207031 -6.59375 35.109375 -7.0625 37.609375 -8 C 40.109375 -8.945312 42.265625 -10.25 44.078125 -11.90625 L 47.890625 -5.546875 C 45.972656 -3.703125 43.4375 -2.140625 40.28125 -0.859375 C 37.125 0.410156 33.332031 1.046875 28.90625 1.046875 Z M 27.421875 -46.953125 C 24.148438 -46.953125 21.351562 -45.570312 19.03125 -42.8125 C 16.71875 -40.050781 15.300781 -36.585938 14.78125 -32.421875 L 14.875 -32.171875 L 39.609375 -32.171875 L 39.609375 -33.46875 C 39.609375 -37.300781 38.582031 -40.503906 36.53125 -43.078125 C 34.488281 -45.660156 31.453125 -46.953125 27.421875 -46.953125 Z M 27.421875 -46.953125 "/></g></g></g><g fill="#ff5757" fill-opacity="1"><g transform="translate(899.197113, 696.023491)"><g><path d="M 40.609375 -57.90625 L 39.671875 -63.515625 L 18.09375 -63.515625 L 15.765625 -43.234375 C 17.253906 -44.359375 18.929688 -45.289062 20.796875 -46.03125 C 22.671875 -46.78125 24.828125 -47.1875 27.265625 -47.25 C 33.910156 -47.320312 39.140625 -45.15625 42.953125 -40.75 C 46.773438 -36.351562 48.6875 -30.4375 48.6875 -23 C 48.6875 -15.757812 46.742188 -9.941406 42.859375 -5.546875 C 38.972656 -1.148438 33.3125 1.046875 25.875 1.046875 C 19.757812 1.046875 14.675781 -0.617188 10.625 -3.953125 C 6.582031 -7.296875 4.644531 -12.207031 4.8125 -18.6875 L 4.90625 -18.984375 L 13.734375 -18.984375 C 13.734375 -15.085938 14.863281 -12.046875 17.125 -9.859375 C 19.394531 -7.679688 22.3125 -6.59375 25.875 -6.59375 C 30.007812 -6.59375 33.21875 -8.046875 35.5 -10.953125 C 37.78125 -13.867188 38.921875 -17.851562 38.921875 -22.90625 C 38.921875 -27.570312 37.769531 -31.382812 35.46875 -34.34375 C 33.175781 -37.300781 30 -38.78125 25.9375 -38.78125 C 22.101562 -38.78125 19.316406 -38.195312 17.578125 -37.03125 C 15.835938 -35.875 14.570312 -34.109375 13.78125 -31.734375 L 5.65625 -32.578125 L 9.8125 -72.1875 L 47.953125 -72.1875 L 47.953125 -57.90625 Z M 40.609375 -57.90625 "/></g></g></g><g fill="#a6a6a6" fill-opacity="1"><g transform="translate(952.799985, 696.023491)"><g><path d="M 7.1875 0 Z M 16.953125 0 L 7.1875 0 L 7.1875 -10.015625 L 16.953125 -10.015625 Z M 16.953125 -43.640625 L 7.1875 -43.640625 L 7.1875 -53.65625 L 16.953125 -53.65625 Z M 16.953125 -43.640625 "/></g></g></g><g fill="#a6a6a6" fill-opacity="1"><g transform="translate(719.907978, 696.083611)"><g><path d="M 4.40625 -6.25 L 12.5 -7.640625 L 12.5 -45.96875 L 4.40625 -47.359375 L 4.40625 -53.65625 L 22.265625 -53.65625 L 22.265625 -7.640625 L 30.34375 -6.25 L 30.34375 0 L 4.40625 0 Z M 22.265625 -67.390625 L 12.5 -67.390625 L 12.5 -77.34375 L 22.265625 -77.34375 Z M 22.265625 -67.390625 "/></g></g></g><g fill="#a6a6a6" fill-opacity="1"><g transform="translate(795.092894, 696.023491)"><g><path d="M 16.515625 -28.703125 L 12.296875 -27.8125 L 12.296875 -27.515625 L 16.515625 -26.578125 L 44.234375 -15.265625 L 44.234375 -5.3125 L 3.765625 -24.09375 L 3.765625 -31.484375 L 44.234375 -50.234375 L 44.234375 -40.265625 Z M 16.515625 -28.703125 "/></g></g></g><g fill="#a6a6a6" fill-opacity="1"><g transform="translate(583.800865, 551.654474)"><g><path d="M 4.40625 -6.25 L 12.5 -7.640625 L 12.5 -45.96875 L 4.40625 -47.359375 L 4.40625 -53.65625 L 22.265625 -53.65625 L 22.265625 -7.640625 L 30.34375 -6.25 L 30.34375 0 L 4.40625 0 Z M 22.265625 -67.390625 L 12.5 -67.390625 L 12.5 -77.34375 L 22.265625 -77.34375 Z M 22.265625 -67.390625 "/></g></g></g><g fill="#a6a6a6" fill-opacity="1"><g transform="translate(617.169563, 551.654474)"><g/></g></g><g fill="#a6a6a6" fill-opacity="1"><g transform="translate(642.40681, 551.654474)"><g><path d="M 33.265625 -38.828125 L 53.109375 -38.828125 L 53.109375 -30 L 33.265625 -30 L 33.265625 -7.234375 L 23.5 -7.234375 L 23.5 -30 L 3.625 -30 L 3.625 -38.828125 L 23.5 -38.828125 L 23.5 -59.796875 L 33.265625 -59.796875 Z M 33.265625 -38.828125 "/></g></g></g><g fill="#a6a6a6" fill-opacity="1"><g transform="translate(699.17822, 551.654474)"><g><path d="M 48.640625 -40.8125 L 7.28125 -40.8125 L 7.28125 -48.9375 L 48.640625 -48.9375 Z M 48.640625 -20.1875 L 7.28125 -20.1875 L 7.28125 -28.3125 L 48.640625 -28.3125 Z M 48.640625 -20.1875 "/></g></g></g><g fill="#a6a6a6" fill-opacity="1"><g transform="translate(755.057154, 551.654474)"><g/></g></g><g fill="#ff5757" fill-opacity="1"><g transform="translate(780.297039, 551.654474)"><g><path d="M 6 -6.25 L 17.15625 -7.640625 L 17.15625 -61.734375 L 5.796875 -61.53125 L 5.796875 -67.625 L 26.921875 -72.1875 L 26.921875 -7.640625 L 38.03125 -6.25 L 38.03125 0 L 6 0 Z M 6 -6.25 "/></g></g></g><g fill="#a6a6a6" fill-opacity="1"><g transform="translate(418.837877, 191.32024)"><g><path d="M 4.40625 -6.25 L 12.5 -7.640625 L 12.5 -45.96875 L 4.40625 -47.359375 L 4.40625 -53.65625 L 22.265625 -53.65625 L 22.265625 -7.640625 L 30.34375 -6.25 L 30.34375 0 L 4.40625 0 Z M 22.265625 -67.390625 L 12.5 -67.390625 L 12.5 -77.34375 L 22.265625 -77.34375 Z M 22.265625 -67.390625 "/></g></g></g><g fill="#a6a6a6" fill-opacity="1"><g transform="translate(452.206422, 191.32024)"><g/></g></g><g fill="#a6a6a6" fill-opacity="1"><g transform="translate(477.443553, 191.32024)"><g><path d="M 48.640625 -40.8125 L 7.28125 -40.8125 L 7.28125 -48.9375 L 48.640625 -48.9375 Z M 48.640625 -20.1875 L 7.28125 -20.1875 L 7.28125 -28.3125 L 48.640625 -28.3125 Z M 48.640625 -20.1875 "/></g></g></g><g fill="#ff5757" fill-opacity="1"><g transform="translate(533.32454, 191.32024)"><g/></g></g><g fill="#ff5757" fill-opacity="1"><g transform="translate(558.561672, 191.32024)"><g><path d="M 51.96875 -27.515625 C 51.96875 -18.296875 49.914062 -11.226562 45.8125 -6.3125 C 41.71875 -1.40625 36.113281 1.046875 29 1.046875 C 21.925781 1.046875 16.320312 -1.414062 12.1875 -6.34375 C 8.0625 -11.269531 6 -18.328125 6 -27.515625 L 6 -44.625 C 6 -53.8125 8.046875 -60.875 12.140625 -65.8125 C 16.242188 -70.757812 21.832031 -73.234375 28.90625 -73.234375 C 36.007812 -73.234375 41.628906 -70.757812 45.765625 -65.8125 C 49.898438 -60.875 51.96875 -53.8125 51.96875 -44.625 Z M 42.203125 -46.703125 C 42.203125 -52.953125 41.066406 -57.65625 38.796875 -60.8125 C 36.535156 -63.96875 33.238281 -65.546875 28.90625 -65.546875 C 24.644531 -65.546875 21.390625 -63.96875 19.140625 -60.8125 C 16.890625 -57.65625 15.765625 -52.953125 15.765625 -46.703125 L 15.765625 -25.53125 C 15.765625 -19.289062 16.90625 -14.570312 19.1875 -11.375 C 21.46875 -8.1875 24.738281 -6.59375 29 -6.59375 C 33.332031 -6.59375 36.613281 -8.175781 38.84375 -11.34375 C 41.082031 -14.519531 42.203125 -19.25 42.203125 -25.53125 Z M 42.203125 -46.703125 "/></g></g></g><g fill="#a6a6a6" fill-opacity="1"><g transform="translate(415.466049, 317.639817)"><g><path d="M 40.5625 -6.390625 C 38.8125 -3.953125 36.671875 -2.101562 34.140625 -0.84375 C 31.609375 0.414062 28.675781 1.046875 25.34375 1.046875 C 18.789062 1.046875 13.671875 -1.320312 9.984375 -6.0625 C 6.304688 -10.8125 4.46875 -17.054688 4.46875 -24.796875 L 4.46875 -25.828125 C 4.46875 -34.460938 6.304688 -41.421875 9.984375 -46.703125 C 13.671875 -51.992188 18.820312 -54.640625 25.4375 -54.640625 C 28.613281 -54.640625 31.414062 -54.050781 33.84375 -52.875 C 36.269531 -51.707031 38.34375 -50.015625 40.0625 -47.796875 L 40.0625 -69.671875 L 31.984375 -71.046875 L 31.984375 -77.34375 L 49.828125 -77.34375 L 49.828125 -7.640625 L 57.90625 -6.25 L 57.90625 0 L 41.359375 0 Z M 14.234375 -24.796875 C 14.234375 -19.398438 15.335938 -15.066406 17.546875 -11.796875 C 19.765625 -8.523438 23.1875 -6.890625 27.8125 -6.890625 C 30.71875 -6.890625 33.160156 -7.550781 35.140625 -8.875 C 37.128906 -10.195312 38.769531 -12.066406 40.0625 -14.484375 L 40.0625 -39.375 C 38.800781 -41.613281 37.160156 -43.394531 35.140625 -44.71875 C 33.128906 -46.039062 30.722656 -46.703125 27.921875 -46.703125 C 23.253906 -46.703125 19.804688 -44.769531 17.578125 -40.90625 C 15.347656 -37.039062 14.234375 -32.015625 14.234375 -25.828125 Z M 14.234375 -24.796875 "/></g></g></g><g fill="#a6a6a6" fill-opacity="1"><g transform="translate(476.402349, 317.639817)"><g><path d="M 4.46875 -27.328125 C 4.46875 -35.253906 6.613281 -41.785156 10.90625 -46.921875 C 15.207031 -52.066406 21.039062 -54.640625 28.40625 -54.640625 C 35.8125 -54.640625 41.671875 -52.078125 45.984375 -46.953125 C 50.296875 -41.828125 52.453125 -35.285156 52.453125 -27.328125 L 52.453125 -26.234375 C 52.453125 -18.234375 50.300781 -11.6875 46 -6.59375 C 41.707031 -1.5 35.878906 1.046875 28.515625 1.046875 C 21.078125 1.046875 15.207031 -1.503906 10.90625 -6.609375 C 6.613281 -11.722656 4.46875 -18.265625 4.46875 -26.234375 Z M 14.234375 -26.234375 C 14.234375 -20.546875 15.429688 -15.847656 17.828125 -12.140625 C 20.222656 -8.441406 23.785156 -6.59375 28.515625 -6.59375 C 33.140625 -6.59375 36.65625 -8.441406 39.0625 -12.140625 C 41.476562 -15.847656 42.6875 -20.546875 42.6875 -26.234375 L 42.6875 -27.328125 C 42.6875 -32.941406 41.476562 -37.613281 39.0625 -41.34375 C 36.65625 -45.082031 33.101562 -46.953125 28.40625 -46.953125 C 23.71875 -46.953125 20.179688 -45.082031 17.796875 -41.34375 C 15.421875 -37.613281 14.234375 -32.941406 14.234375 -27.328125 Z M 14.234375 -26.234375 "/></g></g></g><g fill="#a6a6a6" fill-opacity="1"><g transform="translate(533.372087, 317.639817)"><g><path d="M 7.1875 0 Z M 16.953125 0 L 7.1875 0 L 7.1875 -10.015625 L 16.953125 -10.015625 Z M 16.953125 -43.640625 L 7.1875 -43.640625 L 7.1875 -53.65625 L 16.953125 -53.65625 Z M 16.953125 -43.640625 "/></g></g></g><g fill="#ff5757" fill-opacity="1"><g transform="translate(554.148789, 317.639817)"><g/></g></g></svg>