<svg xmlns="http://www.w3.org/2000/svg" xmlns:xlink="http://www.w3.org/1999/xlink" width="1920" zoomAndPan="magnify" viewBox="0 0 1440 809.999993" height="1080" preserveAspectRatio="xMidYMid meet" version="1.0"><defs><g/></defs><g fill="#5271ff" fill-opacity="1"><g transform="translate(133.785797, 338.139715)"><g><path d="M 4.1875 -55.96875 L 4.1875 -64.703125 L 14.296875 -64.703125 L 14.296875 -72.890625 C 14.296875 -79.785156 16.097656 -85.117188 19.703125 -88.890625 C 23.304688 -92.660156 28.335938 -94.546875 34.796875 -94.546875 C 36.160156 -94.546875 37.53125 -94.4375 38.90625 -94.21875 C 40.28125 -94 41.800781 -93.6875 43.46875 -93.28125 L 42.03125 -84.3125 C 41.320312 -84.476562 40.457031 -84.617188 39.4375 -84.734375 C 38.414062 -84.859375 37.367188 -84.921875 36.296875 -84.921875 C 32.828125 -84.921875 30.253906 -83.890625 28.578125 -81.828125 C 26.910156 -79.773438 26.078125 -76.796875 26.078125 -72.890625 L 26.078125 -64.703125 L 39.59375 -64.703125 L 39.59375 -55.96875 L 26.078125 -55.96875 L 26.078125 -9.203125 L 35.8125 -7.53125 L 35.8125 0 L 4.546875 0 L 4.546875 -7.53125 L 14.296875 -9.203125 L 14.296875 -55.96875 Z M 4.1875 -55.96875 "/></g></g></g><g fill="#5271ff" fill-opacity="1"><g transform="translate(177.319485, 338.139715)"><g><path d="M 5.375 -32.953125 C 5.375 -42.515625 7.96875 -50.394531 13.15625 -56.59375 C 18.34375 -62.800781 25.378906 -65.90625 34.265625 -65.90625 C 43.191406 -65.90625 50.253906 -62.8125 55.453125 -56.625 C 60.660156 -50.445312 63.265625 -42.554688 63.265625 -32.953125 L 63.265625 -31.640625 C 63.265625 -21.984375 60.671875 -14.085938 55.484375 -7.953125 C 50.304688 -1.816406 43.273438 1.25 34.390625 1.25 C 25.421875 1.25 18.34375 -1.828125 13.15625 -7.984375 C 7.96875 -14.140625 5.375 -22.023438 5.375 -31.640625 Z M 17.15625 -31.640625 C 17.15625 -24.773438 18.597656 -19.109375 21.484375 -14.640625 C 24.378906 -10.179688 28.679688 -7.953125 34.390625 -7.953125 C 39.960938 -7.953125 44.203125 -10.179688 47.109375 -14.640625 C 50.023438 -19.109375 51.484375 -24.773438 51.484375 -31.640625 L 51.484375 -32.953125 C 51.484375 -39.722656 50.023438 -45.359375 47.109375 -49.859375 C 44.203125 -54.367188 39.921875 -56.625 34.265625 -56.625 C 28.609375 -56.625 24.34375 -54.367188 21.46875 -49.859375 C 18.59375 -45.359375 17.15625 -39.722656 17.15625 -32.953125 Z M 17.15625 -31.640625 "/></g></g></g><g fill="#5271ff" fill-opacity="1"><g transform="translate(246.028562, 338.139715)"><g><path d="M 5.328125 -57.109375 L 5.328125 -64.703125 L 25.59375 -64.703125 L 26.734375 -55.3125 C 28.566406 -58.625 30.828125 -61.21875 33.515625 -63.09375 C 36.203125 -64.96875 39.28125 -65.90625 42.75 -65.90625 C 43.664062 -65.90625 44.613281 -65.832031 45.59375 -65.6875 C 46.570312 -65.550781 47.320312 -65.398438 47.84375 -65.234375 L 46.28125 -54.296875 L 39.59375 -54.65625 C 36.476562 -54.65625 33.863281 -53.925781 31.75 -52.46875 C 29.632812 -51.019531 28 -48.976562 26.84375 -46.34375 L 26.84375 -9.203125 L 36.59375 -7.53125 L 36.59375 0 L 5.328125 0 L 5.328125 -7.53125 L 15.0625 -9.203125 L 15.0625 -55.4375 Z M 5.328125 -57.109375 "/></g></g></g><g fill="#5271ff" fill-opacity="1"><g transform="translate(510.523524, 338.139715)"><g><path d="M 5.328125 -7.53125 L 15.0625 -9.203125 L 15.0625 -55.4375 L 5.328125 -57.109375 L 5.328125 -64.703125 L 26.84375 -64.703125 L 26.84375 -9.203125 L 36.59375 -7.53125 L 36.59375 0 L 5.328125 0 Z M 26.84375 -81.265625 L 15.0625 -81.265625 L 15.0625 -93.28125 L 26.84375 -93.28125 Z M 26.84375 -81.265625 "/></g></g></g><g fill="#5271ff" fill-opacity="1"><g transform="translate(550.768265, 338.139715)"><g><path d="M 3.59375 -7.53125 L 13.328125 -9.203125 L 13.328125 -55.4375 L 3.59375 -57.109375 L 3.59375 -64.703125 L 23.859375 -64.703125 L 24.703125 -55.078125 C 26.847656 -58.503906 29.546875 -61.164062 32.796875 -63.0625 C 36.046875 -64.957031 39.742188 -65.90625 43.890625 -65.90625 C 50.867188 -65.90625 56.269531 -63.859375 60.09375 -59.765625 C 63.925781 -55.679688 65.84375 -49.375 65.84375 -40.84375 L 65.84375 -9.203125 L 75.59375 -7.53125 L 75.59375 0 L 44.3125 0 L 44.3125 -7.53125 L 54.0625 -9.203125 L 54.0625 -40.609375 C 54.0625 -46.304688 52.929688 -50.347656 50.671875 -52.734375 C 48.421875 -55.128906 44.984375 -56.328125 40.359375 -56.328125 C 36.972656 -56.328125 33.972656 -55.507812 31.359375 -53.875 C 28.753906 -52.238281 26.671875 -50.007812 25.109375 -47.1875 L 25.109375 -9.203125 L 34.859375 -7.53125 L 34.859375 0 L 3.59375 0 Z M 3.59375 -7.53125 "/></g></g></g><g fill="#a6a6a6" fill-opacity="1"><g transform="translate(372.515585, 338.139715)"><g><path d="M 5.328125 -7.53125 L 15.0625 -9.203125 L 15.0625 -55.4375 L 5.328125 -57.109375 L 5.328125 -64.703125 L 26.84375 -64.703125 L 26.84375 -9.203125 L 36.59375 -7.53125 L 36.59375 0 L 5.328125 0 Z M 26.84375 -81.265625 L 15.0625 -81.265625 L 15.0625 -93.28125 L 26.84375 -93.28125 Z M 26.84375 -81.265625 "/></g></g></g><g fill="#f4b640" fill-opacity="1"><g transform="translate(737.630245, 338.139715)"><g><path d="M 5.328125 -57.109375 L 5.328125 -64.703125 L 25.59375 -64.703125 L 26.734375 -55.3125 C 28.566406 -58.625 30.828125 -61.21875 33.515625 -63.09375 C 36.203125 -64.96875 39.28125 -65.90625 42.75 -65.90625 C 43.664062 -65.90625 44.613281 -65.832031 45.59375 -65.6875 C 46.570312 -65.550781 47.320312 -65.398438 47.84375 -65.234375 L 46.28125 -54.296875 L 39.59375 -54.65625 C 36.476562 -54.65625 33.863281 -53.925781 31.75 -52.46875 C 29.632812 -51.019531 28 -48.976562 26.84375 -46.34375 L 26.84375 -9.203125 L 36.59375 -7.53125 L 36.59375 0 L 5.328125 0 L 5.328125 -7.53125 L 15.0625 -9.203125 L 15.0625 -55.4375 Z M 5.328125 -57.109375 "/></g></g></g><g fill="#f4b640" fill-opacity="1"><g transform="translate(788.280017, 338.139715)"><g><path d="M 47.546875 0 C 47.179688 -1.75 46.898438 -3.320312 46.703125 -4.71875 C 46.503906 -6.113281 46.363281 -7.507812 46.28125 -8.90625 C 44.007812 -6 41.171875 -3.578125 37.765625 -1.640625 C 34.359375 0.285156 30.71875 1.25 26.84375 1.25 C 20.113281 1.25 14.992188 -0.390625 11.484375 -3.671875 C 7.972656 -6.960938 6.21875 -11.597656 6.21875 -17.578125 C 6.21875 -23.722656 8.695312 -28.457031 13.65625 -31.78125 C 18.625 -35.113281 25.429688 -36.78125 34.078125 -36.78125 L 46.21875 -36.78125 L 46.21875 -44.3125 C 46.21875 -48.09375 45.019531 -51.085938 42.625 -53.296875 C 40.238281 -55.515625 36.914062 -56.625 32.65625 -56.625 C 29.695312 -56.625 27.09375 -56.242188 24.84375 -55.484375 C 22.59375 -54.734375 20.769531 -53.703125 19.375 -52.390625 L 18.125 -45.5625 L 9.03125 -45.5625 L 9.03125 -58.125 C 11.976562 -60.476562 15.546875 -62.363281 19.734375 -63.78125 C 23.921875 -65.195312 28.46875 -65.90625 33.375 -65.90625 C 40.707031 -65.90625 46.644531 -64.03125 51.1875 -60.28125 C 55.726562 -56.53125 58 -51.164062 58 -44.1875 L 58 -13.03125 C 58 -12.195312 58.007812 -11.378906 58.03125 -10.578125 C 58.050781 -9.785156 58.101562 -8.988281 58.1875 -8.1875 L 62.96875 -7.53125 L 62.96875 0 Z M 28.578125 -8.609375 C 32.484375 -8.609375 36.050781 -9.546875 39.28125 -11.421875 C 42.507812 -13.296875 44.820312 -15.546875 46.21875 -18.171875 L 46.21875 -28.828125 L 33.671875 -28.828125 C 28.847656 -28.828125 25.03125 -27.707031 22.21875 -25.46875 C 19.40625 -23.238281 18 -20.53125 18 -17.34375 C 18 -14.507812 18.875 -12.34375 20.625 -10.84375 C 22.382812 -9.351562 25.035156 -8.609375 28.578125 -8.609375 Z M 28.578125 -8.609375 "/></g></g></g><g fill="#f4b640" fill-opacity="1"><g transform="translate(855.733313, 338.139715)"><g><path d="M 3.59375 -7.53125 L 13.328125 -9.203125 L 13.328125 -55.4375 L 3.59375 -57.109375 L 3.59375 -64.703125 L 23.859375 -64.703125 L 24.703125 -55.078125 C 26.847656 -58.503906 29.546875 -61.164062 32.796875 -63.0625 C 36.046875 -64.957031 39.742188 -65.90625 43.890625 -65.90625 C 50.867188 -65.90625 56.269531 -63.859375 60.09375 -59.765625 C 63.925781 -55.679688 65.84375 -49.375 65.84375 -40.84375 L 65.84375 -9.203125 L 75.59375 -7.53125 L 75.59375 0 L 44.3125 0 L 44.3125 -7.53125 L 54.0625 -9.203125 L 54.0625 -40.609375 C 54.0625 -46.304688 52.929688 -50.347656 50.671875 -52.734375 C 48.421875 -55.128906 44.984375 -56.328125 40.359375 -56.328125 C 36.972656 -56.328125 33.972656 -55.507812 31.359375 -53.875 C 28.753906 -52.238281 26.671875 -50.007812 25.109375 -47.1875 L 25.109375 -9.203125 L 34.859375 -7.53125 L 34.859375 0 L 3.59375 0 Z M 3.59375 -7.53125 "/></g></g></g><g fill="#f4b640" fill-opacity="1"><g transform="translate(934.548424, 338.139715)"><g><path d="M 5.375 -31.15625 C 5.375 -41.5625 7.644531 -49.953125 12.1875 -56.328125 C 16.738281 -62.710938 23.019531 -65.90625 31.03125 -65.90625 C 35.101562 -65.90625 38.671875 -65.101562 41.734375 -63.5 C 44.804688 -61.90625 47.378906 -59.59375 49.453125 -56.5625 L 50.53125 -64.703125 L 60.453125 -64.703125 L 60.453125 -0.84375 C 60.453125 7.53125 58.117188 14.117188 53.453125 18.921875 C 48.796875 23.722656 42.160156 26.125 33.546875 26.125 C 30.441406 26.125 27.070312 25.695312 23.4375 24.84375 C 19.8125 23.988281 16.625 22.820312 13.875 21.34375 L 16.921875 12.203125 C 19.117188 13.359375 21.710938 14.3125 24.703125 15.0625 C 27.691406 15.820312 30.597656 16.203125 33.421875 16.203125 C 38.691406 16.203125 42.550781 14.726562 45 11.78125 C 47.445312 8.832031 48.671875 4.625 48.671875 -0.84375 L 48.671875 -7 C 46.554688 -4.289062 44.023438 -2.238281 41.078125 -0.84375 C 38.128906 0.550781 34.742188 1.25 30.921875 1.25 C 22.984375 1.25 16.738281 -1.617188 12.1875 -7.359375 C 7.644531 -13.097656 5.375 -20.613281 5.375 -29.90625 Z M 17.15625 -29.90625 C 17.15625 -23.40625 18.53125 -18.179688 21.28125 -14.234375 C 24.039062 -10.285156 28.226562 -8.3125 33.84375 -8.3125 C 37.394531 -8.3125 40.363281 -9.117188 42.75 -10.734375 C 45.144531 -12.347656 47.117188 -14.628906 48.671875 -17.578125 L 48.671875 -47.359375 C 47.160156 -50.109375 45.1875 -52.289062 42.75 -53.90625 C 40.320312 -55.519531 37.394531 -56.328125 33.96875 -56.328125 C 28.34375 -56.328125 24.132812 -53.972656 21.34375 -49.265625 C 18.550781 -44.566406 17.15625 -38.53125 17.15625 -31.15625 Z M 17.15625 -29.90625 "/></g></g></g><g fill="#f4b640" fill-opacity="1"><g transform="translate(1003.855489, 338.139715)"><g><path d="M 34.859375 1.25 C 25.847656 1.25 18.679688 -1.75 13.359375 -7.75 C 8.035156 -13.75 5.375 -21.53125 5.375 -31.09375 L 5.375 -33.734375 C 5.375 -42.941406 8.113281 -50.601562 13.59375 -56.71875 C 19.082031 -62.84375 25.570312 -65.90625 33.0625 -65.90625 C 41.757812 -65.90625 48.347656 -63.269531 52.828125 -58 C 57.316406 -52.738281 59.5625 -45.722656 59.5625 -36.953125 L 59.5625 -29.59375 L 17.578125 -29.59375 L 17.40625 -29.296875 C 17.519531 -23.078125 19.09375 -17.960938 22.125 -13.953125 C 25.15625 -9.953125 29.398438 -7.953125 34.859375 -7.953125 C 38.847656 -7.953125 42.347656 -8.519531 45.359375 -9.65625 C 48.367188 -10.789062 50.96875 -12.359375 53.15625 -14.359375 L 57.765625 -6.703125 C 55.453125 -4.460938 52.390625 -2.578125 48.578125 -1.046875 C 44.773438 0.484375 40.203125 1.25 34.859375 1.25 Z M 33.0625 -56.625 C 29.125 -56.625 25.757812 -54.957031 22.96875 -51.625 C 20.175781 -48.300781 18.457031 -44.128906 17.8125 -39.109375 L 17.9375 -38.8125 L 47.78125 -38.8125 L 47.78125 -40.359375 C 47.78125 -44.984375 46.539062 -48.847656 44.0625 -51.953125 C 41.59375 -55.066406 37.925781 -56.625 33.0625 -56.625 Z M 33.0625 -56.625 "/></g></g></g><g fill="#ff5757" fill-opacity="1"><g transform="translate(1069.709521, 338.139715)"><g/></g></g><g fill="#a6a6a6" fill-opacity="1"><g transform="translate(1100.150772, 338.139715)"><g><path d="M 6.8125 -35.34375 C 6.8125 -51.050781 9.976562 -64.460938 16.3125 -75.578125 C 22.65625 -86.703125 29.316406 -94.117188 36.296875 -97.828125 L 36.65625 -97.765625 L 38.875 -90.828125 C 33.40625 -86.566406 28.65625 -79.734375 24.625 -70.328125 C 20.601562 -60.921875 18.59375 -49.296875 18.59375 -35.453125 L 18.59375 -34.6875 C 18.59375 -20.8125 20.597656 -9.179688 24.609375 0.203125 C 28.617188 9.597656 33.375 16.609375 38.875 21.234375 L 36.65625 27.6875 L 36.296875 27.6875 C 29.316406 23.976562 22.65625 16.570312 16.3125 5.46875 C 9.976562 -5.632812 6.8125 -19.054688 6.8125 -34.796875 Z M 6.8125 -35.34375 "/></g></g></g><g fill="#ff5757" fill-opacity="1"><g transform="translate(1139.755654, 338.139715)"><g><path d="M 48.96875 -69.84375 L 47.84375 -76.609375 L 21.828125 -76.609375 L 19.015625 -52.140625 C 20.804688 -53.492188 22.828125 -54.617188 25.078125 -55.515625 C 27.335938 -56.421875 29.941406 -56.910156 32.890625 -56.984375 C 40.898438 -57.066406 47.207031 -54.457031 51.8125 -49.15625 C 56.414062 -43.851562 58.71875 -36.71875 58.71875 -27.75 C 58.71875 -19.019531 56.375 -12.003906 51.6875 -6.703125 C 47.007812 -1.398438 40.1875 1.25 31.21875 1.25 C 23.84375 1.25 17.710938 -0.757812 12.828125 -4.78125 C 7.941406 -8.8125 5.597656 -14.734375 5.796875 -22.546875 L 5.921875 -22.90625 L 16.5625 -22.90625 C 16.5625 -18.195312 17.925781 -14.523438 20.65625 -11.890625 C 23.382812 -9.265625 26.90625 -7.953125 31.21875 -7.953125 C 36.195312 -7.953125 40.0625 -9.707031 42.8125 -13.21875 C 45.5625 -16.726562 46.9375 -21.53125 46.9375 -27.625 C 46.9375 -33.25 45.550781 -37.84375 42.78125 -41.40625 C 40.007812 -44.976562 36.175781 -46.765625 31.28125 -46.765625 C 26.65625 -46.765625 23.296875 -46.066406 21.203125 -44.671875 C 19.109375 -43.273438 17.582031 -41.140625 16.625 -38.265625 L 6.8125 -39.28125 L 11.84375 -87.0625 L 57.828125 -87.0625 L 57.828125 -69.84375 Z M 48.96875 -69.84375 "/></g></g></g><g fill="#a6a6a6" fill-opacity="1"><g transform="translate(1204.409126, 338.139715)"><g><path d="M 32.703125 -34.796875 C 32.703125 -19.054688 29.523438 -5.632812 23.171875 5.46875 C 16.816406 16.570312 10.171875 23.976562 3.234375 27.6875 L 2.875 27.6875 L 0.65625 21.234375 C 6.039062 17.046875 10.765625 10.15625 14.828125 0.5625 C 18.898438 -9.019531 20.9375 -20.769531 20.9375 -34.6875 L 20.9375 -35.453125 C 20.9375 -49.128906 18.84375 -60.769531 14.65625 -70.375 C 10.46875 -79.988281 5.800781 -86.988281 0.65625 -91.375 L 2.875 -97.828125 L 3.234375 -97.828125 C 10.171875 -94.117188 16.816406 -86.703125 23.171875 -75.578125 C 29.523438 -64.460938 32.703125 -51.050781 32.703125 -35.34375 Z M 32.703125 -34.796875 "/></g></g></g><g fill="#a6a6a6" fill-opacity="1"><g transform="translate(1243.517686, 338.139715)"><g><path d="M 8.671875 0 Z M 20.453125 0 L 8.671875 0 L 8.671875 -12.078125 L 20.453125 -12.078125 Z M 20.453125 -52.625 L 8.671875 -52.625 L 8.671875 -64.703125 L 20.453125 -64.703125 Z M 20.453125 -52.625 "/></g></g></g><g fill="#f4b640" fill-opacity="1"><g transform="translate(370.076435, 565.645901)"><g><path d="M 3.890625 17.28125 L 13.640625 15.609375 L 13.640625 -55.4375 L 3.890625 -57.109375 L 3.890625 -64.703125 L 23.734375 -64.703125 L 24.8125 -56.8125 C 26.96875 -59.757812 29.585938 -62.007812 32.671875 -63.5625 C 35.765625 -65.125 39.347656 -65.90625 43.421875 -65.90625 C 51.429688 -65.90625 57.65625 -62.722656 62.09375 -56.359375 C 66.539062 -50.003906 68.765625 -41.601562 68.765625 -31.15625 L 68.765625 -29.90625 C 68.765625 -20.570312 66.53125 -13.046875 62.0625 -7.328125 C 57.601562 -1.609375 51.445312 1.25 43.59375 1.25 C 39.601562 1.25 36.101562 0.582031 33.09375 -0.75 C 30.082031 -2.082031 27.523438 -4.066406 25.421875 -6.703125 L 25.421875 15.609375 L 35.15625 17.28125 L 35.15625 24.875 L 3.890625 24.875 Z M 56.921875 -31.15625 C 56.921875 -38.53125 55.484375 -44.566406 52.609375 -49.265625 C 49.742188 -53.972656 45.484375 -56.328125 39.828125 -56.328125 C 36.472656 -56.328125 33.597656 -55.566406 31.203125 -54.046875 C 28.816406 -52.535156 26.890625 -50.46875 25.421875 -47.84375 L 25.421875 -16.328125 C 26.890625 -13.648438 28.8125 -11.582031 31.1875 -10.125 C 33.5625 -8.675781 36.484375 -7.953125 39.953125 -7.953125 C 45.523438 -7.953125 49.742188 -9.984375 52.609375 -14.046875 C 55.484375 -18.117188 56.921875 -23.40625 56.921875 -29.90625 Z M 56.921875 -31.15625 "/></g></g></g><g fill="#f4b640" fill-opacity="1"><g transform="translate(444.227222, 565.645901)"><g><path d="M 5.328125 -57.109375 L 5.328125 -64.703125 L 25.59375 -64.703125 L 26.734375 -55.3125 C 28.566406 -58.625 30.828125 -61.21875 33.515625 -63.09375 C 36.203125 -64.96875 39.28125 -65.90625 42.75 -65.90625 C 43.664062 -65.90625 44.613281 -65.832031 45.59375 -65.6875 C 46.570312 -65.550781 47.320312 -65.398438 47.84375 -65.234375 L 46.28125 -54.296875 L 39.59375 -54.65625 C 36.476562 -54.65625 33.863281 -53.925781 31.75 -52.46875 C 29.632812 -51.019531 28 -48.976562 26.84375 -46.34375 L 26.84375 -9.203125 L 36.59375 -7.53125 L 36.59375 0 L 5.328125 0 L 5.328125 -7.53125 L 15.0625 -9.203125 L 15.0625 -55.4375 Z M 5.328125 -57.109375 "/></g></g></g><g fill="#f4b640" fill-opacity="1"><g transform="translate(494.876993, 565.645901)"><g><path d="M 5.328125 -7.53125 L 15.0625 -9.203125 L 15.0625 -55.4375 L 5.328125 -57.109375 L 5.328125 -64.703125 L 26.84375 -64.703125 L 26.84375 -9.203125 L 36.59375 -7.53125 L 36.59375 0 L 5.328125 0 Z M 26.84375 -81.265625 L 15.0625 -81.265625 L 15.0625 -93.28125 L 26.84375 -93.28125 Z M 26.84375 -81.265625 "/></g></g></g><g fill="#f4b640" fill-opacity="1"><g transform="translate(535.121735, 565.645901)"><g><path d="M 3.59375 -7.53125 L 13.328125 -9.203125 L 13.328125 -55.4375 L 3.59375 -57.109375 L 3.59375 -64.703125 L 23.859375 -64.703125 L 24.703125 -55.078125 C 26.847656 -58.503906 29.546875 -61.164062 32.796875 -63.0625 C 36.046875 -64.957031 39.742188 -65.90625 43.890625 -65.90625 C 50.867188 -65.90625 56.269531 -63.859375 60.09375 -59.765625 C 63.925781 -55.679688 65.84375 -49.375 65.84375 -40.84375 L 65.84375 -9.203125 L 75.59375 -7.53125 L 75.59375 0 L 44.3125 0 L 44.3125 -7.53125 L 54.0625 -9.203125 L 54.0625 -40.609375 C 54.0625 -46.304688 52.929688 -50.347656 50.671875 -52.734375 C 48.421875 -55.128906 44.984375 -56.328125 40.359375 -56.328125 C 36.972656 -56.328125 33.972656 -55.507812 31.359375 -53.875 C 28.753906 -52.238281 26.671875 -50.007812 25.109375 -47.1875 L 25.109375 -9.203125 L 34.859375 -7.53125 L 34.859375 0 L 3.59375 0 Z M 3.59375 -7.53125 "/></g></g></g><g fill="#f4b640" fill-opacity="1"><g transform="translate(613.936845, 565.645901)"><g><path d="M 25.890625 -80.3125 L 25.890625 -64.703125 L 38.15625 -64.703125 L 38.15625 -55.96875 L 25.890625 -55.96875 L 25.890625 -16.6875 C 25.890625 -13.65625 26.515625 -11.519531 27.765625 -10.28125 C 29.023438 -9.050781 30.691406 -8.4375 32.765625 -8.4375 C 33.804688 -8.4375 34.972656 -8.523438 36.265625 -8.703125 C 37.566406 -8.878906 38.65625 -9.066406 39.53125 -9.265625 L 41.140625 -1.203125 C 40.023438 -0.484375 38.390625 0.101562 36.234375 0.5625 C 34.085938 1.019531 31.9375 1.25 29.78125 1.25 C 25 1.25 21.191406 -0.191406 18.359375 -3.078125 C 15.523438 -5.972656 14.109375 -10.507812 14.109375 -16.6875 L 14.109375 -55.96875 L 3.890625 -55.96875 L 3.890625 -64.703125 L 14.109375 -64.703125 L 14.109375 -80.3125 Z M 25.890625 -80.3125 "/></g></g></g><g fill="#a6a6a6" fill-opacity="1"><g transform="translate(658.799398, 565.645901)"><g><path d="M 6.8125 -35.34375 C 6.8125 -51.050781 9.976562 -64.460938 16.3125 -75.578125 C 22.65625 -86.703125 29.316406 -94.117188 36.296875 -97.828125 L 36.65625 -97.765625 L 38.875 -90.828125 C 33.40625 -86.566406 28.65625 -79.734375 24.625 -70.328125 C 20.601562 -60.921875 18.59375 -49.296875 18.59375 -35.453125 L 18.59375 -34.6875 C 18.59375 -20.8125 20.597656 -9.179688 24.609375 0.203125 C 28.617188 9.597656 33.375 16.609375 38.875 21.234375 L 36.65625 27.6875 L 36.296875 27.6875 C 29.316406 23.976562 22.65625 16.570312 16.3125 5.46875 C 9.976562 -5.632812 6.8125 -19.054688 6.8125 -34.796875 Z M 6.8125 -35.34375 "/></g></g></g><g fill="#a6a6a6" fill-opacity="1"><g transform="translate(698.38635, 565.645901)"><g><path d="M 5.328125 -7.53125 L 15.0625 -9.203125 L 15.0625 -55.4375 L 5.328125 -57.109375 L 5.328125 -64.703125 L 26.84375 -64.703125 L 26.84375 -9.203125 L 36.59375 -7.53125 L 36.59375 0 L 5.328125 0 Z M 26.84375 -81.265625 L 15.0625 -81.265625 L 15.0625 -93.28125 L 26.84375 -93.28125 Z M 26.84375 -81.265625 "/></g></g></g><g fill="#a6a6a6" fill-opacity="1"><g transform="translate(738.631092, 565.645901)"><g><path d="M 32.703125 -34.796875 C 32.703125 -19.054688 29.523438 -5.632812 23.171875 5.46875 C 16.816406 16.570312 10.171875 23.976562 3.234375 27.6875 L 2.875 27.6875 L 0.65625 21.234375 C 6.039062 17.046875 10.765625 10.15625 14.828125 0.5625 C 18.898438 -9.019531 20.9375 -20.769531 20.9375 -34.6875 L 20.9375 -35.453125 C 20.9375 -49.128906 18.84375 -60.769531 14.65625 -70.375 C 10.46875 -79.988281 5.800781 -86.988281 0.65625 -91.375 L 2.875 -97.828125 L 3.234375 -97.828125 C 10.171875 -94.117188 16.816406 -86.703125 23.171875 -75.578125 C 29.523438 -64.460938 32.703125 -51.050781 32.703125 -35.34375 Z M 32.703125 -34.796875 "/></g></g></g></svg>