<svg xmlns="http://www.w3.org/2000/svg" xmlns:xlink="http://www.w3.org/1999/xlink" width="1920" zoomAndPan="magnify" viewBox="0 0 1440 809.999993" height="1080" preserveAspectRatio="xMidYMid meet" version="1.0"><defs><g/></defs><g fill="#951abe" fill-opacity="1"><g transform="translate(190.957784, 184.923399)"><g><path d="M 3.1875 -4.515625 L 9.03125 -5.515625 L 9.03125 -33.25 L 3.1875 -34.25 L 3.1875 -38.8125 L 16.109375 -38.8125 L 16.109375 -5.515625 L 21.953125 -4.515625 L 21.953125 0 L 3.1875 0 Z M 16.109375 -48.734375 L 9.03125 -48.734375 L 9.03125 -55.953125 L 16.109375 -55.953125 Z M 16.109375 -48.734375 "/></g></g></g><g fill="#951abe" fill-opacity="1"><g transform="translate(215.092749, 184.923399)"><g><path d="M 2.515625 -33.578125 L 2.515625 -38.8125 L 8.578125 -38.8125 L 8.578125 -43.71875 C 8.578125 -47.851562 9.65625 -51.050781 11.8125 -53.3125 C 13.976562 -55.570312 17 -56.703125 20.875 -56.703125 C 21.6875 -56.703125 22.503906 -56.632812 23.328125 -56.5 C 24.148438 -56.375 25.066406 -56.191406 26.078125 -55.953125 L 25.21875 -50.578125 C 24.78125 -50.671875 24.253906 -50.75 23.640625 -50.8125 C 23.035156 -50.882812 22.410156 -50.921875 21.765625 -50.921875 C 19.691406 -50.921875 18.148438 -50.304688 17.140625 -49.078125 C 16.140625 -47.847656 15.640625 -46.0625 15.640625 -43.71875 L 15.640625 -38.8125 L 23.75 -38.8125 L 23.75 -33.578125 L 15.640625 -33.578125 L 15.640625 -5.515625 L 21.484375 -4.515625 L 21.484375 0 L 2.71875 0 L 2.71875 -4.515625 L 8.578125 -5.515625 L 8.578125 -33.578125 Z M 2.515625 -33.578125 "/></g></g></g><g fill="#ffd230" fill-opacity="1"><g transform="translate(292.129307, 184.665147)"><g><path d="M 4.09375 -21.203125 C 4.09375 -30.617188 5.992188 -38.660156 9.796875 -45.328125 C 13.597656 -52.003906 17.585938 -56.453125 21.765625 -58.671875 L 21.984375 -58.640625 L 23.3125 -54.484375 C 20.039062 -51.921875 17.195312 -47.816406 14.78125 -42.171875 C 12.363281 -36.535156 11.15625 -29.566406 11.15625 -21.265625 L 11.15625 -20.796875 C 11.15625 -12.484375 12.351562 -5.507812 14.75 0.125 C 17.15625 5.757812 20.007812 9.960938 23.3125 12.734375 L 21.984375 16.609375 L 21.765625 16.609375 C 17.585938 14.378906 13.597656 9.9375 9.796875 3.28125 C 5.992188 -3.375 4.09375 -11.425781 4.09375 -20.875 Z M 4.09375 -21.203125 "/></g></g></g><g fill="#5271ff" fill-opacity="1"><g transform="translate(315.878229, 184.665147)"><g><path d="M 20.625 -4.765625 C 22.96875 -4.765625 25.03125 -5.488281 26.8125 -6.9375 C 28.59375 -8.382812 29.484375 -10.160156 29.484375 -12.265625 L 35.828125 -12.265625 L 35.90625 -12.046875 C 36.019531 -8.703125 34.53125 -5.734375 31.4375 -3.140625 C 28.34375 -0.546875 24.738281 0.75 20.625 0.75 C 14.976562 0.75 10.664062 -1.085938 7.6875 -4.765625 C 4.71875 -8.453125 3.234375 -13.082031 3.234375 -18.65625 L 3.234375 -20.15625 C 3.234375 -25.675781 4.722656 -30.285156 7.703125 -33.984375 C 10.691406 -37.679688 15 -39.53125 20.625 -39.53125 C 23.726562 -39.53125 26.515625 -39.015625 28.984375 -37.984375 C 31.460938 -36.953125 33.519531 -35.539062 35.15625 -33.75 L 35.46875 -25.140625 L 29.84375 -25.140625 L 28.296875 -31.234375 C 27.460938 -32.046875 26.382812 -32.703125 25.0625 -33.203125 C 23.75 -33.710938 22.269531 -33.96875 20.625 -33.96875 C 16.914062 -33.96875 14.265625 -32.632812 12.671875 -29.96875 C 11.085938 -27.300781 10.296875 -24.03125 10.296875 -20.15625 L 10.296875 -18.65625 C 10.296875 -14.6875 11.082031 -11.378906 12.65625 -8.734375 C 14.238281 -6.085938 16.894531 -4.765625 20.625 -4.765625 Z M 20.625 -4.765625 "/></g></g></g><g fill="#5271ff" fill-opacity="1"><g transform="translate(355.469614, 184.665147)"><g><path d="M 3.234375 -19.765625 C 3.234375 -25.503906 4.785156 -30.234375 7.890625 -33.953125 C 10.992188 -37.671875 15.210938 -39.53125 20.546875 -39.53125 C 25.898438 -39.53125 30.140625 -37.675781 33.265625 -33.96875 C 36.390625 -30.257812 37.953125 -25.523438 37.953125 -19.765625 L 37.953125 -18.96875 C 37.953125 -13.1875 36.394531 -8.453125 33.28125 -4.765625 C 30.175781 -1.085938 25.957031 0.75 20.625 0.75 C 15.238281 0.75 10.992188 -1.09375 7.890625 -4.78125 C 4.785156 -8.476562 3.234375 -13.207031 3.234375 -18.96875 Z M 10.296875 -18.96875 C 10.296875 -14.851562 11.160156 -11.457031 12.890625 -8.78125 C 14.628906 -6.101562 17.207031 -4.765625 20.625 -4.765625 C 23.96875 -4.765625 26.507812 -6.101562 28.25 -8.78125 C 30 -11.457031 30.875 -14.851562 30.875 -18.96875 L 30.875 -19.765625 C 30.875 -23.828125 30 -27.207031 28.25 -29.90625 C 26.507812 -32.613281 23.941406 -33.96875 20.546875 -33.96875 C 17.148438 -33.96875 14.59375 -32.613281 12.875 -29.90625 C 11.15625 -27.207031 10.296875 -23.828125 10.296875 -19.765625 Z M 10.296875 -18.96875 "/></g></g></g><g fill="#5271ff" fill-opacity="1"><g transform="translate(396.674778, 184.665147)"><g><path d="M 2.15625 -4.515625 L 8 -5.515625 L 8 -33.25 L 2.15625 -34.25 L 2.15625 -38.8125 L 14.3125 -38.8125 L 14.8125 -33.03125 C 16.101562 -35.082031 17.722656 -36.675781 19.671875 -37.8125 C 21.617188 -38.957031 23.835938 -39.53125 26.328125 -39.53125 C 30.515625 -39.53125 33.753906 -38.300781 36.046875 -35.84375 C 38.335938 -33.394531 39.484375 -29.613281 39.484375 -24.5 L 39.484375 -5.515625 L 45.328125 -4.515625 L 45.328125 0 L 26.578125 0 L 26.578125 -4.515625 L 32.421875 -5.515625 L 32.421875 -24.359375 C 32.421875 -27.773438 31.742188 -30.195312 30.390625 -31.625 C 29.046875 -33.0625 26.984375 -33.78125 24.203125 -33.78125 C 22.171875 -33.78125 20.375 -33.289062 18.8125 -32.3125 C 17.25 -31.332031 16 -29.992188 15.0625 -28.296875 L 15.0625 -5.515625 L 20.90625 -4.515625 L 20.90625 0 L 2.15625 0 Z M 2.15625 -4.515625 "/></g></g></g><g fill="#5271ff" fill-opacity="1"><g transform="translate(443.940581, 184.665147)"><g><path d="M 29.34375 -4.625 C 28.070312 -2.851562 26.519531 -1.515625 24.6875 -0.609375 C 22.863281 0.296875 20.742188 0.75 18.328125 0.75 C 13.585938 0.75 9.882812 -0.960938 7.21875 -4.390625 C 4.5625 -7.828125 3.234375 -12.34375 3.234375 -17.9375 L 3.234375 -18.6875 C 3.234375 -24.925781 4.5625 -29.957031 7.21875 -33.78125 C 9.882812 -37.613281 13.613281 -39.53125 18.40625 -39.53125 C 20.695312 -39.53125 22.71875 -39.101562 24.46875 -38.25 C 26.226562 -37.40625 27.734375 -36.179688 28.984375 -34.578125 L 28.984375 -50.390625 L 23.140625 -51.390625 L 23.140625 -55.953125 L 36.046875 -55.953125 L 36.046875 -5.515625 L 41.890625 -4.515625 L 41.890625 0 L 29.90625 0 Z M 10.296875 -17.9375 C 10.296875 -14.039062 11.09375 -10.90625 12.6875 -8.53125 C 14.289062 -6.164062 16.769531 -4.984375 20.125 -4.984375 C 22.226562 -4.984375 23.992188 -5.460938 25.421875 -6.421875 C 26.859375 -7.378906 28.046875 -8.726562 28.984375 -10.46875 L 28.984375 -28.484375 C 28.066406 -30.109375 26.878906 -31.394531 25.421875 -32.34375 C 23.960938 -33.300781 22.21875 -33.78125 20.1875 -33.78125 C 16.820312 -33.78125 14.332031 -32.378906 12.71875 -29.578125 C 11.101562 -26.785156 10.296875 -23.15625 10.296875 -18.6875 Z M 10.296875 -17.9375 "/></g></g></g><g fill="#5271ff" fill-opacity="1"><g transform="translate(488.014686, 184.665147)"><g><path d="M 3.1875 -4.515625 L 9.03125 -5.515625 L 9.03125 -33.25 L 3.1875 -34.25 L 3.1875 -38.8125 L 16.109375 -38.8125 L 16.109375 -5.515625 L 21.953125 -4.515625 L 21.953125 0 L 3.1875 0 Z M 16.109375 -48.734375 L 9.03125 -48.734375 L 9.03125 -55.953125 L 16.109375 -55.953125 Z M 16.109375 -48.734375 "/></g></g></g><g fill="#5271ff" fill-opacity="1"><g transform="translate(512.149651, 184.665147)"><g><path d="M 15.53125 -48.171875 L 15.53125 -38.8125 L 22.875 -38.8125 L 22.875 -33.578125 L 15.53125 -33.578125 L 15.53125 -10 C 15.53125 -8.1875 15.90625 -6.910156 16.65625 -6.171875 C 17.414062 -5.429688 18.414062 -5.0625 19.65625 -5.0625 C 20.28125 -5.0625 20.976562 -5.113281 21.75 -5.21875 C 22.53125 -5.320312 23.179688 -5.4375 23.703125 -5.5625 L 24.671875 -0.71875 C 24.003906 -0.289062 23.023438 0.0546875 21.734375 0.328125 C 20.441406 0.609375 19.148438 0.75 17.859375 0.75 C 14.992188 0.75 12.710938 -0.113281 11.015625 -1.84375 C 9.316406 -3.582031 8.46875 -6.300781 8.46875 -10 L 8.46875 -33.578125 L 2.328125 -33.578125 L 2.328125 -38.8125 L 8.46875 -38.8125 L 8.46875 -48.171875 Z M 15.53125 -48.171875 "/></g></g></g><g fill="#5271ff" fill-opacity="1"><g transform="translate(539.045972, 184.665147)"><g><path d="M 3.1875 -4.515625 L 9.03125 -5.515625 L 9.03125 -33.25 L 3.1875 -34.25 L 3.1875 -38.8125 L 16.109375 -38.8125 L 16.109375 -5.515625 L 21.953125 -4.515625 L 21.953125 0 L 3.1875 0 Z M 16.109375 -48.734375 L 9.03125 -48.734375 L 9.03125 -55.953125 L 16.109375 -55.953125 Z M 16.109375 -48.734375 "/></g></g></g><g fill="#5271ff" fill-opacity="1"><g transform="translate(563.180937, 184.665147)"><g><path d="M 3.234375 -19.765625 C 3.234375 -25.503906 4.785156 -30.234375 7.890625 -33.953125 C 10.992188 -37.671875 15.210938 -39.53125 20.546875 -39.53125 C 25.898438 -39.53125 30.140625 -37.675781 33.265625 -33.96875 C 36.390625 -30.257812 37.953125 -25.523438 37.953125 -19.765625 L 37.953125 -18.96875 C 37.953125 -13.1875 36.394531 -8.453125 33.28125 -4.765625 C 30.175781 -1.085938 25.957031 0.75 20.625 0.75 C 15.238281 0.75 10.992188 -1.09375 7.890625 -4.78125 C 4.785156 -8.476562 3.234375 -13.207031 3.234375 -18.96875 Z M 10.296875 -18.96875 C 10.296875 -14.851562 11.160156 -11.457031 12.890625 -8.78125 C 14.628906 -6.101562 17.207031 -4.765625 20.625 -4.765625 C 23.96875 -4.765625 26.507812 -6.101562 28.25 -8.78125 C 30 -11.457031 30.875 -14.851562 30.875 -18.96875 L 30.875 -19.765625 C 30.875 -23.828125 30 -27.207031 28.25 -29.90625 C 26.507812 -32.613281 23.941406 -33.96875 20.546875 -33.96875 C 17.148438 -33.96875 14.59375 -32.613281 12.875 -29.90625 C 11.15625 -27.207031 10.296875 -23.828125 10.296875 -19.765625 Z M 10.296875 -18.96875 "/></g></g></g><g fill="#5271ff" fill-opacity="1"><g transform="translate(604.386087, 184.665147)"><g><path d="M 2.15625 -4.515625 L 8 -5.515625 L 8 -33.25 L 2.15625 -34.25 L 2.15625 -38.8125 L 14.3125 -38.8125 L 14.8125 -33.03125 C 16.101562 -35.082031 17.722656 -36.675781 19.671875 -37.8125 C 21.617188 -38.957031 23.835938 -39.53125 26.328125 -39.53125 C 30.515625 -39.53125 33.753906 -38.300781 36.046875 -35.84375 C 38.335938 -33.394531 39.484375 -29.613281 39.484375 -24.5 L 39.484375 -5.515625 L 45.328125 -4.515625 L 45.328125 0 L 26.578125 0 L 26.578125 -4.515625 L 32.421875 -5.515625 L 32.421875 -24.359375 C 32.421875 -27.773438 31.742188 -30.195312 30.390625 -31.625 C 29.046875 -33.0625 26.984375 -33.78125 24.203125 -33.78125 C 22.171875 -33.78125 20.375 -33.289062 18.8125 -32.3125 C 17.25 -31.332031 16 -29.992188 15.0625 -28.296875 L 15.0625 -5.515625 L 20.90625 -4.515625 L 20.90625 0 L 2.15625 0 Z M 2.15625 -4.515625 "/></g></g></g><g fill="#ffd230" fill-opacity="1"><g transform="translate(651.652643, 184.665147)"><g><path d="M 19.625 -20.875 C 19.625 -11.425781 17.710938 -3.375 13.890625 3.28125 C 10.078125 9.9375 6.09375 14.378906 1.9375 16.609375 L 1.71875 16.609375 L 0.390625 12.734375 C 3.617188 10.222656 6.453125 6.09375 8.890625 0.34375 C 11.328125 -5.40625 12.546875 -12.453125 12.546875 -20.796875 L 12.546875 -21.265625 C 12.546875 -29.472656 11.289062 -36.457031 8.78125 -42.21875 C 6.269531 -47.976562 3.472656 -52.171875 0.390625 -54.796875 L 1.71875 -58.671875 L 1.9375 -58.671875 C 6.09375 -56.453125 10.078125 -52.003906 13.890625 -45.328125 C 17.710938 -38.660156 19.625 -30.617188 19.625 -21.203125 Z M 19.625 -20.875 "/></g></g></g><g fill="#ffd230" fill-opacity="1"><g transform="translate(704.803457, 184.923399)"><g><path d="M 22.625 13.0625 C 17.96875 11.738281 14.648438 9.640625 12.671875 6.765625 C 10.703125 3.898438 9.71875 0.4375 9.71875 -3.625 L 9.71875 -10.96875 C 9.71875 -13.644531 9.109375 -15.726562 7.890625 -17.21875 C 6.671875 -18.71875 4.796875 -19.46875 2.265625 -19.46875 L 2.265625 -24.75 C 4.796875 -24.75 6.671875 -25.484375 7.890625 -26.953125 C 9.109375 -28.421875 9.71875 -30.507812 9.71875 -33.21875 L 9.71875 -40.59375 C 9.71875 -44.6875 10.703125 -48.160156 12.671875 -51.015625 C 14.648438 -53.878906 17.96875 -55.96875 22.625 -57.28125 L 24.0625 -53.078125 C 21.4375 -52.242188 19.566406 -50.742188 18.453125 -48.578125 C 17.335938 -46.410156 16.78125 -43.75 16.78125 -40.59375 L 16.78125 -33.21875 C 16.78125 -30.707031 16.273438 -28.492188 15.265625 -26.578125 C 14.265625 -24.660156 12.75 -23.164062 10.71875 -22.09375 C 12.75 -20.988281 14.265625 -19.472656 15.265625 -17.546875 C 16.273438 -15.628906 16.78125 -13.4375 16.78125 -10.96875 L 16.78125 -3.625 C 16.78125 -0.46875 17.335938 2.175781 18.453125 4.3125 C 19.566406 6.457031 21.4375 7.960938 24.0625 8.828125 Z M 22.625 13.0625 "/></g></g></g><g fill="#ffd230" fill-opacity="1"><g transform="translate(218.703289, 432.77749)"><g><path d="M 0.96875 8.828125 C 3.550781 7.960938 5.40625 6.457031 6.53125 4.3125 C 7.65625 2.175781 8.21875 -0.46875 8.21875 -3.625 L 8.21875 -10.96875 C 8.21875 -13.53125 8.753906 -15.765625 9.828125 -17.671875 C 10.898438 -19.585938 12.5625 -21.0625 14.8125 -22.09375 C 12.5625 -23.070312 10.898438 -24.515625 9.828125 -26.421875 C 8.753906 -28.335938 8.21875 -30.601562 8.21875 -33.21875 L 8.21875 -40.59375 C 8.21875 -43.75 7.65625 -46.410156 6.53125 -48.578125 C 5.40625 -50.742188 3.550781 -52.242188 0.96875 -53.078125 L 2.40625 -57.28125 C 7.039062 -55.96875 10.34375 -53.878906 12.3125 -51.015625 C 14.289062 -48.160156 15.28125 -44.6875 15.28125 -40.59375 L 15.28125 -33.21875 C 15.28125 -30.507812 15.890625 -28.421875 17.109375 -26.953125 C 18.328125 -25.484375 20.21875 -24.75 22.78125 -24.75 L 22.78125 -19.46875 C 20.21875 -19.46875 18.328125 -18.71875 17.109375 -17.21875 C 15.890625 -15.726562 15.28125 -13.644531 15.28125 -10.96875 L 15.28125 -3.625 C 15.28125 0.4375 14.289062 3.898438 12.3125 6.765625 C 10.34375 9.640625 7.039062 11.738281 2.40625 13.0625 Z M 0.96875 8.828125 "/></g></g></g><g fill="#951abe" fill-opacity="1"><g transform="translate(287.682145, 432.77749)"><g><path d="M 20.90625 0.75 C 15.5 0.75 11.203125 -1.046875 8.015625 -4.640625 C 4.828125 -8.242188 3.234375 -12.914062 3.234375 -18.65625 L 3.234375 -20.234375 C 3.234375 -25.753906 4.875 -30.347656 8.15625 -34.015625 C 11.445312 -37.691406 15.335938 -39.53125 19.828125 -39.53125 C 25.046875 -39.53125 29 -37.953125 31.6875 -34.796875 C 34.375 -31.640625 35.71875 -27.429688 35.71875 -22.171875 L 35.71875 -17.75 L 10.546875 -17.75 L 10.4375 -17.578125 C 10.507812 -13.847656 11.453125 -10.78125 13.265625 -8.375 C 15.085938 -5.96875 17.632812 -4.765625 20.90625 -4.765625 C 23.300781 -4.765625 25.398438 -5.101562 27.203125 -5.78125 C 29.003906 -6.46875 30.566406 -7.410156 31.890625 -8.609375 L 34.640625 -4.015625 C 33.253906 -2.679688 31.421875 -1.550781 29.140625 -0.625 C 26.859375 0.289062 24.113281 0.75 20.90625 0.75 Z M 19.828125 -33.96875 C 17.460938 -33.96875 15.441406 -32.96875 13.765625 -30.96875 C 12.097656 -28.96875 11.070312 -26.460938 10.6875 -23.453125 L 10.765625 -23.28125 L 28.65625 -23.28125 L 28.65625 -24.203125 C 28.65625 -26.984375 27.910156 -29.304688 26.421875 -31.171875 C 24.941406 -33.035156 22.742188 -33.96875 19.828125 -33.96875 Z M 19.828125 -33.96875 "/></g></g></g><g fill="#951abe" fill-opacity="1"><g transform="translate(327.165944, 432.77749)"><g><path d="M 2.21875 -51.390625 L 2.21875 -55.953125 L 15.140625 -55.953125 L 15.140625 -5.515625 L 20.984375 -4.515625 L 20.984375 0 L 2.21875 0 L 2.21875 -4.515625 L 8.0625 -5.515625 L 8.0625 -50.390625 Z M 2.21875 -51.390625 "/></g></g></g><g fill="#951abe" fill-opacity="1"><g transform="translate(350.29678, 432.77749)"><g><path d="M 32.890625 -26.609375 L 27.578125 -26.609375 L 26.4375 -31.28125 C 25.570312 -32.09375 24.488281 -32.742188 23.1875 -33.234375 C 21.882812 -33.722656 20.40625 -33.96875 18.75 -33.96875 C 16.238281 -33.96875 14.375 -33.414062 13.15625 -32.3125 C 11.9375 -31.21875 11.328125 -29.890625 11.328125 -28.328125 C 11.328125 -26.796875 11.863281 -25.585938 12.9375 -24.703125 C 14.019531 -23.828125 16.210938 -23.039062 19.515625 -22.34375 C 24.410156 -21.289062 28.050781 -19.859375 30.4375 -18.046875 C 32.832031 -16.242188 34.03125 -13.828125 34.03125 -10.796875 C 34.03125 -7.347656 32.640625 -4.5625 29.859375 -2.4375 C 27.078125 -0.3125 23.4375 0.75 18.9375 0.75 C 16 0.75 13.359375 0.410156 11.015625 -0.265625 C 8.671875 -0.953125 6.578125 -1.941406 4.734375 -3.234375 L 4.703125 -12.09375 L 10 -12.09375 L 11.328125 -6.890625 C 12.140625 -6.148438 13.242188 -5.609375 14.640625 -5.265625 C 16.046875 -4.929688 17.476562 -4.765625 18.9375 -4.765625 C 21.445312 -4.765625 23.410156 -5.269531 24.828125 -6.28125 C 26.253906 -7.300781 26.96875 -8.640625 26.96875 -10.296875 C 26.96875 -11.847656 26.375 -13.125 25.1875 -14.125 C 24.007812 -15.132812 21.769531 -16.007812 18.46875 -16.75 C 13.757812 -17.78125 10.207031 -19.175781 7.8125 -20.9375 C 5.425781 -22.707031 4.234375 -25.101562 4.234375 -28.125 C 4.234375 -31.28125 5.578125 -33.96875 8.265625 -36.1875 C 10.953125 -38.414062 14.445312 -39.53125 18.75 -39.53125 C 21.695312 -39.53125 24.34375 -39.144531 26.6875 -38.375 C 29.03125 -37.613281 30.976562 -36.550781 32.53125 -35.1875 Z M 32.890625 -26.609375 "/></g></g></g><g fill="#951abe" fill-opacity="1"><g transform="translate(387.736459, 432.77749)"><g><path d="M 20.90625 0.75 C 15.5 0.75 11.203125 -1.046875 8.015625 -4.640625 C 4.828125 -8.242188 3.234375 -12.914062 3.234375 -18.65625 L 3.234375 -20.234375 C 3.234375 -25.753906 4.875 -30.347656 8.15625 -34.015625 C 11.445312 -37.691406 15.335938 -39.53125 19.828125 -39.53125 C 25.046875 -39.53125 29 -37.953125 31.6875 -34.796875 C 34.375 -31.640625 35.71875 -27.429688 35.71875 -22.171875 L 35.71875 -17.75 L 10.546875 -17.75 L 10.4375 -17.578125 C 10.507812 -13.847656 11.453125 -10.78125 13.265625 -8.375 C 15.085938 -5.96875 17.632812 -4.765625 20.90625 -4.765625 C 23.300781 -4.765625 25.398438 -5.101562 27.203125 -5.78125 C 29.003906 -6.46875 30.566406 -7.410156 31.890625 -8.609375 L 34.640625 -4.015625 C 33.253906 -2.679688 31.421875 -1.550781 29.140625 -0.625 C 26.859375 0.289062 24.113281 0.75 20.90625 0.75 Z M 19.828125 -33.96875 C 17.460938 -33.96875 15.441406 -32.96875 13.765625 -30.96875 C 12.097656 -28.96875 11.070312 -26.460938 10.6875 -23.453125 L 10.765625 -23.28125 L 28.65625 -23.28125 L 28.65625 -24.203125 C 28.65625 -26.984375 27.910156 -29.304688 26.421875 -31.171875 C 24.941406 -33.035156 22.742188 -33.96875 19.828125 -33.96875 Z M 19.828125 -33.96875 "/></g></g></g><g fill="#ffd230" fill-opacity="1"><g transform="translate(471.039125, 432.77749)"><g><path d="M 22.625 13.0625 C 17.96875 11.738281 14.648438 9.640625 12.671875 6.765625 C 10.703125 3.898438 9.71875 0.4375 9.71875 -3.625 L 9.71875 -10.96875 C 9.71875 -13.644531 9.109375 -15.726562 7.890625 -17.21875 C 6.671875 -18.71875 4.796875 -19.46875 2.265625 -19.46875 L 2.265625 -24.75 C 4.796875 -24.75 6.671875 -25.484375 7.890625 -26.953125 C 9.109375 -28.421875 9.71875 -30.507812 9.71875 -33.21875 L 9.71875 -40.59375 C 9.71875 -44.6875 10.703125 -48.160156 12.671875 -51.015625 C 14.648438 -53.878906 17.96875 -55.96875 22.625 -57.28125 L 24.0625 -53.078125 C 21.4375 -52.242188 19.566406 -50.742188 18.453125 -48.578125 C 17.335938 -46.410156 16.78125 -43.75 16.78125 -40.59375 L 16.78125 -33.21875 C 16.78125 -30.707031 16.273438 -28.492188 15.265625 -26.578125 C 14.265625 -24.660156 12.75 -23.164062 10.71875 -22.09375 C 12.75 -20.988281 14.265625 -19.472656 15.265625 -17.546875 C 16.273438 -15.628906 16.78125 -13.4375 16.78125 -10.96875 L 16.78125 -3.625 C 16.78125 -0.46875 17.335938 2.175781 18.453125 4.3125 C 19.566406 6.457031 21.4375 7.960938 24.0625 8.828125 Z M 22.625 13.0625 "/></g></g></g><g fill="#ffd230" fill-opacity="1"><g transform="translate(218.703289, 680.426224)"><g><path d="M 0.96875 8.828125 C 3.550781 7.960938 5.40625 6.457031 6.53125 4.3125 C 7.65625 2.175781 8.21875 -0.46875 8.21875 -3.625 L 8.21875 -10.96875 C 8.21875 -13.53125 8.753906 -15.765625 9.828125 -17.671875 C 10.898438 -19.585938 12.5625 -21.0625 14.8125 -22.09375 C 12.5625 -23.070312 10.898438 -24.515625 9.828125 -26.421875 C 8.753906 -28.335938 8.21875 -30.601562 8.21875 -33.21875 L 8.21875 -40.59375 C 8.21875 -43.75 7.65625 -46.410156 6.53125 -48.578125 C 5.40625 -50.742188 3.550781 -52.242188 0.96875 -53.078125 L 2.40625 -57.28125 C 7.039062 -55.96875 10.34375 -53.878906 12.3125 -51.015625 C 14.289062 -48.160156 15.28125 -44.6875 15.28125 -40.59375 L 15.28125 -33.21875 C 15.28125 -30.507812 15.890625 -28.421875 17.109375 -26.953125 C 18.328125 -25.484375 20.21875 -24.75 22.78125 -24.75 L 22.78125 -19.46875 C 20.21875 -19.46875 18.328125 -18.71875 17.109375 -17.21875 C 15.890625 -15.726562 15.28125 -13.644531 15.28125 -10.96875 L 15.28125 -3.625 C 15.28125 0.4375 14.289062 3.898438 12.3125 6.765625 C 10.34375 9.640625 7.039062 11.738281 2.40625 13.0625 Z M 0.96875 8.828125 "/></g></g></g><g fill="#008000" fill-opacity="1"><g transform="translate(271.193898, 294.433834)"><g><path d="M 4.078125 3.046875 L 0 3.046875 L 14.84375 -35.546875 L 18.890625 -35.546875 Z M 4.078125 3.046875 "/></g></g></g><g fill="#008000" fill-opacity="1"><g transform="translate(291.307942, 294.433834)"><g><path d="M 4.078125 3.046875 L 0 3.046875 L 14.84375 -35.546875 L 18.890625 -35.546875 Z M 4.078125 3.046875 "/></g></g></g><g fill="#008000" fill-opacity="1"><g transform="translate(311.421985, 294.433834)"><g/></g></g><g fill="#008000" fill-opacity="1"><g transform="translate(323.846801, 294.433834)"><g><path d="M 29.296875 -24.640625 L 25.90625 -24.640625 L 25 -29.65625 C 24.21875 -30.425781 23.253906 -31.054688 22.109375 -31.546875 C 20.972656 -32.035156 19.617188 -32.28125 18.046875 -32.28125 C 14.347656 -32.28125 11.503906 -30.941406 9.515625 -28.265625 C 7.535156 -25.585938 6.546875 -22.1875 6.546875 -18.0625 L 6.546875 -17.5 C 6.546875 -13.382812 7.515625 -9.976562 9.453125 -7.28125 C 11.398438 -4.59375 14.097656 -3.25 17.546875 -3.25 C 19.160156 -3.25 20.625 -3.5 21.9375 -4 C 23.257812 -4.507812 24.28125 -5.128906 25 -5.859375 L 25.90625 -10.890625 L 29.296875 -10.890625 L 29.296875 -4.5625 C 28.273438 -3.25 26.738281 -2.070312 24.6875 -1.03125 C 22.632812 0 20.253906 0.515625 17.546875 0.515625 C 12.929688 0.515625 9.140625 -1.191406 6.171875 -4.609375 C 3.210938 -8.023438 1.734375 -12.320312 1.734375 -17.5 L 1.734375 -18.015625 C 1.734375 -23.222656 3.1875 -27.53125 6.09375 -30.9375 C 9.007812 -34.351562 12.828125 -36.0625 17.546875 -36.0625 C 20.253906 -36.0625 22.632812 -35.535156 24.6875 -34.484375 C 26.738281 -33.429688 28.273438 -32.253906 29.296875 -30.953125 Z M 29.296875 -24.640625 "/></g></g></g><g fill="#008000" fill-opacity="1"><g transform="translate(356.092736, 294.433834)"><g><path d="M 2.203125 -13.453125 C 2.203125 -17.359375 3.257812 -20.578125 5.375 -23.109375 C 7.488281 -25.640625 10.359375 -26.90625 13.984375 -26.90625 C 17.628906 -26.90625 20.515625 -25.644531 22.640625 -23.125 C 24.765625 -20.601562 25.828125 -17.378906 25.828125 -13.453125 L 25.828125 -12.921875 C 25.828125 -8.972656 24.769531 -5.742188 22.65625 -3.234375 C 20.539062 -0.734375 17.664062 0.515625 14.03125 0.515625 C 10.375 0.515625 7.488281 -0.738281 5.375 -3.25 C 3.257812 -5.769531 2.203125 -8.992188 2.203125 -12.921875 Z M 7 -12.921875 C 7 -10.117188 7.585938 -7.804688 8.765625 -5.984375 C 9.953125 -4.160156 11.707031 -3.25 14.03125 -3.25 C 16.3125 -3.25 18.046875 -4.160156 19.234375 -5.984375 C 20.421875 -7.804688 21.015625 -10.117188 21.015625 -12.921875 L 21.015625 -13.453125 C 21.015625 -16.222656 20.421875 -18.523438 19.234375 -20.359375 C 18.046875 -22.203125 16.296875 -23.125 13.984375 -23.125 C 11.671875 -23.125 9.925781 -22.203125 8.75 -20.359375 C 7.582031 -18.523438 7 -16.222656 7 -13.453125 Z M 7 -12.921875 "/></g></g></g><g fill="#008000" fill-opacity="1"><g transform="translate(384.14011, 294.433834)"><g><path d="M 19.96875 -3.15625 C 19.101562 -1.945312 18.046875 -1.03125 16.796875 -0.40625 C 15.554688 0.207031 14.113281 0.515625 12.46875 0.515625 C 9.25 0.515625 6.734375 -0.648438 4.921875 -2.984375 C 3.109375 -5.328125 2.203125 -8.398438 2.203125 -12.203125 L 2.203125 -12.71875 C 2.203125 -16.96875 3.109375 -20.394531 4.921875 -23 C 6.734375 -25.601562 9.269531 -26.90625 12.53125 -26.90625 C 14.09375 -26.90625 15.46875 -26.613281 16.65625 -26.03125 C 17.851562 -25.457031 18.878906 -24.625 19.734375 -23.53125 L 19.734375 -34.296875 L 15.75 -34.984375 L 15.75 -38.09375 L 24.53125 -38.09375 L 24.53125 -3.765625 L 28.515625 -3.078125 L 28.515625 0 L 20.359375 0 Z M 7 -12.203125 C 7 -9.554688 7.546875 -7.425781 8.640625 -5.8125 C 9.734375 -4.195312 11.421875 -3.390625 13.703125 -3.390625 C 15.128906 -3.390625 16.332031 -3.710938 17.3125 -4.359375 C 18.289062 -5.015625 19.097656 -5.9375 19.734375 -7.125 L 19.734375 -19.390625 C 19.109375 -20.492188 18.300781 -21.367188 17.3125 -22.015625 C 16.320312 -22.671875 15.132812 -23 13.75 -23 C 11.445312 -23 9.742188 -22.046875 8.640625 -20.140625 C 7.546875 -18.234375 7 -15.757812 7 -12.71875 Z M 7 -12.203125 "/></g></g></g><g fill="#008000" fill-opacity="1"><g transform="translate(414.140303, 294.433834)"><g><path d="M 14.234375 0.515625 C 10.554688 0.515625 7.628906 -0.707031 5.453125 -3.15625 C 3.285156 -5.613281 2.203125 -8.796875 2.203125 -12.703125 L 2.203125 -13.765625 C 2.203125 -17.523438 3.316406 -20.65625 5.546875 -23.15625 C 7.785156 -25.65625 10.4375 -26.90625 13.5 -26.90625 C 17.050781 -26.90625 19.738281 -25.828125 21.5625 -23.671875 C 23.394531 -21.523438 24.3125 -18.664062 24.3125 -15.09375 L 24.3125 -12.078125 L 7.171875 -12.078125 L 7.109375 -11.96875 C 7.148438 -9.425781 7.789062 -7.335938 9.03125 -5.703125 C 10.269531 -4.066406 12.003906 -3.25 14.234375 -3.25 C 15.859375 -3.25 17.285156 -3.476562 18.515625 -3.9375 C 19.742188 -4.40625 20.804688 -5.046875 21.703125 -5.859375 L 23.578125 -2.734375 C 22.640625 -1.828125 21.390625 -1.054688 19.828125 -0.421875 C 18.273438 0.203125 16.410156 0.515625 14.234375 0.515625 Z M 13.5 -23.125 C 11.882812 -23.125 10.507812 -22.441406 9.375 -21.078125 C 8.238281 -19.722656 7.539062 -18.019531 7.28125 -15.96875 L 7.328125 -15.84375 L 19.5 -15.84375 L 19.5 -16.484375 C 19.5 -18.367188 18.992188 -19.945312 17.984375 -21.21875 C 16.984375 -22.488281 15.488281 -23.125 13.5 -23.125 Z M 13.5 -23.125 "/></g></g></g><g fill="#008000" fill-opacity="1"><g transform="translate(441.015984, 294.433834)"><g/></g></g><g fill="#008000" fill-opacity="1"><g transform="translate(453.4408, 294.433834)"><g><path d="M 10.578125 -32.78125 L 10.578125 -26.421875 L 15.578125 -26.421875 L 15.578125 -22.859375 L 10.578125 -22.859375 L 10.578125 -6.8125 C 10.578125 -5.570312 10.832031 -4.695312 11.34375 -4.1875 C 11.851562 -3.6875 12.53125 -3.4375 13.375 -3.4375 C 13.800781 -3.4375 14.273438 -3.472656 14.796875 -3.546875 C 15.328125 -3.617188 15.773438 -3.695312 16.140625 -3.78125 L 16.796875 -0.484375 C 16.335938 -0.191406 15.671875 0.046875 14.796875 0.234375 C 13.921875 0.421875 13.039062 0.515625 12.15625 0.515625 C 10.207031 0.515625 8.65625 -0.0703125 7.5 -1.25 C 6.34375 -2.4375 5.765625 -4.289062 5.765625 -6.8125 L 5.765625 -22.859375 L 1.59375 -22.859375 L 1.59375 -26.421875 L 5.765625 -26.421875 L 5.765625 -32.78125 Z M 10.578125 -32.78125 "/></g></g></g><g fill="#008000" fill-opacity="1"><g transform="translate(471.748485, 294.433834)"><g><path d="M 2.203125 -13.453125 C 2.203125 -17.359375 3.257812 -20.578125 5.375 -23.109375 C 7.488281 -25.640625 10.359375 -26.90625 13.984375 -26.90625 C 17.628906 -26.90625 20.515625 -25.644531 22.640625 -23.125 C 24.765625 -20.601562 25.828125 -17.378906 25.828125 -13.453125 L 25.828125 -12.921875 C 25.828125 -8.972656 24.769531 -5.742188 22.65625 -3.234375 C 20.539062 -0.734375 17.664062 0.515625 14.03125 0.515625 C 10.375 0.515625 7.488281 -0.738281 5.375 -3.25 C 3.257812 -5.769531 2.203125 -8.992188 2.203125 -12.921875 Z M 7 -12.921875 C 7 -10.117188 7.585938 -7.804688 8.765625 -5.984375 C 9.953125 -4.160156 11.707031 -3.25 14.03125 -3.25 C 16.3125 -3.25 18.046875 -4.160156 19.234375 -5.984375 C 20.421875 -7.804688 21.015625 -10.117188 21.015625 -12.921875 L 21.015625 -13.453125 C 21.015625 -16.222656 20.421875 -18.523438 19.234375 -20.359375 C 18.046875 -22.203125 16.296875 -23.125 13.984375 -23.125 C 11.671875 -23.125 9.925781 -22.203125 8.75 -20.359375 C 7.582031 -18.523438 7 -16.222656 7 -13.453125 Z M 7 -12.921875 "/></g></g></g><g fill="#008000" fill-opacity="1"><g transform="translate(499.795846, 294.433834)"><g/></g></g><g fill="#008000" fill-opacity="1"><g transform="translate(512.22065, 294.433834)"><g><path d="M 14.234375 0.515625 C 10.554688 0.515625 7.628906 -0.707031 5.453125 -3.15625 C 3.285156 -5.613281 2.203125 -8.796875 2.203125 -12.703125 L 2.203125 -13.765625 C 2.203125 -17.523438 3.316406 -20.65625 5.546875 -23.15625 C 7.785156 -25.65625 10.4375 -26.90625 13.5 -26.90625 C 17.050781 -26.90625 19.738281 -25.828125 21.5625 -23.671875 C 23.394531 -21.523438 24.3125 -18.664062 24.3125 -15.09375 L 24.3125 -12.078125 L 7.171875 -12.078125 L 7.109375 -11.96875 C 7.148438 -9.425781 7.789062 -7.335938 9.03125 -5.703125 C 10.269531 -4.066406 12.003906 -3.25 14.234375 -3.25 C 15.859375 -3.25 17.285156 -3.476562 18.515625 -3.9375 C 19.742188 -4.40625 20.804688 -5.046875 21.703125 -5.859375 L 23.578125 -2.734375 C 22.640625 -1.828125 21.390625 -1.054688 19.828125 -0.421875 C 18.273438 0.203125 16.410156 0.515625 14.234375 0.515625 Z M 13.5 -23.125 C 11.882812 -23.125 10.507812 -22.441406 9.375 -21.078125 C 8.238281 -19.722656 7.539062 -18.019531 7.28125 -15.96875 L 7.328125 -15.84375 L 19.5 -15.84375 L 19.5 -16.484375 C 19.5 -18.367188 18.992188 -19.945312 17.984375 -21.21875 C 16.984375 -22.488281 15.488281 -23.125 13.5 -23.125 Z M 13.5 -23.125 "/></g></g></g><g fill="#008000" fill-opacity="1"><g transform="translate(539.096321, 294.433834)"><g><path d="M 1.515625 -3.078125 L 4.34375 -3.640625 L 12.140625 -13.359375 L 4.59375 -22.75 L 1.765625 -23.3125 L 1.765625 -26.421875 L 12.109375 -26.421875 L 12.109375 -23.3125 L 9.71875 -23.015625 L 14.65625 -16.671875 L 19.609375 -23.046875 L 17.234375 -23.3125 L 17.234375 -26.421875 L 27.65625 -26.421875 L 27.65625 -23.3125 L 24.828125 -22.75 L 17.28125 -13.359375 L 25.046875 -3.640625 L 27.90625 -3.078125 L 27.90625 0 L 17.546875 0 L 17.546875 -3.078125 L 19.890625 -3.34375 L 14.71875 -9.984375 L 9.546875 -3.34375 L 11.921875 -3.078125 L 11.921875 0 L 1.515625 0 Z M 1.515625 -3.078125 "/></g></g></g><g fill="#008000" fill-opacity="1"><g transform="translate(568.193335, 294.433834)"><g><path d="M 14.234375 0.515625 C 10.554688 0.515625 7.628906 -0.707031 5.453125 -3.15625 C 3.285156 -5.613281 2.203125 -8.796875 2.203125 -12.703125 L 2.203125 -13.765625 C 2.203125 -17.523438 3.316406 -20.65625 5.546875 -23.15625 C 7.785156 -25.65625 10.4375 -26.90625 13.5 -26.90625 C 17.050781 -26.90625 19.738281 -25.828125 21.5625 -23.671875 C 23.394531 -21.523438 24.3125 -18.664062 24.3125 -15.09375 L 24.3125 -12.078125 L 7.171875 -12.078125 L 7.109375 -11.96875 C 7.148438 -9.425781 7.789062 -7.335938 9.03125 -5.703125 C 10.269531 -4.066406 12.003906 -3.25 14.234375 -3.25 C 15.859375 -3.25 17.285156 -3.476562 18.515625 -3.9375 C 19.742188 -4.40625 20.804688 -5.046875 21.703125 -5.859375 L 23.578125 -2.734375 C 22.640625 -1.828125 21.390625 -1.054688 19.828125 -0.421875 C 18.273438 0.203125 16.410156 0.515625 14.234375 0.515625 Z M 13.5 -23.125 C 11.882812 -23.125 10.507812 -22.441406 9.375 -21.078125 C 8.238281 -19.722656 7.539062 -18.019531 7.28125 -15.96875 L 7.328125 -15.84375 L 19.5 -15.84375 L 19.5 -16.484375 C 19.5 -18.367188 18.992188 -19.945312 17.984375 -21.21875 C 16.984375 -22.488281 15.488281 -23.125 13.5 -23.125 Z M 13.5 -23.125 "/></g></g></g><g fill="#008000" fill-opacity="1"><g transform="translate(595.069006, 294.433834)"><g><path d="M 14.03125 -3.25 C 15.632812 -3.25 17.039062 -3.738281 18.25 -4.71875 C 19.457031 -5.707031 20.0625 -6.914062 20.0625 -8.34375 L 24.390625 -8.34375 L 24.4375 -8.203125 C 24.519531 -5.921875 23.503906 -3.894531 21.390625 -2.125 C 19.285156 -0.363281 16.832031 0.515625 14.03125 0.515625 C 10.195312 0.515625 7.265625 -0.734375 5.234375 -3.234375 C 3.210938 -5.742188 2.203125 -8.898438 2.203125 -12.703125 L 2.203125 -13.71875 C 2.203125 -17.476562 3.21875 -20.613281 5.25 -23.125 C 7.28125 -25.644531 10.207031 -26.90625 14.03125 -26.90625 C 16.15625 -26.90625 18.054688 -26.554688 19.734375 -25.859375 C 21.421875 -25.160156 22.816406 -24.195312 23.921875 -22.96875 L 24.140625 -17.109375 L 20.3125 -17.109375 L 19.265625 -21.265625 C 18.691406 -21.816406 17.957031 -22.265625 17.0625 -22.609375 C 16.164062 -22.953125 15.15625 -23.125 14.03125 -23.125 C 11.507812 -23.125 9.707031 -22.210938 8.625 -20.390625 C 7.539062 -18.578125 7 -16.351562 7 -13.71875 L 7 -12.703125 C 7 -9.992188 7.535156 -7.738281 8.609375 -5.9375 C 9.691406 -4.144531 11.5 -3.25 14.03125 -3.25 Z M 14.03125 -3.25 "/></g></g></g><g fill="#008000" fill-opacity="1"><g transform="translate(622.017918, 294.433834)"><g><path d="M 21.0625 -3.90625 C 20.238281 -2.488281 19.171875 -1.394531 17.859375 -0.625 C 16.546875 0.132812 15.035156 0.515625 13.328125 0.515625 C 10.460938 0.515625 8.222656 -0.398438 6.609375 -2.234375 C 5.003906 -4.078125 4.203125 -6.945312 4.203125 -10.84375 L 4.203125 -22.625 L 1.171875 -23.3125 L 1.171875 -26.421875 L 9.015625 -26.421875 L 9.015625 -10.796875 C 9.015625 -7.972656 9.425781 -6.03125 10.25 -4.96875 C 11.082031 -3.914062 12.378906 -3.390625 14.140625 -3.390625 C 15.847656 -3.390625 17.257812 -3.734375 18.375 -4.421875 C 19.488281 -5.117188 20.332031 -6.101562 20.90625 -7.375 L 20.90625 -22.625 L 17.359375 -23.3125 L 17.359375 -26.421875 L 25.703125 -26.421875 L 25.703125 -3.765625 L 28.734375 -3.078125 L 28.734375 0 L 21.390625 0 Z M 21.0625 -3.90625 "/></g></g></g><g fill="#008000" fill-opacity="1"><g transform="translate(652.384264, 294.433834)"><g><path d="M 10.578125 -32.78125 L 10.578125 -26.421875 L 15.578125 -26.421875 L 15.578125 -22.859375 L 10.578125 -22.859375 L 10.578125 -6.8125 C 10.578125 -5.570312 10.832031 -4.695312 11.34375 -4.1875 C 11.851562 -3.6875 12.53125 -3.4375 13.375 -3.4375 C 13.800781 -3.4375 14.273438 -3.472656 14.796875 -3.546875 C 15.328125 -3.617188 15.773438 -3.695312 16.140625 -3.78125 L 16.796875 -0.484375 C 16.335938 -0.191406 15.671875 0.046875 14.796875 0.234375 C 13.921875 0.421875 13.039062 0.515625 12.15625 0.515625 C 10.207031 0.515625 8.65625 -0.0703125 7.5 -1.25 C 6.34375 -2.4375 5.765625 -4.289062 5.765625 -6.8125 L 5.765625 -22.859375 L 1.59375 -22.859375 L 1.59375 -26.421875 L 5.765625 -26.421875 L 5.765625 -32.78125 Z M 10.578125 -32.78125 "/></g></g></g><g fill="#008000" fill-opacity="1"><g transform="translate(670.691926, 294.433834)"><g><path d="M 14.234375 0.515625 C 10.554688 0.515625 7.628906 -0.707031 5.453125 -3.15625 C 3.285156 -5.613281 2.203125 -8.796875 2.203125 -12.703125 L 2.203125 -13.765625 C 2.203125 -17.523438 3.316406 -20.65625 5.546875 -23.15625 C 7.785156 -25.65625 10.4375 -26.90625 13.5 -26.90625 C 17.050781 -26.90625 19.738281 -25.828125 21.5625 -23.671875 C 23.394531 -21.523438 24.3125 -18.664062 24.3125 -15.09375 L 24.3125 -12.078125 L 7.171875 -12.078125 L 7.109375 -11.96875 C 7.148438 -9.425781 7.789062 -7.335938 9.03125 -5.703125 C 10.269531 -4.066406 12.003906 -3.25 14.234375 -3.25 C 15.859375 -3.25 17.285156 -3.476562 18.515625 -3.9375 C 19.742188 -4.40625 20.804688 -5.046875 21.703125 -5.859375 L 23.578125 -2.734375 C 22.640625 -1.828125 21.390625 -1.054688 19.828125 -0.421875 C 18.273438 0.203125 16.410156 0.515625 14.234375 0.515625 Z M 13.5 -23.125 C 11.882812 -23.125 10.507812 -22.441406 9.375 -21.078125 C 8.238281 -19.722656 7.539062 -18.019531 7.28125 -15.96875 L 7.328125 -15.84375 L 19.5 -15.84375 L 19.5 -16.484375 C 19.5 -18.367188 18.992188 -19.945312 17.984375 -21.21875 C 16.984375 -22.488281 15.488281 -23.125 13.5 -23.125 Z M 13.5 -23.125 "/></g></g></g><g fill="#008000" fill-opacity="1"><g transform="translate(697.567597, 294.433834)"><g/></g></g><g fill="#008000" fill-opacity="1"><g transform="translate(709.992401, 294.433834)"><g><path d="M 2.171875 -3.078125 L 6.15625 -3.765625 L 6.15625 -22.625 L 2.171875 -23.3125 L 2.171875 -26.421875 L 10.96875 -26.421875 L 10.96875 -3.765625 L 14.9375 -3.078125 L 14.9375 0 L 2.171875 0 Z M 10.96875 -33.171875 L 6.15625 -33.171875 L 6.15625 -38.09375 L 10.96875 -38.09375 Z M 10.96875 -33.171875 "/></g></g></g><g fill="#008000" fill-opacity="1"><g transform="translate(726.420485, 294.433834)"><g><path d="M 1.703125 -22.859375 L 1.703125 -26.421875 L 5.828125 -26.421875 L 5.828125 -29.765625 C 5.828125 -32.578125 6.5625 -34.75 8.03125 -36.28125 C 9.507812 -37.820312 11.566406 -38.59375 14.203125 -38.59375 C 14.765625 -38.59375 15.320312 -38.546875 15.875 -38.453125 C 16.4375 -38.367188 17.0625 -38.25 17.75 -38.09375 L 17.15625 -34.421875 C 16.863281 -34.484375 16.507812 -34.539062 16.09375 -34.59375 C 15.6875 -34.644531 15.257812 -34.671875 14.8125 -34.671875 C 13.40625 -34.671875 12.359375 -34.25 11.671875 -33.40625 C 10.984375 -32.570312 10.640625 -31.359375 10.640625 -29.765625 L 10.640625 -26.421875 L 16.15625 -26.421875 L 16.15625 -22.859375 L 10.640625 -22.859375 L 10.640625 -3.765625 L 14.625 -3.078125 L 14.625 0 L 1.859375 0 L 1.859375 -3.078125 L 5.828125 -3.765625 L 5.828125 -22.859375 Z M 1.703125 -22.859375 "/></g></g></g><g fill="#008000" fill-opacity="1"><g transform="translate(744.191145, 294.433834)"><g/></g></g><g fill="#008000" fill-opacity="1"><g transform="translate(756.615949, 294.433834)"><g><path d="M 10.578125 -32.78125 L 10.578125 -26.421875 L 15.578125 -26.421875 L 15.578125 -22.859375 L 10.578125 -22.859375 L 10.578125 -6.8125 C 10.578125 -5.570312 10.832031 -4.695312 11.34375 -4.1875 C 11.851562 -3.6875 12.53125 -3.4375 13.375 -3.4375 C 13.800781 -3.4375 14.273438 -3.472656 14.796875 -3.546875 C 15.328125 -3.617188 15.773438 -3.695312 16.140625 -3.78125 L 16.796875 -0.484375 C 16.335938 -0.191406 15.671875 0.046875 14.796875 0.234375 C 13.921875 0.421875 13.039062 0.515625 12.15625 0.515625 C 10.207031 0.515625 8.65625 -0.0703125 7.5 -1.25 C 6.34375 -2.4375 5.765625 -4.289062 5.765625 -6.8125 L 5.765625 -22.859375 L 1.59375 -22.859375 L 1.59375 -26.421875 L 5.765625 -26.421875 L 5.765625 -32.78125 Z M 10.578125 -32.78125 "/></g></g></g><g fill="#008000" fill-opacity="1"><g transform="translate(774.923611, 294.433834)"><g><path d="M 1.515625 -3.078125 L 5.5 -3.765625 L 5.5 -34.296875 L 1.515625 -34.984375 L 1.515625 -38.09375 L 10.296875 -38.09375 L 10.296875 -22.90625 C 11.210938 -24.175781 12.328125 -25.160156 13.640625 -25.859375 C 14.960938 -26.554688 16.429688 -26.90625 18.046875 -26.90625 C 20.878906 -26.90625 23.078125 -26.054688 24.640625 -24.359375 C 26.203125 -22.671875 26.984375 -20.066406 26.984375 -16.546875 L 26.984375 -3.765625 L 30.953125 -3.078125 L 30.953125 0 L 18.1875 0 L 18.1875 -3.078125 L 22.171875 -3.765625 L 22.171875 -16.609375 C 22.171875 -18.785156 21.703125 -20.394531 20.765625 -21.4375 C 19.828125 -22.476562 18.429688 -23 16.578125 -23 C 15.253906 -23 14.050781 -22.6875 12.96875 -22.0625 C 11.894531 -21.4375 11.003906 -20.582031 10.296875 -19.5 L 10.296875 -3.765625 L 14.28125 -3.078125 L 14.28125 0 L 1.515625 0 Z M 1.515625 -3.078125 "/></g></g></g><g fill="#008000" fill-opacity="1"><g transform="translate(807.193934, 294.433834)"><g><path d="M 14.234375 0.515625 C 10.554688 0.515625 7.628906 -0.707031 5.453125 -3.15625 C 3.285156 -5.613281 2.203125 -8.796875 2.203125 -12.703125 L 2.203125 -13.765625 C 2.203125 -17.523438 3.316406 -20.65625 5.546875 -23.15625 C 7.785156 -25.65625 10.4375 -26.90625 13.5 -26.90625 C 17.050781 -26.90625 19.738281 -25.828125 21.5625 -23.671875 C 23.394531 -21.523438 24.3125 -18.664062 24.3125 -15.09375 L 24.3125 -12.078125 L 7.171875 -12.078125 L 7.109375 -11.96875 C 7.148438 -9.425781 7.789062 -7.335938 9.03125 -5.703125 C 10.269531 -4.066406 12.003906 -3.25 14.234375 -3.25 C 15.859375 -3.25 17.285156 -3.476562 18.515625 -3.9375 C 19.742188 -4.40625 20.804688 -5.046875 21.703125 -5.859375 L 23.578125 -2.734375 C 22.640625 -1.828125 21.390625 -1.054688 19.828125 -0.421875 C 18.273438 0.203125 16.410156 0.515625 14.234375 0.515625 Z M 13.5 -23.125 C 11.882812 -23.125 10.507812 -22.441406 9.375 -21.078125 C 8.238281 -19.722656 7.539062 -18.019531 7.28125 -15.96875 L 7.328125 -15.84375 L 19.5 -15.84375 L 19.5 -16.484375 C 19.5 -18.367188 18.992188 -19.945312 17.984375 -21.21875 C 16.984375 -22.488281 15.488281 -23.125 13.5 -23.125 Z M 13.5 -23.125 "/></g></g></g><g fill="#008000" fill-opacity="1"><g transform="translate(834.069605, 294.433834)"><g/></g></g><g fill="#008000" fill-opacity="1"><g transform="translate(846.494409, 294.433834)"><g><path d="M 14.03125 -3.25 C 15.632812 -3.25 17.039062 -3.738281 18.25 -4.71875 C 19.457031 -5.707031 20.0625 -6.914062 20.0625 -8.34375 L 24.390625 -8.34375 L 24.4375 -8.203125 C 24.519531 -5.921875 23.503906 -3.894531 21.390625 -2.125 C 19.285156 -0.363281 16.832031 0.515625 14.03125 0.515625 C 10.195312 0.515625 7.265625 -0.734375 5.234375 -3.234375 C 3.210938 -5.742188 2.203125 -8.898438 2.203125 -12.703125 L 2.203125 -13.71875 C 2.203125 -17.476562 3.21875 -20.613281 5.25 -23.125 C 7.28125 -25.644531 10.207031 -26.90625 14.03125 -26.90625 C 16.15625 -26.90625 18.054688 -26.554688 19.734375 -25.859375 C 21.421875 -25.160156 22.816406 -24.195312 23.921875 -22.96875 L 24.140625 -17.109375 L 20.3125 -17.109375 L 19.265625 -21.265625 C 18.691406 -21.816406 17.957031 -22.265625 17.0625 -22.609375 C 16.164062 -22.953125 15.15625 -23.125 14.03125 -23.125 C 11.507812 -23.125 9.707031 -22.210938 8.625 -20.390625 C 7.539062 -18.578125 7 -16.351562 7 -13.71875 L 7 -12.703125 C 7 -9.992188 7.535156 -7.738281 8.609375 -5.9375 C 9.691406 -4.144531 11.5 -3.25 14.03125 -3.25 Z M 14.03125 -3.25 "/></g></g></g><g fill="#008000" fill-opacity="1"><g transform="translate(873.443321, 294.433834)"><g><path d="M 2.203125 -13.453125 C 2.203125 -17.359375 3.257812 -20.578125 5.375 -23.109375 C 7.488281 -25.640625 10.359375 -26.90625 13.984375 -26.90625 C 17.628906 -26.90625 20.515625 -25.644531 22.640625 -23.125 C 24.765625 -20.601562 25.828125 -17.378906 25.828125 -13.453125 L 25.828125 -12.921875 C 25.828125 -8.972656 24.769531 -5.742188 22.65625 -3.234375 C 20.539062 -0.734375 17.664062 0.515625 14.03125 0.515625 C 10.375 0.515625 7.488281 -0.738281 5.375 -3.25 C 3.257812 -5.769531 2.203125 -8.992188 2.203125 -12.921875 Z M 7 -12.921875 C 7 -10.117188 7.585938 -7.804688 8.765625 -5.984375 C 9.953125 -4.160156 11.707031 -3.25 14.03125 -3.25 C 16.3125 -3.25 18.046875 -4.160156 19.234375 -5.984375 C 20.421875 -7.804688 21.015625 -10.117188 21.015625 -12.921875 L 21.015625 -13.453125 C 21.015625 -16.222656 20.421875 -18.523438 19.234375 -20.359375 C 18.046875 -22.203125 16.296875 -23.125 13.984375 -23.125 C 11.671875 -23.125 9.925781 -22.203125 8.75 -20.359375 C 7.582031 -18.523438 7 -16.222656 7 -13.453125 Z M 7 -12.921875 "/></g></g></g><g fill="#008000" fill-opacity="1"><g transform="translate(901.490683, 294.433834)"><g><path d="M 1.46875 -3.078125 L 5.4375 -3.765625 L 5.4375 -22.625 L 1.46875 -23.3125 L 1.46875 -26.421875 L 9.734375 -26.421875 L 10.078125 -22.484375 C 10.960938 -23.878906 12.066406 -24.960938 13.390625 -25.734375 C 14.710938 -26.515625 16.222656 -26.90625 17.921875 -26.90625 C 20.765625 -26.90625 22.96875 -26.070312 24.53125 -24.40625 C 26.09375 -22.738281 26.875 -20.160156 26.875 -16.671875 L 26.875 -3.765625 L 30.859375 -3.078125 L 30.859375 0 L 18.09375 0 L 18.09375 -3.078125 L 22.078125 -3.765625 L 22.078125 -16.578125 C 22.078125 -18.898438 21.613281 -20.550781 20.6875 -21.53125 C 19.769531 -22.507812 18.367188 -23 16.484375 -23 C 15.097656 -23 13.867188 -22.664062 12.796875 -22 C 11.734375 -21.332031 10.882812 -20.421875 10.25 -19.265625 L 10.25 -3.765625 L 14.234375 -3.078125 L 14.234375 0 L 1.46875 0 Z M 1.46875 -3.078125 "/></g></g></g><g fill="#008000" fill-opacity="1"><g transform="translate(933.663411, 294.433834)"><g><path d="M 19.96875 -3.15625 C 19.101562 -1.945312 18.046875 -1.03125 16.796875 -0.40625 C 15.554688 0.207031 14.113281 0.515625 12.46875 0.515625 C 9.25 0.515625 6.734375 -0.648438 4.921875 -2.984375 C 3.109375 -5.328125 2.203125 -8.398438 2.203125 -12.203125 L 2.203125 -12.71875 C 2.203125 -16.96875 3.109375 -20.394531 4.921875 -23 C 6.734375 -25.601562 9.269531 -26.90625 12.53125 -26.90625 C 14.09375 -26.90625 15.46875 -26.613281 16.65625 -26.03125 C 17.851562 -25.457031 18.878906 -24.625 19.734375 -23.53125 L 19.734375 -34.296875 L 15.75 -34.984375 L 15.75 -38.09375 L 24.53125 -38.09375 L 24.53125 -3.765625 L 28.515625 -3.078125 L 28.515625 0 L 20.359375 0 Z M 7 -12.203125 C 7 -9.554688 7.546875 -7.425781 8.640625 -5.8125 C 9.734375 -4.195312 11.421875 -3.390625 13.703125 -3.390625 C 15.128906 -3.390625 16.332031 -3.710938 17.3125 -4.359375 C 18.289062 -5.015625 19.097656 -5.9375 19.734375 -7.125 L 19.734375 -19.390625 C 19.109375 -20.492188 18.300781 -21.367188 17.3125 -22.015625 C 16.320312 -22.671875 15.132812 -23 13.75 -23 C 11.445312 -23 9.742188 -22.046875 8.640625 -20.140625 C 7.546875 -18.234375 7 -15.757812 7 -12.71875 Z M 7 -12.203125 "/></g></g></g><g fill="#008000" fill-opacity="1"><g transform="translate(963.663592, 294.433834)"><g><path d="M 2.171875 -3.078125 L 6.15625 -3.765625 L 6.15625 -22.625 L 2.171875 -23.3125 L 2.171875 -26.421875 L 10.96875 -26.421875 L 10.96875 -3.765625 L 14.9375 -3.078125 L 14.9375 0 L 2.171875 0 Z M 10.96875 -33.171875 L 6.15625 -33.171875 L 6.15625 -38.09375 L 10.96875 -38.09375 Z M 10.96875 -33.171875 "/></g></g></g><g fill="#008000" fill-opacity="1"><g transform="translate(980.091677, 294.433834)"><g><path d="M 10.578125 -32.78125 L 10.578125 -26.421875 L 15.578125 -26.421875 L 15.578125 -22.859375 L 10.578125 -22.859375 L 10.578125 -6.8125 C 10.578125 -5.570312 10.832031 -4.695312 11.34375 -4.1875 C 11.851562 -3.6875 12.53125 -3.4375 13.375 -3.4375 C 13.800781 -3.4375 14.273438 -3.472656 14.796875 -3.546875 C 15.328125 -3.617188 15.773438 -3.695312 16.140625 -3.78125 L 16.796875 -0.484375 C 16.335938 -0.191406 15.671875 0.046875 14.796875 0.234375 C 13.921875 0.421875 13.039062 0.515625 12.15625 0.515625 C 10.207031 0.515625 8.65625 -0.0703125 7.5 -1.25 C 6.34375 -2.4375 5.765625 -4.289062 5.765625 -6.8125 L 5.765625 -22.859375 L 1.59375 -22.859375 L 1.59375 -26.421875 L 5.765625 -26.421875 L 5.765625 -32.78125 Z M 10.578125 -32.78125 "/></g></g></g><g fill="#008000" fill-opacity="1"><g transform="translate(998.399339, 294.433834)"><g><path d="M 2.171875 -3.078125 L 6.15625 -3.765625 L 6.15625 -22.625 L 2.171875 -23.3125 L 2.171875 -26.421875 L 10.96875 -26.421875 L 10.96875 -3.765625 L 14.9375 -3.078125 L 14.9375 0 L 2.171875 0 Z M 10.96875 -33.171875 L 6.15625 -33.171875 L 6.15625 -38.09375 L 10.96875 -38.09375 Z M 10.96875 -33.171875 "/></g></g></g><g fill="#008000" fill-opacity="1"><g transform="translate(1014.827424, 294.433834)"><g><path d="M 2.203125 -13.453125 C 2.203125 -17.359375 3.257812 -20.578125 5.375 -23.109375 C 7.488281 -25.640625 10.359375 -26.90625 13.984375 -26.90625 C 17.628906 -26.90625 20.515625 -25.644531 22.640625 -23.125 C 24.765625 -20.601562 25.828125 -17.378906 25.828125 -13.453125 L 25.828125 -12.921875 C 25.828125 -8.972656 24.769531 -5.742188 22.65625 -3.234375 C 20.539062 -0.734375 17.664062 0.515625 14.03125 0.515625 C 10.375 0.515625 7.488281 -0.738281 5.375 -3.25 C 3.257812 -5.769531 2.203125 -8.992188 2.203125 -12.921875 Z M 7 -12.921875 C 7 -10.117188 7.585938 -7.804688 8.765625 -5.984375 C 9.953125 -4.160156 11.707031 -3.25 14.03125 -3.25 C 16.3125 -3.25 18.046875 -4.160156 19.234375 -5.984375 C 20.421875 -7.804688 21.015625 -10.117188 21.015625 -12.921875 L 21.015625 -13.453125 C 21.015625 -16.222656 20.421875 -18.523438 19.234375 -20.359375 C 18.046875 -22.203125 16.296875 -23.125 13.984375 -23.125 C 11.671875 -23.125 9.925781 -22.203125 8.75 -20.359375 C 7.582031 -18.523438 7 -16.222656 7 -13.453125 Z M 7 -12.921875 "/></g></g></g><g fill="#008000" fill-opacity="1"><g transform="translate(1042.874831, 294.433834)"><g><path d="M 1.46875 -3.078125 L 5.4375 -3.765625 L 5.4375 -22.625 L 1.46875 -23.3125 L 1.46875 -26.421875 L 9.734375 -26.421875 L 10.078125 -22.484375 C 10.960938 -23.878906 12.066406 -24.960938 13.390625 -25.734375 C 14.710938 -26.515625 16.222656 -26.90625 17.921875 -26.90625 C 20.765625 -26.90625 22.96875 -26.070312 24.53125 -24.40625 C 26.09375 -22.738281 26.875 -20.160156 26.875 -16.671875 L 26.875 -3.765625 L 30.859375 -3.078125 L 30.859375 0 L 18.09375 0 L 18.09375 -3.078125 L 22.078125 -3.765625 L 22.078125 -16.578125 C 22.078125 -18.898438 21.613281 -20.550781 20.6875 -21.53125 C 19.769531 -22.507812 18.367188 -23 16.484375 -23 C 15.097656 -23 13.867188 -22.664062 12.796875 -22 C 11.734375 -21.332031 10.882812 -20.421875 10.25 -19.265625 L 10.25 -3.765625 L 14.234375 -3.078125 L 14.234375 0 L 1.46875 0 Z M 1.46875 -3.078125 "/></g></g></g><g fill="#008000" fill-opacity="1"><g transform="translate(1075.047559, 294.433834)"><g/></g></g><g fill="#008000" fill-opacity="1"><g transform="translate(1087.472363, 294.433834)"><g><path d="M 2.171875 -3.078125 L 6.15625 -3.765625 L 6.15625 -22.625 L 2.171875 -23.3125 L 2.171875 -26.421875 L 10.96875 -26.421875 L 10.96875 -3.765625 L 14.9375 -3.078125 L 14.9375 0 L 2.171875 0 Z M 10.96875 -33.171875 L 6.15625 -33.171875 L 6.15625 -38.09375 L 10.96875 -38.09375 Z M 10.96875 -33.171875 "/></g></g></g><g fill="#008000" fill-opacity="1"><g transform="translate(1103.900494, 294.433834)"><g><path d="M 22.390625 -18.109375 L 18.78125 -18.109375 L 18 -21.296875 C 17.40625 -21.847656 16.664062 -22.289062 15.78125 -22.625 C 14.894531 -22.957031 13.890625 -23.125 12.765625 -23.125 C 11.054688 -23.125 9.785156 -22.75 8.953125 -22 C 8.128906 -21.25 7.71875 -20.34375 7.71875 -19.28125 C 7.71875 -18.238281 8.082031 -17.414062 8.8125 -16.8125 C 9.539062 -16.21875 11.03125 -15.679688 13.28125 -15.203125 C 16.613281 -14.492188 19.09375 -13.523438 20.71875 -12.296875 C 22.351562 -11.066406 23.171875 -9.414062 23.171875 -7.34375 C 23.171875 -5 22.222656 -3.101562 20.328125 -1.65625 C 18.429688 -0.207031 15.953125 0.515625 12.890625 0.515625 C 10.890625 0.515625 9.09375 0.285156 7.5 -0.171875 C 5.90625 -0.640625 4.476562 -1.316406 3.21875 -2.203125 L 3.203125 -8.234375 L 6.8125 -8.234375 L 7.71875 -4.6875 C 8.269531 -4.1875 9.019531 -3.820312 9.96875 -3.59375 C 10.925781 -3.363281 11.898438 -3.25 12.890625 -3.25 C 14.597656 -3.25 15.9375 -3.59375 16.90625 -4.28125 C 17.875 -4.976562 18.359375 -5.882812 18.359375 -7 C 18.359375 -8.0625 17.953125 -8.929688 17.140625 -9.609375 C 16.335938 -10.296875 14.816406 -10.894531 12.578125 -11.40625 C 9.367188 -12.101562 6.945312 -13.050781 5.3125 -14.25 C 3.6875 -15.457031 2.875 -17.085938 2.875 -19.140625 C 2.875 -21.285156 3.789062 -23.113281 5.625 -24.625 C 7.457031 -26.144531 9.835938 -26.90625 12.765625 -26.90625 C 14.765625 -26.90625 16.5625 -26.644531 18.15625 -26.125 C 19.757812 -25.601562 21.085938 -24.878906 22.140625 -23.953125 Z M 22.390625 -18.109375 "/></g></g></g><g fill="#008000" fill-opacity="1"><g transform="translate(1129.384837, 294.433834)"><g/></g></g><g fill="#008000" fill-opacity="1"><g transform="translate(1141.809641, 294.433834)"><g><path d="M 10.578125 -32.78125 L 10.578125 -26.421875 L 15.578125 -26.421875 L 15.578125 -22.859375 L 10.578125 -22.859375 L 10.578125 -6.8125 C 10.578125 -5.570312 10.832031 -4.695312 11.34375 -4.1875 C 11.851562 -3.6875 12.53125 -3.4375 13.375 -3.4375 C 13.800781 -3.4375 14.273438 -3.472656 14.796875 -3.546875 C 15.328125 -3.617188 15.773438 -3.695312 16.140625 -3.78125 L 16.796875 -0.484375 C 16.335938 -0.191406 15.671875 0.046875 14.796875 0.234375 C 13.921875 0.421875 13.039062 0.515625 12.15625 0.515625 C 10.207031 0.515625 8.65625 -0.0703125 7.5 -1.25 C 6.34375 -2.4375 5.765625 -4.289062 5.765625 -6.8125 L 5.765625 -22.859375 L 1.59375 -22.859375 L 1.59375 -26.421875 L 5.765625 -26.421875 L 5.765625 -32.78125 Z M 10.578125 -32.78125 "/></g></g></g><g fill="#008000" fill-opacity="1"><g transform="translate(1160.117348, 294.433834)"><g><path d="M 2.171875 -23.3125 L 2.171875 -26.421875 L 10.453125 -26.421875 L 10.90625 -22.578125 C 11.65625 -23.929688 12.578125 -24.988281 13.671875 -25.75 C 14.773438 -26.519531 16.035156 -26.90625 17.453125 -26.90625 C 17.828125 -26.90625 18.210938 -26.875 18.609375 -26.8125 C 19.015625 -26.757812 19.320312 -26.703125 19.53125 -26.640625 L 18.890625 -22.171875 L 16.15625 -22.3125 C 14.894531 -22.3125 13.832031 -22.015625 12.96875 -21.421875 C 12.101562 -20.828125 11.4375 -19.992188 10.96875 -18.921875 L 10.96875 -3.765625 L 14.9375 -3.078125 L 14.9375 0 L 2.171875 0 L 2.171875 -3.078125 L 6.15625 -3.765625 L 6.15625 -22.625 Z M 2.171875 -23.3125 "/></g></g></g><g fill="#008000" fill-opacity="1"><g transform="translate(1180.792793, 294.433834)"><g><path d="M 21.0625 -3.90625 C 20.238281 -2.488281 19.171875 -1.394531 17.859375 -0.625 C 16.546875 0.132812 15.035156 0.515625 13.328125 0.515625 C 10.460938 0.515625 8.222656 -0.398438 6.609375 -2.234375 C 5.003906 -4.078125 4.203125 -6.945312 4.203125 -10.84375 L 4.203125 -22.625 L 1.171875 -23.3125 L 1.171875 -26.421875 L 9.015625 -26.421875 L 9.015625 -10.796875 C 9.015625 -7.972656 9.425781 -6.03125 10.25 -4.96875 C 11.082031 -3.914062 12.378906 -3.390625 14.140625 -3.390625 C 15.847656 -3.390625 17.257812 -3.734375 18.375 -4.421875 C 19.488281 -5.117188 20.332031 -6.101562 20.90625 -7.375 L 20.90625 -22.625 L 17.359375 -23.3125 L 17.359375 -26.421875 L 25.703125 -26.421875 L 25.703125 -3.765625 L 28.734375 -3.078125 L 28.734375 0 L 21.390625 0 Z M 21.0625 -3.90625 "/></g></g></g><g fill="#008000" fill-opacity="1"><g transform="translate(1211.159185, 294.433834)"><g><path d="M 14.234375 0.515625 C 10.554688 0.515625 7.628906 -0.707031 5.453125 -3.15625 C 3.285156 -5.613281 2.203125 -8.796875 2.203125 -12.703125 L 2.203125 -13.765625 C 2.203125 -17.523438 3.316406 -20.65625 5.546875 -23.15625 C 7.785156 -25.65625 10.4375 -26.90625 13.5 -26.90625 C 17.050781 -26.90625 19.738281 -25.828125 21.5625 -23.671875 C 23.394531 -21.523438 24.3125 -18.664062 24.3125 -15.09375 L 24.3125 -12.078125 L 7.171875 -12.078125 L 7.109375 -11.96875 C 7.148438 -9.425781 7.789062 -7.335938 9.03125 -5.703125 C 10.269531 -4.066406 12.003906 -3.25 14.234375 -3.25 C 15.859375 -3.25 17.285156 -3.476562 18.515625 -3.9375 C 19.742188 -4.40625 20.804688 -5.046875 21.703125 -5.859375 L 23.578125 -2.734375 C 22.640625 -1.828125 21.390625 -1.054688 19.828125 -0.421875 C 18.273438 0.203125 16.410156 0.515625 14.234375 0.515625 Z M 13.5 -23.125 C 11.882812 -23.125 10.507812 -22.441406 9.375 -21.078125 C 8.238281 -19.722656 7.539062 -18.019531 7.28125 -15.96875 L 7.328125 -15.84375 L 19.5 -15.84375 L 19.5 -16.484375 C 19.5 -18.367188 18.992188 -19.945312 17.984375 -21.21875 C 16.984375 -22.488281 15.488281 -23.125 13.5 -23.125 Z M 13.5 -23.125 "/></g></g></g><g fill="#008000" fill-opacity="1"><g transform="translate(268.838429, 552.350032)"><g><path d="M 4.109375 3.078125 L 0 3.078125 L 14.9375 -35.78125 L 19.015625 -35.78125 Z M 4.109375 3.078125 "/></g></g></g><g fill="#008000" fill-opacity="1"><g transform="translate(289.089207, 552.350032)"><g><path d="M 4.109375 3.078125 L 0 3.078125 L 14.9375 -35.78125 L 19.015625 -35.78125 Z M 4.109375 3.078125 "/></g></g></g><g fill="#008000" fill-opacity="1"><g transform="translate(309.339984, 552.350032)"><g/></g></g><g fill="#008000" fill-opacity="1"><g transform="translate(321.849269, 552.350032)"><g><path d="M 29.484375 -24.796875 L 26.078125 -24.796875 L 25.171875 -29.859375 C 24.378906 -30.628906 23.410156 -31.257812 22.265625 -31.75 C 21.117188 -32.238281 19.75 -32.484375 18.15625 -32.484375 C 14.4375 -32.484375 11.578125 -31.132812 9.578125 -28.4375 C 7.578125 -25.75 6.578125 -22.332031 6.578125 -18.1875 L 6.578125 -17.625 C 6.578125 -13.476562 7.554688 -10.046875 9.515625 -7.328125 C 11.472656 -4.617188 14.191406 -3.265625 17.671875 -3.265625 C 19.296875 -3.265625 20.769531 -3.519531 22.09375 -4.03125 C 23.414062 -4.539062 24.441406 -5.160156 25.171875 -5.890625 L 26.078125 -10.953125 L 29.484375 -10.953125 L 29.484375 -4.59375 C 28.453125 -3.269531 26.90625 -2.085938 24.84375 -1.046875 C 22.78125 -0.00390625 20.390625 0.515625 17.671875 0.515625 C 13.015625 0.515625 9.195312 -1.203125 6.21875 -4.640625 C 3.238281 -8.085938 1.75 -12.414062 1.75 -17.625 L 1.75 -18.140625 C 1.75 -23.378906 3.210938 -27.710938 6.140625 -31.140625 C 9.078125 -34.578125 12.921875 -36.296875 17.671875 -36.296875 C 20.390625 -36.296875 22.78125 -35.765625 24.84375 -34.703125 C 26.90625 -33.648438 28.453125 -32.46875 29.484375 -31.15625 Z M 29.484375 -24.796875 "/></g></g></g><g fill="#008000" fill-opacity="1"><g transform="translate(354.314416, 552.350032)"><g><path d="M 2.21875 -13.546875 C 2.21875 -17.472656 3.28125 -20.707031 5.40625 -23.25 C 7.53125 -25.800781 10.421875 -27.078125 14.078125 -27.078125 C 17.742188 -27.078125 20.644531 -25.804688 22.78125 -23.265625 C 24.925781 -20.734375 26 -17.492188 26 -13.546875 L 26 -13 C 26 -9.03125 24.929688 -5.785156 22.796875 -3.265625 C 20.671875 -0.742188 17.78125 0.515625 14.125 0.515625 C 10.4375 0.515625 7.53125 -0.75 5.40625 -3.28125 C 3.28125 -5.8125 2.21875 -9.050781 2.21875 -13 Z M 7.046875 -13 C 7.046875 -10.175781 7.640625 -7.847656 8.828125 -6.015625 C 10.015625 -4.179688 11.78125 -3.265625 14.125 -3.265625 C 16.425781 -3.265625 18.171875 -4.179688 19.359375 -6.015625 C 20.554688 -7.847656 21.15625 -10.175781 21.15625 -13 L 21.15625 -13.546875 C 21.15625 -16.328125 20.554688 -18.640625 19.359375 -20.484375 C 18.171875 -22.335938 16.410156 -23.265625 14.078125 -23.265625 C 11.753906 -23.265625 10 -22.335938 8.8125 -20.484375 C 7.632812 -18.640625 7.046875 -16.328125 7.046875 -13.546875 Z M 7.046875 -13 "/></g></g></g><g fill="#008000" fill-opacity="1"><g transform="translate(382.552459, 552.350032)"><g><path d="M 20.109375 -3.171875 C 19.234375 -1.960938 18.171875 -1.046875 16.921875 -0.421875 C 15.671875 0.203125 14.21875 0.515625 12.5625 0.515625 C 9.3125 0.515625 6.773438 -0.65625 4.953125 -3 C 3.128906 -5.351562 2.21875 -8.445312 2.21875 -12.28125 L 2.21875 -12.796875 C 2.21875 -17.078125 3.128906 -20.523438 4.953125 -23.140625 C 6.773438 -25.765625 9.328125 -27.078125 12.609375 -27.078125 C 14.179688 -27.078125 15.566406 -26.785156 16.765625 -26.203125 C 17.972656 -25.628906 19.003906 -24.789062 19.859375 -23.6875 L 19.859375 -34.53125 L 15.84375 -35.21875 L 15.84375 -38.328125 L 24.703125 -38.328125 L 24.703125 -3.78125 L 28.703125 -3.09375 L 28.703125 0 L 20.5 0 Z M 7.046875 -12.28125 C 7.046875 -9.613281 7.59375 -7.46875 8.6875 -5.84375 C 9.789062 -4.226562 11.488281 -3.421875 13.78125 -3.421875 C 15.226562 -3.421875 16.441406 -3.742188 17.421875 -4.390625 C 18.398438 -5.046875 19.210938 -5.972656 19.859375 -7.171875 L 19.859375 -19.515625 C 19.234375 -20.628906 18.421875 -21.515625 17.421875 -22.171875 C 16.421875 -22.828125 15.222656 -23.15625 13.828125 -23.15625 C 11.523438 -23.15625 9.816406 -22.195312 8.703125 -20.28125 C 7.597656 -18.363281 7.046875 -15.867188 7.046875 -12.796875 Z M 7.046875 -12.28125 "/></g></g></g><g fill="#008000" fill-opacity="1"><g transform="translate(412.756597, 552.350032)"><g><path d="M 14.328125 0.515625 C 10.617188 0.515625 7.671875 -0.710938 5.484375 -3.171875 C 3.304688 -5.640625 2.21875 -8.84375 2.21875 -12.78125 L 2.21875 -13.859375 C 2.21875 -17.640625 3.34375 -20.785156 5.59375 -23.296875 C 7.84375 -25.816406 10.507812 -27.078125 13.59375 -27.078125 C 17.164062 -27.078125 19.867188 -25.992188 21.703125 -23.828125 C 23.546875 -21.671875 24.46875 -18.789062 24.46875 -15.1875 L 24.46875 -12.171875 L 7.21875 -12.171875 L 7.15625 -12.046875 C 7.195312 -9.484375 7.835938 -7.378906 9.078125 -5.734375 C 10.328125 -4.085938 12.078125 -3.265625 14.328125 -3.265625 C 15.960938 -3.265625 17.398438 -3.5 18.640625 -3.96875 C 19.878906 -4.4375 20.945312 -5.078125 21.84375 -5.890625 L 23.734375 -2.75 C 22.785156 -1.832031 21.53125 -1.054688 19.96875 -0.421875 C 18.40625 0.203125 16.523438 0.515625 14.328125 0.515625 Z M 13.59375 -23.265625 C 11.96875 -23.265625 10.582031 -22.582031 9.4375 -21.21875 C 8.289062 -19.851562 7.585938 -18.140625 7.328125 -16.078125 L 7.375 -15.953125 L 19.640625 -15.953125 L 19.640625 -16.59375 C 19.640625 -18.488281 19.128906 -20.070312 18.109375 -21.34375 C 17.097656 -22.625 15.59375 -23.265625 13.59375 -23.265625 Z M 13.59375 -23.265625 "/></g></g></g><g fill="#008000" fill-opacity="1"><g transform="translate(439.814983, 552.350032)"><g/></g></g><g fill="#008000" fill-opacity="1"><g transform="translate(452.324267, 552.350032)"><g><path d="M 10.640625 -33 L 10.640625 -26.59375 L 15.671875 -26.59375 L 15.671875 -23 L 10.640625 -23 L 10.640625 -6.859375 C 10.640625 -5.609375 10.894531 -4.726562 11.40625 -4.21875 C 11.925781 -3.71875 12.613281 -3.46875 13.46875 -3.46875 C 13.894531 -3.46875 14.375 -3.503906 14.90625 -3.578125 C 15.4375 -3.648438 15.882812 -3.726562 16.25 -3.8125 L 16.90625 -0.484375 C 16.445312 -0.191406 15.773438 0.046875 14.890625 0.234375 C 14.003906 0.421875 13.117188 0.515625 12.234375 0.515625 C 10.273438 0.515625 8.710938 -0.078125 7.546875 -1.265625 C 6.378906 -2.453125 5.796875 -4.316406 5.796875 -6.859375 L 5.796875 -23 L 1.59375 -23 L 1.59375 -26.59375 L 5.796875 -26.59375 L 5.796875 -33 Z M 10.640625 -33 "/></g></g></g><g fill="#008000" fill-opacity="1"><g transform="translate(470.756418, 552.350032)"><g><path d="M 2.21875 -13.546875 C 2.21875 -17.472656 3.28125 -20.707031 5.40625 -23.25 C 7.53125 -25.800781 10.421875 -27.078125 14.078125 -27.078125 C 17.742188 -27.078125 20.644531 -25.804688 22.78125 -23.265625 C 24.925781 -20.734375 26 -17.492188 26 -13.546875 L 26 -13 C 26 -9.03125 24.929688 -5.785156 22.796875 -3.265625 C 20.671875 -0.742188 17.78125 0.515625 14.125 0.515625 C 10.4375 0.515625 7.53125 -0.75 5.40625 -3.28125 C 3.28125 -5.8125 2.21875 -9.050781 2.21875 -13 Z M 7.046875 -13 C 7.046875 -10.175781 7.640625 -7.847656 8.828125 -6.015625 C 10.015625 -4.179688 11.78125 -3.265625 14.125 -3.265625 C 16.425781 -3.265625 18.171875 -4.179688 19.359375 -6.015625 C 20.554688 -7.847656 21.15625 -10.175781 21.15625 -13 L 21.15625 -13.546875 C 21.15625 -16.328125 20.554688 -18.640625 19.359375 -20.484375 C 18.171875 -22.335938 16.410156 -23.265625 14.078125 -23.265625 C 11.753906 -23.265625 10 -22.335938 8.8125 -20.484375 C 7.632812 -18.640625 7.046875 -16.328125 7.046875 -13.546875 Z M 7.046875 -13 "/></g></g></g><g fill="#008000" fill-opacity="1"><g transform="translate(498.994461, 552.350032)"><g/></g></g><g fill="#008000" fill-opacity="1"><g transform="translate(511.503745, 552.350032)"><g><path d="M 14.328125 0.515625 C 10.617188 0.515625 7.671875 -0.710938 5.484375 -3.171875 C 3.304688 -5.640625 2.21875 -8.84375 2.21875 -12.78125 L 2.21875 -13.859375 C 2.21875 -17.640625 3.34375 -20.785156 5.59375 -23.296875 C 7.84375 -25.816406 10.507812 -27.078125 13.59375 -27.078125 C 17.164062 -27.078125 19.867188 -25.992188 21.703125 -23.828125 C 23.546875 -21.671875 24.46875 -18.789062 24.46875 -15.1875 L 24.46875 -12.171875 L 7.21875 -12.171875 L 7.15625 -12.046875 C 7.195312 -9.484375 7.835938 -7.378906 9.078125 -5.734375 C 10.328125 -4.085938 12.078125 -3.265625 14.328125 -3.265625 C 15.960938 -3.265625 17.398438 -3.5 18.640625 -3.96875 C 19.878906 -4.4375 20.945312 -5.078125 21.84375 -5.890625 L 23.734375 -2.75 C 22.785156 -1.832031 21.53125 -1.054688 19.96875 -0.421875 C 18.40625 0.203125 16.523438 0.515625 14.328125 0.515625 Z M 13.59375 -23.265625 C 11.96875 -23.265625 10.582031 -22.582031 9.4375 -21.21875 C 8.289062 -19.851562 7.585938 -18.140625 7.328125 -16.078125 L 7.375 -15.953125 L 19.640625 -15.953125 L 19.640625 -16.59375 C 19.640625 -18.488281 19.128906 -20.070312 18.109375 -21.34375 C 17.097656 -22.625 15.59375 -23.265625 13.59375 -23.265625 Z M 13.59375 -23.265625 "/></g></g></g><g fill="#008000" fill-opacity="1"><g transform="translate(538.562131, 552.350032)"><g><path d="M 1.53125 -3.09375 L 4.375 -3.65625 L 12.21875 -13.4375 L 4.625 -22.90625 L 1.765625 -23.46875 L 1.765625 -26.59375 L 12.1875 -26.59375 L 12.1875 -23.46875 L 9.78125 -23.171875 L 14.75 -16.78125 L 19.734375 -23.203125 L 17.34375 -23.46875 L 17.34375 -26.59375 L 27.84375 -26.59375 L 27.84375 -23.46875 L 24.984375 -22.90625 L 17.40625 -13.4375 L 25.21875 -3.65625 L 28.09375 -3.09375 L 28.09375 0 L 17.671875 0 L 17.671875 -3.09375 L 20.03125 -3.359375 L 14.8125 -10.046875 L 9.609375 -3.359375 L 12 -3.09375 L 12 0 L 1.53125 0 Z M 1.53125 -3.09375 "/></g></g></g><g fill="#008000" fill-opacity="1"><g transform="translate(567.856945, 552.350032)"><g><path d="M 14.328125 0.515625 C 10.617188 0.515625 7.671875 -0.710938 5.484375 -3.171875 C 3.304688 -5.640625 2.21875 -8.84375 2.21875 -12.78125 L 2.21875 -13.859375 C 2.21875 -17.640625 3.34375 -20.785156 5.59375 -23.296875 C 7.84375 -25.816406 10.507812 -27.078125 13.59375 -27.078125 C 17.164062 -27.078125 19.867188 -25.992188 21.703125 -23.828125 C 23.546875 -21.671875 24.46875 -18.789062 24.46875 -15.1875 L 24.46875 -12.171875 L 7.21875 -12.171875 L 7.15625 -12.046875 C 7.195312 -9.484375 7.835938 -7.378906 9.078125 -5.734375 C 10.328125 -4.085938 12.078125 -3.265625 14.328125 -3.265625 C 15.960938 -3.265625 17.398438 -3.5 18.640625 -3.96875 C 19.878906 -4.4375 20.945312 -5.078125 21.84375 -5.890625 L 23.734375 -2.75 C 22.785156 -1.832031 21.53125 -1.054688 19.96875 -0.421875 C 18.40625 0.203125 16.523438 0.515625 14.328125 0.515625 Z M 13.59375 -23.265625 C 11.96875 -23.265625 10.582031 -22.582031 9.4375 -21.21875 C 8.289062 -19.851562 7.585938 -18.140625 7.328125 -16.078125 L 7.375 -15.953125 L 19.640625 -15.953125 L 19.640625 -16.59375 C 19.640625 -18.488281 19.128906 -20.070312 18.109375 -21.34375 C 17.097656 -22.625 15.59375 -23.265625 13.59375 -23.265625 Z M 13.59375 -23.265625 "/></g></g></g><g fill="#008000" fill-opacity="1"><g transform="translate(594.915331, 552.350032)"><g><path d="M 14.125 -3.265625 C 15.726562 -3.265625 17.140625 -3.757812 18.359375 -4.75 C 19.585938 -5.738281 20.203125 -6.957031 20.203125 -8.40625 L 24.546875 -8.40625 L 24.59375 -8.25 C 24.675781 -5.957031 23.65625 -3.921875 21.53125 -2.140625 C 19.414062 -0.367188 16.945312 0.515625 14.125 0.515625 C 10.257812 0.515625 7.304688 -0.742188 5.265625 -3.265625 C 3.234375 -5.785156 2.21875 -8.957031 2.21875 -12.78125 L 2.21875 -13.8125 C 2.21875 -17.59375 3.238281 -20.75 5.28125 -23.28125 C 7.332031 -25.8125 10.28125 -27.078125 14.125 -27.078125 C 16.257812 -27.078125 18.171875 -26.722656 19.859375 -26.015625 C 21.554688 -25.316406 22.960938 -24.351562 24.078125 -23.125 L 24.296875 -17.234375 L 20.453125 -17.234375 L 19.390625 -21.40625 C 18.816406 -21.957031 18.078125 -22.40625 17.171875 -22.75 C 16.273438 -23.09375 15.257812 -23.265625 14.125 -23.265625 C 11.59375 -23.265625 9.78125 -22.351562 8.6875 -20.53125 C 7.59375 -18.707031 7.046875 -16.46875 7.046875 -13.8125 L 7.046875 -12.78125 C 7.046875 -10.0625 7.585938 -7.796875 8.671875 -5.984375 C 9.753906 -4.171875 11.570312 -3.265625 14.125 -3.265625 Z M 14.125 -3.265625 "/></g></g></g><g fill="#008000" fill-opacity="1"><g transform="translate(622.04744, 552.350032)"><g><path d="M 21.203125 -3.9375 C 20.367188 -2.507812 19.289062 -1.410156 17.96875 -0.640625 C 16.65625 0.128906 15.140625 0.515625 13.421875 0.515625 C 10.535156 0.515625 8.28125 -0.40625 6.65625 -2.25 C 5.039062 -4.101562 4.234375 -6.988281 4.234375 -10.90625 L 4.234375 -22.78125 L 1.171875 -23.46875 L 1.171875 -26.59375 L 9.0625 -26.59375 L 9.0625 -10.859375 C 9.0625 -8.023438 9.476562 -6.078125 10.3125 -5.015625 C 11.15625 -3.953125 12.460938 -3.421875 14.234375 -3.421875 C 15.953125 -3.421875 17.367188 -3.765625 18.484375 -4.453125 C 19.609375 -5.148438 20.457031 -6.140625 21.03125 -7.421875 L 21.03125 -22.78125 L 17.46875 -23.46875 L 17.46875 -26.59375 L 25.875 -26.59375 L 25.875 -3.78125 L 28.921875 -3.09375 L 28.921875 0 L 21.53125 0 Z M 21.203125 -3.9375 "/></g></g></g><g fill="#008000" fill-opacity="1"><g transform="translate(652.620215, 552.350032)"><g><path d="M 10.640625 -33 L 10.640625 -26.59375 L 15.671875 -26.59375 L 15.671875 -23 L 10.640625 -23 L 10.640625 -6.859375 C 10.640625 -5.609375 10.894531 -4.726562 11.40625 -4.21875 C 11.925781 -3.71875 12.613281 -3.46875 13.46875 -3.46875 C 13.894531 -3.46875 14.375 -3.503906 14.90625 -3.578125 C 15.4375 -3.648438 15.882812 -3.726562 16.25 -3.8125 L 16.90625 -0.484375 C 16.445312 -0.191406 15.773438 0.046875 14.890625 0.234375 C 14.003906 0.421875 13.117188 0.515625 12.234375 0.515625 C 10.273438 0.515625 8.710938 -0.078125 7.546875 -1.265625 C 6.378906 -2.453125 5.796875 -4.316406 5.796875 -6.859375 L 5.796875 -23 L 1.59375 -23 L 1.59375 -26.59375 L 5.796875 -26.59375 L 5.796875 -33 Z M 10.640625 -33 "/></g></g></g><g fill="#008000" fill-opacity="1"><g transform="translate(671.052365, 552.350032)"><g><path d="M 14.328125 0.515625 C 10.617188 0.515625 7.671875 -0.710938 5.484375 -3.171875 C 3.304688 -5.640625 2.21875 -8.84375 2.21875 -12.78125 L 2.21875 -13.859375 C 2.21875 -17.640625 3.34375 -20.785156 5.59375 -23.296875 C 7.84375 -25.816406 10.507812 -27.078125 13.59375 -27.078125 C 17.164062 -27.078125 19.867188 -25.992188 21.703125 -23.828125 C 23.546875 -21.671875 24.46875 -18.789062 24.46875 -15.1875 L 24.46875 -12.171875 L 7.21875 -12.171875 L 7.15625 -12.046875 C 7.195312 -9.484375 7.835938 -7.378906 9.078125 -5.734375 C 10.328125 -4.085938 12.078125 -3.265625 14.328125 -3.265625 C 15.960938 -3.265625 17.398438 -3.5 18.640625 -3.96875 C 19.878906 -4.4375 20.945312 -5.078125 21.84375 -5.890625 L 23.734375 -2.75 C 22.785156 -1.832031 21.53125 -1.054688 19.96875 -0.421875 C 18.40625 0.203125 16.523438 0.515625 14.328125 0.515625 Z M 13.59375 -23.265625 C 11.96875 -23.265625 10.582031 -22.582031 9.4375 -21.21875 C 8.289062 -19.851562 7.585938 -18.140625 7.328125 -16.078125 L 7.375 -15.953125 L 19.640625 -15.953125 L 19.640625 -16.59375 C 19.640625 -18.488281 19.128906 -20.070312 18.109375 -21.34375 C 17.097656 -22.625 15.59375 -23.265625 13.59375 -23.265625 Z M 13.59375 -23.265625 "/></g></g></g><g fill="#008000" fill-opacity="1"><g transform="translate(698.110775, 552.350032)"><g/></g></g><g fill="#008000" fill-opacity="1"><g transform="translate(710.620082, 552.350032)"><g><path d="M 2.1875 -3.09375 L 6.1875 -3.78125 L 6.1875 -22.78125 L 2.1875 -23.46875 L 2.1875 -26.59375 L 11.03125 -26.59375 L 11.03125 -3.78125 L 15.046875 -3.09375 L 15.046875 0 L 2.1875 0 Z M 11.03125 -33.390625 L 6.1875 -33.390625 L 6.1875 -38.328125 L 11.03125 -38.328125 Z M 11.03125 -33.390625 "/></g></g></g><g fill="#008000" fill-opacity="1"><g transform="translate(727.159861, 552.350032)"><g><path d="M 1.71875 -23 L 1.71875 -26.59375 L 5.875 -26.59375 L 5.875 -29.953125 C 5.875 -32.785156 6.613281 -34.976562 8.09375 -36.53125 C 9.582031 -38.082031 11.648438 -38.859375 14.296875 -38.859375 C 14.859375 -38.859375 15.421875 -38.8125 15.984375 -38.71875 C 16.546875 -38.625 17.171875 -38.492188 17.859375 -38.328125 L 17.28125 -34.65625 C 16.976562 -34.71875 16.617188 -34.769531 16.203125 -34.8125 C 15.785156 -34.863281 15.359375 -34.890625 14.921875 -34.890625 C 13.492188 -34.890625 12.4375 -34.46875 11.75 -33.625 C 11.0625 -32.78125 10.71875 -31.554688 10.71875 -29.953125 L 10.71875 -26.59375 L 16.265625 -26.59375 L 16.265625 -23 L 10.71875 -23 L 10.71875 -3.78125 L 14.71875 -3.09375 L 14.71875 0 L 1.875 0 L 1.875 -3.09375 L 5.875 -3.78125 L 5.875 -23 Z M 1.71875 -23 "/></g></g></g><g fill="#008000" fill-opacity="1"><g transform="translate(745.051325, 552.350032)"><g/></g></g><g fill="#008000" fill-opacity="1"><g transform="translate(757.560632, 552.350032)"><g><path d="M 10.640625 -33 L 10.640625 -26.59375 L 15.671875 -26.59375 L 15.671875 -23 L 10.640625 -23 L 10.640625 -6.859375 C 10.640625 -5.609375 10.894531 -4.726562 11.40625 -4.21875 C 11.925781 -3.71875 12.613281 -3.46875 13.46875 -3.46875 C 13.894531 -3.46875 14.375 -3.503906 14.90625 -3.578125 C 15.4375 -3.648438 15.882812 -3.726562 16.25 -3.8125 L 16.90625 -0.484375 C 16.445312 -0.191406 15.773438 0.046875 14.890625 0.234375 C 14.003906 0.421875 13.117188 0.515625 12.234375 0.515625 C 10.273438 0.515625 8.710938 -0.078125 7.546875 -1.265625 C 6.378906 -2.453125 5.796875 -4.316406 5.796875 -6.859375 L 5.796875 -23 L 1.59375 -23 L 1.59375 -26.59375 L 5.796875 -26.59375 L 5.796875 -33 Z M 10.640625 -33 "/></g></g></g><g fill="#008000" fill-opacity="1"><g transform="translate(775.99276, 552.350032)"><g><path d="M 1.53125 -3.09375 L 5.53125 -3.78125 L 5.53125 -34.53125 L 1.53125 -35.21875 L 1.53125 -38.328125 L 10.375 -38.328125 L 10.375 -23.046875 C 11.289062 -24.328125 12.410156 -25.316406 13.734375 -26.015625 C 15.066406 -26.722656 16.539062 -27.078125 18.15625 -27.078125 C 21.007812 -27.078125 23.222656 -26.222656 24.796875 -24.515625 C 26.367188 -22.816406 27.15625 -20.195312 27.15625 -16.65625 L 27.15625 -3.78125 L 31.15625 -3.09375 L 31.15625 0 L 18.3125 0 L 18.3125 -3.09375 L 22.3125 -3.78125 L 22.3125 -16.703125 C 22.3125 -18.898438 21.835938 -20.523438 20.890625 -21.578125 C 19.953125 -22.628906 18.550781 -23.15625 16.6875 -23.15625 C 15.363281 -23.15625 14.15625 -22.835938 13.0625 -22.203125 C 11.96875 -21.566406 11.070312 -20.710938 10.375 -19.640625 L 10.375 -3.78125 L 14.375 -3.09375 L 14.375 0 L 1.53125 0 Z M 1.53125 -3.09375 "/></g></g></g><g fill="#008000" fill-opacity="1"><g transform="translate(808.482489, 552.350032)"><g><path d="M 14.328125 0.515625 C 10.617188 0.515625 7.671875 -0.710938 5.484375 -3.171875 C 3.304688 -5.640625 2.21875 -8.84375 2.21875 -12.78125 L 2.21875 -13.859375 C 2.21875 -17.640625 3.34375 -20.785156 5.59375 -23.296875 C 7.84375 -25.816406 10.507812 -27.078125 13.59375 -27.078125 C 17.164062 -27.078125 19.867188 -25.992188 21.703125 -23.828125 C 23.546875 -21.671875 24.46875 -18.789062 24.46875 -15.1875 L 24.46875 -12.171875 L 7.21875 -12.171875 L 7.15625 -12.046875 C 7.195312 -9.484375 7.835938 -7.378906 9.078125 -5.734375 C 10.328125 -4.085938 12.078125 -3.265625 14.328125 -3.265625 C 15.960938 -3.265625 17.398438 -3.5 18.640625 -3.96875 C 19.878906 -4.4375 20.945312 -5.078125 21.84375 -5.890625 L 23.734375 -2.75 C 22.785156 -1.832031 21.53125 -1.054688 19.96875 -0.421875 C 18.40625 0.203125 16.523438 0.515625 14.328125 0.515625 Z M 13.59375 -23.265625 C 11.96875 -23.265625 10.582031 -22.582031 9.4375 -21.21875 C 8.289062 -19.851562 7.585938 -18.140625 7.328125 -16.078125 L 7.375 -15.953125 L 19.640625 -15.953125 L 19.640625 -16.59375 C 19.640625 -18.488281 19.128906 -20.070312 18.109375 -21.34375 C 17.097656 -22.625 15.59375 -23.265625 13.59375 -23.265625 Z M 13.59375 -23.265625 "/></g></g></g><g fill="#008000" fill-opacity="1"><g transform="translate(835.540853, 552.350032)"><g/></g></g><g fill="#008000" fill-opacity="1"><g transform="translate(848.05016, 552.350032)"><g><path d="M 14.125 -3.265625 C 15.726562 -3.265625 17.140625 -3.757812 18.359375 -4.75 C 19.585938 -5.738281 20.203125 -6.957031 20.203125 -8.40625 L 24.546875 -8.40625 L 24.59375 -8.25 C 24.675781 -5.957031 23.65625 -3.921875 21.53125 -2.140625 C 19.414062 -0.367188 16.945312 0.515625 14.125 0.515625 C 10.257812 0.515625 7.304688 -0.742188 5.265625 -3.265625 C 3.234375 -5.785156 2.21875 -8.957031 2.21875 -12.78125 L 2.21875 -13.8125 C 2.21875 -17.59375 3.238281 -20.75 5.28125 -23.28125 C 7.332031 -25.8125 10.28125 -27.078125 14.125 -27.078125 C 16.257812 -27.078125 18.171875 -26.722656 19.859375 -26.015625 C 21.554688 -25.316406 22.960938 -24.351562 24.078125 -23.125 L 24.296875 -17.234375 L 20.453125 -17.234375 L 19.390625 -21.40625 C 18.816406 -21.957031 18.078125 -22.40625 17.171875 -22.75 C 16.273438 -23.09375 15.257812 -23.265625 14.125 -23.265625 C 11.59375 -23.265625 9.78125 -22.351562 8.6875 -20.53125 C 7.59375 -18.707031 7.046875 -16.46875 7.046875 -13.8125 L 7.046875 -12.78125 C 7.046875 -10.0625 7.585938 -7.796875 8.671875 -5.984375 C 9.753906 -4.171875 11.570312 -3.265625 14.125 -3.265625 Z M 14.125 -3.265625 "/></g></g></g><g fill="#008000" fill-opacity="1"><g transform="translate(875.182269, 552.350032)"><g><path d="M 2.21875 -13.546875 C 2.21875 -17.472656 3.28125 -20.707031 5.40625 -23.25 C 7.53125 -25.800781 10.421875 -27.078125 14.078125 -27.078125 C 17.742188 -27.078125 20.644531 -25.804688 22.78125 -23.265625 C 24.925781 -20.734375 26 -17.492188 26 -13.546875 L 26 -13 C 26 -9.03125 24.929688 -5.785156 22.796875 -3.265625 C 20.671875 -0.742188 17.78125 0.515625 14.125 0.515625 C 10.4375 0.515625 7.53125 -0.75 5.40625 -3.28125 C 3.28125 -5.8125 2.21875 -9.050781 2.21875 -13 Z M 7.046875 -13 C 7.046875 -10.175781 7.640625 -7.847656 8.828125 -6.015625 C 10.015625 -4.179688 11.78125 -3.265625 14.125 -3.265625 C 16.425781 -3.265625 18.171875 -4.179688 19.359375 -6.015625 C 20.554688 -7.847656 21.15625 -10.175781 21.15625 -13 L 21.15625 -13.546875 C 21.15625 -16.328125 20.554688 -18.640625 19.359375 -20.484375 C 18.171875 -22.335938 16.410156 -23.265625 14.078125 -23.265625 C 11.753906 -23.265625 10 -22.335938 8.8125 -20.484375 C 7.632812 -18.640625 7.046875 -16.328125 7.046875 -13.546875 Z M 7.046875 -13 "/></g></g></g><g fill="#008000" fill-opacity="1"><g transform="translate(903.420335, 552.350032)"><g><path d="M 1.46875 -3.09375 L 5.484375 -3.78125 L 5.484375 -22.78125 L 1.46875 -23.46875 L 1.46875 -26.59375 L 9.8125 -26.59375 L 10.15625 -22.640625 C 11.03125 -24.046875 12.132812 -25.132812 13.46875 -25.90625 C 14.8125 -26.6875 16.332031 -27.078125 18.03125 -27.078125 C 20.90625 -27.078125 23.128906 -26.238281 24.703125 -24.5625 C 26.273438 -22.882812 27.0625 -20.289062 27.0625 -16.78125 L 27.0625 -3.78125 L 31.0625 -3.09375 L 31.0625 0 L 18.203125 0 L 18.203125 -3.09375 L 22.21875 -3.78125 L 22.21875 -16.6875 C 22.21875 -19.03125 21.753906 -20.691406 20.828125 -21.671875 C 19.898438 -22.660156 18.488281 -23.15625 16.59375 -23.15625 C 15.195312 -23.15625 13.960938 -22.816406 12.890625 -22.140625 C 11.816406 -21.472656 10.960938 -20.554688 10.328125 -19.390625 L 10.328125 -3.78125 L 14.328125 -3.09375 L 14.328125 0 L 1.46875 0 Z M 1.46875 -3.09375 "/></g></g></g><g fill="#008000" fill-opacity="1"><g transform="translate(935.811737, 552.350032)"><g><path d="M 20.109375 -3.171875 C 19.234375 -1.960938 18.171875 -1.046875 16.921875 -0.421875 C 15.671875 0.203125 14.21875 0.515625 12.5625 0.515625 C 9.3125 0.515625 6.773438 -0.65625 4.953125 -3 C 3.128906 -5.351562 2.21875 -8.445312 2.21875 -12.28125 L 2.21875 -12.796875 C 2.21875 -17.078125 3.128906 -20.523438 4.953125 -23.140625 C 6.773438 -25.765625 9.328125 -27.078125 12.609375 -27.078125 C 14.179688 -27.078125 15.566406 -26.785156 16.765625 -26.203125 C 17.972656 -25.628906 19.003906 -24.789062 19.859375 -23.6875 L 19.859375 -34.53125 L 15.84375 -35.21875 L 15.84375 -38.328125 L 24.703125 -38.328125 L 24.703125 -3.78125 L 28.703125 -3.09375 L 28.703125 0 L 20.5 0 Z M 7.046875 -12.28125 C 7.046875 -9.613281 7.59375 -7.46875 8.6875 -5.84375 C 9.789062 -4.226562 11.488281 -3.421875 13.78125 -3.421875 C 15.226562 -3.421875 16.441406 -3.742188 17.421875 -4.390625 C 18.398438 -5.046875 19.210938 -5.972656 19.859375 -7.171875 L 19.859375 -19.515625 C 19.234375 -20.628906 18.421875 -21.515625 17.421875 -22.171875 C 16.421875 -22.828125 15.222656 -23.15625 13.828125 -23.15625 C 11.523438 -23.15625 9.816406 -22.195312 8.703125 -20.28125 C 7.597656 -18.363281 7.046875 -15.867188 7.046875 -12.796875 Z M 7.046875 -12.28125 "/></g></g></g><g fill="#008000" fill-opacity="1"><g transform="translate(966.015852, 552.350032)"><g><path d="M 2.1875 -3.09375 L 6.1875 -3.78125 L 6.1875 -22.78125 L 2.1875 -23.46875 L 2.1875 -26.59375 L 11.03125 -26.59375 L 11.03125 -3.78125 L 15.046875 -3.09375 L 15.046875 0 L 2.1875 0 Z M 11.03125 -33.390625 L 6.1875 -33.390625 L 6.1875 -38.328125 L 11.03125 -38.328125 Z M 11.03125 -33.390625 "/></g></g></g><g fill="#008000" fill-opacity="1"><g transform="translate(982.555632, 552.350032)"><g><path d="M 10.640625 -33 L 10.640625 -26.59375 L 15.671875 -26.59375 L 15.671875 -23 L 10.640625 -23 L 10.640625 -6.859375 C 10.640625 -5.609375 10.894531 -4.726562 11.40625 -4.21875 C 11.925781 -3.71875 12.613281 -3.46875 13.46875 -3.46875 C 13.894531 -3.46875 14.375 -3.503906 14.90625 -3.578125 C 15.4375 -3.648438 15.882812 -3.726562 16.25 -3.8125 L 16.90625 -0.484375 C 16.445312 -0.191406 15.773438 0.046875 14.890625 0.234375 C 14.003906 0.421875 13.117188 0.515625 12.234375 0.515625 C 10.273438 0.515625 8.710938 -0.078125 7.546875 -1.265625 C 6.378906 -2.453125 5.796875 -4.316406 5.796875 -6.859375 L 5.796875 -23 L 1.59375 -23 L 1.59375 -26.59375 L 5.796875 -26.59375 L 5.796875 -33 Z M 10.640625 -33 "/></g></g></g><g fill="#008000" fill-opacity="1"><g transform="translate(1000.98776, 552.350032)"><g><path d="M 2.1875 -3.09375 L 6.1875 -3.78125 L 6.1875 -22.78125 L 2.1875 -23.46875 L 2.1875 -26.59375 L 11.03125 -26.59375 L 11.03125 -3.78125 L 15.046875 -3.09375 L 15.046875 0 L 2.1875 0 Z M 11.03125 -33.390625 L 6.1875 -33.390625 L 6.1875 -38.328125 L 11.03125 -38.328125 Z M 11.03125 -33.390625 "/></g></g></g><g fill="#008000" fill-opacity="1"><g transform="translate(1017.527539, 552.350032)"><g><path d="M 2.21875 -13.546875 C 2.21875 -17.472656 3.28125 -20.707031 5.40625 -23.25 C 7.53125 -25.800781 10.421875 -27.078125 14.078125 -27.078125 C 17.742188 -27.078125 20.644531 -25.804688 22.78125 -23.265625 C 24.925781 -20.734375 26 -17.492188 26 -13.546875 L 26 -13 C 26 -9.03125 24.929688 -5.785156 22.796875 -3.265625 C 20.671875 -0.742188 17.78125 0.515625 14.125 0.515625 C 10.4375 0.515625 7.53125 -0.75 5.40625 -3.28125 C 3.28125 -5.8125 2.21875 -9.050781 2.21875 -13 Z M 7.046875 -13 C 7.046875 -10.175781 7.640625 -7.847656 8.828125 -6.015625 C 10.015625 -4.179688 11.78125 -3.265625 14.125 -3.265625 C 16.425781 -3.265625 18.171875 -4.179688 19.359375 -6.015625 C 20.554688 -7.847656 21.15625 -10.175781 21.15625 -13 L 21.15625 -13.546875 C 21.15625 -16.328125 20.554688 -18.640625 19.359375 -20.484375 C 18.171875 -22.335938 16.410156 -23.265625 14.078125 -23.265625 C 11.753906 -23.265625 10 -22.335938 8.8125 -20.484375 C 7.632812 -18.640625 7.046875 -16.328125 7.046875 -13.546875 Z M 7.046875 -13 "/></g></g></g><g fill="#008000" fill-opacity="1"><g transform="translate(1045.765605, 552.350032)"><g><path d="M 1.46875 -3.09375 L 5.484375 -3.78125 L 5.484375 -22.78125 L 1.46875 -23.46875 L 1.46875 -26.59375 L 9.8125 -26.59375 L 10.15625 -22.640625 C 11.03125 -24.046875 12.132812 -25.132812 13.46875 -25.90625 C 14.8125 -26.6875 16.332031 -27.078125 18.03125 -27.078125 C 20.90625 -27.078125 23.128906 -26.238281 24.703125 -24.5625 C 26.273438 -22.882812 27.0625 -20.289062 27.0625 -16.78125 L 27.0625 -3.78125 L 31.0625 -3.09375 L 31.0625 0 L 18.203125 0 L 18.203125 -3.09375 L 22.21875 -3.78125 L 22.21875 -16.6875 C 22.21875 -19.03125 21.753906 -20.691406 20.828125 -21.671875 C 19.898438 -22.660156 18.488281 -23.15625 16.59375 -23.15625 C 15.195312 -23.15625 13.960938 -22.816406 12.890625 -22.140625 C 11.816406 -21.472656 10.960938 -20.554688 10.328125 -19.390625 L 10.328125 -3.78125 L 14.328125 -3.09375 L 14.328125 0 L 1.46875 0 Z M 1.46875 -3.09375 "/></g></g></g><g fill="#008000" fill-opacity="1"><g transform="translate(1078.157053, 552.350032)"><g/></g></g><g fill="#008000" fill-opacity="1"><g transform="translate(1090.66636, 552.350032)"><g><path d="M 2.1875 -3.09375 L 6.1875 -3.78125 L 6.1875 -22.78125 L 2.1875 -23.46875 L 2.1875 -26.59375 L 11.03125 -26.59375 L 11.03125 -3.78125 L 15.046875 -3.09375 L 15.046875 0 L 2.1875 0 Z M 11.03125 -33.390625 L 6.1875 -33.390625 L 6.1875 -38.328125 L 11.03125 -38.328125 Z M 11.03125 -33.390625 "/></g></g></g><g fill="#008000" fill-opacity="1"><g transform="translate(1107.206185, 552.350032)"><g><path d="M 22.53125 -18.234375 L 18.890625 -18.234375 L 18.109375 -21.421875 C 17.523438 -21.984375 16.785156 -22.429688 15.890625 -22.765625 C 14.992188 -23.097656 13.984375 -23.265625 12.859375 -23.265625 C 11.128906 -23.265625 9.847656 -22.890625 9.015625 -22.140625 C 8.179688 -21.390625 7.765625 -20.476562 7.765625 -19.40625 C 7.765625 -18.363281 8.132812 -17.535156 8.875 -16.921875 C 9.613281 -16.316406 11.113281 -15.78125 13.375 -15.3125 C 16.726562 -14.59375 19.222656 -13.613281 20.859375 -12.375 C 22.503906 -11.132812 23.328125 -9.472656 23.328125 -7.390625 C 23.328125 -5.035156 22.367188 -3.128906 20.453125 -1.671875 C 18.546875 -0.210938 16.050781 0.515625 12.96875 0.515625 C 10.957031 0.515625 9.148438 0.28125 7.546875 -0.1875 C 5.941406 -0.65625 4.507812 -1.332031 3.25 -2.21875 L 3.21875 -8.28125 L 6.859375 -8.28125 L 7.765625 -4.71875 C 8.316406 -4.207031 9.070312 -3.835938 10.03125 -3.609375 C 10.988281 -3.378906 11.96875 -3.265625 12.96875 -3.265625 C 14.695312 -3.265625 16.046875 -3.613281 17.015625 -4.3125 C 17.992188 -5.007812 18.484375 -5.921875 18.484375 -7.046875 C 18.484375 -8.117188 18.078125 -9 17.265625 -9.6875 C 16.453125 -10.375 14.914062 -10.96875 12.65625 -11.46875 C 9.425781 -12.175781 6.992188 -13.132812 5.359375 -14.34375 C 3.722656 -15.5625 2.90625 -17.203125 2.90625 -19.265625 C 2.90625 -21.429688 3.820312 -23.273438 5.65625 -24.796875 C 7.5 -26.316406 9.898438 -27.078125 12.859375 -27.078125 C 14.867188 -27.078125 16.675781 -26.816406 18.28125 -26.296875 C 19.882812 -25.773438 21.21875 -25.046875 22.28125 -24.109375 Z M 22.53125 -18.234375 "/></g></g></g><g fill="#008000" fill-opacity="1"><g transform="translate(1132.863746, 552.350032)"><g/></g></g><g fill="#008000" fill-opacity="1"><g transform="translate(1145.373053, 552.350032)"><g><path d="M 1.71875 -23 L 1.71875 -26.59375 L 5.875 -26.59375 L 5.875 -29.953125 C 5.875 -32.785156 6.613281 -34.976562 8.09375 -36.53125 C 9.582031 -38.082031 11.648438 -38.859375 14.296875 -38.859375 C 14.859375 -38.859375 15.421875 -38.8125 15.984375 -38.71875 C 16.546875 -38.625 17.171875 -38.492188 17.859375 -38.328125 L 17.28125 -34.65625 C 16.976562 -34.71875 16.617188 -34.769531 16.203125 -34.8125 C 15.785156 -34.863281 15.359375 -34.890625 14.921875 -34.890625 C 13.492188 -34.890625 12.4375 -34.46875 11.75 -33.625 C 11.0625 -32.78125 10.71875 -31.554688 10.71875 -29.953125 L 10.71875 -26.59375 L 16.265625 -26.59375 L 16.265625 -23 L 10.71875 -23 L 10.71875 -3.78125 L 14.71875 -3.09375 L 14.71875 0 L 1.875 0 L 1.875 -3.09375 L 5.875 -3.78125 L 5.875 -23 Z M 1.71875 -23 "/></g></g></g><g fill="#008000" fill-opacity="1"><g transform="translate(1163.264471, 552.350032)"><g><path d="M 19.53125 0 C 19.382812 -0.71875 19.269531 -1.363281 19.1875 -1.9375 C 19.101562 -2.507812 19.046875 -3.082031 19.015625 -3.65625 C 18.085938 -2.46875 16.921875 -1.472656 15.515625 -0.671875 C 14.117188 0.117188 12.625 0.515625 11.03125 0.515625 C 8.257812 0.515625 6.15625 -0.15625 4.71875 -1.5 C 3.28125 -2.851562 2.5625 -4.757812 2.5625 -7.21875 C 2.5625 -9.75 3.578125 -11.695312 5.609375 -13.0625 C 7.648438 -14.425781 10.445312 -15.109375 14 -15.109375 L 19 -15.109375 L 19 -18.203125 C 19 -19.765625 18.503906 -21 17.515625 -21.90625 C 16.535156 -22.8125 15.171875 -23.265625 13.421875 -23.265625 C 12.203125 -23.265625 11.128906 -23.109375 10.203125 -22.796875 C 9.285156 -22.492188 8.539062 -22.070312 7.96875 -21.53125 L 7.453125 -18.71875 L 3.703125 -18.71875 L 3.703125 -23.890625 C 4.921875 -24.859375 6.390625 -25.628906 8.109375 -26.203125 C 9.828125 -26.785156 11.695312 -27.078125 13.71875 -27.078125 C 16.726562 -27.078125 19.164062 -26.304688 21.03125 -24.765625 C 22.90625 -23.222656 23.84375 -21.019531 23.84375 -18.15625 L 23.84375 -5.359375 C 23.84375 -5.015625 23.84375 -4.675781 23.84375 -4.34375 C 23.851562 -4.019531 23.875 -3.691406 23.90625 -3.359375 L 25.875 -3.09375 L 25.875 0 Z M 11.75 -3.53125 C 13.351562 -3.53125 14.816406 -3.914062 16.140625 -4.6875 C 17.472656 -5.457031 18.425781 -6.382812 19 -7.46875 L 19 -11.84375 L 13.828125 -11.84375 C 11.847656 -11.84375 10.28125 -11.382812 9.125 -10.46875 C 7.96875 -9.550781 7.390625 -8.4375 7.390625 -7.125 C 7.390625 -5.957031 7.75 -5.066406 8.46875 -4.453125 C 9.195312 -3.835938 10.289062 -3.53125 11.75 -3.53125 Z M 11.75 -3.53125 "/></g></g></g><g fill="#008000" fill-opacity="1"><g transform="translate(1190.986454, 552.350032)"><g><path d="M 1.53125 -35.21875 L 1.53125 -38.328125 L 10.375 -38.328125 L 10.375 -3.78125 L 14.375 -3.09375 L 14.375 0 L 1.53125 0 L 1.53125 -3.09375 L 5.53125 -3.78125 L 5.53125 -34.53125 Z M 1.53125 -35.21875 "/></g></g></g><g fill="#008000" fill-opacity="1"><g transform="translate(1206.838077, 552.350032)"><g><path d="M 22.53125 -18.234375 L 18.890625 -18.234375 L 18.109375 -21.421875 C 17.523438 -21.984375 16.785156 -22.429688 15.890625 -22.765625 C 14.992188 -23.097656 13.984375 -23.265625 12.859375 -23.265625 C 11.128906 -23.265625 9.847656 -22.890625 9.015625 -22.140625 C 8.179688 -21.390625 7.765625 -20.476562 7.765625 -19.40625 C 7.765625 -18.363281 8.132812 -17.535156 8.875 -16.921875 C 9.613281 -16.316406 11.113281 -15.78125 13.375 -15.3125 C 16.726562 -14.59375 19.222656 -13.613281 20.859375 -12.375 C 22.503906 -11.132812 23.328125 -9.472656 23.328125 -7.390625 C 23.328125 -5.035156 22.367188 -3.128906 20.453125 -1.671875 C 18.546875 -0.210938 16.050781 0.515625 12.96875 0.515625 C 10.957031 0.515625 9.148438 0.28125 7.546875 -0.1875 C 5.941406 -0.65625 4.507812 -1.332031 3.25 -2.21875 L 3.21875 -8.28125 L 6.859375 -8.28125 L 7.765625 -4.71875 C 8.316406 -4.207031 9.070312 -3.835938 10.03125 -3.609375 C 10.988281 -3.378906 11.96875 -3.265625 12.96875 -3.265625 C 14.695312 -3.265625 16.046875 -3.613281 17.015625 -4.3125 C 17.992188 -5.007812 18.484375 -5.921875 18.484375 -7.046875 C 18.484375 -8.117188 18.078125 -9 17.265625 -9.6875 C 16.453125 -10.375 14.914062 -10.96875 12.65625 -11.46875 C 9.425781 -12.175781 6.992188 -13.132812 5.359375 -14.34375 C 3.722656 -15.5625 2.90625 -17.203125 2.90625 -19.265625 C 2.90625 -21.429688 3.820312 -23.273438 5.65625 -24.796875 C 7.5 -26.316406 9.898438 -27.078125 12.859375 -27.078125 C 14.867188 -27.078125 16.675781 -26.816406 18.28125 -26.296875 C 19.882812 -25.773438 21.21875 -25.046875 22.28125 -24.109375 Z M 22.53125 -18.234375 "/></g></g></g><g fill="#008000" fill-opacity="1"><g transform="translate(1232.495638, 552.350032)"><g><path d="M 14.328125 0.515625 C 10.617188 0.515625 7.671875 -0.710938 5.484375 -3.171875 C 3.304688 -5.640625 2.21875 -8.84375 2.21875 -12.78125 L 2.21875 -13.859375 C 2.21875 -17.640625 3.34375 -20.785156 5.59375 -23.296875 C 7.84375 -25.816406 10.507812 -27.078125 13.59375 -27.078125 C 17.164062 -27.078125 19.867188 -25.992188 21.703125 -23.828125 C 23.546875 -21.671875 24.46875 -18.789062 24.46875 -15.1875 L 24.46875 -12.171875 L 7.21875 -12.171875 L 7.15625 -12.046875 C 7.195312 -9.484375 7.835938 -7.378906 9.078125 -5.734375 C 10.328125 -4.085938 12.078125 -3.265625 14.328125 -3.265625 C 15.960938 -3.265625 17.398438 -3.5 18.640625 -3.96875 C 19.878906 -4.4375 20.945312 -5.078125 21.84375 -5.890625 L 23.734375 -2.75 C 22.785156 -1.832031 21.53125 -1.054688 19.96875 -0.421875 C 18.40625 0.203125 16.523438 0.515625 14.328125 0.515625 Z M 13.59375 -23.265625 C 11.96875 -23.265625 10.582031 -22.582031 9.4375 -21.21875 C 8.289062 -19.851562 7.585938 -18.140625 7.328125 -16.078125 L 7.375 -15.953125 L 19.640625 -15.953125 L 19.640625 -16.59375 C 19.640625 -18.488281 19.128906 -20.070312 18.109375 -21.34375 C 17.097656 -22.625 15.59375 -23.265625 13.59375 -23.265625 Z M 13.59375 -23.265625 "/></g></g></g></svg>