<svg xmlns="http://www.w3.org/2000/svg" xmlns:xlink="http://www.w3.org/1999/xlink" width="1920" zoomAndPan="magnify" viewBox="0 0 1440 809.999993" height="1080" preserveAspectRatio="xMidYMid meet" version="1.0"><defs><g/><clipPath id="e154fc692a"><path d="M 359.753906 243.332031 L 442.804688 243.332031 L 442.804688 326.382812 L 359.753906 326.382812 Z M 359.753906 243.332031 " clip-rule="nonzero"/></clipPath><clipPath id="25fb1681c6"><path d="M 442.804688 243.335938 L 499.488281 243.335938 L 499.488281 326.382812 L 442.804688 326.382812 Z M 442.804688 243.335938 " clip-rule="nonzero"/></clipPath><clipPath id="2b5f869c94"><path d="M 552.222656 243.332031 L 635.273438 243.332031 L 635.273438 326.382812 L 552.222656 326.382812 Z M 552.222656 243.332031 " clip-rule="nonzero"/></clipPath><clipPath id="ee7ddd51ba"><path d="M 635.273438 243.335938 L 691.957031 243.335938 L 691.957031 326.382812 L 635.273438 326.382812 Z M 635.273438 243.335938 " clip-rule="nonzero"/></clipPath><clipPath id="b83be063a9"><path d="M 744.359375 243.332031 L 827.410156 243.332031 L 827.410156 326.382812 L 744.359375 326.382812 Z M 744.359375 243.332031 " clip-rule="nonzero"/></clipPath><clipPath id="359d366641"><path d="M 827.410156 243.335938 L 884.09375 243.335938 L 884.09375 326.382812 L 827.410156 326.382812 Z M 827.410156 243.335938 " clip-rule="nonzero"/></clipPath><clipPath id="4e8320bef6"><path d="M 936.5 243.332031 L 1019.550781 243.332031 L 1019.550781 326.382812 L 936.5 326.382812 Z M 936.5 243.332031 " clip-rule="nonzero"/></clipPath><clipPath id="5225279c66"><path d="M 1019.550781 243.335938 L 1076.234375 243.335938 L 1076.234375 326.382812 L 1019.550781 326.382812 Z M 1019.550781 243.335938 " clip-rule="nonzero"/></clipPath><clipPath id="7ceca7243a"><path d="M 1019.550781 256.566406 L 1076.550781 256.566406 L 1076.550781 312.816406 L 1019.550781 312.816406 Z M 1019.550781 256.566406 " clip-rule="nonzero"/></clipPath><clipPath id="9d982821ab"><path d="M 416.441406 389.960938 L 499.492188 389.960938 L 499.492188 473.011719 L 416.441406 473.011719 Z M 416.441406 389.960938 " clip-rule="nonzero"/></clipPath><clipPath id="1c02a017c7"><path d="M 499.492188 389.960938 L 556.175781 389.960938 L 556.175781 473.007812 L 499.492188 473.007812 Z M 499.492188 389.960938 " clip-rule="nonzero"/></clipPath><clipPath id="9001f1be79"><path d="M 359.753906 389.960938 L 416.4375 389.960938 L 416.4375 473.007812 L 359.753906 473.007812 Z M 359.753906 389.960938 " clip-rule="nonzero"/></clipPath><clipPath id="91be8f4ed2"><path d="M 682.753906 389.960938 L 765.804688 389.960938 L 765.804688 473.011719 L 682.753906 473.011719 Z M 682.753906 389.960938 " clip-rule="nonzero"/></clipPath><clipPath id="d6cc23f56e"><path d="M 765.804688 389.960938 L 822.488281 389.960938 L 822.488281 473.007812 L 765.804688 473.007812 Z M 765.804688 389.960938 " clip-rule="nonzero"/></clipPath><clipPath id="8e8571355b"><path d="M 626.070312 389.960938 L 682.753906 389.960938 L 682.753906 473.007812 L 626.070312 473.007812 Z M 626.070312 389.960938 " clip-rule="nonzero"/></clipPath><clipPath id="bb75de2cbd"><path d="M 948.011719 389.960938 L 1031.0625 389.960938 L 1031.0625 473.011719 L 948.011719 473.011719 Z M 948.011719 389.960938 " clip-rule="nonzero"/></clipPath><clipPath id="efff091af0"><path d="M 1031.0625 389.960938 L 1087.746094 389.960938 L 1087.746094 473.007812 L 1031.0625 473.007812 Z M 1031.0625 389.960938 " clip-rule="nonzero"/></clipPath><clipPath id="6b59e10dec"><path d="M 891.324219 389.960938 L 948.007812 389.960938 L 948.007812 473.007812 L 891.324219 473.007812 Z M 891.324219 389.960938 " clip-rule="nonzero"/></clipPath><clipPath id="56a14ac2bd"><path d="M 359.753906 403.195312 L 416.753906 403.195312 L 416.753906 459.445312 L 359.753906 459.445312 Z M 359.753906 403.195312 " clip-rule="nonzero"/></clipPath><clipPath id="970c222f12"><path d="M 1209.308594 389.960938 L 1292.359375 389.960938 L 1292.359375 473.011719 L 1209.308594 473.011719 Z M 1209.308594 389.960938 " clip-rule="nonzero"/></clipPath><clipPath id="210ad67964"><path d="M 1292.363281 389.960938 L 1349.046875 389.960938 L 1349.046875 473.007812 L 1292.363281 473.007812 Z M 1292.363281 389.960938 " clip-rule="nonzero"/></clipPath><clipPath id="10d817aaf5"><path d="M 1152.625 389.960938 L 1209.308594 389.960938 L 1209.308594 473.007812 L 1152.625 473.007812 Z M 1152.625 389.960938 " clip-rule="nonzero"/></clipPath><clipPath id="e61e3685c6"><path d="M 1292.363281 403.195312 L 1349 403.195312 L 1349 459.445312 L 1292.363281 459.445312 Z M 1292.363281 403.195312 " clip-rule="nonzero"/></clipPath><clipPath id="ca3b8ecb44"><path d="M 359.753906 536.289062 L 442.804688 536.289062 L 442.804688 619.339844 L 359.753906 619.339844 Z M 359.753906 536.289062 " clip-rule="nonzero"/></clipPath><clipPath id="c2de8d5027"><path d="M 442.804688 536.289062 L 499.488281 536.289062 L 499.488281 619.335938 L 442.804688 619.335938 Z M 442.804688 536.289062 " clip-rule="nonzero"/></clipPath><clipPath id="30ecae930c"><path d="M 552.222656 536.289062 L 635.273438 536.289062 L 635.273438 619.339844 L 552.222656 619.339844 Z M 552.222656 536.289062 " clip-rule="nonzero"/></clipPath><clipPath id="4f7aeca0f6"><path d="M 635.273438 536.289062 L 691.957031 536.289062 L 691.957031 619.335938 L 635.273438 619.335938 Z M 635.273438 536.289062 " clip-rule="nonzero"/></clipPath><clipPath id="11e76db9ea"><path d="M 744.359375 536.289062 L 827.410156 536.289062 L 827.410156 619.339844 L 744.359375 619.339844 Z M 744.359375 536.289062 " clip-rule="nonzero"/></clipPath><clipPath id="8eb87af194"><path d="M 827.410156 536.289062 L 884.09375 536.289062 L 884.09375 619.335938 L 827.410156 619.335938 Z M 827.410156 536.289062 " clip-rule="nonzero"/></clipPath><clipPath id="8a5b29d1e7"><path d="M 936.5 536.289062 L 1019.550781 536.289062 L 1019.550781 619.339844 L 936.5 619.339844 Z M 936.5 536.289062 " clip-rule="nonzero"/></clipPath><clipPath id="968a765db0"><path d="M 1019.550781 536.289062 L 1076.234375 536.289062 L 1076.234375 619.335938 L 1019.550781 619.335938 Z M 1019.550781 536.289062 " clip-rule="nonzero"/></clipPath></defs><g clip-path="url(#e154fc692a)"><path stroke-linecap="butt" transform="matrix(0.75, 0, 0, 0.75, 359.75448, 243.333392)" fill="none" stroke-linejoin="miter" d="M -0.000765165 -0.00181401 L 110.733615 -0.00181401 L 110.733615 110.732567 L -0.000765165 110.732567 Z M -0.000765165 -0.00181401 " stroke="#a6a6a6" stroke-width="4" stroke-opacity="1" stroke-miterlimit="4"/></g><g fill="#000000" fill-opacity="1"><g transform="translate(395.731041, 292.833389)"><g><path d="M 8.390625 -11.984375 L 8.203125 -13.140625 L 3.75 -13.140625 L 3.265625 -8.9375 C 3.566406 -9.175781 3.910156 -9.367188 4.296875 -9.515625 C 4.679688 -9.671875 5.128906 -9.753906 5.640625 -9.765625 C 7.015625 -9.785156 8.09375 -9.335938 8.875 -8.421875 C 9.664062 -7.515625 10.0625 -6.296875 10.0625 -4.765625 C 10.0625 -3.265625 9.660156 -2.054688 8.859375 -1.140625 C 8.054688 -0.234375 6.890625 0.21875 5.359375 0.21875 C 4.085938 0.21875 3.03125 -0.125 2.1875 -0.8125 C 1.351562 -1.507812 0.957031 -2.523438 1 -3.859375 L 1.015625 -3.921875 L 2.84375 -3.921875 C 2.84375 -3.117188 3.078125 -2.488281 3.546875 -2.03125 C 4.015625 -1.582031 4.617188 -1.359375 5.359375 -1.359375 C 6.210938 -1.359375 6.875 -1.660156 7.34375 -2.265625 C 7.8125 -2.867188 8.046875 -3.691406 8.046875 -4.734375 C 8.046875 -5.703125 7.804688 -6.488281 7.328125 -7.09375 C 6.859375 -7.707031 6.203125 -8.015625 5.359375 -8.015625 C 4.566406 -8.015625 3.988281 -7.894531 3.625 -7.65625 C 3.269531 -7.414062 3.007812 -7.050781 2.84375 -6.5625 L 1.171875 -6.734375 L 2.03125 -14.9375 L 9.921875 -14.9375 L 9.921875 -11.984375 Z M 8.390625 -11.984375 "/></g></g></g><g clip-path="url(#25fb1681c6)"><path stroke-linecap="butt" transform="matrix(0.75, 0, 0, 0.75, 442.80572, 243.334755)" fill="none" stroke-linejoin="miter" d="M -0.00137659 0.00157672 L 75.576752 0.00157672 L 75.576752 110.730749 L -0.00137659 110.730749 Z M -0.00137659 0.00157672 " stroke="#a6a6a6" stroke-width="4" stroke-opacity="1" stroke-miterlimit="4"/></g><g clip-path="url(#2b5f869c94)"><path stroke-linecap="butt" transform="matrix(0.75, 0, 0, 0.75, 552.222458, 243.333392)" fill="none" stroke-linejoin="miter" d="M 0.000263746 -0.00181401 L 110.734644 -0.00181401 L 110.734644 110.732567 L 0.000263746 110.732567 Z M 0.000263746 -0.00181401 " stroke="#a6a6a6" stroke-width="4" stroke-opacity="1" stroke-miterlimit="4"/></g><g fill="#000000" fill-opacity="1"><g transform="translate(584.413863, 292.083389)"><g><path d="M 1.125 -1.171875 L 3.203125 -1.421875 L 3.203125 -11.546875 L 1.078125 -11.515625 L 1.078125 -12.65625 L 5.03125 -13.515625 L 5.03125 -1.421875 L 7.109375 -1.171875 L 7.109375 0 L 1.125 0 Z M 1.125 -1.171875 "/></g></g></g><g fill="#000000" fill-opacity="1"><g transform="translate(592.242331, 292.083389)"><g><path d="M 9.71875 -5.15625 C 9.71875 -3.425781 9.332031 -2.101562 8.5625 -1.1875 C 7.800781 -0.269531 6.753906 0.1875 5.421875 0.1875 C 4.097656 0.1875 3.050781 -0.269531 2.28125 -1.1875 C 1.507812 -2.101562 1.125 -3.425781 1.125 -5.15625 L 1.125 -8.34375 C 1.125 -10.0625 1.503906 -11.382812 2.265625 -12.3125 C 3.035156 -13.238281 4.082031 -13.703125 5.40625 -13.703125 C 6.738281 -13.703125 7.789062 -13.238281 8.5625 -12.3125 C 9.332031 -11.382812 9.71875 -10.0625 9.71875 -8.34375 Z M 7.890625 -8.734375 C 7.890625 -9.910156 7.675781 -10.789062 7.25 -11.375 C 6.832031 -11.96875 6.21875 -12.265625 5.40625 -12.265625 C 4.613281 -12.265625 4.003906 -11.96875 3.578125 -11.375 C 3.160156 -10.789062 2.953125 -9.910156 2.953125 -8.734375 L 2.953125 -4.78125 C 2.953125 -3.613281 3.164062 -2.726562 3.59375 -2.125 C 4.019531 -1.53125 4.628906 -1.234375 5.421875 -1.234375 C 6.234375 -1.234375 6.847656 -1.53125 7.265625 -2.125 C 7.679688 -2.71875 7.890625 -3.601562 7.890625 -4.78125 Z M 7.890625 -8.734375 "/></g></g></g><g clip-path="url(#ee7ddd51ba)"><path stroke-linecap="butt" transform="matrix(0.75, 0, 0, 0.75, 635.27371, 243.334755)" fill="none" stroke-linejoin="miter" d="M -0.000363683 0.00157672 L 75.577765 0.00157672 L 75.577765 110.730749 L -0.000363683 110.730749 Z M -0.000363683 0.00157672 " stroke="#a6a6a6" stroke-width="4" stroke-opacity="1" stroke-miterlimit="4"/></g><g clip-path="url(#b83be063a9)"><path stroke-linecap="butt" transform="matrix(0.75, 0, 0, 0.75, 744.360857, 243.333392)" fill="none" stroke-linejoin="miter" d="M -0.0019757 -0.00181401 L 110.732405 -0.00181401 L 110.732405 110.732567 L -0.0019757 110.732567 Z M -0.0019757 -0.00181401 " stroke="#a6a6a6" stroke-width="4" stroke-opacity="1" stroke-miterlimit="4"/></g><g fill="#000000" fill-opacity="1"><g transform="translate(776.950699, 292.083389)"><g><path d="M 1.125 -1.171875 L 3.203125 -1.421875 L 3.203125 -11.546875 L 1.078125 -11.515625 L 1.078125 -12.65625 L 5.03125 -13.515625 L 5.03125 -1.421875 L 7.109375 -1.171875 L 7.109375 0 L 1.125 0 Z M 1.125 -1.171875 "/></g></g></g><g fill="#000000" fill-opacity="1"><g transform="translate(784.779167, 292.083389)"><g><path d="M 7.59375 -10.84375 L 7.421875 -11.890625 L 3.390625 -11.890625 L 2.953125 -8.09375 C 3.234375 -8.300781 3.546875 -8.472656 3.890625 -8.609375 C 4.242188 -8.753906 4.648438 -8.832031 5.109375 -8.84375 C 6.347656 -8.851562 7.320312 -8.445312 8.03125 -7.625 C 8.75 -6.800781 9.109375 -5.695312 9.109375 -4.3125 C 9.109375 -2.945312 8.742188 -1.851562 8.015625 -1.03125 C 7.296875 -0.21875 6.238281 0.1875 4.84375 0.1875 C 3.695312 0.1875 2.742188 -0.117188 1.984375 -0.734375 C 1.234375 -1.359375 0.875 -2.28125 0.90625 -3.5 L 0.921875 -3.546875 L 2.5625 -3.546875 C 2.5625 -2.816406 2.773438 -2.25 3.203125 -1.84375 C 3.628906 -1.4375 4.175781 -1.234375 4.84375 -1.234375 C 5.613281 -1.234375 6.210938 -1.503906 6.640625 -2.046875 C 7.066406 -2.585938 7.28125 -3.332031 7.28125 -4.28125 C 7.28125 -5.15625 7.066406 -5.867188 6.640625 -6.421875 C 6.210938 -6.972656 5.617188 -7.25 4.859375 -7.25 C 4.140625 -7.25 3.613281 -7.140625 3.28125 -6.921875 C 2.957031 -6.710938 2.722656 -6.382812 2.578125 -5.9375 L 1.0625 -6.09375 L 1.84375 -13.515625 L 8.96875 -13.515625 L 8.96875 -10.84375 Z M 7.59375 -10.84375 "/></g></g></g><g clip-path="url(#359d366641)"><path stroke-linecap="butt" transform="matrix(0.75, 0, 0, 0.75, 827.412085, 243.334755)" fill="none" stroke-linejoin="miter" d="M -0.00257113 0.00157672 L 75.575558 0.00157672 L 75.575558 110.730749 L -0.00257113 110.730749 Z M -0.00257113 0.00157672 " stroke="#a6a6a6" stroke-width="4" stroke-opacity="1" stroke-miterlimit="4"/></g><g clip-path="url(#4e8320bef6)"><path stroke-linecap="butt" transform="matrix(0.75, 0, 0, 0.75, 936.499183, 243.333392)" fill="none" stroke-linejoin="miter" d="M 0.00108919 -0.00181401 L 110.73547 -0.00181401 L 110.73547 110.732567 L 0.00108919 110.732567 Z M 0.00108919 -0.00181401 " stroke="#a6a6a6" stroke-width="4" stroke-opacity="1" stroke-miterlimit="4"/></g><g fill="#000000" fill-opacity="1"><g transform="translate(967.35465, 292.083389)"><g><path d="M 0.90625 0 L 0.90625 -1.25 L 5.328125 -6.171875 C 6.117188 -7.054688 6.65625 -7.757812 6.9375 -8.28125 C 7.21875 -8.800781 7.359375 -9.332031 7.359375 -9.875 C 7.359375 -10.539062 7.160156 -11.101562 6.765625 -11.5625 C 6.367188 -12.03125 5.847656 -12.265625 5.203125 -12.265625 C 4.265625 -12.265625 3.578125 -12.023438 3.140625 -11.546875 C 2.703125 -11.078125 2.484375 -10.40625 2.484375 -9.53125 L 0.71875 -9.53125 L 0.703125 -9.578125 C 0.671875 -10.742188 1.054688 -11.722656 1.859375 -12.515625 C 2.660156 -13.304688 3.773438 -13.703125 5.203125 -13.703125 C 6.410156 -13.703125 7.375 -13.347656 8.09375 -12.640625 C 8.820312 -11.929688 9.1875 -11.03125 9.1875 -9.9375 C 9.1875 -9.195312 8.96875 -8.457031 8.53125 -7.71875 C 8.09375 -6.988281 7.476562 -6.195312 6.6875 -5.34375 L 3.140625 -1.46875 L 3.15625 -1.421875 L 7.953125 -1.421875 L 8.09375 -2.984375 L 9.65625 -2.984375 L 9.65625 0 Z M 0.90625 0 "/></g></g></g><g fill="#000000" fill-opacity="1"><g transform="translate(977.845174, 292.083389)"><g><path d="M 9.71875 -5.15625 C 9.71875 -3.425781 9.332031 -2.101562 8.5625 -1.1875 C 7.800781 -0.269531 6.753906 0.1875 5.421875 0.1875 C 4.097656 0.1875 3.050781 -0.269531 2.28125 -1.1875 C 1.507812 -2.101562 1.125 -3.425781 1.125 -5.15625 L 1.125 -8.34375 C 1.125 -10.0625 1.503906 -11.382812 2.265625 -12.3125 C 3.035156 -13.238281 4.082031 -13.703125 5.40625 -13.703125 C 6.738281 -13.703125 7.789062 -13.238281 8.5625 -12.3125 C 9.332031 -11.382812 9.71875 -10.0625 9.71875 -8.34375 Z M 7.890625 -8.734375 C 7.890625 -9.910156 7.675781 -10.789062 7.25 -11.375 C 6.832031 -11.96875 6.21875 -12.265625 5.40625 -12.265625 C 4.613281 -12.265625 4.003906 -11.96875 3.578125 -11.375 C 3.160156 -10.789062 2.953125 -9.910156 2.953125 -8.734375 L 2.953125 -4.78125 C 2.953125 -3.613281 3.164062 -2.726562 3.59375 -2.125 C 4.019531 -1.53125 4.628906 -1.234375 5.421875 -1.234375 C 6.234375 -1.234375 6.847656 -1.53125 7.265625 -2.125 C 7.679688 -2.71875 7.890625 -3.601562 7.890625 -4.78125 Z M 7.890625 -8.734375 "/></g></g></g><g clip-path="url(#5225279c66)"><path stroke-linecap="butt" transform="matrix(0.75, 0, 0, 0.75, 1019.550435, 243.334755)" fill="none" stroke-linejoin="miter" d="M 0.00046176 0.00157672 L 75.578591 0.00157672 L 75.578591 110.730749 L 0.00046176 110.730749 Z M 0.00046176 0.00157672 " stroke="#a6a6a6" stroke-width="4" stroke-opacity="1" stroke-miterlimit="4"/></g><g clip-path="url(#7ceca7243a)"><path fill="#a6a6a6" d="M 1075.855469 311.53125 C 1076.222656 311.898438 1076.222656 312.492188 1075.855469 312.863281 C 1075.667969 313.046875 1075.429688 313.136719 1075.1875 313.136719 C 1074.945312 313.136719 1074.707031 313.046875 1074.519531 312.863281 L 1047.886719 286.230469 L 1021.253906 312.863281 C 1021.070312 313.046875 1020.832031 313.136719 1020.589844 313.136719 C 1020.347656 313.136719 1020.105469 313.046875 1019.921875 312.863281 C 1019.554688 312.492188 1019.554688 311.898438 1019.921875 311.53125 L 1046.554688 284.898438 L 1019.921875 258.265625 C 1019.554688 257.894531 1019.554688 257.300781 1019.921875 256.929688 C 1020.289062 256.5625 1020.886719 256.5625 1021.253906 256.929688 L 1047.886719 283.5625 L 1074.519531 256.929688 C 1074.890625 256.5625 1075.484375 256.5625 1075.855469 256.929688 C 1076.222656 257.300781 1076.222656 257.894531 1075.855469 258.265625 L 1049.222656 284.898438 Z M 1075.855469 311.53125 " fill-opacity="1" fill-rule="nonzero"/></g><path stroke-linecap="round" transform="matrix(0.75, 0, 0, 0.75, 471.148615, 283.35903)" fill="none" stroke-linejoin="miter" d="M 1.999764 2.00046 L 88.33831 2.00046 " stroke="#000000" stroke-width="4" stroke-opacity="1" stroke-miterlimit="4"/><path stroke-linecap="round" transform="matrix(0.75, 0, 0, 0.75, 471.148615, 283.35903)" fill="none" stroke-linejoin="round" d="M 81.33831 -3.99954 L 89.33831 2.00046 L 81.33831 8.000461 " stroke="#000000" stroke-width="4" stroke-opacity="1" stroke-miterlimit="4"/><path stroke-linecap="round" transform="matrix(0.75, 0, 0, 0.75, 663.616557, 283.35903)" fill="none" stroke-linejoin="miter" d="M 2.000841 2.00046 L 88.334179 2.00046 " stroke="#000000" stroke-width="4" stroke-opacity="1" stroke-miterlimit="4"/><path stroke-linecap="round" transform="matrix(0.75, 0, 0, 0.75, 663.616557, 283.35903)" fill="none" stroke-linejoin="round" d="M 81.334178 -3.99954 L 89.334179 2.00046 L 81.334178 8.000461 " stroke="#000000" stroke-width="4" stroke-opacity="1" stroke-miterlimit="4"/><path stroke-linecap="round" transform="matrix(0.75, 0, 0, 0.75, 849.846515, 283.35903)" fill="none" stroke-linejoin="miter" d="M 2.001521 2.00046 L 88.334859 2.00046 " stroke="#000000" stroke-width="4" stroke-opacity="1" stroke-miterlimit="4"/><path stroke-linecap="round" transform="matrix(0.75, 0, 0, 0.75, 849.846515, 283.35903)" fill="none" stroke-linejoin="round" d="M 81.334858 -3.99954 L 89.334859 2.00046 L 81.334858 8.000461 " stroke="#000000" stroke-width="4" stroke-opacity="1" stroke-miterlimit="4"/><g clip-path="url(#9d982821ab)"><path stroke-linecap="butt" transform="matrix(0.75, 0, 0, 0.75, 416.440257, 389.96004)" fill="none" stroke-linejoin="miter" d="M 0.00153197 0.00119616 L 110.735913 0.00119616 L 110.735913 110.735577 L 0.00153197 110.735577 Z M 0.00153197 0.00119616 " stroke="#a6a6a6" stroke-width="4" stroke-opacity="1" stroke-miterlimit="4"/></g><g fill="#000000" fill-opacity="1"><g transform="translate(452.416818, 439.460038)"><g><path d="M 8.390625 -11.984375 L 8.203125 -13.140625 L 3.75 -13.140625 L 3.265625 -8.9375 C 3.566406 -9.175781 3.910156 -9.367188 4.296875 -9.515625 C 4.679688 -9.671875 5.128906 -9.753906 5.640625 -9.765625 C 7.015625 -9.785156 8.09375 -9.335938 8.875 -8.421875 C 9.664062 -7.515625 10.0625 -6.296875 10.0625 -4.765625 C 10.0625 -3.265625 9.660156 -2.054688 8.859375 -1.140625 C 8.054688 -0.234375 6.890625 0.21875 5.359375 0.21875 C 4.085938 0.21875 3.03125 -0.125 2.1875 -0.8125 C 1.351562 -1.507812 0.957031 -2.523438 1 -3.859375 L 1.015625 -3.921875 L 2.84375 -3.921875 C 2.84375 -3.117188 3.078125 -2.488281 3.546875 -2.03125 C 4.015625 -1.582031 4.617188 -1.359375 5.359375 -1.359375 C 6.210938 -1.359375 6.875 -1.660156 7.34375 -2.265625 C 7.8125 -2.867188 8.046875 -3.691406 8.046875 -4.734375 C 8.046875 -5.703125 7.804688 -6.488281 7.328125 -7.09375 C 6.859375 -7.707031 6.203125 -8.015625 5.359375 -8.015625 C 4.566406 -8.015625 3.988281 -7.894531 3.625 -7.65625 C 3.269531 -7.414062 3.007812 -7.050781 2.84375 -6.5625 L 1.171875 -6.734375 L 2.03125 -14.9375 L 9.921875 -14.9375 L 9.921875 -11.984375 Z M 8.390625 -11.984375 "/></g></g></g><g clip-path="url(#1c02a017c7)"><path stroke-linecap="butt" transform="matrix(0.75, 0, 0, 0.75, 499.491485, 389.961416)" fill="none" stroke-linejoin="miter" d="M 0.000936542 -0.000637442 L 75.579065 -0.000637442 L 75.579065 110.728535 L 0.000936542 110.728535 Z M 0.000936542 -0.000637442 " stroke="#a6a6a6" stroke-width="4" stroke-opacity="1" stroke-miterlimit="4"/></g><path stroke-linecap="round" transform="matrix(0.75, 0, 0, 0.75, 527.834332, 419.185367)" fill="none" stroke-linejoin="miter" d="M 2.002141 1.997636 L 88.335479 1.997636 " stroke="#000000" stroke-width="4" stroke-opacity="1" stroke-miterlimit="4"/><path stroke-linecap="round" transform="matrix(0.75, 0, 0, 0.75, 527.834332, 419.185367)" fill="none" stroke-linejoin="round" d="M 81.335479 -4.002364 L 89.335479 1.997636 L 81.335479 7.997636 " stroke="#000000" stroke-width="4" stroke-opacity="1" stroke-miterlimit="4"/><g clip-path="url(#9001f1be79)"><path stroke-linecap="butt" transform="matrix(0.75, 0, 0, 0.75, 359.75448, 389.961416)" fill="none" stroke-linejoin="miter" d="M -0.000765165 -0.000637442 L 75.577364 -0.000637442 L 75.577364 110.728535 L -0.000765165 110.728535 Z M -0.000765165 -0.000637442 " stroke="#a6a6a6" stroke-width="4" stroke-opacity="1" stroke-miterlimit="4"/></g><g clip-path="url(#91be8f4ed2)"><path stroke-linecap="butt" transform="matrix(0.75, 0, 0, 0.75, 682.75538, 389.96004)" fill="none" stroke-linejoin="miter" d="M -0.00196483 0.00119616 L 110.732416 0.00119616 L 110.732416 110.735577 L -0.00196483 110.735577 Z M -0.00196483 0.00119616 " stroke="#a6a6a6" stroke-width="4" stroke-opacity="1" stroke-miterlimit="4"/></g><g fill="#000000" fill-opacity="1"><g transform="translate(713.96241, 439.460038)"><g><path d="M 1.234375 -1.296875 L 3.546875 -1.578125 L 3.546875 -12.765625 L 1.203125 -12.71875 L 1.203125 -13.984375 L 5.5625 -14.9375 L 5.5625 -1.578125 L 7.859375 -1.296875 L 7.859375 0 L 1.234375 0 Z M 1.234375 -1.296875 "/></g></g><g transform="translate(722.616706, 439.460038)"><g><path d="M 10.75 -5.6875 C 10.75 -3.78125 10.320312 -2.316406 9.46875 -1.296875 C 8.625 -0.285156 7.46875 0.21875 6 0.21875 C 4.53125 0.21875 3.367188 -0.289062 2.515625 -1.3125 C 1.660156 -2.332031 1.234375 -3.789062 1.234375 -5.6875 L 1.234375 -9.234375 C 1.234375 -11.128906 1.65625 -12.585938 2.5 -13.609375 C 3.351562 -14.628906 4.515625 -15.140625 5.984375 -15.140625 C 7.453125 -15.140625 8.613281 -14.628906 9.46875 -13.609375 C 10.320312 -12.585938 10.75 -11.128906 10.75 -9.234375 Z M 8.71875 -9.65625 C 8.71875 -10.945312 8.484375 -11.921875 8.015625 -12.578125 C 7.554688 -13.234375 6.878906 -13.5625 5.984375 -13.5625 C 5.097656 -13.5625 4.421875 -13.234375 3.953125 -12.578125 C 3.492188 -11.921875 3.265625 -10.945312 3.265625 -9.65625 L 3.265625 -5.28125 C 3.265625 -3.988281 3.5 -3.007812 3.96875 -2.34375 C 4.4375 -1.6875 5.113281 -1.359375 6 -1.359375 C 6.894531 -1.359375 7.570312 -1.6875 8.03125 -2.34375 C 8.488281 -3 8.71875 -3.976562 8.71875 -5.28125 Z M 8.71875 -9.65625 "/></g></g></g><g clip-path="url(#d6cc23f56e)"><path stroke-linecap="butt" transform="matrix(0.75, 0, 0, 0.75, 765.806632, 389.961416)" fill="none" stroke-linejoin="miter" d="M -0.00259226 -0.000637442 L 75.575537 -0.000637442 L 75.575537 110.728535 L -0.00259226 110.728535 Z M -0.00259226 -0.000637442 " stroke="#a6a6a6" stroke-width="4" stroke-opacity="1" stroke-miterlimit="4"/></g><g clip-path="url(#8e8571355b)"><path stroke-linecap="butt" transform="matrix(0.75, 0, 0, 0.75, 626.069615, 389.961416)" fill="none" stroke-linejoin="miter" d="M 0.000930366 -0.000637442 L 75.579059 -0.000637442 L 75.579059 110.728535 L 0.000930366 110.728535 Z M 0.000930366 -0.000637442 " stroke="#a6a6a6" stroke-width="4" stroke-opacity="1" stroke-miterlimit="4"/></g><g clip-path="url(#bb75de2cbd)"><path stroke-linecap="butt" transform="matrix(0.75, 0, 0, 0.75, 948.010207, 389.96004)" fill="none" stroke-linejoin="miter" d="M 0.00201629 0.00119616 L 110.736397 0.00119616 L 110.736397 110.735577 L 0.00201629 110.735577 Z M 0.00201629 0.00119616 " stroke="#a6a6a6" stroke-width="4" stroke-opacity="1" stroke-miterlimit="4"/></g><g fill="#000000" fill-opacity="1"><g transform="translate(979.662549, 439.460038)"><g><path d="M 1.234375 -1.296875 L 3.546875 -1.578125 L 3.546875 -12.765625 L 1.203125 -12.71875 L 1.203125 -13.984375 L 5.5625 -14.9375 L 5.5625 -1.578125 L 7.859375 -1.296875 L 7.859375 0 L 1.234375 0 Z M 1.234375 -1.296875 "/></g></g><g transform="translate(988.316845, 439.460038)"><g><path d="M 8.390625 -11.984375 L 8.203125 -13.140625 L 3.75 -13.140625 L 3.265625 -8.9375 C 3.566406 -9.175781 3.910156 -9.367188 4.296875 -9.515625 C 4.679688 -9.671875 5.128906 -9.753906 5.640625 -9.765625 C 7.015625 -9.785156 8.09375 -9.335938 8.875 -8.421875 C 9.664062 -7.515625 10.0625 -6.296875 10.0625 -4.765625 C 10.0625 -3.265625 9.660156 -2.054688 8.859375 -1.140625 C 8.054688 -0.234375 6.890625 0.21875 5.359375 0.21875 C 4.085938 0.21875 3.03125 -0.125 2.1875 -0.8125 C 1.351562 -1.507812 0.957031 -2.523438 1 -3.859375 L 1.015625 -3.921875 L 2.84375 -3.921875 C 2.84375 -3.117188 3.078125 -2.488281 3.546875 -2.03125 C 4.015625 -1.582031 4.617188 -1.359375 5.359375 -1.359375 C 6.210938 -1.359375 6.875 -1.660156 7.34375 -2.265625 C 7.8125 -2.867188 8.046875 -3.691406 8.046875 -4.734375 C 8.046875 -5.703125 7.804688 -6.488281 7.328125 -7.09375 C 6.859375 -7.707031 6.203125 -8.015625 5.359375 -8.015625 C 4.566406 -8.015625 3.988281 -7.894531 3.625 -7.65625 C 3.269531 -7.414062 3.007812 -7.050781 2.84375 -6.5625 L 1.171875 -6.734375 L 2.03125 -14.9375 L 9.921875 -14.9375 L 9.921875 -11.984375 Z M 8.390625 -11.984375 "/></g></g></g><g clip-path="url(#efff091af0)"><path stroke-linecap="butt" transform="matrix(0.75, 0, 0, 0.75, 1031.06141, 389.961416)" fill="none" stroke-linejoin="miter" d="M 0.00145287 -0.000637442 L 75.579582 -0.000637442 L 75.579582 110.728535 L 0.00145287 110.728535 Z M 0.00145287 -0.000637442 " stroke="#a6a6a6" stroke-width="4" stroke-opacity="1" stroke-miterlimit="4"/></g><g clip-path="url(#6b59e10dec)"><path stroke-linecap="butt" transform="matrix(0.75, 0, 0, 0.75, 891.324465, 389.961416)" fill="none" stroke-linejoin="miter" d="M -0.000328841 -0.000637442 L 75.5778 -0.000637442 L 75.5778 110.728535 L -0.000328841 110.728535 Z M -0.000328841 -0.000637442 " stroke="#a6a6a6" stroke-width="4" stroke-opacity="1" stroke-miterlimit="4"/></g><g clip-path="url(#56a14ac2bd)"><path fill="#a6a6a6" d="M 416.058594 458.15625 C 416.425781 458.523438 416.425781 459.121094 416.058594 459.488281 C 415.875 459.671875 415.632812 459.765625 415.390625 459.765625 C 415.152344 459.765625 414.910156 459.671875 414.726562 459.488281 L 388.09375 432.855469 L 361.460938 459.488281 C 361.277344 459.671875 361.035156 459.765625 360.792969 459.765625 C 360.550781 459.765625 360.3125 459.671875 360.128906 459.488281 C 359.757812 459.121094 359.757812 458.523438 360.128906 458.15625 L 386.761719 431.523438 L 360.128906 404.890625 C 359.757812 404.523438 359.757812 403.925781 360.128906 403.558594 C 360.496094 403.191406 361.089844 403.191406 361.460938 403.558594 L 388.09375 430.191406 L 414.726562 403.558594 C 415.09375 403.191406 415.691406 403.191406 416.058594 403.558594 C 416.425781 403.925781 416.425781 404.523438 416.058594 404.890625 L 389.425781 431.523438 Z M 416.058594 458.15625 " fill-opacity="1" fill-rule="nonzero"/></g><path stroke-linecap="round" transform="matrix(-0.75, 0, 0, -0.75, 654.406077, 443.785966)" fill="none" stroke-linejoin="miter" d="M 1.99977 2.001079 L 88.338316 2.001079 " stroke="#000000" stroke-width="4" stroke-opacity="1" stroke-miterlimit="4"/><path stroke-linecap="round" transform="matrix(-0.75, 0, 0, -0.75, 654.406077, 443.785966)" fill="none" stroke-linejoin="round" d="M 81.338315 -3.998921 L 89.338316 2.001079 L 81.338315 8.00108 " stroke="#000000" stroke-width="4" stroke-opacity="1" stroke-miterlimit="4"/><path stroke-linecap="round" transform="matrix(0.75, 0, 0, 0.75, 795.467774, 417.702311)" fill="none" stroke-linejoin="miter" d="M 2.001301 2.001085 L 88.334639 2.001085 " stroke="#000000" stroke-width="4" stroke-opacity="1" stroke-miterlimit="4"/><path stroke-linecap="round" transform="matrix(0.75, 0, 0, 0.75, 795.467774, 417.702311)" fill="none" stroke-linejoin="round" d="M 81.334638 -3.998915 L 89.334639 2.001085 L 81.334638 8.001086 " stroke="#000000" stroke-width="4" stroke-opacity="1" stroke-miterlimit="4"/><path stroke-linecap="round" transform="matrix(-0.75, 0, 0, -0.75, 922.03952, 442.302886)" fill="none" stroke-linejoin="miter" d="M 2.00061 1.997598 L 88.339156 1.997598 " stroke="#000000" stroke-width="4" stroke-opacity="1" stroke-miterlimit="4"/><path stroke-linecap="round" transform="matrix(-0.75, 0, 0, -0.75, 922.03952, 442.302886)" fill="none" stroke-linejoin="round" d="M 81.339156 -4.002403 L 89.339156 1.997598 L 81.339156 7.997598 " stroke="#000000" stroke-width="4" stroke-opacity="1" stroke-miterlimit="4"/><g clip-path="url(#970c222f12)"><path stroke-linecap="butt" transform="matrix(0.75, 0, 0, 0.75, 1209.310265, 389.96004)" fill="none" stroke-linejoin="miter" d="M -0.00222884 0.00119616 L 110.732152 0.00119616 L 110.732152 110.735577 L -0.00222884 110.735577 Z M -0.00222884 0.00119616 " stroke="#a6a6a6" stroke-width="4" stroke-opacity="1" stroke-miterlimit="4"/></g><g fill="#000000" fill-opacity="1"><g transform="translate(1239.040733, 439.460038)"><g><path d="M 1 0 L 1 -1.390625 L 5.890625 -6.8125 C 6.765625 -7.789062 7.351562 -8.566406 7.65625 -9.140625 C 7.96875 -9.722656 8.125 -10.3125 8.125 -10.90625 C 8.125 -11.65625 7.90625 -12.285156 7.46875 -12.796875 C 7.03125 -13.304688 6.457031 -13.5625 5.75 -13.5625 C 4.707031 -13.5625 3.941406 -13.296875 3.453125 -12.765625 C 2.972656 -12.242188 2.734375 -11.5 2.734375 -10.53125 L 0.796875 -10.53125 L 0.78125 -10.59375 C 0.75 -11.875 1.175781 -12.953125 2.0625 -13.828125 C 2.945312 -14.703125 4.175781 -15.140625 5.75 -15.140625 C 7.09375 -15.140625 8.160156 -14.75 8.953125 -13.96875 C 9.753906 -13.1875 10.15625 -12.191406 10.15625 -10.984375 C 10.15625 -10.171875 9.910156 -9.359375 9.421875 -8.546875 C 8.941406 -7.734375 8.265625 -6.851562 7.390625 -5.90625 L 3.46875 -1.625 L 3.484375 -1.578125 L 8.78125 -1.578125 L 8.953125 -3.296875 L 10.671875 -3.296875 L 10.671875 0 Z M 1 0 "/></g></g><g transform="translate(1250.6379, 439.460038)"><g><path d="M 10.75 -5.6875 C 10.75 -3.78125 10.320312 -2.316406 9.46875 -1.296875 C 8.625 -0.285156 7.46875 0.21875 6 0.21875 C 4.53125 0.21875 3.367188 -0.289062 2.515625 -1.3125 C 1.660156 -2.332031 1.234375 -3.789062 1.234375 -5.6875 L 1.234375 -9.234375 C 1.234375 -11.128906 1.65625 -12.585938 2.5 -13.609375 C 3.351562 -14.628906 4.515625 -15.140625 5.984375 -15.140625 C 7.453125 -15.140625 8.613281 -14.628906 9.46875 -13.609375 C 10.320312 -12.585938 10.75 -11.128906 10.75 -9.234375 Z M 8.71875 -9.65625 C 8.71875 -10.945312 8.484375 -11.921875 8.015625 -12.578125 C 7.554688 -13.234375 6.878906 -13.5625 5.984375 -13.5625 C 5.097656 -13.5625 4.421875 -13.234375 3.953125 -12.578125 C 3.492188 -11.921875 3.265625 -10.945312 3.265625 -9.65625 L 3.265625 -5.28125 C 3.265625 -3.988281 3.5 -3.007812 3.96875 -2.34375 C 4.4375 -1.6875 5.113281 -1.359375 6 -1.359375 C 6.894531 -1.359375 7.570312 -1.6875 8.03125 -2.34375 C 8.488281 -3 8.71875 -3.976562 8.71875 -5.28125 Z M 8.71875 -9.65625 "/></g></g></g><g clip-path="url(#210ad67964)"><path stroke-linecap="butt" transform="matrix(0.75, 0, 0, 0.75, 1292.361493, 389.961416)" fill="none" stroke-linejoin="miter" d="M 0.00238406 -0.000637442 L 75.580513 -0.000637442 L 75.580513 110.728535 L 0.00238406 110.728535 Z M 0.00238406 -0.000637442 " stroke="#a6a6a6" stroke-width="4" stroke-opacity="1" stroke-miterlimit="4"/></g><g clip-path="url(#10d817aaf5)"><path stroke-linecap="butt" transform="matrix(0.75, 0, 0, 0.75, 1152.624548, 389.961416)" fill="none" stroke-linejoin="miter" d="M 0.000602353 -0.000637442 L 75.578731 -0.000637442 L 75.578731 110.728535 L 0.000602353 110.728535 Z M 0.000602353 -0.000637442 " stroke="#a6a6a6" stroke-width="4" stroke-opacity="1" stroke-miterlimit="4"/></g><g clip-path="url(#e61e3685c6)"><path fill="#a6a6a6" d="M 1348.664062 458.15625 C 1349.03125 458.523438 1349.03125 459.121094 1348.664062 459.488281 C 1348.480469 459.671875 1348.238281 459.765625 1348 459.765625 C 1347.757812 459.765625 1347.515625 459.671875 1347.332031 459.488281 L 1320.699219 432.855469 L 1294.066406 459.488281 C 1293.882812 459.671875 1293.640625 459.765625 1293.398438 459.765625 C 1293.160156 459.765625 1292.917969 459.671875 1292.734375 459.488281 C 1292.367188 459.121094 1292.367188 458.523438 1292.734375 458.15625 L 1319.367188 431.523438 L 1292.734375 404.890625 C 1292.367188 404.523438 1292.367188 403.925781 1292.734375 403.558594 C 1293.101562 403.191406 1293.699219 403.191406 1294.066406 403.558594 L 1320.699219 430.191406 L 1347.332031 403.558594 C 1347.699219 403.191406 1348.296875 403.191406 1348.664062 403.558594 C 1349.03125 403.925781 1349.03125 404.523438 1348.664062 404.890625 L 1322.03125 431.523438 Z M 1348.664062 458.15625 " fill-opacity="1" fill-rule="nonzero"/></g><path stroke-linecap="round" transform="matrix(0.75, 0, 0, 0.75, 1056.767761, 417.702311)" fill="none" stroke-linejoin="miter" d="M 2.00236 2.001085 L 88.335698 2.001085 " stroke="#000000" stroke-width="4" stroke-opacity="1" stroke-miterlimit="4"/><path stroke-linecap="round" transform="matrix(0.75, 0, 0, 0.75, 1056.767761, 417.702311)" fill="none" stroke-linejoin="round" d="M 81.335698 -3.998915 L 89.335698 2.001085 L 81.335698 8.001086 " stroke="#000000" stroke-width="4" stroke-opacity="1" stroke-miterlimit="4"/><path stroke-linecap="round" transform="matrix(-0.75, 0, 0, -0.75, 1183.339507, 442.302886)" fill="none" stroke-linejoin="miter" d="M 1.999551 1.997598 L 88.338097 1.997598 " stroke="#000000" stroke-width="4" stroke-opacity="1" stroke-miterlimit="4"/><path stroke-linecap="round" transform="matrix(-0.75, 0, 0, -0.75, 1183.339507, 442.302886)" fill="none" stroke-linejoin="round" d="M 81.338096 -4.002403 L 89.338097 1.997598 L 81.338096 7.997598 " stroke="#000000" stroke-width="4" stroke-opacity="1" stroke-miterlimit="4"/><g clip-path="url(#ca3b8ecb44)"><path stroke-linecap="butt" transform="matrix(0.75, 0, 0, 0.75, 359.75448, 536.288369)" fill="none" stroke-linejoin="miter" d="M -0.000765165 0.00092464 L 110.733615 0.00092464 L 110.733615 110.735305 L -0.000765165 110.735305 Z M -0.000765165 0.00092464 " stroke="#a6a6a6" stroke-width="4" stroke-opacity="1" stroke-miterlimit="4"/></g><g fill="#000000" fill-opacity="1"><g transform="translate(395.731041, 585.788367)"><g><path d="M 8.390625 -11.984375 L 8.203125 -13.140625 L 3.75 -13.140625 L 3.265625 -8.9375 C 3.566406 -9.175781 3.910156 -9.367188 4.296875 -9.515625 C 4.679688 -9.671875 5.128906 -9.753906 5.640625 -9.765625 C 7.015625 -9.785156 8.09375 -9.335938 8.875 -8.421875 C 9.664062 -7.515625 10.0625 -6.296875 10.0625 -4.765625 C 10.0625 -3.265625 9.660156 -2.054688 8.859375 -1.140625 C 8.054688 -0.234375 6.890625 0.21875 5.359375 0.21875 C 4.085938 0.21875 3.03125 -0.125 2.1875 -0.8125 C 1.351562 -1.507812 0.957031 -2.523438 1 -3.859375 L 1.015625 -3.921875 L 2.84375 -3.921875 C 2.84375 -3.117188 3.078125 -2.488281 3.546875 -2.03125 C 4.015625 -1.582031 4.617188 -1.359375 5.359375 -1.359375 C 6.210938 -1.359375 6.875 -1.660156 7.34375 -2.265625 C 7.8125 -2.867188 8.046875 -3.691406 8.046875 -4.734375 C 8.046875 -5.703125 7.804688 -6.488281 7.328125 -7.09375 C 6.859375 -7.707031 6.203125 -8.015625 5.359375 -8.015625 C 4.566406 -8.015625 3.988281 -7.894531 3.625 -7.65625 C 3.269531 -7.414062 3.007812 -7.050781 2.84375 -6.5625 L 1.171875 -6.734375 L 2.03125 -14.9375 L 9.921875 -14.9375 L 9.921875 -11.984375 Z M 8.390625 -11.984375 "/></g></g></g><g clip-path="url(#c2de8d5027)"><path stroke-linecap="butt" transform="matrix(0.75, 0, 0, 0.75, 442.80572, 536.289713)" fill="none" stroke-linejoin="miter" d="M -0.00137659 -0.00086736 L 75.576752 -0.00086736 L 75.576752 110.728305 L -0.00137659 110.728305 Z M -0.00137659 -0.00086736 " stroke="#a6a6a6" stroke-width="4" stroke-opacity="1" stroke-miterlimit="4"/></g><g clip-path="url(#30ecae930c)"><path stroke-linecap="butt" transform="matrix(0.75, 0, 0, 0.75, 552.222458, 536.288369)" fill="none" stroke-linejoin="miter" d="M 0.000263746 0.00092464 L 110.734644 0.00092464 L 110.734644 110.735305 L 0.000263746 110.735305 Z M 0.000263746 0.00092464 " stroke="#a6a6a6" stroke-width="4" stroke-opacity="1" stroke-miterlimit="4"/></g><g fill="#000000" fill-opacity="1"><g transform="translate(584.413863, 585.038367)"><g><path d="M 1.125 -1.171875 L 3.203125 -1.421875 L 3.203125 -11.546875 L 1.078125 -11.515625 L 1.078125 -12.65625 L 5.03125 -13.515625 L 5.03125 -1.421875 L 7.109375 -1.171875 L 7.109375 0 L 1.125 0 Z M 1.125 -1.171875 "/></g></g></g><g fill="#000000" fill-opacity="1"><g transform="translate(592.242331, 585.038367)"><g><path d="M 9.71875 -5.15625 C 9.71875 -3.425781 9.332031 -2.101562 8.5625 -1.1875 C 7.800781 -0.269531 6.753906 0.1875 5.421875 0.1875 C 4.097656 0.1875 3.050781 -0.269531 2.28125 -1.1875 C 1.507812 -2.101562 1.125 -3.425781 1.125 -5.15625 L 1.125 -8.34375 C 1.125 -10.0625 1.503906 -11.382812 2.265625 -12.3125 C 3.035156 -13.238281 4.082031 -13.703125 5.40625 -13.703125 C 6.738281 -13.703125 7.789062 -13.238281 8.5625 -12.3125 C 9.332031 -11.382812 9.71875 -10.0625 9.71875 -8.34375 Z M 7.890625 -8.734375 C 7.890625 -9.910156 7.675781 -10.789062 7.25 -11.375 C 6.832031 -11.96875 6.21875 -12.265625 5.40625 -12.265625 C 4.613281 -12.265625 4.003906 -11.96875 3.578125 -11.375 C 3.160156 -10.789062 2.953125 -9.910156 2.953125 -8.734375 L 2.953125 -4.78125 C 2.953125 -3.613281 3.164062 -2.726562 3.59375 -2.125 C 4.019531 -1.53125 4.628906 -1.234375 5.421875 -1.234375 C 6.234375 -1.234375 6.847656 -1.53125 7.265625 -2.125 C 7.679688 -2.71875 7.890625 -3.601562 7.890625 -4.78125 Z M 7.890625 -8.734375 "/></g></g></g><g clip-path="url(#4f7aeca0f6)"><path stroke-linecap="butt" transform="matrix(0.75, 0, 0, 0.75, 635.27371, 536.289713)" fill="none" stroke-linejoin="miter" d="M -0.000363683 -0.00086736 L 75.577765 -0.00086736 L 75.577765 110.728305 L -0.000363683 110.728305 Z M -0.000363683 -0.00086736 " stroke="#a6a6a6" stroke-width="4" stroke-opacity="1" stroke-miterlimit="4"/></g><g clip-path="url(#11e76db9ea)"><path stroke-linecap="butt" transform="matrix(0.75, 0, 0, 0.75, 744.360857, 536.288369)" fill="none" stroke-linejoin="miter" d="M -0.0019757 0.00092464 L 110.732405 0.00092464 L 110.732405 110.735305 L -0.0019757 110.735305 Z M -0.0019757 0.00092464 " stroke="#a6a6a6" stroke-width="4" stroke-opacity="1" stroke-miterlimit="4"/></g><g fill="#000000" fill-opacity="1"><g transform="translate(776.950699, 585.038367)"><g><path d="M 1.125 -1.171875 L 3.203125 -1.421875 L 3.203125 -11.546875 L 1.078125 -11.515625 L 1.078125 -12.65625 L 5.03125 -13.515625 L 5.03125 -1.421875 L 7.109375 -1.171875 L 7.109375 0 L 1.125 0 Z M 1.125 -1.171875 "/></g></g></g><g fill="#000000" fill-opacity="1"><g transform="translate(784.779167, 585.038367)"><g><path d="M 7.59375 -10.84375 L 7.421875 -11.890625 L 3.390625 -11.890625 L 2.953125 -8.09375 C 3.234375 -8.300781 3.546875 -8.472656 3.890625 -8.609375 C 4.242188 -8.753906 4.648438 -8.832031 5.109375 -8.84375 C 6.347656 -8.851562 7.320312 -8.445312 8.03125 -7.625 C 8.75 -6.800781 9.109375 -5.695312 9.109375 -4.3125 C 9.109375 -2.945312 8.742188 -1.851562 8.015625 -1.03125 C 7.296875 -0.21875 6.238281 0.1875 4.84375 0.1875 C 3.695312 0.1875 2.742188 -0.117188 1.984375 -0.734375 C 1.234375 -1.359375 0.875 -2.28125 0.90625 -3.5 L 0.921875 -3.546875 L 2.5625 -3.546875 C 2.5625 -2.816406 2.773438 -2.25 3.203125 -1.84375 C 3.628906 -1.4375 4.175781 -1.234375 4.84375 -1.234375 C 5.613281 -1.234375 6.210938 -1.503906 6.640625 -2.046875 C 7.066406 -2.585938 7.28125 -3.332031 7.28125 -4.28125 C 7.28125 -5.15625 7.066406 -5.867188 6.640625 -6.421875 C 6.210938 -6.972656 5.617188 -7.25 4.859375 -7.25 C 4.140625 -7.25 3.613281 -7.140625 3.28125 -6.921875 C 2.957031 -6.710938 2.722656 -6.382812 2.578125 -5.9375 L 1.0625 -6.09375 L 1.84375 -13.515625 L 8.96875 -13.515625 L 8.96875 -10.84375 Z M 7.59375 -10.84375 "/></g></g></g><g clip-path="url(#8eb87af194)"><path stroke-linecap="butt" transform="matrix(0.75, 0, 0, 0.75, 827.412085, 536.289713)" fill="none" stroke-linejoin="miter" d="M -0.00257113 -0.00086736 L 75.575558 -0.00086736 L 75.575558 110.728305 L -0.00257113 110.728305 Z M -0.00257113 -0.00086736 " stroke="#a6a6a6" stroke-width="4" stroke-opacity="1" stroke-miterlimit="4"/></g><g clip-path="url(#8a5b29d1e7)"><path stroke-linecap="butt" transform="matrix(0.75, 0, 0, 0.75, 936.499183, 536.288369)" fill="none" stroke-linejoin="miter" d="M 0.00108919 0.00092464 L 110.73547 0.00092464 L 110.73547 110.735305 L 0.00108919 110.735305 Z M 0.00108919 0.00092464 " stroke="#a6a6a6" stroke-width="4" stroke-opacity="1" stroke-miterlimit="4"/></g><g fill="#000000" fill-opacity="1"><g transform="translate(967.35465, 585.038367)"><g><path d="M 0.90625 0 L 0.90625 -1.25 L 5.328125 -6.171875 C 6.117188 -7.054688 6.65625 -7.757812 6.9375 -8.28125 C 7.21875 -8.800781 7.359375 -9.332031 7.359375 -9.875 C 7.359375 -10.539062 7.160156 -11.101562 6.765625 -11.5625 C 6.367188 -12.03125 5.847656 -12.265625 5.203125 -12.265625 C 4.265625 -12.265625 3.578125 -12.023438 3.140625 -11.546875 C 2.703125 -11.078125 2.484375 -10.40625 2.484375 -9.53125 L 0.71875 -9.53125 L 0.703125 -9.578125 C 0.671875 -10.742188 1.054688 -11.722656 1.859375 -12.515625 C 2.660156 -13.304688 3.773438 -13.703125 5.203125 -13.703125 C 6.410156 -13.703125 7.375 -13.347656 8.09375 -12.640625 C 8.820312 -11.929688 9.1875 -11.03125 9.1875 -9.9375 C 9.1875 -9.195312 8.96875 -8.457031 8.53125 -7.71875 C 8.09375 -6.988281 7.476562 -6.195312 6.6875 -5.34375 L 3.140625 -1.46875 L 3.15625 -1.421875 L 7.953125 -1.421875 L 8.09375 -2.984375 L 9.65625 -2.984375 L 9.65625 0 Z M 0.90625 0 "/></g></g></g><g fill="#000000" fill-opacity="1"><g transform="translate(977.845174, 585.038367)"><g><path d="M 9.71875 -5.15625 C 9.71875 -3.425781 9.332031 -2.101562 8.5625 -1.1875 C 7.800781 -0.269531 6.753906 0.1875 5.421875 0.1875 C 4.097656 0.1875 3.050781 -0.269531 2.28125 -1.1875 C 1.507812 -2.101562 1.125 -3.425781 1.125 -5.15625 L 1.125 -8.34375 C 1.125 -10.0625 1.503906 -11.382812 2.265625 -12.3125 C 3.035156 -13.238281 4.082031 -13.703125 5.40625 -13.703125 C 6.738281 -13.703125 7.789062 -13.238281 8.5625 -12.3125 C 9.332031 -11.382812 9.71875 -10.0625 9.71875 -8.34375 Z M 7.890625 -8.734375 C 7.890625 -9.910156 7.675781 -10.789062 7.25 -11.375 C 6.832031 -11.96875 6.21875 -12.265625 5.40625 -12.265625 C 4.613281 -12.265625 4.003906 -11.96875 3.578125 -11.375 C 3.160156 -10.789062 2.953125 -9.910156 2.953125 -8.734375 L 2.953125 -4.78125 C 2.953125 -3.613281 3.164062 -2.726562 3.59375 -2.125 C 4.019531 -1.53125 4.628906 -1.234375 5.421875 -1.234375 C 6.234375 -1.234375 6.847656 -1.53125 7.265625 -2.125 C 7.679688 -2.71875 7.890625 -3.601562 7.890625 -4.78125 Z M 7.890625 -8.734375 "/></g></g></g><g clip-path="url(#968a765db0)"><path stroke-linecap="butt" transform="matrix(0.75, 0, 0, 0.75, 1019.550435, 536.289713)" fill="none" stroke-linejoin="miter" d="M 0.00046176 -0.00086736 L 75.578591 -0.00086736 L 75.578591 110.728305 L 0.00046176 110.728305 Z M 0.00046176 -0.00086736 " stroke="#a6a6a6" stroke-width="4" stroke-opacity="1" stroke-miterlimit="4"/></g><path stroke-linecap="round" transform="matrix(0.75, 0, 0, 0.75, 471.148615, 574.830927)" fill="none" stroke-linejoin="miter" d="M 1.999764 2.001472 L 88.33831 2.001472 " stroke="#000000" stroke-width="4" stroke-opacity="1" stroke-miterlimit="4"/><path stroke-linecap="round" transform="matrix(0.75, 0, 0, 0.75, 471.148615, 574.830927)" fill="none" stroke-linejoin="round" d="M 81.33831 -3.998528 L 89.33831 2.001472 L 81.33831 8.001473 " stroke="#000000" stroke-width="4" stroke-opacity="1" stroke-miterlimit="4"/><path stroke-linecap="round" transform="matrix(0.75, 0, 0, 0.75, 663.616557, 574.830927)" fill="none" stroke-linejoin="miter" d="M 2.000841 2.001472 L 88.334179 2.001472 " stroke="#000000" stroke-width="4" stroke-opacity="1" stroke-miterlimit="4"/><path stroke-linecap="round" transform="matrix(0.75, 0, 0, 0.75, 663.616557, 574.830927)" fill="none" stroke-linejoin="round" d="M 81.334178 -3.998528 L 89.334179 2.001472 L 81.334178 8.001473 " stroke="#000000" stroke-width="4" stroke-opacity="1" stroke-miterlimit="4"/><path stroke-linecap="round" transform="matrix(0.75, 0, 0, 0.75, 849.846515, 577.797063)" fill="none" stroke-linejoin="miter" d="M 2.001521 1.99975 L 88.334859 1.99975 " stroke="#000000" stroke-width="4" stroke-opacity="1" stroke-miterlimit="4"/><path stroke-linecap="round" transform="matrix(0.75, 0, 0, 0.75, 849.846515, 577.797063)" fill="none" stroke-linejoin="round" d="M 81.334858 -4.000251 L 89.334859 1.99975 L 81.334858 7.99975 " stroke="#000000" stroke-width="4" stroke-opacity="1" stroke-miterlimit="4"/><path stroke-linecap="round" transform="matrix(0.75, 0, 0, 0.75, 336.931777, 576.313983)" fill="none" stroke-linejoin="miter" d="M 961.78372 5.956356 L 1000.721222 5.956356 C 1018.398307 5.956356 1032.721224 20.279274 1032.721224 37.956358 L 1032.721224 72.195943 C 1032.721224 89.873027 1018.398307 104.195945 1000.721222 104.195945 L 34.002424 104.195945 C 16.325339 104.195945 2.002422 89.873027 2.002422 72.195943 L 2.002422 14.716773 C 2.002422 11.341773 3.340964 8.107398 5.726381 5.721981 C 8.106589 3.341773 11.340964 1.998023 14.715964 1.998023 L 27.429507 1.998023 " stroke="#000000" stroke-width="4" stroke-opacity="1" stroke-miterlimit="4"/><path stroke-linecap="round" transform="matrix(0.75, 0, 0, 0.75, 336.931777, 576.313983)" fill="none" stroke-linejoin="round" d="M 20.429506 -4.001978 L 28.429507 1.998023 L 20.429506 7.998023 " stroke="#000000" stroke-width="4" stroke-opacity="1" stroke-miterlimit="4"/><path stroke-linecap="round" transform="matrix(0.000000001309, 0.75, -0.75, 0.000000001309, 404.26009, 182.220553)" fill="none" stroke-linejoin="miter" d="M 15.997596 1.997828 L 52.36739 1.997828 " stroke="#a6a6a6" stroke-width="4" stroke-opacity="1" stroke-miterlimit="4"/><path stroke-linecap="round" transform="matrix(0.000000001309, 0.75, -0.75, 0.000000001309, 404.26009, 182.220553)" fill="none" stroke-linejoin="round" d="M 1.997596 1.997828 C 1.997596 -1.314672 4.685096 -4.002172 7.997596 -4.002172 C 11.315305 -4.002172 13.997596 -1.314672 13.997596 1.997828 C 13.997596 5.315537 11.315305 7.997829 7.997596 7.997829 C 4.685096 7.997829 1.997596 5.315537 1.997596 1.997828 " stroke="#a6a6a6" stroke-width="4" stroke-opacity="1" stroke-miterlimit="4"/><path stroke-linecap="round" transform="matrix(0.000000001309, 0.75, -0.75, 0.000000001309, 404.26009, 182.220553)" fill="none" stroke-linejoin="round" d="M 45.36739 -4.002172 L 53.36739 1.997828 L 45.36739 7.997829 " stroke="#a6a6a6" stroke-width="4" stroke-opacity="1" stroke-miterlimit="4"/><g fill="#a6a6a6" fill-opacity="1"><g transform="translate(359.75448, 172.839971)"><g><path d="M 0.6875 -12.84375 L 0.6875 -14.0625 L 5.734375 -14.0625 L 5.734375 -12.84375 L 4.15625 -12.5625 L 4.15625 -7.703125 L 10.984375 -7.703125 L 10.984375 -12.5625 L 9.40625 -12.84375 L 9.40625 -14.0625 L 14.453125 -14.0625 L 14.453125 -12.84375 L 12.890625 -12.5625 L 12.890625 -1.484375 L 14.453125 -1.21875 L 14.453125 0 L 9.40625 0 L 9.40625 -1.21875 L 10.984375 -1.484375 L 10.984375 -6.203125 L 4.15625 -6.203125 L 4.15625 -1.484375 L 5.734375 -1.21875 L 5.734375 0 L 0.6875 0 L 0.6875 -1.21875 L 2.265625 -1.484375 L 2.265625 -12.5625 Z M 0.6875 -12.84375 "/></g></g><g transform="translate(374.942305, 172.839971)"><g><path d="M 5.625 0.203125 C 4.175781 0.203125 3.019531 -0.28125 2.15625 -1.25 C 1.300781 -2.21875 0.875 -3.472656 0.875 -5.015625 L 0.875 -5.453125 C 0.875 -6.929688 1.316406 -8.164062 2.203125 -9.15625 C 3.085938 -10.144531 4.132812 -10.640625 5.34375 -10.640625 C 6.75 -10.640625 7.8125 -10.210938 8.53125 -9.359375 C 9.257812 -8.515625 9.625 -7.382812 9.625 -5.96875 L 9.625 -4.78125 L 2.84375 -4.78125 L 2.8125 -4.734375 C 2.832031 -3.722656 3.085938 -2.894531 3.578125 -2.25 C 4.066406 -1.601562 4.75 -1.28125 5.625 -1.28125 C 6.269531 -1.28125 6.835938 -1.367188 7.328125 -1.546875 C 7.816406 -1.734375 8.238281 -1.988281 8.59375 -2.3125 L 9.328125 -1.078125 C 8.953125 -0.722656 8.457031 -0.421875 7.84375 -0.171875 C 7.226562 0.078125 6.488281 0.203125 5.625 0.203125 Z M 5.34375 -9.140625 C 4.707031 -9.140625 4.160156 -8.867188 3.703125 -8.328125 C 3.253906 -7.796875 2.976562 -7.125 2.875 -6.3125 L 2.890625 -6.265625 L 7.71875 -6.265625 L 7.71875 -6.515625 C 7.71875 -7.265625 7.515625 -7.890625 7.109375 -8.390625 C 6.710938 -8.890625 6.125 -9.140625 5.34375 -9.140625 Z M 5.34375 -9.140625 "/></g></g><g transform="translate(385.572817, 172.839971)"><g><path d="M 7.671875 0 C 7.617188 -0.28125 7.578125 -0.53125 7.546875 -0.75 C 7.515625 -0.976562 7.488281 -1.207031 7.46875 -1.4375 C 7.101562 -0.96875 6.644531 -0.578125 6.09375 -0.265625 C 5.550781 0.046875 4.96875 0.203125 4.34375 0.203125 C 3.25 0.203125 2.414062 -0.0625 1.84375 -0.59375 C 1.28125 -1.125 1 -1.875 1 -2.84375 C 1 -3.832031 1.398438 -4.59375 2.203125 -5.125 C 3.003906 -5.664062 4.101562 -5.9375 5.5 -5.9375 L 7.46875 -5.9375 L 7.46875 -7.15625 C 7.46875 -7.769531 7.273438 -8.253906 6.890625 -8.609375 C 6.503906 -8.960938 5.96875 -9.140625 5.28125 -9.140625 C 4.800781 -9.140625 4.378906 -9.078125 4.015625 -8.953125 C 3.648438 -8.835938 3.351562 -8.675781 3.125 -8.46875 L 2.921875 -7.359375 L 1.453125 -7.359375 L 1.453125 -9.390625 C 1.929688 -9.765625 2.507812 -10.066406 3.1875 -10.296875 C 3.863281 -10.523438 4.597656 -10.640625 5.390625 -10.640625 C 6.578125 -10.640625 7.535156 -10.335938 8.265625 -9.734375 C 9.003906 -9.128906 9.375 -8.265625 9.375 -7.140625 L 9.375 -2.109375 C 9.375 -1.972656 9.375 -1.835938 9.375 -1.703125 C 9.375 -1.578125 9.378906 -1.453125 9.390625 -1.328125 L 10.171875 -1.21875 L 10.171875 0 Z M 4.609375 -1.390625 C 5.242188 -1.390625 5.820312 -1.539062 6.34375 -1.84375 C 6.863281 -2.144531 7.238281 -2.507812 7.46875 -2.9375 L 7.46875 -4.65625 L 5.4375 -4.65625 C 4.65625 -4.65625 4.035156 -4.472656 3.578125 -4.109375 C 3.128906 -3.753906 2.90625 -3.316406 2.90625 -2.796875 C 2.90625 -2.335938 3.046875 -1.988281 3.328125 -1.75 C 3.609375 -1.507812 4.035156 -1.390625 4.609375 -1.390625 Z M 4.609375 -1.390625 "/></g></g><g transform="translate(396.464022, 172.839971)"><g><path d="M 7.90625 -1.25 C 7.5625 -0.769531 7.140625 -0.40625 6.640625 -0.15625 C 6.148438 0.0820312 5.582031 0.203125 4.9375 0.203125 C 3.65625 0.203125 2.65625 -0.253906 1.9375 -1.171875 C 1.226562 -2.097656 0.875 -3.316406 0.875 -4.828125 L 0.875 -5.03125 C 0.875 -6.707031 1.226562 -8.0625 1.9375 -9.09375 C 2.65625 -10.125 3.660156 -10.640625 4.953125 -10.640625 C 5.566406 -10.640625 6.109375 -10.523438 6.578125 -10.296875 C 7.054688 -10.066406 7.460938 -9.738281 7.796875 -9.3125 L 7.796875 -13.578125 L 6.234375 -13.84375 L 6.234375 -15.0625 L 9.703125 -15.0625 L 9.703125 -1.484375 L 11.28125 -1.21875 L 11.28125 0 L 8.0625 0 Z M 2.765625 -4.828125 C 2.765625 -3.773438 2.976562 -2.929688 3.40625 -2.296875 C 3.84375 -1.660156 4.515625 -1.34375 5.421875 -1.34375 C 5.984375 -1.34375 6.457031 -1.46875 6.84375 -1.71875 C 7.226562 -1.976562 7.546875 -2.347656 7.796875 -2.828125 L 7.796875 -7.671875 C 7.554688 -8.109375 7.238281 -8.453125 6.84375 -8.703125 C 6.457031 -8.960938 5.988281 -9.09375 5.4375 -9.09375 C 4.53125 -9.09375 3.859375 -8.71875 3.421875 -7.96875 C 2.984375 -7.21875 2.765625 -6.238281 2.765625 -5.03125 Z M 2.765625 -4.828125 "/></g></g><g transform="translate(408.330415, 172.839971)"><g/></g><g transform="translate(413.244975, 172.839971)"><g><path d="M 14.453125 -14.0625 L 14.453125 -12.84375 L 12.890625 -12.5625 L 12.890625 0 L 10.984375 0 L 4.21875 -10.859375 L 4.15625 -10.84375 L 4.15625 -1.484375 L 5.734375 -1.21875 L 5.734375 0 L 0.6875 0 L 0.6875 -1.21875 L 2.265625 -1.484375 L 2.265625 -12.5625 L 0.6875 -12.84375 L 0.6875 -14.0625 L 4.15625 -14.0625 L 10.921875 -3.21875 L 10.984375 -3.234375 L 10.984375 -12.5625 L 9.40625 -12.84375 L 9.40625 -14.0625 Z M 14.453125 -14.0625 "/></g></g><g transform="translate(428.307281, 172.839971)"><g><path d="M 0.875 -5.328125 C 0.875 -6.867188 1.289062 -8.140625 2.125 -9.140625 C 2.957031 -10.140625 4.09375 -10.640625 5.53125 -10.640625 C 6.976562 -10.640625 8.117188 -10.140625 8.953125 -9.140625 C 9.796875 -8.148438 10.21875 -6.878906 10.21875 -5.328125 L 10.21875 -5.109375 C 10.21875 -3.546875 9.796875 -2.269531 8.953125 -1.28125 C 8.117188 -0.289062 6.984375 0.203125 5.546875 0.203125 C 4.097656 0.203125 2.957031 -0.289062 2.125 -1.28125 C 1.289062 -2.28125 0.875 -3.554688 0.875 -5.109375 Z M 2.765625 -5.109375 C 2.765625 -4.003906 3 -3.085938 3.46875 -2.359375 C 3.9375 -1.640625 4.628906 -1.28125 5.546875 -1.28125 C 6.453125 -1.28125 7.140625 -1.640625 7.609375 -2.359375 C 8.078125 -3.085938 8.3125 -4.003906 8.3125 -5.109375 L 8.3125 -5.328125 C 8.3125 -6.421875 8.078125 -7.328125 7.609375 -8.046875 C 7.140625 -8.773438 6.445312 -9.140625 5.53125 -9.140625 C 4.613281 -9.140625 3.921875 -8.773438 3.453125 -8.046875 C 2.992188 -7.328125 2.765625 -6.421875 2.765625 -5.328125 Z M 2.765625 -5.109375 "/></g></g><g transform="translate(439.401248, 172.839971)"><g><path d="M 7.90625 -1.25 C 7.5625 -0.769531 7.140625 -0.40625 6.640625 -0.15625 C 6.148438 0.0820312 5.582031 0.203125 4.9375 0.203125 C 3.65625 0.203125 2.65625 -0.253906 1.9375 -1.171875 C 1.226562 -2.097656 0.875 -3.316406 0.875 -4.828125 L 0.875 -5.03125 C 0.875 -6.707031 1.226562 -8.0625 1.9375 -9.09375 C 2.65625 -10.125 3.660156 -10.640625 4.953125 -10.640625 C 5.566406 -10.640625 6.109375 -10.523438 6.578125 -10.296875 C 7.054688 -10.066406 7.460938 -9.738281 7.796875 -9.3125 L 7.796875 -13.578125 L 6.234375 -13.84375 L 6.234375 -15.0625 L 9.703125 -15.0625 L 9.703125 -1.484375 L 11.28125 -1.21875 L 11.28125 0 L 8.0625 0 Z M 2.765625 -4.828125 C 2.765625 -3.773438 2.976562 -2.929688 3.40625 -2.296875 C 3.84375 -1.660156 4.515625 -1.34375 5.421875 -1.34375 C 5.984375 -1.34375 6.457031 -1.46875 6.84375 -1.71875 C 7.226562 -1.976562 7.546875 -2.347656 7.796875 -2.828125 L 7.796875 -7.671875 C 7.554688 -8.109375 7.238281 -8.453125 6.84375 -8.703125 C 6.457031 -8.960938 5.988281 -9.09375 5.4375 -9.09375 C 4.53125 -9.09375 3.859375 -8.71875 3.421875 -7.96875 C 2.984375 -7.21875 2.765625 -6.238281 2.765625 -5.03125 Z M 2.765625 -4.828125 "/></g></g><g transform="translate(451.267641, 172.839971)"><g><path d="M 5.625 0.203125 C 4.175781 0.203125 3.019531 -0.28125 2.15625 -1.25 C 1.300781 -2.21875 0.875 -3.472656 0.875 -5.015625 L 0.875 -5.453125 C 0.875 -6.929688 1.316406 -8.164062 2.203125 -9.15625 C 3.085938 -10.144531 4.132812 -10.640625 5.34375 -10.640625 C 6.75 -10.640625 7.8125 -10.210938 8.53125 -9.359375 C 9.257812 -8.515625 9.625 -7.382812 9.625 -5.96875 L 9.625 -4.78125 L 2.84375 -4.78125 L 2.8125 -4.734375 C 2.832031 -3.722656 3.085938 -2.894531 3.578125 -2.25 C 4.066406 -1.601562 4.75 -1.28125 5.625 -1.28125 C 6.269531 -1.28125 6.835938 -1.367188 7.328125 -1.546875 C 7.816406 -1.734375 8.238281 -1.988281 8.59375 -2.3125 L 9.328125 -1.078125 C 8.953125 -0.722656 8.457031 -0.421875 7.84375 -0.171875 C 7.226562 0.078125 6.488281 0.203125 5.625 0.203125 Z M 5.34375 -9.140625 C 4.707031 -9.140625 4.160156 -8.867188 3.703125 -8.328125 C 3.253906 -7.796875 2.976562 -7.125 2.875 -6.3125 L 2.890625 -6.265625 L 7.71875 -6.265625 L 7.71875 -6.515625 C 7.71875 -7.265625 7.515625 -7.890625 7.109375 -8.390625 C 6.710938 -8.890625 6.125 -9.140625 5.34375 -9.140625 Z M 5.34375 -9.140625 "/></g></g></g><g fill="#012840" fill-opacity="1"><g transform="translate(90.98784, 294.045356)"><g><path d="M 13.03125 -11.890625 L 11.3125 -11.890625 L 10.875 -14.296875 C 10.53125 -14.585938 10.066406 -14.832031 9.484375 -15.03125 C 8.910156 -15.226562 8.238281 -15.328125 7.46875 -15.328125 C 6.257812 -15.328125 5.328125 -15.066406 4.671875 -14.546875 C 4.023438 -14.035156 3.703125 -13.367188 3.703125 -12.546875 C 3.703125 -11.804688 4.03125 -11.191406 4.6875 -10.703125 C 5.351562 -10.210938 6.425781 -9.78125 7.90625 -9.40625 C 9.675781 -8.96875 11.023438 -8.316406 11.953125 -7.453125 C 12.878906 -6.597656 13.34375 -5.539062 13.34375 -4.28125 C 13.34375 -2.914062 12.785156 -1.816406 11.671875 -0.984375 C 10.566406 -0.160156 9.117188 0.25 7.328125 0.25 C 6.023438 0.25 4.867188 0.0351562 3.859375 -0.390625 C 2.859375 -0.816406 2.039062 -1.375 1.40625 -2.0625 L 1.40625 -5.203125 L 3.125 -5.203125 L 3.5625 -2.78125 C 4 -2.414062 4.519531 -2.117188 5.125 -1.890625 C 5.738281 -1.660156 6.472656 -1.546875 7.328125 -1.546875 C 8.472656 -1.546875 9.378906 -1.785156 10.046875 -2.265625 C 10.722656 -2.753906 11.0625 -3.414062 11.0625 -4.25 C 11.0625 -5.019531 10.769531 -5.664062 10.1875 -6.1875 C 9.601562 -6.71875 8.578125 -7.160156 7.109375 -7.515625 C 5.328125 -7.929688 3.929688 -8.550781 2.921875 -9.375 C 1.921875 -10.207031 1.421875 -11.25 1.421875 -12.5 C 1.421875 -13.820312 1.976562 -14.921875 3.09375 -15.796875 C 4.21875 -16.671875 5.675781 -17.109375 7.46875 -17.109375 C 8.65625 -17.109375 9.734375 -16.90625 10.703125 -16.5 C 11.671875 -16.101562 12.445312 -15.613281 13.03125 -15.03125 Z M 13.03125 -11.890625 "/></g></g></g><g fill="#012840" fill-opacity="1"><g transform="translate(105.429871, 294.045356)"><g><path d="M 1.03125 -1.453125 L 2.921875 -1.78125 L 2.921875 -10.75 L 1.03125 -11.0625 L 1.03125 -12.546875 L 5.203125 -12.546875 L 5.203125 -1.78125 L 7.09375 -1.453125 L 7.09375 0 L 1.03125 0 Z M 5.203125 -15.75 L 2.921875 -15.75 L 2.921875 -18.078125 L 5.203125 -18.078125 Z M 5.203125 -15.75 "/></g></g></g><g fill="#012840" fill-opacity="1"><g transform="translate(113.224167, 294.045356)"><g><path d="M 0.703125 -1.453125 L 2.578125 -1.78125 L 2.578125 -10.75 L 0.703125 -11.0625 L 0.703125 -12.546875 L 4.625 -12.546875 L 4.78125 -10.671875 C 5.195312 -11.335938 5.71875 -11.851562 6.34375 -12.21875 C 6.976562 -12.582031 7.695312 -12.765625 8.5 -12.765625 C 9.851562 -12.765625 10.898438 -12.367188 11.640625 -11.578125 C 12.390625 -10.785156 12.765625 -9.566406 12.765625 -7.921875 L 12.765625 -1.78125 L 14.65625 -1.453125 L 14.65625 0 L 8.59375 0 L 8.59375 -1.453125 L 10.46875 -1.78125 L 10.46875 -7.875 C 10.46875 -8.976562 10.25 -9.757812 9.8125 -10.21875 C 9.382812 -10.6875 8.722656 -10.921875 7.828125 -10.921875 C 7.171875 -10.921875 6.585938 -10.757812 6.078125 -10.4375 C 5.566406 -10.125 5.164062 -9.691406 4.875 -9.140625 L 4.875 -1.78125 L 6.75 -1.453125 L 6.75 0 L 0.703125 0 Z M 0.703125 -1.453125 "/></g></g></g><g fill="#012840" fill-opacity="1"><g transform="translate(128.488479, 294.045356)"><g><path d="M 1.046875 -6.03125 C 1.046875 -8.050781 1.484375 -9.675781 2.359375 -10.90625 C 3.242188 -12.144531 4.460938 -12.765625 6.015625 -12.765625 C 6.804688 -12.765625 7.5 -12.609375 8.09375 -12.296875 C 8.6875 -11.992188 9.179688 -11.550781 9.578125 -10.96875 L 9.796875 -12.546875 L 11.71875 -12.546875 L 11.71875 -0.15625 C 11.71875 1.457031 11.265625 2.726562 10.359375 3.65625 C 9.453125 4.59375 8.164062 5.0625 6.5 5.0625 C 5.894531 5.0625 5.238281 4.976562 4.53125 4.8125 C 3.832031 4.644531 3.21875 4.421875 2.6875 4.140625 L 3.28125 2.359375 C 3.707031 2.585938 4.207031 2.773438 4.78125 2.921875 C 5.363281 3.066406 5.929688 3.140625 6.484375 3.140625 C 7.503906 3.140625 8.25 2.851562 8.71875 2.28125 C 9.195312 1.707031 9.4375 0.894531 9.4375 -0.15625 L 9.4375 -1.359375 C 9.019531 -0.828125 8.523438 -0.425781 7.953125 -0.15625 C 7.390625 0.113281 6.734375 0.25 5.984375 0.25 C 4.453125 0.25 3.242188 -0.304688 2.359375 -1.421875 C 1.484375 -2.535156 1.046875 -3.992188 1.046875 -5.796875 Z M 3.328125 -5.796875 C 3.328125 -4.535156 3.59375 -3.519531 4.125 -2.75 C 4.65625 -1.988281 5.46875 -1.609375 6.5625 -1.609375 C 7.25 -1.609375 7.820312 -1.765625 8.28125 -2.078125 C 8.75 -2.390625 9.132812 -2.832031 9.4375 -3.40625 L 9.4375 -9.171875 C 9.144531 -9.710938 8.757812 -10.140625 8.28125 -10.453125 C 7.8125 -10.765625 7.242188 -10.921875 6.578125 -10.921875 C 5.492188 -10.921875 4.679688 -10.460938 4.140625 -9.546875 C 3.597656 -8.640625 3.328125 -7.46875 3.328125 -6.03125 Z M 3.328125 -5.796875 "/></g></g></g><g fill="#012840" fill-opacity="1"><g transform="translate(141.911345, 294.045356)"><g><path d="M 0.71875 -16.609375 L 0.71875 -18.078125 L 4.890625 -18.078125 L 4.890625 -1.78125 L 6.78125 -1.453125 L 6.78125 0 L 0.71875 0 L 0.71875 -1.453125 L 2.609375 -1.78125 L 2.609375 -16.28125 Z M 0.71875 -16.609375 "/></g></g></g><g fill="#012840" fill-opacity="1"><g transform="translate(149.381361, 294.045356)"><g><path d="M 12.9375 -11.0625 L 11.828125 -10.890625 L 7.046875 1.921875 C 6.734375 2.765625 6.273438 3.5 5.671875 4.125 C 5.078125 4.75 4.28125 5.0625 3.28125 5.0625 C 3.101562 5.0625 2.867188 5.039062 2.578125 5 C 2.296875 4.957031 2.078125 4.914062 1.921875 4.875 L 2.15625 3.078125 C 2.113281 3.078125 2.25 3.085938 2.5625 3.109375 C 2.882812 3.128906 3.085938 3.140625 3.171875 3.140625 C 3.660156 3.140625 4.054688 2.925781 4.359375 2.5 C 4.660156 2.082031 4.921875 1.597656 5.140625 1.046875 L 5.6875 -0.25 L 1.546875 -10.875 L 0.40625 -11.0625 L 0.40625 -12.546875 L 5.46875 -12.546875 L 5.46875 -11.0625 L 4.0625 -10.828125 L 6.21875 -4.640625 L 6.640625 -3.046875 L 6.703125 -3.046875 L 9.3125 -10.828125 L 7.890625 -11.0625 L 7.890625 -12.546875 L 12.9375 -12.546875 Z M 12.9375 -11.0625 "/></g></g></g><g fill="#012840" fill-opacity="1"><g transform="translate(162.838971, 294.045356)"><g/></g></g><g fill="#012840" fill-opacity="1"><g transform="translate(168.733914, 294.045356)"><g><path d="M 0.828125 0 L 0.828125 -1.453125 L 2.71875 -1.78125 L 2.71875 -15.078125 L 0.828125 -15.40625 L 0.828125 -16.875 L 6.890625 -16.875 L 6.890625 -15.40625 L 5 -15.078125 L 5 -1.78125 L 10.859375 -1.78125 L 11.03125 -3.71875 L 12.984375 -3.71875 L 12.984375 0 Z M 0.828125 0 "/></g></g></g><g fill="#012840" fill-opacity="1"><g transform="translate(182.620038, 294.045356)"><g><path d="M 1.03125 -1.453125 L 2.921875 -1.78125 L 2.921875 -10.75 L 1.03125 -11.0625 L 1.03125 -12.546875 L 5.203125 -12.546875 L 5.203125 -1.78125 L 7.09375 -1.453125 L 7.09375 0 L 1.03125 0 Z M 5.203125 -15.75 L 2.921875 -15.75 L 2.921875 -18.078125 L 5.203125 -18.078125 Z M 5.203125 -15.75 "/></g></g></g><g fill="#012840" fill-opacity="1"><g transform="translate(190.414334, 294.045356)"><g><path d="M 0.703125 -1.453125 L 2.578125 -1.78125 L 2.578125 -10.75 L 0.703125 -11.0625 L 0.703125 -12.546875 L 4.625 -12.546875 L 4.78125 -10.671875 C 5.195312 -11.335938 5.71875 -11.851562 6.34375 -12.21875 C 6.976562 -12.582031 7.695312 -12.765625 8.5 -12.765625 C 9.851562 -12.765625 10.898438 -12.367188 11.640625 -11.578125 C 12.390625 -10.785156 12.765625 -9.566406 12.765625 -7.921875 L 12.765625 -1.78125 L 14.65625 -1.453125 L 14.65625 0 L 8.59375 0 L 8.59375 -1.453125 L 10.46875 -1.78125 L 10.46875 -7.875 C 10.46875 -8.976562 10.25 -9.757812 9.8125 -10.21875 C 9.382812 -10.6875 8.722656 -10.921875 7.828125 -10.921875 C 7.171875 -10.921875 6.585938 -10.757812 6.078125 -10.4375 C 5.566406 -10.125 5.164062 -9.691406 4.875 -9.140625 L 4.875 -1.78125 L 6.75 -1.453125 L 6.75 0 L 0.703125 0 Z M 0.703125 -1.453125 "/></g></g></g><g fill="#012840" fill-opacity="1"><g transform="translate(205.678645, 294.045356)"><g><path d="M 0.71875 -16.609375 L 0.71875 -18.078125 L 4.890625 -18.078125 L 4.890625 -7.609375 L 6.34375 -7.609375 L 9.03125 -10.921875 L 7.875 -11.0625 L 7.875 -12.546875 L 13.125 -12.546875 L 13.125 -11.0625 L 11.59375 -10.765625 L 8.296875 -6.828125 L 12.3125 -1.734375 L 13.75 -1.453125 L 13.75 0 L 8.546875 0 L 8.546875 -1.453125 L 9.71875 -1.609375 L 6.390625 -5.78125 L 4.890625 -5.78125 L 4.890625 -1.78125 L 6.78125 -1.453125 L 6.78125 0 L 0.71875 0 L 0.71875 -1.453125 L 2.609375 -1.78125 L 2.609375 -16.28125 Z M 0.71875 -16.609375 "/></g></g></g><g fill="#012840" fill-opacity="1"><g transform="translate(220.097514, 294.045356)"><g><path d="M 6.75 0.25 C 5.007812 0.25 3.625 -0.332031 2.59375 -1.5 C 1.5625 -2.664062 1.046875 -4.175781 1.046875 -6.03125 L 1.046875 -6.53125 C 1.046875 -8.320312 1.578125 -9.804688 2.640625 -10.984375 C 3.703125 -12.171875 4.957031 -12.765625 6.40625 -12.765625 C 8.09375 -12.765625 9.367188 -12.253906 10.234375 -11.234375 C 11.109375 -10.222656 11.546875 -8.863281 11.546875 -7.15625 L 11.546875 -5.734375 L 3.40625 -5.734375 L 3.375 -5.671875 C 3.394531 -4.472656 3.695312 -3.484375 4.28125 -2.703125 C 4.875 -1.929688 5.695312 -1.546875 6.75 -1.546875 C 7.53125 -1.546875 8.210938 -1.65625 8.796875 -1.875 C 9.378906 -2.09375 9.878906 -2.394531 10.296875 -2.78125 L 11.1875 -1.296875 C 10.738281 -0.867188 10.144531 -0.503906 9.40625 -0.203125 C 8.675781 0.0976562 7.789062 0.25 6.75 0.25 Z M 6.40625 -10.96875 C 5.644531 -10.96875 4.992188 -10.644531 4.453125 -10 C 3.910156 -9.363281 3.578125 -8.554688 3.453125 -7.578125 L 3.484375 -7.515625 L 9.265625 -7.515625 L 9.265625 -7.828125 C 9.265625 -8.722656 9.023438 -9.46875 8.546875 -10.0625 C 8.066406 -10.664062 7.351562 -10.96875 6.40625 -10.96875 Z M 6.40625 -10.96875 "/></g></g></g><g fill="#012840" fill-opacity="1"><g transform="translate(232.848658, 294.045356)"><g><path d="M 9.484375 -1.5 C 9.066406 -0.925781 8.5625 -0.488281 7.96875 -0.1875 C 7.382812 0.101562 6.703125 0.25 5.921875 0.25 C 4.390625 0.25 3.191406 -0.300781 2.328125 -1.40625 C 1.472656 -2.519531 1.046875 -3.984375 1.046875 -5.796875 L 1.046875 -6.03125 C 1.046875 -8.050781 1.472656 -9.675781 2.328125 -10.90625 C 3.191406 -12.144531 4.394531 -12.765625 5.9375 -12.765625 C 6.6875 -12.765625 7.34375 -12.628906 7.90625 -12.359375 C 8.476562 -12.085938 8.960938 -11.691406 9.359375 -11.171875 L 9.359375 -16.28125 L 7.46875 -16.609375 L 7.46875 -18.078125 L 11.640625 -18.078125 L 11.640625 -1.78125 L 13.53125 -1.453125 L 13.53125 0 L 9.671875 0 Z M 3.328125 -5.796875 C 3.328125 -4.535156 3.582031 -3.519531 4.09375 -2.75 C 4.613281 -1.988281 5.414062 -1.609375 6.5 -1.609375 C 7.175781 -1.609375 7.742188 -1.757812 8.203125 -2.0625 C 8.671875 -2.375 9.054688 -2.816406 9.359375 -3.390625 L 9.359375 -9.203125 C 9.066406 -9.722656 8.6875 -10.140625 8.21875 -10.453125 C 7.75 -10.765625 7.1875 -10.921875 6.53125 -10.921875 C 5.4375 -10.921875 4.628906 -10.46875 4.109375 -9.5625 C 3.585938 -8.65625 3.328125 -7.476562 3.328125 -6.03125 Z M 3.328125 -5.796875 "/></g></g></g><g fill="#012840" fill-opacity="1"><g transform="translate(247.082223, 294.045356)"><g/></g></g><g fill="#012840" fill-opacity="1"><g transform="translate(252.977166, 294.045356)"><g><path d="M 0.828125 0 L 0.828125 -1.453125 L 2.71875 -1.78125 L 2.71875 -15.078125 L 0.828125 -15.40625 L 0.828125 -16.875 L 6.890625 -16.875 L 6.890625 -15.40625 L 5 -15.078125 L 5 -1.78125 L 10.859375 -1.78125 L 11.03125 -3.71875 L 12.984375 -3.71875 L 12.984375 0 Z M 0.828125 0 "/></g></g></g><g fill="#012840" fill-opacity="1"><g transform="translate(266.863289, 294.045356)"><g><path d="M 1.03125 -1.453125 L 2.921875 -1.78125 L 2.921875 -10.75 L 1.03125 -11.0625 L 1.03125 -12.546875 L 5.203125 -12.546875 L 5.203125 -1.78125 L 7.09375 -1.453125 L 7.09375 0 L 1.03125 0 Z M 5.203125 -15.75 L 2.921875 -15.75 L 2.921875 -18.078125 L 5.203125 -18.078125 Z M 5.203125 -15.75 "/></g></g></g><g fill="#012840" fill-opacity="1"><g transform="translate(274.657585, 294.045356)"><g><path d="M 10.625 -8.59375 L 8.90625 -8.59375 L 8.546875 -10.109375 C 8.265625 -10.367188 7.910156 -10.578125 7.484375 -10.734375 C 7.066406 -10.890625 6.59375 -10.96875 6.0625 -10.96875 C 5.25 -10.96875 4.644531 -10.789062 4.25 -10.4375 C 3.851562 -10.082031 3.65625 -9.65625 3.65625 -9.15625 C 3.65625 -8.65625 3.828125 -8.265625 4.171875 -7.984375 C 4.523438 -7.703125 5.234375 -7.445312 6.296875 -7.21875 C 7.890625 -6.875 9.070312 -6.410156 9.84375 -5.828125 C 10.613281 -5.242188 11 -4.460938 11 -3.484375 C 11 -2.367188 10.546875 -1.46875 9.640625 -0.78125 C 8.742188 -0.09375 7.570312 0.25 6.125 0.25 C 5.164062 0.25 4.304688 0.140625 3.546875 -0.078125 C 2.796875 -0.304688 2.125 -0.628906 1.53125 -1.046875 L 1.515625 -3.90625 L 3.234375 -3.90625 L 3.65625 -2.21875 C 3.925781 -1.976562 4.285156 -1.804688 4.734375 -1.703125 C 5.179688 -1.597656 5.644531 -1.546875 6.125 -1.546875 C 6.925781 -1.546875 7.554688 -1.707031 8.015625 -2.03125 C 8.484375 -2.363281 8.71875 -2.796875 8.71875 -3.328125 C 8.71875 -3.828125 8.523438 -4.238281 8.140625 -4.5625 C 7.753906 -4.882812 7.03125 -5.164062 5.96875 -5.40625 C 4.445312 -5.738281 3.300781 -6.191406 2.53125 -6.765625 C 1.757812 -7.335938 1.375 -8.109375 1.375 -9.078125 C 1.375 -10.097656 1.804688 -10.96875 2.671875 -11.6875 C 3.535156 -12.40625 4.664062 -12.765625 6.0625 -12.765625 C 7.007812 -12.765625 7.863281 -12.640625 8.625 -12.390625 C 9.382812 -12.148438 10.015625 -11.8125 10.515625 -11.375 Z M 10.625 -8.59375 "/></g></g></g><g fill="#012840" fill-opacity="1"><g transform="translate(286.748588, 294.045356)"><g><path d="M 5.015625 -15.5625 L 5.015625 -12.546875 L 7.390625 -12.546875 L 7.390625 -10.84375 L 5.015625 -10.84375 L 5.015625 -3.234375 C 5.015625 -2.648438 5.132812 -2.238281 5.375 -2 C 5.625 -1.757812 5.945312 -1.640625 6.34375 -1.640625 C 6.550781 -1.640625 6.78125 -1.65625 7.03125 -1.6875 C 7.28125 -1.71875 7.488281 -1.753906 7.65625 -1.796875 L 7.96875 -0.234375 C 7.757812 -0.0859375 7.441406 0.0234375 7.015625 0.109375 C 6.597656 0.203125 6.179688 0.25 5.765625 0.25 C 4.835938 0.25 4.097656 -0.03125 3.546875 -0.59375 C 3.003906 -1.15625 2.734375 -2.035156 2.734375 -3.234375 L 2.734375 -10.84375 L 0.75 -10.84375 L 0.75 -12.546875 L 2.734375 -12.546875 L 2.734375 -15.5625 Z M 5.015625 -15.5625 "/></g></g></g><g fill="#012840" fill-opacity="1"><g transform="translate(90.98784, 442.329286)"><g><path d="M 7.890625 -16.875 C 10.085938 -16.875 11.859375 -16.195312 13.203125 -14.84375 C 14.546875 -13.488281 15.21875 -11.734375 15.21875 -9.578125 L 15.21875 -7.28125 C 15.21875 -5.125 14.546875 -3.367188 13.203125 -2.015625 C 11.859375 -0.671875 10.085938 0 7.890625 0 L 0.828125 0 L 0.828125 -1.453125 L 2.71875 -1.78125 L 2.71875 -15.078125 L 0.828125 -15.40625 L 0.828125 -16.875 Z M 5 -15.078125 L 5 -1.78125 L 7.890625 -1.78125 C 9.453125 -1.78125 10.679688 -2.296875 11.578125 -3.328125 C 12.484375 -4.359375 12.9375 -5.675781 12.9375 -7.28125 L 12.9375 -9.609375 C 12.9375 -11.203125 12.484375 -12.507812 11.578125 -13.53125 C 10.679688 -14.5625 9.453125 -15.078125 7.890625 -15.078125 Z M 5 -15.078125 "/></g></g></g><g fill="#012840" fill-opacity="1"><g transform="translate(107.421875, 442.329286)"><g><path d="M 1.046875 -6.390625 C 1.046875 -8.242188 1.546875 -9.769531 2.546875 -10.96875 C 3.554688 -12.164062 4.921875 -12.765625 6.640625 -12.765625 C 8.367188 -12.765625 9.738281 -12.164062 10.75 -10.96875 C 11.757812 -9.769531 12.265625 -8.242188 12.265625 -6.390625 L 12.265625 -6.125 C 12.265625 -4.257812 11.757812 -2.726562 10.75 -1.53125 C 9.75 -0.34375 8.382812 0.25 6.65625 0.25 C 4.925781 0.25 3.554688 -0.347656 2.546875 -1.546875 C 1.546875 -2.742188 1.046875 -4.269531 1.046875 -6.125 Z M 3.328125 -6.125 C 3.328125 -4.800781 3.601562 -3.707031 4.15625 -2.84375 C 4.71875 -1.976562 5.550781 -1.546875 6.65625 -1.546875 C 7.738281 -1.546875 8.5625 -1.976562 9.125 -2.84375 C 9.695312 -3.707031 9.984375 -4.800781 9.984375 -6.125 L 9.984375 -6.390625 C 9.984375 -7.703125 9.695312 -8.789062 9.125 -9.65625 C 8.5625 -10.53125 7.734375 -10.96875 6.640625 -10.96875 C 5.546875 -10.96875 4.71875 -10.53125 4.15625 -9.65625 C 3.601562 -8.789062 3.328125 -7.703125 3.328125 -6.390625 Z M 3.328125 -6.125 "/></g></g></g><g fill="#012840" fill-opacity="1"><g transform="translate(120.728928, 442.329286)"><g><path d="M 10 -1.859375 C 9.601562 -1.179688 9.09375 -0.660156 8.46875 -0.296875 C 7.851562 0.0664062 7.140625 0.25 6.328125 0.25 C 4.960938 0.25 3.898438 -0.1875 3.140625 -1.0625 C 2.378906 -1.9375 2 -3.296875 2 -5.140625 L 2 -10.75 L 0.5625 -11.0625 L 0.5625 -12.546875 L 4.28125 -12.546875 L 4.28125 -5.125 C 4.28125 -3.789062 4.472656 -2.867188 4.859375 -2.359375 C 5.253906 -1.859375 5.867188 -1.609375 6.703125 -1.609375 C 7.515625 -1.609375 8.1875 -1.769531 8.71875 -2.09375 C 9.25 -2.425781 9.648438 -2.894531 9.921875 -3.5 L 9.921875 -10.75 L 8.234375 -11.0625 L 8.234375 -12.546875 L 12.203125 -12.546875 L 12.203125 -1.78125 L 13.640625 -1.453125 L 13.640625 0 L 10.15625 0 Z M 10 -1.859375 "/></g></g></g><g fill="#012840" fill-opacity="1"><g transform="translate(135.136215, 442.329286)"><g><path d="M 12.5 -5.796875 C 12.5 -3.984375 12.0625 -2.519531 11.1875 -1.40625 C 10.320312 -0.300781 9.128906 0.25 7.609375 0.25 C 6.796875 0.25 6.085938 0.09375 5.484375 -0.21875 C 4.878906 -0.539062 4.375 -1.003906 3.96875 -1.609375 L 3.765625 0 L 1.796875 0 L 1.796875 -16.28125 L -0.09375 -16.609375 L -0.09375 -18.078125 L 4.078125 -18.078125 L 4.078125 -11.0625 C 4.472656 -11.613281 4.960938 -12.035156 5.546875 -12.328125 C 6.128906 -12.617188 6.8125 -12.765625 7.59375 -12.765625 C 9.132812 -12.765625 10.335938 -12.144531 11.203125 -10.90625 C 12.066406 -9.675781 12.5 -8.050781 12.5 -6.03125 Z M 10.203125 -6.03125 C 10.203125 -7.476562 9.941406 -8.65625 9.421875 -9.5625 C 8.898438 -10.46875 8.097656 -10.921875 7.015625 -10.921875 C 6.304688 -10.921875 5.710938 -10.75 5.234375 -10.40625 C 4.753906 -10.0625 4.367188 -9.609375 4.078125 -9.046875 L 4.078125 -3.5 C 4.367188 -2.914062 4.757812 -2.453125 5.25 -2.109375 C 5.738281 -1.773438 6.332031 -1.609375 7.03125 -1.609375 C 8.101562 -1.609375 8.898438 -1.988281 9.421875 -2.75 C 9.941406 -3.519531 10.203125 -4.535156 10.203125 -5.796875 Z M 10.203125 -6.03125 "/></g></g></g><g fill="#012840" fill-opacity="1"><g transform="translate(148.871779, 442.329286)"><g><path d="M 0.71875 -16.609375 L 0.71875 -18.078125 L 4.890625 -18.078125 L 4.890625 -1.78125 L 6.78125 -1.453125 L 6.78125 0 L 0.71875 0 L 0.71875 -1.453125 L 2.609375 -1.78125 L 2.609375 -16.28125 Z M 0.71875 -16.609375 "/></g></g></g><g fill="#012840" fill-opacity="1"><g transform="translate(156.341795, 442.329286)"><g><path d="M 12.9375 -11.0625 L 11.828125 -10.890625 L 7.046875 1.921875 C 6.734375 2.765625 6.273438 3.5 5.671875 4.125 C 5.078125 4.75 4.28125 5.0625 3.28125 5.0625 C 3.101562 5.0625 2.867188 5.039062 2.578125 5 C 2.296875 4.957031 2.078125 4.914062 1.921875 4.875 L 2.15625 3.078125 C 2.113281 3.078125 2.25 3.085938 2.5625 3.109375 C 2.882812 3.128906 3.085938 3.140625 3.171875 3.140625 C 3.660156 3.140625 4.054688 2.925781 4.359375 2.5 C 4.660156 2.082031 4.921875 1.597656 5.140625 1.046875 L 5.6875 -0.25 L 1.546875 -10.875 L 0.40625 -11.0625 L 0.40625 -12.546875 L 5.46875 -12.546875 L 5.46875 -11.0625 L 4.0625 -10.828125 L 6.21875 -4.640625 L 6.640625 -3.046875 L 6.703125 -3.046875 L 9.3125 -10.828125 L 7.890625 -11.0625 L 7.890625 -12.546875 L 12.9375 -12.546875 Z M 12.9375 -11.0625 "/></g></g></g><g fill="#012840" fill-opacity="1"><g transform="translate(169.799405, 442.329286)"><g/></g></g><g fill="#012840" fill-opacity="1"><g transform="translate(175.694348, 442.329286)"><g><path d="M 0.828125 0 L 0.828125 -1.453125 L 2.71875 -1.78125 L 2.71875 -15.078125 L 0.828125 -15.40625 L 0.828125 -16.875 L 6.890625 -16.875 L 6.890625 -15.40625 L 5 -15.078125 L 5 -1.78125 L 10.859375 -1.78125 L 11.03125 -3.71875 L 12.984375 -3.71875 L 12.984375 0 Z M 0.828125 0 "/></g></g></g><g fill="#012840" fill-opacity="1"><g transform="translate(189.580472, 442.329286)"><g><path d="M 1.03125 -1.453125 L 2.921875 -1.78125 L 2.921875 -10.75 L 1.03125 -11.0625 L 1.03125 -12.546875 L 5.203125 -12.546875 L 5.203125 -1.78125 L 7.09375 -1.453125 L 7.09375 0 L 1.03125 0 Z M 5.203125 -15.75 L 2.921875 -15.75 L 2.921875 -18.078125 L 5.203125 -18.078125 Z M 5.203125 -15.75 "/></g></g></g><g fill="#012840" fill-opacity="1"><g transform="translate(197.374767, 442.329286)"><g><path d="M 0.703125 -1.453125 L 2.578125 -1.78125 L 2.578125 -10.75 L 0.703125 -11.0625 L 0.703125 -12.546875 L 4.625 -12.546875 L 4.78125 -10.671875 C 5.195312 -11.335938 5.71875 -11.851562 6.34375 -12.21875 C 6.976562 -12.582031 7.695312 -12.765625 8.5 -12.765625 C 9.851562 -12.765625 10.898438 -12.367188 11.640625 -11.578125 C 12.390625 -10.785156 12.765625 -9.566406 12.765625 -7.921875 L 12.765625 -1.78125 L 14.65625 -1.453125 L 14.65625 0 L 8.59375 0 L 8.59375 -1.453125 L 10.46875 -1.78125 L 10.46875 -7.875 C 10.46875 -8.976562 10.25 -9.757812 9.8125 -10.21875 C 9.382812 -10.6875 8.722656 -10.921875 7.828125 -10.921875 C 7.171875 -10.921875 6.585938 -10.757812 6.078125 -10.4375 C 5.566406 -10.125 5.164062 -9.691406 4.875 -9.140625 L 4.875 -1.78125 L 6.75 -1.453125 L 6.75 0 L 0.703125 0 Z M 0.703125 -1.453125 "/></g></g></g><g fill="#012840" fill-opacity="1"><g transform="translate(212.639079, 442.329286)"><g><path d="M 0.71875 -16.609375 L 0.71875 -18.078125 L 4.890625 -18.078125 L 4.890625 -7.609375 L 6.34375 -7.609375 L 9.03125 -10.921875 L 7.875 -11.0625 L 7.875 -12.546875 L 13.125 -12.546875 L 13.125 -11.0625 L 11.59375 -10.765625 L 8.296875 -6.828125 L 12.3125 -1.734375 L 13.75 -1.453125 L 13.75 0 L 8.546875 0 L 8.546875 -1.453125 L 9.71875 -1.609375 L 6.390625 -5.78125 L 4.890625 -5.78125 L 4.890625 -1.78125 L 6.78125 -1.453125 L 6.78125 0 L 0.71875 0 L 0.71875 -1.453125 L 2.609375 -1.78125 L 2.609375 -16.28125 Z M 0.71875 -16.609375 "/></g></g></g><g fill="#012840" fill-opacity="1"><g transform="translate(227.057948, 442.329286)"><g><path d="M 6.75 0.25 C 5.007812 0.25 3.625 -0.332031 2.59375 -1.5 C 1.5625 -2.664062 1.046875 -4.175781 1.046875 -6.03125 L 1.046875 -6.53125 C 1.046875 -8.320312 1.578125 -9.804688 2.640625 -10.984375 C 3.703125 -12.171875 4.957031 -12.765625 6.40625 -12.765625 C 8.09375 -12.765625 9.367188 -12.253906 10.234375 -11.234375 C 11.109375 -10.222656 11.546875 -8.863281 11.546875 -7.15625 L 11.546875 -5.734375 L 3.40625 -5.734375 L 3.375 -5.671875 C 3.394531 -4.472656 3.695312 -3.484375 4.28125 -2.703125 C 4.875 -1.929688 5.695312 -1.546875 6.75 -1.546875 C 7.53125 -1.546875 8.210938 -1.65625 8.796875 -1.875 C 9.378906 -2.09375 9.878906 -2.394531 10.296875 -2.78125 L 11.1875 -1.296875 C 10.738281 -0.867188 10.144531 -0.503906 9.40625 -0.203125 C 8.675781 0.0976562 7.789062 0.25 6.75 0.25 Z M 6.40625 -10.96875 C 5.644531 -10.96875 4.992188 -10.644531 4.453125 -10 C 3.910156 -9.363281 3.578125 -8.554688 3.453125 -7.578125 L 3.484375 -7.515625 L 9.265625 -7.515625 L 9.265625 -7.828125 C 9.265625 -8.722656 9.023438 -9.46875 8.546875 -10.0625 C 8.066406 -10.664062 7.351562 -10.96875 6.40625 -10.96875 Z M 6.40625 -10.96875 "/></g></g></g><g fill="#012840" fill-opacity="1"><g transform="translate(239.809092, 442.329286)"><g><path d="M 9.484375 -1.5 C 9.066406 -0.925781 8.5625 -0.488281 7.96875 -0.1875 C 7.382812 0.101562 6.703125 0.25 5.921875 0.25 C 4.390625 0.25 3.191406 -0.300781 2.328125 -1.40625 C 1.472656 -2.519531 1.046875 -3.984375 1.046875 -5.796875 L 1.046875 -6.03125 C 1.046875 -8.050781 1.472656 -9.675781 2.328125 -10.90625 C 3.191406 -12.144531 4.394531 -12.765625 5.9375 -12.765625 C 6.6875 -12.765625 7.34375 -12.628906 7.90625 -12.359375 C 8.476562 -12.085938 8.960938 -11.691406 9.359375 -11.171875 L 9.359375 -16.28125 L 7.46875 -16.609375 L 7.46875 -18.078125 L 11.640625 -18.078125 L 11.640625 -1.78125 L 13.53125 -1.453125 L 13.53125 0 L 9.671875 0 Z M 3.328125 -5.796875 C 3.328125 -4.535156 3.582031 -3.519531 4.09375 -2.75 C 4.613281 -1.988281 5.414062 -1.609375 6.5 -1.609375 C 7.175781 -1.609375 7.742188 -1.757812 8.203125 -2.0625 C 8.671875 -2.375 9.054688 -2.816406 9.359375 -3.390625 L 9.359375 -9.203125 C 9.066406 -9.722656 8.6875 -10.140625 8.21875 -10.453125 C 7.75 -10.765625 7.1875 -10.921875 6.53125 -10.921875 C 5.4375 -10.921875 4.628906 -10.46875 4.109375 -9.5625 C 3.585938 -8.65625 3.328125 -7.476562 3.328125 -6.03125 Z M 3.328125 -5.796875 "/></g></g></g><g fill="#012840" fill-opacity="1"><g transform="translate(254.042657, 442.329286)"><g/></g></g><g fill="#012840" fill-opacity="1"><g transform="translate(259.9376, 442.329286)"><g><path d="M 0.828125 0 L 0.828125 -1.453125 L 2.71875 -1.78125 L 2.71875 -15.078125 L 0.828125 -15.40625 L 0.828125 -16.875 L 6.890625 -16.875 L 6.890625 -15.40625 L 5 -15.078125 L 5 -1.78125 L 10.859375 -1.78125 L 11.03125 -3.71875 L 12.984375 -3.71875 L 12.984375 0 Z M 0.828125 0 "/></g></g></g><g fill="#012840" fill-opacity="1"><g transform="translate(273.823723, 442.329286)"><g><path d="M 1.03125 -1.453125 L 2.921875 -1.78125 L 2.921875 -10.75 L 1.03125 -11.0625 L 1.03125 -12.546875 L 5.203125 -12.546875 L 5.203125 -1.78125 L 7.09375 -1.453125 L 7.09375 0 L 1.03125 0 Z M 5.203125 -15.75 L 2.921875 -15.75 L 2.921875 -18.078125 L 5.203125 -18.078125 Z M 5.203125 -15.75 "/></g></g></g><g fill="#012840" fill-opacity="1"><g transform="translate(281.618019, 442.329286)"><g><path d="M 10.625 -8.59375 L 8.90625 -8.59375 L 8.546875 -10.109375 C 8.265625 -10.367188 7.910156 -10.578125 7.484375 -10.734375 C 7.066406 -10.890625 6.59375 -10.96875 6.0625 -10.96875 C 5.25 -10.96875 4.644531 -10.789062 4.25 -10.4375 C 3.851562 -10.082031 3.65625 -9.65625 3.65625 -9.15625 C 3.65625 -8.65625 3.828125 -8.265625 4.171875 -7.984375 C 4.523438 -7.703125 5.234375 -7.445312 6.296875 -7.21875 C 7.890625 -6.875 9.070312 -6.410156 9.84375 -5.828125 C 10.613281 -5.242188 11 -4.460938 11 -3.484375 C 11 -2.367188 10.546875 -1.46875 9.640625 -0.78125 C 8.742188 -0.09375 7.570312 0.25 6.125 0.25 C 5.164062 0.25 4.304688 0.140625 3.546875 -0.078125 C 2.796875 -0.304688 2.125 -0.628906 1.53125 -1.046875 L 1.515625 -3.90625 L 3.234375 -3.90625 L 3.65625 -2.21875 C 3.925781 -1.976562 4.285156 -1.804688 4.734375 -1.703125 C 5.179688 -1.597656 5.644531 -1.546875 6.125 -1.546875 C 6.925781 -1.546875 7.554688 -1.707031 8.015625 -2.03125 C 8.484375 -2.363281 8.71875 -2.796875 8.71875 -3.328125 C 8.71875 -3.828125 8.523438 -4.238281 8.140625 -4.5625 C 7.753906 -4.882812 7.03125 -5.164062 5.96875 -5.40625 C 4.445312 -5.738281 3.300781 -6.191406 2.53125 -6.765625 C 1.757812 -7.335938 1.375 -8.109375 1.375 -9.078125 C 1.375 -10.097656 1.804688 -10.96875 2.671875 -11.6875 C 3.535156 -12.40625 4.664062 -12.765625 6.0625 -12.765625 C 7.007812 -12.765625 7.863281 -12.640625 8.625 -12.390625 C 9.382812 -12.148438 10.015625 -11.8125 10.515625 -11.375 Z M 10.625 -8.59375 "/></g></g></g><g fill="#012840" fill-opacity="1"><g transform="translate(293.709022, 442.329286)"><g><path d="M 5.015625 -15.5625 L 5.015625 -12.546875 L 7.390625 -12.546875 L 7.390625 -10.84375 L 5.015625 -10.84375 L 5.015625 -3.234375 C 5.015625 -2.648438 5.132812 -2.238281 5.375 -2 C 5.625 -1.757812 5.945312 -1.640625 6.34375 -1.640625 C 6.550781 -1.640625 6.78125 -1.65625 7.03125 -1.6875 C 7.28125 -1.71875 7.488281 -1.753906 7.65625 -1.796875 L 7.96875 -0.234375 C 7.757812 -0.0859375 7.441406 0.0234375 7.015625 0.109375 C 6.597656 0.203125 6.179688 0.25 5.765625 0.25 C 4.835938 0.25 4.097656 -0.03125 3.546875 -0.59375 C 3.003906 -1.15625 2.734375 -2.035156 2.734375 -3.234375 L 2.734375 -10.84375 L 0.75 -10.84375 L 0.75 -12.546875 L 2.734375 -12.546875 L 2.734375 -15.5625 Z M 5.015625 -15.5625 "/></g></g></g><g fill="#012840" fill-opacity="1"><g transform="translate(90.999559, 585.517311)"><g><path d="M 13.90625 -11.6875 L 12.296875 -11.6875 L 11.875 -14.078125 C 11.5 -14.441406 11.039062 -14.738281 10.5 -14.96875 C 9.957031 -15.207031 9.3125 -15.328125 8.5625 -15.328125 C 6.8125 -15.328125 5.460938 -14.691406 4.515625 -13.421875 C 3.578125 -12.148438 3.109375 -10.535156 3.109375 -8.578125 L 3.109375 -8.3125 C 3.109375 -6.351562 3.566406 -4.734375 4.484375 -3.453125 C 5.410156 -2.179688 6.691406 -1.546875 8.328125 -1.546875 C 9.097656 -1.546875 9.796875 -1.664062 10.421875 -1.90625 C 11.046875 -2.144531 11.53125 -2.4375 11.875 -2.78125 L 12.296875 -5.171875 L 13.90625 -5.171875 L 13.90625 -2.171875 C 13.414062 -1.546875 12.679688 -0.984375 11.703125 -0.484375 C 10.734375 0.00390625 9.609375 0.25 8.328125 0.25 C 6.140625 0.25 4.34375 -0.5625 2.9375 -2.1875 C 1.53125 -3.8125 0.828125 -5.851562 0.828125 -8.3125 L 0.828125 -8.546875 C 0.828125 -11.023438 1.515625 -13.070312 2.890625 -14.6875 C 4.273438 -16.300781 6.085938 -17.109375 8.328125 -17.109375 C 9.609375 -17.109375 10.734375 -16.859375 11.703125 -16.359375 C 12.679688 -15.867188 13.414062 -15.3125 13.90625 -14.6875 Z M 13.90625 -11.6875 "/></g></g></g><g fill="#012840" fill-opacity="1"><g transform="translate(106.298616, 585.517311)"><g><path d="M 1.03125 -1.453125 L 2.921875 -1.78125 L 2.921875 -10.75 L 1.03125 -11.0625 L 1.03125 -12.546875 L 5.203125 -12.546875 L 5.203125 -1.78125 L 7.09375 -1.453125 L 7.09375 0 L 1.03125 0 Z M 5.203125 -15.75 L 2.921875 -15.75 L 2.921875 -18.078125 L 5.203125 -18.078125 Z M 5.203125 -15.75 "/></g></g></g><g fill="#012840" fill-opacity="1"><g transform="translate(114.092911, 585.517311)"><g><path d="M 1.03125 -11.0625 L 1.03125 -12.546875 L 4.953125 -12.546875 L 5.1875 -10.71875 C 5.539062 -11.363281 5.976562 -11.863281 6.5 -12.21875 C 7.019531 -12.582031 7.613281 -12.765625 8.28125 -12.765625 C 8.457031 -12.765625 8.640625 -12.75 8.828125 -12.71875 C 9.023438 -12.695312 9.171875 -12.671875 9.265625 -12.640625 L 8.96875 -10.515625 L 7.671875 -10.59375 C 7.066406 -10.59375 6.5625 -10.453125 6.15625 -10.171875 C 5.75 -9.890625 5.429688 -9.492188 5.203125 -8.984375 L 5.203125 -1.78125 L 7.09375 -1.453125 L 7.09375 0 L 1.03125 0 L 1.03125 -1.453125 L 2.921875 -1.78125 L 2.921875 -10.75 Z M 1.03125 -11.0625 "/></g></g></g><g fill="#012840" fill-opacity="1"><g transform="translate(123.902374, 585.517311)"><g><path d="M 6.65625 -1.546875 C 7.414062 -1.546875 8.082031 -1.773438 8.65625 -2.234375 C 9.238281 -2.703125 9.53125 -3.28125 9.53125 -3.96875 L 11.578125 -3.96875 L 11.59375 -3.890625 C 11.632812 -2.804688 11.15625 -1.84375 10.15625 -1 C 9.15625 -0.164062 7.988281 0.25 6.65625 0.25 C 4.832031 0.25 3.441406 -0.34375 2.484375 -1.53125 C 1.523438 -2.726562 1.046875 -4.226562 1.046875 -6.03125 L 1.046875 -6.515625 C 1.046875 -8.296875 1.523438 -9.78125 2.484375 -10.96875 C 3.453125 -12.164062 4.84375 -12.765625 6.65625 -12.765625 C 7.664062 -12.765625 8.566406 -12.597656 9.359375 -12.265625 C 10.160156 -11.941406 10.828125 -11.488281 11.359375 -10.90625 L 11.46875 -8.125 L 9.640625 -8.125 L 9.140625 -10.09375 C 8.867188 -10.351562 8.519531 -10.5625 8.09375 -10.71875 C 7.675781 -10.882812 7.195312 -10.96875 6.65625 -10.96875 C 5.46875 -10.96875 4.613281 -10.535156 4.09375 -9.671875 C 3.582031 -8.816406 3.328125 -7.765625 3.328125 -6.515625 L 3.328125 -6.03125 C 3.328125 -4.75 3.582031 -3.679688 4.09375 -2.828125 C 4.601562 -1.972656 5.457031 -1.546875 6.65625 -1.546875 Z M 6.65625 -1.546875 "/></g></g></g><g fill="#012840" fill-opacity="1"><g transform="translate(136.688263, 585.517311)"><g><path d="M 10 -1.859375 C 9.601562 -1.179688 9.09375 -0.660156 8.46875 -0.296875 C 7.851562 0.0664062 7.140625 0.25 6.328125 0.25 C 4.960938 0.25 3.898438 -0.1875 3.140625 -1.0625 C 2.378906 -1.9375 2 -3.296875 2 -5.140625 L 2 -10.75 L 0.5625 -11.0625 L 0.5625 -12.546875 L 4.28125 -12.546875 L 4.28125 -5.125 C 4.28125 -3.789062 4.472656 -2.867188 4.859375 -2.359375 C 5.253906 -1.859375 5.867188 -1.609375 6.703125 -1.609375 C 7.515625 -1.609375 8.1875 -1.769531 8.71875 -2.09375 C 9.25 -2.425781 9.648438 -2.894531 9.921875 -3.5 L 9.921875 -10.75 L 8.234375 -11.0625 L 8.234375 -12.546875 L 12.203125 -12.546875 L 12.203125 -1.78125 L 13.640625 -1.453125 L 13.640625 0 L 10.15625 0 Z M 10 -1.859375 "/></g></g></g><g fill="#012840" fill-opacity="1"><g transform="translate(151.09555, 585.517311)"><g><path d="M 0.71875 -16.609375 L 0.71875 -18.078125 L 4.890625 -18.078125 L 4.890625 -1.78125 L 6.78125 -1.453125 L 6.78125 0 L 0.71875 0 L 0.71875 -1.453125 L 2.609375 -1.78125 L 2.609375 -16.28125 Z M 0.71875 -16.609375 "/></g></g></g><g fill="#012840" fill-opacity="1"><g transform="translate(158.565566, 585.517311)"><g><path d="M 9.21875 0 C 9.144531 -0.34375 9.085938 -0.648438 9.046875 -0.921875 C 9.015625 -1.191406 8.988281 -1.460938 8.96875 -1.734375 C 8.53125 -1.160156 7.976562 -0.6875 7.3125 -0.3125 C 6.65625 0.0625 5.953125 0.25 5.203125 0.25 C 3.898438 0.25 2.90625 -0.0664062 2.21875 -0.703125 C 1.539062 -1.347656 1.203125 -2.25 1.203125 -3.40625 C 1.203125 -4.59375 1.679688 -5.507812 2.640625 -6.15625 C 3.609375 -6.800781 4.929688 -7.125 6.609375 -7.125 L 8.953125 -7.125 L 8.953125 -8.59375 C 8.953125 -9.320312 8.71875 -9.898438 8.25 -10.328125 C 7.789062 -10.753906 7.148438 -10.96875 6.328125 -10.96875 C 5.753906 -10.96875 5.25 -10.894531 4.8125 -10.75 C 4.375 -10.601562 4.019531 -10.40625 3.75 -10.15625 L 3.515625 -8.828125 L 1.75 -8.828125 L 1.75 -11.265625 C 2.320312 -11.722656 3.015625 -12.085938 3.828125 -12.359375 C 4.640625 -12.628906 5.519531 -12.765625 6.46875 -12.765625 C 7.882812 -12.765625 9.03125 -12.398438 9.90625 -11.671875 C 10.789062 -10.953125 11.234375 -9.914062 11.234375 -8.5625 L 11.234375 -2.53125 C 11.234375 -2.363281 11.234375 -2.203125 11.234375 -2.046875 C 11.242188 -1.890625 11.257812 -1.738281 11.28125 -1.59375 L 12.203125 -1.453125 L 12.203125 0 Z M 5.546875 -1.671875 C 6.296875 -1.671875 6.984375 -1.851562 7.609375 -2.21875 C 8.234375 -2.582031 8.679688 -3.015625 8.953125 -3.515625 L 8.953125 -5.578125 L 6.53125 -5.578125 C 5.59375 -5.578125 4.847656 -5.359375 4.296875 -4.921875 C 3.753906 -4.492188 3.484375 -3.972656 3.484375 -3.359375 C 3.484375 -2.804688 3.65625 -2.382812 4 -2.09375 C 4.34375 -1.8125 4.859375 -1.671875 5.546875 -1.671875 Z M 5.546875 -1.671875 "/></g></g></g><g fill="#012840" fill-opacity="1"><g transform="translate(171.629408, 585.517311)"><g><path d="M 1.03125 -11.0625 L 1.03125 -12.546875 L 4.953125 -12.546875 L 5.1875 -10.71875 C 5.539062 -11.363281 5.976562 -11.863281 6.5 -12.21875 C 7.019531 -12.582031 7.613281 -12.765625 8.28125 -12.765625 C 8.457031 -12.765625 8.640625 -12.75 8.828125 -12.71875 C 9.023438 -12.695312 9.171875 -12.671875 9.265625 -12.640625 L 8.96875 -10.515625 L 7.671875 -10.59375 C 7.066406 -10.59375 6.5625 -10.453125 6.15625 -10.171875 C 5.75 -9.890625 5.429688 -9.492188 5.203125 -8.984375 L 5.203125 -1.78125 L 7.09375 -1.453125 L 7.09375 0 L 1.03125 0 L 1.03125 -1.453125 L 2.921875 -1.78125 L 2.921875 -10.75 Z M 1.03125 -11.0625 "/></g></g></g><g fill="#012840" fill-opacity="1"><g transform="translate(181.438871, 585.517311)"><g/></g></g><g fill="#012840" fill-opacity="1"><g transform="translate(187.333814, 585.517311)"><g><path d="M 0.828125 0 L 0.828125 -1.453125 L 2.71875 -1.78125 L 2.71875 -15.078125 L 0.828125 -15.40625 L 0.828125 -16.875 L 6.890625 -16.875 L 6.890625 -15.40625 L 5 -15.078125 L 5 -1.78125 L 10.859375 -1.78125 L 11.03125 -3.71875 L 12.984375 -3.71875 L 12.984375 0 Z M 0.828125 0 "/></g></g></g><g fill="#012840" fill-opacity="1"><g transform="translate(201.219937, 585.517311)"><g><path d="M 1.03125 -1.453125 L 2.921875 -1.78125 L 2.921875 -10.75 L 1.03125 -11.0625 L 1.03125 -12.546875 L 5.203125 -12.546875 L 5.203125 -1.78125 L 7.09375 -1.453125 L 7.09375 0 L 1.03125 0 Z M 5.203125 -15.75 L 2.921875 -15.75 L 2.921875 -18.078125 L 5.203125 -18.078125 Z M 5.203125 -15.75 "/></g></g></g><g fill="#012840" fill-opacity="1"><g transform="translate(209.014233, 585.517311)"><g><path d="M 0.703125 -1.453125 L 2.578125 -1.78125 L 2.578125 -10.75 L 0.703125 -11.0625 L 0.703125 -12.546875 L 4.625 -12.546875 L 4.78125 -10.671875 C 5.195312 -11.335938 5.71875 -11.851562 6.34375 -12.21875 C 6.976562 -12.582031 7.695312 -12.765625 8.5 -12.765625 C 9.851562 -12.765625 10.898438 -12.367188 11.640625 -11.578125 C 12.390625 -10.785156 12.765625 -9.566406 12.765625 -7.921875 L 12.765625 -1.78125 L 14.65625 -1.453125 L 14.65625 0 L 8.59375 0 L 8.59375 -1.453125 L 10.46875 -1.78125 L 10.46875 -7.875 C 10.46875 -8.976562 10.25 -9.757812 9.8125 -10.21875 C 9.382812 -10.6875 8.722656 -10.921875 7.828125 -10.921875 C 7.171875 -10.921875 6.585938 -10.757812 6.078125 -10.4375 C 5.566406 -10.125 5.164062 -9.691406 4.875 -9.140625 L 4.875 -1.78125 L 6.75 -1.453125 L 6.75 0 L 0.703125 0 Z M 0.703125 -1.453125 "/></g></g></g><g fill="#012840" fill-opacity="1"><g transform="translate(224.278545, 585.517311)"><g><path d="M 0.71875 -16.609375 L 0.71875 -18.078125 L 4.890625 -18.078125 L 4.890625 -7.609375 L 6.34375 -7.609375 L 9.03125 -10.921875 L 7.875 -11.0625 L 7.875 -12.546875 L 13.125 -12.546875 L 13.125 -11.0625 L 11.59375 -10.765625 L 8.296875 -6.828125 L 12.3125 -1.734375 L 13.75 -1.453125 L 13.75 0 L 8.546875 0 L 8.546875 -1.453125 L 9.71875 -1.609375 L 6.390625 -5.78125 L 4.890625 -5.78125 L 4.890625 -1.78125 L 6.78125 -1.453125 L 6.78125 0 L 0.71875 0 L 0.71875 -1.453125 L 2.609375 -1.78125 L 2.609375 -16.28125 Z M 0.71875 -16.609375 "/></g></g></g><g fill="#012840" fill-opacity="1"><g transform="translate(238.697414, 585.517311)"><g><path d="M 6.75 0.25 C 5.007812 0.25 3.625 -0.332031 2.59375 -1.5 C 1.5625 -2.664062 1.046875 -4.175781 1.046875 -6.03125 L 1.046875 -6.53125 C 1.046875 -8.320312 1.578125 -9.804688 2.640625 -10.984375 C 3.703125 -12.171875 4.957031 -12.765625 6.40625 -12.765625 C 8.09375 -12.765625 9.367188 -12.253906 10.234375 -11.234375 C 11.109375 -10.222656 11.546875 -8.863281 11.546875 -7.15625 L 11.546875 -5.734375 L 3.40625 -5.734375 L 3.375 -5.671875 C 3.394531 -4.472656 3.695312 -3.484375 4.28125 -2.703125 C 4.875 -1.929688 5.695312 -1.546875 6.75 -1.546875 C 7.53125 -1.546875 8.210938 -1.65625 8.796875 -1.875 C 9.378906 -2.09375 9.878906 -2.394531 10.296875 -2.78125 L 11.1875 -1.296875 C 10.738281 -0.867188 10.144531 -0.503906 9.40625 -0.203125 C 8.675781 0.0976562 7.789062 0.25 6.75 0.25 Z M 6.40625 -10.96875 C 5.644531 -10.96875 4.992188 -10.644531 4.453125 -10 C 3.910156 -9.363281 3.578125 -8.554688 3.453125 -7.578125 L 3.484375 -7.515625 L 9.265625 -7.515625 L 9.265625 -7.828125 C 9.265625 -8.722656 9.023438 -9.46875 8.546875 -10.0625 C 8.066406 -10.664062 7.351562 -10.96875 6.40625 -10.96875 Z M 6.40625 -10.96875 "/></g></g></g><g fill="#012840" fill-opacity="1"><g transform="translate(251.448557, 585.517311)"><g><path d="M 9.484375 -1.5 C 9.066406 -0.925781 8.5625 -0.488281 7.96875 -0.1875 C 7.382812 0.101562 6.703125 0.25 5.921875 0.25 C 4.390625 0.25 3.191406 -0.300781 2.328125 -1.40625 C 1.472656 -2.519531 1.046875 -3.984375 1.046875 -5.796875 L 1.046875 -6.03125 C 1.046875 -8.050781 1.472656 -9.675781 2.328125 -10.90625 C 3.191406 -12.144531 4.394531 -12.765625 5.9375 -12.765625 C 6.6875 -12.765625 7.34375 -12.628906 7.90625 -12.359375 C 8.476562 -12.085938 8.960938 -11.691406 9.359375 -11.171875 L 9.359375 -16.28125 L 7.46875 -16.609375 L 7.46875 -18.078125 L 11.640625 -18.078125 L 11.640625 -1.78125 L 13.53125 -1.453125 L 13.53125 0 L 9.671875 0 Z M 3.328125 -5.796875 C 3.328125 -4.535156 3.582031 -3.519531 4.09375 -2.75 C 4.613281 -1.988281 5.414062 -1.609375 6.5 -1.609375 C 7.175781 -1.609375 7.742188 -1.757812 8.203125 -2.0625 C 8.671875 -2.375 9.054688 -2.816406 9.359375 -3.390625 L 9.359375 -9.203125 C 9.066406 -9.722656 8.6875 -10.140625 8.21875 -10.453125 C 7.75 -10.765625 7.1875 -10.921875 6.53125 -10.921875 C 5.4375 -10.921875 4.628906 -10.46875 4.109375 -9.5625 C 3.585938 -8.65625 3.328125 -7.476562 3.328125 -6.03125 Z M 3.328125 -5.796875 "/></g></g></g><g fill="#012840" fill-opacity="1"><g transform="translate(265.682123, 585.517311)"><g/></g></g><g fill="#012840" fill-opacity="1"><g transform="translate(271.577066, 585.517311)"><g><path d="M 0.828125 0 L 0.828125 -1.453125 L 2.71875 -1.78125 L 2.71875 -15.078125 L 0.828125 -15.40625 L 0.828125 -16.875 L 6.890625 -16.875 L 6.890625 -15.40625 L 5 -15.078125 L 5 -1.78125 L 10.859375 -1.78125 L 11.03125 -3.71875 L 12.984375 -3.71875 L 12.984375 0 Z M 0.828125 0 "/></g></g></g><g fill="#012840" fill-opacity="1"><g transform="translate(285.463189, 585.517311)"><g><path d="M 1.03125 -1.453125 L 2.921875 -1.78125 L 2.921875 -10.75 L 1.03125 -11.0625 L 1.03125 -12.546875 L 5.203125 -12.546875 L 5.203125 -1.78125 L 7.09375 -1.453125 L 7.09375 0 L 1.03125 0 Z M 5.203125 -15.75 L 2.921875 -15.75 L 2.921875 -18.078125 L 5.203125 -18.078125 Z M 5.203125 -15.75 "/></g></g></g><g fill="#012840" fill-opacity="1"><g transform="translate(293.257485, 585.517311)"><g><path d="M 10.625 -8.59375 L 8.90625 -8.59375 L 8.546875 -10.109375 C 8.265625 -10.367188 7.910156 -10.578125 7.484375 -10.734375 C 7.066406 -10.890625 6.59375 -10.96875 6.0625 -10.96875 C 5.25 -10.96875 4.644531 -10.789062 4.25 -10.4375 C 3.851562 -10.082031 3.65625 -9.65625 3.65625 -9.15625 C 3.65625 -8.65625 3.828125 -8.265625 4.171875 -7.984375 C 4.523438 -7.703125 5.234375 -7.445312 6.296875 -7.21875 C 7.890625 -6.875 9.070312 -6.410156 9.84375 -5.828125 C 10.613281 -5.242188 11 -4.460938 11 -3.484375 C 11 -2.367188 10.546875 -1.46875 9.640625 -0.78125 C 8.742188 -0.09375 7.570312 0.25 6.125 0.25 C 5.164062 0.25 4.304688 0.140625 3.546875 -0.078125 C 2.796875 -0.304688 2.125 -0.628906 1.53125 -1.046875 L 1.515625 -3.90625 L 3.234375 -3.90625 L 3.65625 -2.21875 C 3.925781 -1.976562 4.285156 -1.804688 4.734375 -1.703125 C 5.179688 -1.597656 5.644531 -1.546875 6.125 -1.546875 C 6.925781 -1.546875 7.554688 -1.707031 8.015625 -2.03125 C 8.484375 -2.363281 8.71875 -2.796875 8.71875 -3.328125 C 8.71875 -3.828125 8.523438 -4.238281 8.140625 -4.5625 C 7.753906 -4.882812 7.03125 -5.164062 5.96875 -5.40625 C 4.445312 -5.738281 3.300781 -6.191406 2.53125 -6.765625 C 1.757812 -7.335938 1.375 -8.109375 1.375 -9.078125 C 1.375 -10.097656 1.804688 -10.96875 2.671875 -11.6875 C 3.535156 -12.40625 4.664062 -12.765625 6.0625 -12.765625 C 7.007812 -12.765625 7.863281 -12.640625 8.625 -12.390625 C 9.382812 -12.148438 10.015625 -11.8125 10.515625 -11.375 Z M 10.625 -8.59375 "/></g></g></g><g fill="#012840" fill-opacity="1"><g transform="translate(305.348488, 585.517311)"><g><path d="M 5.015625 -15.5625 L 5.015625 -12.546875 L 7.390625 -12.546875 L 7.390625 -10.84375 L 5.015625 -10.84375 L 5.015625 -3.234375 C 5.015625 -2.648438 5.132812 -2.238281 5.375 -2 C 5.625 -1.757812 5.945312 -1.640625 6.34375 -1.640625 C 6.550781 -1.640625 6.78125 -1.65625 7.03125 -1.6875 C 7.28125 -1.71875 7.488281 -1.753906 7.65625 -1.796875 L 7.96875 -0.234375 C 7.757812 -0.0859375 7.441406 0.0234375 7.015625 0.109375 C 6.597656 0.203125 6.179688 0.25 5.765625 0.25 C 4.835938 0.25 4.097656 -0.03125 3.546875 -0.59375 C 3.003906 -1.15625 2.734375 -2.035156 2.734375 -3.234375 L 2.734375 -10.84375 L 0.75 -10.84375 L 0.75 -12.546875 L 2.734375 -12.546875 L 2.734375 -15.5625 Z M 5.015625 -15.5625 "/></g></g></g></svg>