<svg xmlns="http://www.w3.org/2000/svg" xmlns:xlink="http://www.w3.org/1999/xlink" width="1920" zoomAndPan="magnify" viewBox="0 0 1440 809.999993" height="1080" preserveAspectRatio="xMidYMid meet" version="1.0"><defs><g/><clipPath id="6504f7627b"><path d="M 772 33.277344 L 932 33.277344 L 932 130 L 772 130 Z M 772 33.277344 " clip-rule="nonzero"/></clipPath><clipPath id="68c10ed186"><path d="M 690 33.277344 L 730 33.277344 L 730 88 L 690 88 Z M 690 33.277344 " clip-rule="nonzero"/></clipPath><clipPath id="fa000ffe9a"><path d="M 725 33.277344 L 730 33.277344 L 730 89 L 725 89 Z M 725 33.277344 " clip-rule="nonzero"/></clipPath><clipPath id="7f10920a5e"><path d="M 689 734 L 732 734 L 732 776.667969 L 689 776.667969 Z M 689 734 " clip-rule="nonzero"/></clipPath></defs><path fill="#011f26" d="M 722.574219 620.824219 C 720.964844 572.324219 719.4375 523.824219 718.371094 475.3125 C 717.304688 426.917969 716.703125 378.515625 716.917969 330.109375 C 717.136719 281.214844 718.195312 232.324219 720.371094 183.480469 C 722.28125 140.5625 723.910156 97.597656 726.242188 54.699219 C 726.5 49.996094 726.78125 45.289062 727.097656 40.585938 C 727.164062 39.570312 726.890625 38.777344 726.421875 38.171875 C 725.847656 37.164062 724.777344 36.503906 723.195312 36.683594 C 715.308594 37.597656 707.417969 38.511719 699.527344 39.421875 C 697.300781 39.679688 695.804688 41.011719 695.625 43.324219 C 688.304688 138.316406 680.984375 233.371094 678.765625 328.648438 C 677.664062 375.972656 677.820312 423.335938 679.878906 470.632812 C 681.917969 517.582031 687.023438 564.375 688.039062 611.367188 C 689.179688 663.976562 687.902344 716.691406 687.5625 769.308594 C 687.546875 771.40625 689.359375 773.222656 691.464844 773.210938 C 702.125 773.144531 712.789062 773.078125 723.445312 773.015625 C 725.511719 773 727.410156 771.238281 727.347656 769.113281 C 725.921875 719.679688 724.210938 670.253906 722.574219 620.824219 Z M 722.574219 620.824219 " fill-opacity="1" fill-rule="nonzero"/><path fill="#024873" d="M 926.109375 132.085938 C 891.109375 105.203125 854.34375 80.636719 816.078125 58.652344 C 805.292969 52.457031 794.390625 46.472656 783.382812 40.683594 C 780.578125 39.210938 777.824219 41.101562 777.511719 44.054688 C 775.910156 59.164062 775.527344 74.351562 776.324219 89.523438 C 705.175781 85.359375 634.011719 81.5 562.832031 77.941406 C 542.546875 76.929688 522.265625 75.941406 501.980469 74.976562 C 499.601562 74.863281 498.367188 76.558594 498.246094 78.394531 C 496.636719 78.746094 495.171875 79.945312 494.992188 82.015625 C 491.0625 126.84375 490.878906 171.945312 494.445312 216.808594 C 494.621094 219.050781 496.097656 220.519531 498.347656 220.710938 C 575.898438 227.257812 653.796875 229.519531 731.59375 227.417969 C 752.359375 226.855469 773.121094 225.957031 793.863281 224.78125 C 797.925781 246.835938 806.457031 267.910156 819.160156 286.519531 C 820.71875 288.800781 824.449219 289.28125 825.898438 286.519531 C 847.539062 245.214844 872.820312 205.789062 901.527344 169.035156 C 909.722656 158.546875 918.191406 148.277344 926.902344 138.21875 C 928.703125 136.136719 928.1875 133.683594 926.109375 132.085938 Z M 926.109375 132.085938 " fill-opacity="1" fill-rule="nonzero"/><path fill="#0cb1f2" d="M 872.128906 381.085938 C 871.953125 378.902344 870.480469 377.292969 868.226562 377.183594 C 796.144531 373.707031 724.058594 370.226562 651.980469 366.75 C 632.164062 365.796875 612.347656 364.839844 592.53125 363.882812 C 592.816406 351.300781 595.535156 338.882812 600.765625 327.371094 C 602.230469 324.144531 599.003906 319.667969 595.425781 322.03125 C 558.582031 346.378906 520.773438 369.253906 482.082031 390.546875 C 471.003906 396.644531 459.847656 402.609375 448.632812 408.453125 C 446.402344 409.613281 446.113281 412.890625 447.84375 414.582031 C 479.097656 445.089844 510.355469 475.59375 541.613281 506.097656 C 550.585938 514.859375 559.5625 523.617188 568.535156 532.375 C 570.929688 534.714844 575.21875 533.039062 575.195312 529.617188 C 575.128906 519.542969 575.0625 509.464844 575 499.386719 C 614.078125 499.023438 653.261719 498.019531 692.304688 499.796875 C 732.382812 501.621094 771.980469 508.605469 812.015625 510.875 C 834.46875 512.152344 856.976562 511.699219 879.207031 508.058594 C 880.765625 507.800781 882.195312 505.855469 882.070312 504.292969 C 878.757812 463.226562 875.441406 422.15625 872.128906 381.085938 Z M 872.128906 381.085938 " fill-opacity="1" fill-rule="nonzero"/><path fill="#320075" d="M 985.800781 643.5 C 985.6875 643.351562 985.585938 643.203125 985.441406 643.0625 C 952.816406 610.417969 912.742188 586.785156 871.933594 565.878906 C 860.238281 559.886719 848.445312 554.089844 836.648438 548.296875 C 833.972656 546.984375 830.886719 548.578125 830.777344 551.667969 C 830.191406 567.765625 829.605469 583.863281 829.023438 599.960938 C 764.0625 603.351562 699.171875 608.058594 634.410156 614.136719 C 615.78125 615.882812 597.164062 617.746094 578.5625 619.710938 C 577.246094 619.851562 576.289062 620.511719 575.667969 621.390625 C 574.503906 621.953125 573.589844 623.050781 573.492188 624.691406 C 571.304688 662.171875 574.226562 699.832031 582.050781 736.550781 C 582.382812 738.113281 584.195312 739.53125 585.8125 739.414062 C 651.875 734.683594 718.101562 732.988281 784.285156 730.941406 C 801.726562 730.402344 819.171875 729.867188 836.613281 729.328125 C 836.273438 740.011719 837.335938 750.671875 839.703125 761.121094 C 840.226562 763.421875 843.421875 764.890625 845.4375 763.453125 C 865.34375 749.238281 885.253906 735.027344 905.164062 720.816406 C 924.527344 706.988281 943.957031 693.335938 961.617188 677.335938 C 971.464844 668.417969 980.90625 659.066406 990.34375 649.722656 C 993.609375 646.492188 989.296875 641.632812 985.800781 643.5 Z M 985.800781 643.5 " fill-opacity="1" fill-rule="nonzero"/><path fill="#f2f2f0" d="M 447.285156 415.011719 C 487.160156 391.984375 526.425781 367.90625 565.011719 342.78125 C 575.953125 335.664062 586.835938 328.453125 597.664062 321.171875 C 596.671875 320.769531 595.683594 320.363281 594.691406 319.960938 C 597.09375 334.394531 596.9375 349.152344 594.257812 363.535156 C 593.78125 366.078125 597.679688 367.171875 598.160156 364.613281 C 600.984375 349.46875 601.125 334.082031 598.59375 318.886719 C 598.386719 317.632812 596.628906 317 595.625 317.675781 C 557.414062 343.375 518.53125 368.0625 479.007812 391.6875 C 467.804688 398.382812 456.546875 404.992188 445.242188 411.519531 C 442.988281 412.820312 445.023438 416.320312 447.285156 415.011719 Z M 447.285156 415.011719 " fill-opacity="1" fill-rule="nonzero"/><path fill="#f2f2f0" d="M 445.605469 415.753906 C 464.316406 430.144531 481.859375 446.050781 498.003906 463.273438 C 513.429688 479.722656 527.015625 497.773438 542.382812 514.269531 C 550.832031 523.335938 559.890625 531.804688 569.933594 539.089844 C 570.910156 539.796875 572.726562 539.109375 572.90625 537.878906 C 574.625 526.199219 576.34375 514.519531 578.0625 502.839844 C 578.4375 500.292969 574.539062 499.195312 574.160156 501.765625 C 572.441406 513.445312 570.722656 525.125 569 536.804688 C 569.992188 536.402344 570.984375 535.996094 571.972656 535.59375 C 553.789062 522.398438 539.226562 505.097656 524.898438 487.972656 C 510.066406 470.25 494.730469 453.128906 477.691406 437.476562 C 468.058594 428.625 458.015625 420.234375 447.648438 412.257812 C 445.585938 410.671875 443.566406 414.1875 445.605469 415.753906 Z M 445.605469 415.753906 " fill-opacity="1" fill-rule="nonzero"/><path fill="#f2f2f0" d="M 577.839844 501.90625 C 634.074219 495.476562 690.640625 500.640625 746.832031 504.882812 C 775.007812 507.007812 803.234375 508.914062 831.503906 509 C 838.734375 509.023438 845.964844 508.925781 853.191406 508.683594 C 859.859375 508.457031 866.683594 508.40625 873.308594 507.570312 C 879.015625 506.847656 881.160156 502.871094 881.121094 497.460938 C 881.070312 490.5625 880.558594 483.628906 880.175781 476.742188 C 878.367188 444.480469 875.039062 412.308594 870.28125 380.347656 C 869.898438 377.78125 866 378.875 866.378906 381.425781 C 870.511719 409.191406 873.53125 437.121094 875.414062 465.132812 C 875.871094 471.949219 876.261719 478.769531 876.585938 485.59375 C 876.742188 488.914062 876.890625 492.234375 877.011719 495.558594 C 877.125 498.746094 877.523438 502.605469 873.613281 503.457031 C 870.550781 504.125 867.152344 503.988281 864.027344 504.160156 C 860.417969 504.355469 856.804688 504.515625 853.191406 504.636719 C 846.328125 504.867188 839.457031 504.964844 832.589844 504.953125 C 778.179688 504.878906 724.089844 498.03125 669.78125 495.621094 C 639.128906 494.261719 608.363281 494.371094 577.84375 497.859375 C 575.28125 498.152344 575.253906 502.199219 577.839844 501.90625 Z M 577.839844 501.90625 " fill-opacity="1" fill-rule="nonzero"/><path fill="#f2f2f0" d="M 596.570312 366.964844 C 667.421875 373.808594 738.492188 378.320312 809.644531 380.453125 C 829.757812 381.058594 849.878906 381.46875 870.003906 381.699219 C 872.609375 381.726562 872.609375 377.679688 870.003906 377.652344 C 798.828125 376.84375 727.683594 373.691406 656.714844 368.167969 C 636.648438 366.605469 616.601562 364.851562 596.570312 362.917969 C 593.976562 362.667969 593.996094 366.714844 596.570312 366.964844 Z M 596.570312 366.964844 " fill-opacity="1" fill-rule="nonzero"/><path fill="#f2f2f0" d="M 584.980469 743.222656 C 582.09375 718.085938 579.699219 692.894531 577.824219 667.664062 C 576.898438 655.234375 576.101562 642.796875 575.421875 630.351562 C 575.277344 627.710938 574.652344 624.226562 576.78125 622.1875 C 578.519531 620.523438 581.554688 620.296875 583.8125 619.960938 C 590.179688 619.015625 596.554688 618.15625 602.941406 617.34375 C 627.558594 614.214844 652.285156 611.949219 677.0625 610.554688 C 701.707031 609.171875 726.386719 608.988281 751.050781 608.089844 C 778.1875 607.105469 805.390625 605.019531 831.910156 598.894531 C 834.445312 598.308594 833.371094 594.40625 830.832031 594.992188 C 781.371094 606.414062 730.152344 603.65625 679.8125 606.355469 C 654.300781 607.726562 628.835938 610.015625 603.488281 613.226562 C 597.289062 614.011719 591.101562 614.851562 584.917969 615.738281 C 580.59375 616.363281 575.164062 616.785156 572.609375 620.914062 C 569.945312 625.210938 571.445312 631.757812 571.71875 636.476562 C 572.09375 642.976562 572.5 649.476562 572.941406 655.972656 C 574.925781 685.113281 577.597656 714.203125 580.933594 743.222656 C 581.226562 745.78125 585.277344 745.8125 584.980469 743.222656 Z M 584.980469 743.222656 " fill-opacity="1" fill-rule="nonzero"/><path fill="#f2f2f0" d="M 582 742.375 C 645.945312 733.597656 710.632812 737.382812 774.933594 735.191406 C 792.894531 734.582031 810.839844 733.484375 828.710938 731.558594 C 828.058594 731.066406 827.40625 730.570312 826.757812 730.074219 C 828.546875 743.132812 831.71875 755.929688 836.242188 768.3125 C 837.128906 770.738281 841.039062 769.691406 840.144531 767.238281 C 835.625 754.855469 832.449219 742.058594 830.660156 729 C 830.554688 728.207031 829.5 727.425781 828.710938 727.511719 C 764.378906 734.445312 699.59375 730.289062 635.089844 733.546875 C 616.972656 734.460938 598.898438 736.007812 580.925781 738.476562 C 578.355469 738.824219 579.449219 742.726562 582 742.375 Z M 582 742.375 " fill-opacity="1" fill-rule="nonzero"/><path fill="#f2f2f0" d="M 831.304688 599.640625 C 830.96875 581.824219 831.113281 564 831.742188 546.191406 C 830.886719 546.84375 830.035156 547.492188 829.183594 548.144531 C 840.886719 549.847656 851.230469 555.546875 861.148438 561.699219 C 871.878906 568.359375 882.511719 575.179688 893.183594 581.929688 C 914.652344 595.496094 936.296875 608.820312 957.5 622.796875 C 969.226562 630.519531 980.742188 638.570312 991.71875 647.339844 C 993.730469 648.949219 996.613281 646.101562 994.578125 644.476562 C 974.957031 628.796875 953.714844 615.390625 932.507812 601.988281 C 910.246094 587.921875 888.003906 573.8125 865.714844 559.785156 C 854.75 552.886719 843.285156 546.136719 830.257812 544.242188 C 828.945312 544.050781 827.746094 544.753906 827.699219 546.191406 C 827.070312 564.003906 826.921875 581.824219 827.257812 599.640625 C 827.308594 602.242188 831.355469 602.25 831.304688 599.640625 Z M 831.304688 599.640625 " fill-opacity="1" fill-rule="nonzero"/><path fill="#f2f2f0" d="M 841.101562 770.660156 C 884.902344 743.996094 926.117188 713.09375 963.953125 678.476562 C 974.710938 668.636719 985.183594 658.492188 995.382812 648.074219 C 997.207031 646.210938 994.347656 643.347656 992.519531 645.210938 C 956.769531 681.734375 917.507812 714.789062 875.359375 743.703125 C 863.476562 751.855469 851.367188 759.671875 839.058594 767.167969 C 836.835938 768.519531 838.867188 772.019531 841.101562 770.660156 Z M 841.101562 770.660156 " fill-opacity="1" fill-rule="nonzero"/><path fill="#f2f2f0" d="M 495.878906 218.542969 C 494.628906 181.585938 496.15625 144.550781 500.527344 107.828125 C 501.804688 97.101562 503.339844 86.410156 505.09375 75.753906 C 504.621094 76.226562 504.152344 76.695312 503.679688 77.167969 C 521.882812 73.851562 540.441406 75.625 558.652344 77.929688 C 576.613281 80.203125 594.558594 82.464844 612.589844 84.152344 C 649.105469 87.566406 685.777344 89.304688 722.453125 89.367188 C 743.199219 89.398438 763.945312 88.890625 784.664062 87.855469 C 787.257812 87.730469 787.273438 83.679688 784.664062 83.808594 C 710.578125 87.496094 636.539062 84.007812 563.007812 74.445312 C 542.957031 71.835938 522.675781 69.609375 502.605469 73.265625 C 501.980469 73.378906 501.296875 74.046875 501.191406 74.679688 C 495.117188 111.523438 491.8125 148.808594 491.433594 186.152344 C 491.320312 196.953125 491.460938 207.753906 491.828125 218.546875 C 491.921875 221.136719 495.96875 221.148438 495.878906 218.542969 Z M 495.878906 218.542969 " fill-opacity="1" fill-rule="nonzero"/><path fill="#f2f2f0" d="M 495.394531 219.746094 C 533.800781 221.25 572.203125 222.871094 610.621094 224.136719 C 648.910156 225.398438 687.230469 226.199219 725.542969 225.648438 C 747.105469 225.339844 768.664062 224.585938 790.191406 223.269531 C 792.777344 223.109375 792.796875 219.0625 790.191406 219.222656 C 751.957031 221.5625 713.640625 222.082031 675.34375 221.625 C 637.019531 221.164062 598.714844 219.738281 560.421875 218.246094 C 538.746094 217.398438 517.070312 216.546875 495.394531 215.699219 C 492.789062 215.597656 492.792969 219.644531 495.394531 219.746094 Z M 495.394531 219.746094 " fill-opacity="1" fill-rule="nonzero"/><path fill="#f2f2f0" d="M 788.808594 223.351562 C 798.074219 246.355469 807.871094 269.144531 818.191406 291.695312 C 818.828125 293.085938 821.007812 292.945312 821.6875 291.695312 C 845.609375 247.613281 872.527344 205.171875 902.261719 164.777344 C 910.769531 153.21875 919.515625 141.832031 928.472656 130.617188 C 930.082031 128.601562 927.238281 125.71875 925.613281 127.753906 C 894.089844 167.214844 865.257812 208.796875 839.457031 252.210938 C 832.121094 264.550781 825.039062 277.039062 818.191406 289.652344 C 819.355469 289.652344 820.523438 289.652344 821.6875 289.652344 C 811.511719 267.417969 801.847656 244.953125 792.707031 222.273438 C 791.75 219.894531 787.832031 220.933594 788.808594 223.351562 Z M 788.808594 223.351562 " fill-opacity="1" fill-rule="nonzero"/><g clip-path="url(#6504f7627b)"><path fill="#f2f2f0" d="M 776.695312 85.035156 C 776.921875 68.554688 778.933594 52.191406 782.722656 36.152344 C 781.890625 36.625 781.0625 37.09375 780.234375 37.566406 C 822.988281 54.285156 856.398438 87.0625 894.601562 111.464844 C 905.453125 118.398438 916.742188 124.648438 928.605469 129.6875 C 930.972656 130.691406 933.039062 127.207031 930.648438 126.191406 C 887.945312 108.066406 854.539062 74.800781 815.359375 50.8125 C 804.5 44.164062 793.179688 38.304688 781.308594 33.664062 C 780.316406 33.273438 779.050781 34.097656 778.820312 35.078125 C 774.957031 51.457031 772.882812 68.207031 772.648438 85.035156 C 772.609375 87.636719 776.65625 87.640625 776.695312 85.035156 Z M 776.695312 85.035156 " fill-opacity="1" fill-rule="nonzero"/></g><path fill="#f2f2f0" d="M 688.039062 607.996094 C 687.289062 572.140625 686.539062 536.28125 685.789062 500.425781 C 685.734375 497.824219 681.6875 497.816406 681.742188 500.425781 C 682.492188 536.28125 683.242188 572.140625 683.992188 607.996094 C 684.046875 610.597656 688.09375 610.605469 688.039062 607.996094 Z M 688.039062 607.996094 " fill-opacity="1" fill-rule="nonzero"/><path fill="#f2f2f0" d="M 681.175781 369.691406 C 681.085938 326.050781 682.667969 282.417969 685.921875 238.902344 C 686.117188 236.304688 682.070312 236.316406 681.875 238.902344 C 678.621094 282.417969 677.039062 326.050781 677.128906 369.691406 C 677.132812 372.292969 681.179688 372.296875 681.175781 369.691406 Z M 681.175781 369.691406 " fill-opacity="1" fill-rule="nonzero"/><g clip-path="url(#68c10ed186)"><path fill="#f2f2f0" d="M 694.984375 85.960938 C 694.570312 69.425781 695.71875 52.898438 698.484375 36.589844 C 697.832031 37.085938 697.183594 37.578125 696.53125 38.078125 C 706.765625 37.679688 717.003906 37.789062 727.226562 38.410156 C 729.828125 38.566406 729.816406 34.519531 727.226562 34.363281 C 717.003906 33.742188 706.765625 33.632812 696.53125 34.03125 C 695.714844 34.0625 694.730469 34.628906 694.582031 35.515625 C 691.753906 52.183594 690.511719 69.0625 690.9375 85.960938 C 691.007812 88.558594 695.054688 88.570312 694.984375 85.960938 Z M 694.984375 85.960938 " fill-opacity="1" fill-rule="nonzero"/></g><g clip-path="url(#fa000ffe9a)"><path fill="#f2f2f0" d="M 729.230469 86.886719 C 729.230469 69.890625 729.230469 52.890625 729.230469 35.890625 C 729.230469 33.289062 725.183594 33.28125 725.183594 35.890625 C 725.183594 52.890625 725.183594 69.890625 725.183594 86.886719 C 725.183594 89.492188 729.230469 89.496094 729.230469 86.886719 Z M 729.230469 86.886719 " fill-opacity="1" fill-rule="nonzero"/></g><path fill="#f2f2f0" d="M 719.890625 372.46875 C 721.621094 326.722656 723.351562 280.972656 725.082031 235.226562 C 725.183594 232.621094 721.136719 232.625 721.035156 235.226562 C 719.304688 280.972656 717.574219 326.722656 715.84375 372.46875 C 715.746094 375.074219 719.792969 375.070312 719.890625 372.46875 Z M 719.890625 372.46875 " fill-opacity="1" fill-rule="nonzero"/><path fill="#f2f2f0" d="M 724.421875 607.050781 C 725.660156 573.660156 724.632812 540.21875 721.339844 506.96875 C 721.085938 504.398438 717.035156 504.371094 717.292969 506.96875 C 720.585938 540.21875 721.613281 573.660156 720.371094 607.050781 C 720.277344 609.660156 724.324219 609.652344 724.421875 607.050781 Z M 724.421875 607.050781 " fill-opacity="1" fill-rule="nonzero"/><path fill="#f2f2f0" d="M 691.53125 773.941406 C 690.695312 760.046875 689.855469 746.152344 689.015625 732.257812 C 688.859375 729.667969 684.8125 729.652344 684.96875 732.257812 C 685.808594 746.152344 686.648438 760.046875 687.484375 773.941406 C 687.640625 776.527344 691.691406 776.546875 691.53125 773.941406 Z M 691.53125 773.941406 " fill-opacity="1" fill-rule="nonzero"/><g clip-path="url(#7f10920a5e)"><path fill="#f2f2f0" d="M 691.03125 776.40625 C 703.695312 775.933594 716.367188 775.792969 729.039062 775.984375 C 730.101562 776 731.105469 775.042969 731.0625 773.960938 C 730.550781 761.261719 729.589844 748.589844 728.175781 735.960938 C 727.890625 733.402344 723.839844 733.375 724.128906 735.960938 C 725.542969 748.589844 726.503906 761.261719 727.015625 773.960938 C 727.691406 773.285156 728.367188 772.609375 729.039062 771.9375 C 716.367188 771.746094 703.695312 771.886719 691.03125 772.359375 C 688.433594 772.453125 688.421875 776.503906 691.03125 776.40625 Z M 691.03125 776.40625 " fill-opacity="1" fill-rule="nonzero"/></g><path fill="#f2f2f0" d="M 511.945312 204.191406 C 520.0625 174.367188 530.683594 145.269531 543.730469 117.25 C 544.820312 114.902344 541.335938 112.847656 540.234375 115.207031 C 527.042969 143.542969 516.253906 172.953125 508.042969 203.113281 C 507.359375 205.628906 511.261719 206.703125 511.945312 204.191406 Z M 511.945312 204.191406 " fill-opacity="1" fill-rule="nonzero"/><path fill="#f2f2f0" d="M 525.789062 205.066406 C 535.625 179.085938 545.460938 153.105469 555.300781 127.121094 C 556.226562 124.683594 552.3125 123.628906 551.398438 126.042969 C 541.5625 152.027344 531.726562 178.007812 521.886719 203.992188 C 520.964844 206.429688 524.875 207.484375 525.789062 205.066406 Z M 525.789062 205.066406 " fill-opacity="1" fill-rule="nonzero"/><path fill="#f2f2f0" d="M 547.964844 206.007812 C 553.652344 184.601562 561.5 163.851562 571.433594 144.058594 C 572.597656 141.734375 569.109375 139.683594 567.941406 142.015625 C 557.851562 162.113281 549.835938 183.195312 544.0625 204.933594 C 543.390625 207.453125 547.292969 208.527344 547.964844 206.007812 Z M 547.964844 206.007812 " fill-opacity="1" fill-rule="nonzero"/><path fill="#f2f2f0" d="M 843.4375 225.171875 C 864.824219 197.523438 885.742188 169.519531 906.171875 141.15625 C 907.699219 139.042969 904.1875 137.019531 902.679688 139.113281 C 882.453125 167.195312 861.753906 194.933594 840.574219 222.308594 C 839 224.34375 841.84375 227.230469 843.4375 225.171875 Z M 843.4375 225.171875 " fill-opacity="1" fill-rule="nonzero"/><path fill="#f2f2f0" d="M 897.121094 128.175781 C 898.769531 129.410156 900.414062 130.648438 902.0625 131.886719 C 902.453125 132.179688 903.171875 132.214844 903.625 132.089844 C 904.09375 131.960938 904.601562 131.597656 904.832031 131.160156 C 905.082031 130.6875 905.207031 130.121094 905.039062 129.601562 C 904.972656 129.4375 904.902344 129.277344 904.832031 129.117188 C 904.652344 128.8125 904.410156 128.570312 904.109375 128.390625 C 902.460938 127.15625 900.8125 125.917969 899.164062 124.679688 C 898.773438 124.386719 898.054688 124.351562 897.601562 124.476562 C 897.132812 124.605469 896.625 124.96875 896.394531 125.40625 C 896.144531 125.878906 896.019531 126.445312 896.1875 126.96875 C 896.257812 127.128906 896.324219 127.289062 896.394531 127.453125 C 896.574219 127.753906 896.816406 127.996094 897.121094 128.175781 Z M 897.121094 128.175781 " fill-opacity="1" fill-rule="nonzero"/><path fill="#f2f2f0" d="M 795.195312 61.898438 C 821.90625 76.855469 847.707031 93.386719 872.453125 111.402344 C 874.5625 112.9375 876.585938 109.425781 874.496094 107.90625 C 849.75 89.890625 823.949219 73.359375 797.242188 58.40625 C 794.964844 57.128906 792.921875 60.625 795.195312 61.898438 Z M 795.195312 61.898438 " fill-opacity="1" fill-rule="nonzero"/><path fill="#f2f2f0" d="M 476.621094 431.128906 C 502.269531 456.167969 527.722656 481.398438 552.980469 506.832031 C 554.816406 508.683594 557.679688 505.820312 555.84375 503.96875 C 530.585938 478.539062 505.132812 453.304688 479.484375 428.269531 C 477.617188 426.449219 474.753906 429.308594 476.621094 431.128906 Z M 476.621094 431.128906 " fill-opacity="1" fill-rule="nonzero"/><path fill="#f2f2f0" d="M 566.234375 505.980469 C 566.425781 503.714844 566.617188 501.449219 566.808594 499.179688 C 566.851562 498.6875 566.554688 498.085938 566.214844 497.75 C 565.867188 497.398438 565.289062 497.132812 564.785156 497.15625 C 563.613281 497.207031 562.859375 498.046875 562.761719 499.179688 C 562.570312 501.449219 562.378906 503.714844 562.1875 505.980469 C 562.148438 506.472656 562.445312 507.074219 562.78125 507.410156 C 563.132812 507.761719 563.707031 508.027344 564.210938 508.003906 C 565.382812 507.953125 566.136719 507.117188 566.234375 505.980469 Z M 566.234375 505.980469 " fill-opacity="1" fill-rule="nonzero"/><path fill="#f2f2f0" d="M 483.453125 405.207031 C 517.015625 386.71875 549.351562 366.066406 580.242188 343.394531 C 582.316406 341.871094 580.300781 338.355469 578.199219 339.902344 C 547.3125 362.574219 514.972656 383.222656 481.410156 401.710938 C 479.128906 402.96875 481.167969 406.464844 483.453125 405.207031 Z M 483.453125 405.207031 " fill-opacity="1" fill-rule="nonzero"/><path fill="#f2f2f0" d="M 585.550781 357.632812 C 585.402344 356.113281 585.359375 354.585938 585.4375 353.058594 C 585.476562 352.3125 585.550781 351.570312 585.632812 350.824219 C 585.582031 351.296875 585.652344 350.703125 585.660156 350.652344 C 585.6875 350.472656 585.71875 350.296875 585.746094 350.121094 C 585.816406 349.707031 585.898438 349.292969 585.984375 348.886719 C 586.199219 347.851562 585.679688 346.648438 584.570312 346.394531 C 583.554688 346.164062 582.3125 346.703125 582.078125 347.808594 C 581.402344 351.035156 581.179688 354.347656 581.503906 357.632812 C 581.609375 358.683594 582.359375 359.707031 583.527344 359.65625 C 584.535156 359.609375 585.664062 358.761719 585.550781 357.632812 Z M 585.550781 357.632812 " fill-opacity="1" fill-rule="nonzero"/><path fill="#f2f2f0" d="M 853.496094 400.90625 C 854.476562 432.476562 856.210938 464.019531 858.703125 495.507812 C 858.90625 498.085938 862.957031 498.109375 862.75 495.507812 C 860.257812 464.019531 858.523438 432.476562 857.542969 400.90625 C 857.460938 398.308594 853.414062 398.296875 853.496094 400.90625 Z M 853.496094 400.90625 " fill-opacity="1" fill-rule="nonzero"/><path fill="#f2f2f0" d="M 616.261719 488.273438 C 669.144531 487.359375 722.050781 487.367188 774.9375 488.3125 C 789.832031 488.574219 804.730469 488.917969 819.625 489.332031 C 822.230469 489.402344 822.226562 485.355469 819.625 485.285156 C 766.75 483.820312 713.851562 483.277344 660.957031 483.671875 C 646.058594 483.78125 631.160156 483.972656 616.261719 484.226562 C 613.660156 484.269531 613.648438 488.316406 616.261719 488.273438 Z M 616.261719 488.273438 " fill-opacity="1" fill-rule="nonzero"/><path fill="#f2f2f0" d="M 862.515625 620.109375 C 882.203125 639.367188 901.894531 658.625 921.585938 677.882812 C 923.449219 679.707031 926.3125 676.847656 924.449219 675.023438 C 904.757812 655.761719 885.066406 636.503906 865.375 617.246094 C 863.511719 615.421875 860.648438 618.28125 862.515625 620.109375 Z M 862.515625 620.109375 " fill-opacity="1" fill-rule="nonzero"/><path fill="#f2f2f0" d="M 868.511719 601.765625 C 888.996094 623.90625 909.785156 645.765625 930.867188 667.335938 C 932.691406 669.203125 935.550781 666.339844 933.730469 664.476562 C 912.644531 642.902344 891.859375 621.046875 871.371094 598.90625 C 869.597656 596.988281 866.742188 599.855469 868.511719 601.765625 Z M 868.511719 601.765625 " fill-opacity="1" fill-rule="nonzero"/><path fill="#f2f2f0" d="M 884.308594 597.699219 C 904.402344 617.191406 923.515625 637.679688 941.566406 659.082031 C 943.246094 661.078125 946.097656 658.199219 944.429688 656.21875 C 926.375 634.816406 907.265625 614.328125 887.167969 594.835938 C 885.296875 593.019531 882.433594 595.882812 884.308594 597.699219 Z M 884.308594 597.699219 " fill-opacity="1" fill-rule="nonzero"/><path fill="#f2f2f0" d="M 599.425781 730.402344 C 595.550781 703.671875 591.671875 676.941406 587.792969 650.207031 C 587.417969 647.640625 583.519531 648.734375 583.890625 651.285156 C 587.769531 678.015625 591.644531 704.75 595.523438 731.480469 C 595.898438 734.046875 599.796875 732.957031 599.425781 730.402344 Z M 599.425781 730.402344 " fill-opacity="1" fill-rule="nonzero"/><path fill="#f2f2f0" d="M 589.21875 638.894531 C 589.21875 638.070312 589.21875 637.246094 589.21875 636.421875 C 589.21875 635.902344 588.996094 635.359375 588.625 634.992188 C 588.441406 634.792969 588.226562 634.65625 587.976562 634.574219 C 587.734375 634.449219 587.472656 634.390625 587.195312 634.398438 C 586.671875 634.421875 586.128906 634.59375 585.765625 634.992188 C 585.402344 635.386719 585.171875 635.875 585.171875 636.421875 C 585.171875 637.246094 585.171875 638.070312 585.171875 638.894531 C 585.171875 639.414062 585.394531 639.957031 585.765625 640.324219 C 585.949219 640.523438 586.164062 640.660156 586.417969 640.742188 C 586.65625 640.867188 586.917969 640.925781 587.195312 640.917969 C 587.722656 640.894531 588.261719 640.722656 588.625 640.324219 C 588.992188 639.929688 589.21875 639.441406 589.21875 638.894531 Z M 589.21875 638.894531 " fill-opacity="1" fill-rule="nonzero"/><path fill="#f2f2f0" d="M 715.175781 716.90625 C 741.75 717.878906 768.324219 718.855469 794.902344 719.828125 C 797.507812 719.921875 797.503906 715.875 794.902344 715.78125 C 768.328125 714.808594 741.753906 713.835938 715.175781 712.859375 C 712.570312 712.765625 712.574219 716.8125 715.175781 716.90625 Z M 715.175781 716.90625 " fill-opacity="1" fill-rule="nonzero"/><path fill="#f2f2f0" d="M 813.039062 720.375 C 814.5 721.078125 816.136719 721.460938 817.761719 721.261719 C 818.042969 721.273438 818.300781 721.214844 818.542969 721.085938 C 818.796875 721.007812 819.011719 720.867188 819.195312 720.667969 C 819.546875 720.316406 819.8125 719.742188 819.789062 719.238281 C 819.765625 718.714844 819.59375 718.171875 819.195312 717.808594 C 818.828125 717.472656 818.285156 717.152344 817.765625 717.214844 C 817.199219 717.285156 816.628906 717.28125 816.0625 717.207031 C 816.242188 717.230469 816.421875 717.253906 816.601562 717.277344 C 816.015625 717.199219 815.441406 717.039062 814.898438 716.8125 C 815.058594 716.878906 815.21875 716.949219 815.378906 717.019531 C 815.277344 716.976562 815.179688 716.929688 815.082031 716.882812 C 814.585938 716.644531 814.070312 716.527344 813.519531 716.679688 C 813.050781 716.804688 812.542969 717.171875 812.3125 717.609375 C 812.0625 718.078125 811.9375 718.648438 812.105469 719.167969 C 812.265625 719.644531 812.566406 720.152344 813.039062 720.375 Z M 813.039062 720.375 " fill-opacity="1" fill-rule="nonzero"/><path fill="#f2f2f0" d="M 805.613281 218.25 C 806.65625 221.929688 807.691406 225.605469 808.734375 229.285156 C 809.023438 230.300781 810.175781 231.035156 811.222656 230.699219 C 812.257812 230.363281 812.945312 229.300781 812.636719 228.210938 C 811.597656 224.535156 810.558594 220.855469 809.515625 217.175781 C 809.230469 216.160156 808.074219 215.425781 807.027344 215.761719 C 805.988281 216.097656 805.304688 217.160156 805.613281 218.25 Z M 805.613281 218.25 " fill-opacity="1" fill-rule="nonzero"/><path fill="#f2f2f0" d="M 798.386719 205.214844 C 798.714844 206.445312 799.039062 207.675781 799.367188 208.90625 C 799.5 209.398438 799.863281 209.863281 800.296875 210.117188 C 800.734375 210.371094 801.371094 210.480469 801.859375 210.320312 C 802.347656 210.164062 802.820312 209.863281 803.070312 209.390625 C 803.324219 208.90625 803.414062 208.371094 803.273438 207.832031 C 802.945312 206.597656 802.617188 205.371094 802.289062 204.136719 C 802.160156 203.648438 801.796875 203.183594 801.359375 202.925781 C 800.925781 202.671875 800.289062 202.566406 799.800781 202.722656 C 799.3125 202.878906 798.839844 203.183594 798.59375 203.652344 C 798.332031 204.140625 798.242188 204.675781 798.386719 205.214844 Z M 798.386719 205.214844 " fill-opacity="1" fill-rule="nonzero"/><path fill="#f2f2f0" d="M 809.730469 393.945312 C 813.007812 394.316406 816.390625 393.949219 819.519531 392.90625 C 820.523438 392.574219 821.28125 391.496094 820.933594 390.417969 C 820.609375 389.421875 819.519531 388.648438 818.445312 389.003906 C 817.6875 389.257812 816.921875 389.46875 816.144531 389.636719 C 815.8125 389.707031 815.476562 389.773438 815.140625 389.828125 C 815.042969 389.84375 814.320312 389.980469 814.832031 389.878906 C 814.667969 389.910156 814.492188 389.917969 814.324219 389.933594 C 812.796875 390.085938 811.257812 390.070312 809.730469 389.894531 C 808.679688 389.773438 807.664062 390.910156 807.707031 391.917969 C 807.761719 393.121094 808.601562 393.816406 809.730469 393.945312 Z M 809.730469 393.945312 " fill-opacity="1" fill-rule="nonzero"/><path fill="#f2f2f0" d="M 838.472656 392.113281 C 841.078125 392.113281 841.082031 388.066406 838.472656 388.066406 C 835.867188 388.066406 835.863281 392.113281 838.472656 392.113281 Z M 838.472656 392.113281 " fill-opacity="1" fill-rule="nonzero"/><path fill="#f2f2f0" d="M 630.773438 625.773438 C 633.25 625.773438 635.722656 625.773438 638.191406 625.773438 C 639.25 625.773438 640.265625 624.839844 640.214844 623.75 C 640.167969 622.652344 639.328125 621.726562 638.191406 621.726562 C 635.71875 621.726562 633.246094 621.726562 630.773438 621.726562 C 629.714844 621.726562 628.703125 622.65625 628.75 623.75 C 628.800781 624.84375 629.640625 625.773438 630.773438 625.773438 Z M 630.773438 625.773438 " fill-opacity="1" fill-rule="nonzero"/><path fill="#f2f2f0" d="M 657.664062 625.773438 C 659.519531 625.773438 661.375 625.773438 663.230469 625.773438 C 664.289062 625.773438 665.300781 624.839844 665.253906 623.75 C 665.203125 622.652344 664.363281 621.726562 663.230469 621.726562 C 661.375 621.726562 659.519531 621.726562 657.664062 621.726562 C 656.605469 621.726562 655.589844 622.65625 655.640625 623.75 C 655.691406 624.84375 656.53125 625.773438 657.664062 625.773438 Z M 657.664062 625.773438 " fill-opacity="1" fill-rule="nonzero"/><path fill="#f2f2f0" d="M 883.902344 724.519531 C 887.183594 722.816406 890.203125 720.578125 892.796875 717.945312 C 893.542969 717.191406 893.609375 715.824219 892.796875 715.082031 C 891.996094 714.347656 890.734375 714.277344 889.9375 715.082031 C 889.335938 715.695312 888.710938 716.285156 888.0625 716.847656 C 887.730469 717.140625 887.394531 717.421875 887.050781 717.699219 C 886.972656 717.757812 886.898438 717.820312 886.820312 717.882812 C 886.507812 718.128906 886.738281 717.863281 886.824219 717.882812 C 886.753906 717.867188 886.347656 718.242188 886.292969 718.277344 C 884.890625 719.308594 883.40625 720.222656 881.859375 721.027344 C 880.917969 721.515625 880.5625 722.90625 881.132812 723.792969 C 881.753906 724.75 882.894531 725.039062 883.902344 724.519531 Z M 883.902344 724.519531 " fill-opacity="1" fill-rule="nonzero"/><path fill="#f2f2f0" d="M 906.273438 708.050781 C 908.148438 706.84375 910.019531 705.640625 911.894531 704.433594 C 912.335938 704.148438 912.683594 703.734375 912.828125 703.222656 C 912.957031 702.738281 912.902344 702.09375 912.621094 701.660156 C 912.046875 700.773438 910.804688 700.324219 909.855469 700.9375 C 907.980469 702.140625 906.105469 703.347656 904.230469 704.554688 C 903.789062 704.835938 903.441406 705.25 903.300781 705.761719 C 903.167969 706.246094 903.226562 706.890625 903.503906 707.324219 C 904.078125 708.210938 905.320312 708.660156 906.273438 708.050781 Z M 906.273438 708.050781 " fill-opacity="1" fill-rule="nonzero"/><path fill="#f2f2f0" d="M 594.613281 101.894531 C 597.085938 101.894531 599.558594 101.894531 602.03125 101.894531 C 603.089844 101.894531 604.105469 100.960938 604.054688 99.871094 C 604.003906 98.773438 603.167969 97.847656 602.03125 97.847656 C 599.558594 97.847656 597.085938 97.847656 594.613281 97.847656 C 593.554688 97.847656 592.542969 98.777344 592.589844 99.871094 C 592.640625 100.964844 593.480469 101.894531 594.613281 101.894531 Z M 594.613281 101.894531 " fill-opacity="1" fill-rule="nonzero"/><path fill="#f2f2f0" d="M 619.101562 104.664062 C 620.949219 104.992188 622.800781 105.324219 624.652344 105.65625 C 625.195312 105.75 625.714844 105.738281 626.207031 105.449219 C 626.628906 105.203125 627.03125 104.722656 627.140625 104.242188 C 627.257812 103.722656 627.230469 103.140625 626.933594 102.679688 C 626.664062 102.257812 626.238281 101.839844 625.726562 101.75 C 623.875 101.417969 622.023438 101.089844 620.175781 100.757812 C 619.628906 100.660156 619.109375 100.671875 618.617188 100.960938 C 618.195312 101.207031 617.796875 101.6875 617.6875 102.171875 C 617.570312 102.6875 617.59375 103.269531 617.890625 103.730469 C 618.164062 104.152344 618.589844 104.570312 619.101562 104.664062 Z M 619.101562 104.664062 " fill-opacity="1" fill-rule="nonzero"/><path fill="#f2f2f0" d="M 689.003906 353.953125 C 689.3125 346.523438 689.621094 339.089844 689.929688 331.660156 C 690.035156 329.058594 685.988281 329.0625 685.882812 331.660156 C 685.574219 339.089844 685.265625 346.523438 684.957031 353.953125 C 684.851562 356.554688 688.898438 356.550781 689.003906 353.953125 Z M 689.003906 353.953125 " fill-opacity="1" fill-rule="nonzero"/><path fill="#f2f2f0" d="M 691.964844 313.113281 C 692.359375 308.484375 692.75 303.855469 693.144531 299.226562 C 693.234375 298.136719 692.148438 297.203125 691.121094 297.203125 C 689.949219 297.203125 689.1875 298.136719 689.097656 299.226562 C 688.703125 303.855469 688.3125 308.484375 687.917969 313.113281 C 687.828125 314.207031 688.914062 315.136719 689.941406 315.136719 C 691.113281 315.136719 691.871094 314.207031 691.964844 313.113281 Z M 691.964844 313.113281 " fill-opacity="1" fill-rule="nonzero"/><path fill="#f2f2f0" d="M 700.296875 334.046875 C 700.636719 331.890625 700.976562 329.730469 701.3125 327.570312 C 701.398438 327.015625 701.402344 326.515625 701.109375 326.011719 C 700.863281 325.59375 700.382812 325.191406 699.898438 325.082031 C 699.378906 324.964844 698.796875 324.992188 698.339844 325.289062 C 697.925781 325.554688 697.488281 325.988281 697.410156 326.496094 C 697.070312 328.65625 696.730469 330.816406 696.394531 332.972656 C 696.308594 333.527344 696.304688 334.027344 696.601562 334.535156 C 696.84375 334.953125 697.324219 335.355469 697.808594 335.464844 C 698.328125 335.582031 698.910156 335.558594 699.367188 335.261719 C 699.78125 334.992188 700.21875 334.558594 700.296875 334.046875 Z M 700.296875 334.046875 " fill-opacity="1" fill-rule="nonzero"/><path fill="#f2f2f0" d="M 719.796875 70.183594 C 720.105469 66.472656 720.414062 62.765625 720.722656 59.058594 C 720.808594 58 719.726562 56.984375 718.699219 57.035156 C 717.527344 57.085938 716.769531 57.925781 716.675781 59.058594 C 716.367188 62.765625 716.058594 66.472656 715.75 70.183594 C 715.664062 71.242188 716.746094 72.253906 717.773438 72.207031 C 718.945312 72.15625 719.703125 71.316406 719.796875 70.183594 Z M 719.796875 70.183594 " fill-opacity="1" fill-rule="nonzero"/><path fill="#f2f2f0" d="M 711.613281 594.078125 C 711.613281 587.585938 711.613281 581.097656 711.613281 574.605469 C 711.613281 572.003906 707.566406 571.996094 707.566406 574.605469 C 707.566406 581.097656 707.566406 587.585938 707.566406 594.078125 C 707.566406 596.679688 711.613281 596.6875 711.613281 594.078125 Z M 711.613281 594.078125 " fill-opacity="1" fill-rule="nonzero"/><path fill="#f2f2f0" d="M 712.449219 551.417969 C 712.972656 546.578125 712.71875 541.707031 711.792969 536.933594 C 711.582031 535.859375 710.296875 535.246094 709.300781 535.519531 C 708.179688 535.824219 707.679688 536.929688 707.886719 538.007812 C 708.746094 542.414062 708.886719 546.941406 708.402344 551.417969 C 708.285156 552.503906 709.417969 553.441406 710.425781 553.441406 C 711.617188 553.441406 712.332031 552.507812 712.449219 551.417969 Z M 712.449219 551.417969 " fill-opacity="1" fill-rule="nonzero"/><path fill="#f2f2f0" d="M 695.851562 524.535156 C 695.851562 522.683594 695.851562 520.828125 695.851562 518.976562 C 695.851562 517.914062 694.921875 516.902344 693.828125 516.953125 C 692.730469 517 691.804688 517.839844 691.804688 518.976562 C 691.804688 520.828125 691.804688 522.683594 691.804688 524.535156 C 691.804688 525.597656 692.734375 526.609375 693.828125 526.558594 C 694.921875 526.511719 695.851562 525.671875 695.851562 524.535156 Z M 695.851562 524.535156 " fill-opacity="1" fill-rule="nonzero"/><path fill="#f2f2f0" d="M 717.175781 760.050781 C 717.175781 758.195312 717.175781 756.339844 717.175781 754.488281 C 717.175781 753.429688 716.246094 752.417969 715.152344 752.464844 C 714.054688 752.515625 713.128906 753.355469 713.128906 754.488281 C 713.128906 756.34375 713.128906 758.199219 713.128906 760.050781 C 713.128906 761.109375 714.058594 762.125 715.152344 762.074219 C 716.25 762.027344 717.175781 761.183594 717.175781 760.050781 Z M 717.175781 760.050781 " fill-opacity="1" fill-rule="nonzero"/><path fill="#f2f2f0" d="M 512.261719 113.777344 C 512.261719 109.761719 512.261719 105.742188 512.261719 101.722656 C 512.261719 100.664062 511.328125 99.652344 510.238281 99.699219 C 509.140625 99.75 508.214844 100.589844 508.214844 101.722656 C 508.214844 105.742188 508.214844 109.761719 508.214844 113.777344 C 508.214844 114.835938 509.144531 115.851562 510.238281 115.800781 C 511.332031 115.75 512.261719 114.914062 512.261719 113.777344 Z M 512.261719 113.777344 " fill-opacity="1" fill-rule="nonzero"/><path fill="#f2f2f0" d="M 514.113281 85.035156 C 514.113281 84.726562 514.113281 84.414062 514.113281 84.105469 C 514.125 83.828125 514.066406 83.570312 513.941406 83.328125 C 513.859375 83.074219 513.71875 82.859375 513.523438 82.675781 C 513.335938 82.476562 513.121094 82.335938 512.871094 82.257812 C 512.628906 82.132812 512.367188 82.074219 512.089844 82.082031 C 511.910156 82.105469 511.730469 82.128906 511.550781 82.152344 C 511.210938 82.25 510.910156 82.421875 510.660156 82.671875 C 510.554688 82.808594 510.449219 82.945312 510.34375 83.082031 C 510.160156 83.398438 510.066406 83.738281 510.066406 84.101562 C 510.066406 84.410156 510.066406 84.722656 510.066406 85.027344 C 510.054688 85.308594 510.113281 85.566406 510.242188 85.808594 C 510.320312 86.0625 510.460938 86.277344 510.660156 86.460938 C 510.84375 86.660156 511.058594 86.796875 511.3125 86.878906 C 511.550781 87.003906 511.8125 87.0625 512.089844 87.054688 C 512.269531 87.03125 512.453125 87.007812 512.628906 86.984375 C 512.96875 86.886719 513.269531 86.710938 513.523438 86.464844 C 513.628906 86.324219 513.734375 86.191406 513.839844 86.054688 C 514.019531 85.738281 514.113281 85.398438 514.113281 85.035156 Z M 514.113281 85.035156 " fill-opacity="1" fill-rule="nonzero"/><g fill="#f2f2f0" fill-opacity="1"><g transform="translate(622.773148, 182.870698)"><g><path d="M 32.75 -8.140625 L 15.546875 -8.140625 L 12.796875 0 L 1.046875 0 L 17.71875 -46.0625 L 30.71875 -46.0625 L 47.375 0 L 35.5 0 Z M 29.859375 -16.796875 L 24.15625 -33.671875 L 18.5 -16.796875 Z M 29.859375 -16.796875 "/></g></g></g><g fill="#f2f2f0" fill-opacity="1"><g transform="translate(671.13772, 182.870698)"><g><path d="M 27.5625 0 L 17.984375 -17.390625 L 15.296875 -17.390625 L 15.296875 0 L 4.0625 0 L 4.0625 -46.0625 L 22.90625 -46.0625 C 26.53125 -46.0625 29.625 -45.425781 32.1875 -44.15625 C 34.75 -42.894531 36.660156 -41.160156 37.921875 -38.953125 C 39.191406 -36.742188 39.828125 -34.28125 39.828125 -31.5625 C 39.828125 -28.5 38.960938 -25.765625 37.234375 -23.359375 C 35.515625 -20.953125 32.96875 -19.25 29.59375 -18.25 L 40.234375 0 Z M 15.296875 -25.328125 L 22.25 -25.328125 C 24.300781 -25.328125 25.84375 -25.828125 26.875 -26.828125 C 27.90625 -27.835938 28.421875 -29.265625 28.421875 -31.109375 C 28.421875 -32.859375 27.90625 -34.234375 26.875 -35.234375 C 25.84375 -36.242188 24.300781 -36.75 22.25 -36.75 L 15.296875 -36.75 Z M 15.296875 -25.328125 "/></g></g></g><g fill="#f2f2f0" fill-opacity="1"><g transform="translate(713.924292, 182.870698)"><g><path d="M 15.296875 -37.078125 L 15.296875 -27.765625 L 30.3125 -27.765625 L 30.3125 -19.09375 L 15.296875 -19.09375 L 15.296875 -8.984375 L 32.28125 -8.984375 L 32.28125 0 L 4.0625 0 L 4.0625 -46.0625 L 32.28125 -46.0625 L 32.28125 -37.078125 Z M 15.296875 -37.078125 "/></g></g></g><g fill="#f2f2f0" fill-opacity="1"><g transform="translate(615.16298, 455.174751)"><g><path d="M 43.578125 -46.0625 L 27.625 -15.21875 L 27.625 0 L 16.40625 0 L 16.40625 -15.21875 L 0.453125 -46.0625 L 13.1875 -46.0625 L 22.109375 -26.78125 L 30.96875 -46.0625 Z M 43.578125 -46.0625 "/></g></g></g><g fill="#f2f2f0" fill-opacity="1"><g transform="translate(659.19639, 455.174751)"><g><path d="M 25.859375 0.453125 C 21.523438 0.453125 17.550781 -0.550781 13.9375 -2.5625 C 10.332031 -4.570312 7.46875 -7.378906 5.34375 -10.984375 C 3.226562 -14.597656 2.171875 -18.660156 2.171875 -23.171875 C 2.171875 -27.671875 3.226562 -31.710938 5.34375 -35.296875 C 7.46875 -38.890625 10.332031 -41.691406 13.9375 -43.703125 C 17.550781 -45.710938 21.523438 -46.71875 25.859375 -46.71875 C 30.191406 -46.71875 34.160156 -45.710938 37.765625 -43.703125 C 41.378906 -41.691406 44.222656 -38.890625 46.296875 -35.296875 C 48.378906 -31.710938 49.421875 -27.671875 49.421875 -23.171875 C 49.421875 -18.660156 48.367188 -14.597656 46.265625 -10.984375 C 44.160156 -7.378906 41.316406 -4.570312 37.734375 -2.5625 C 34.148438 -0.550781 30.191406 0.453125 25.859375 0.453125 Z M 25.859375 -9.78125 C 29.535156 -9.78125 32.476562 -11.003906 34.6875 -13.453125 C 36.894531 -15.898438 38 -19.140625 38 -23.171875 C 38 -27.234375 36.894531 -30.476562 34.6875 -32.90625 C 32.476562 -35.332031 29.535156 -36.546875 25.859375 -36.546875 C 22.140625 -36.546875 19.175781 -35.34375 16.96875 -32.9375 C 14.757812 -30.53125 13.65625 -27.273438 13.65625 -23.171875 C 13.65625 -19.097656 14.757812 -15.847656 16.96875 -13.421875 C 19.175781 -10.992188 22.140625 -9.78125 25.859375 -9.78125 Z M 25.859375 -9.78125 "/></g></g></g><g fill="#f2f2f0" fill-opacity="1"><g transform="translate(710.776508, 455.174751)"><g><path d="M 15.09375 -46.0625 L 15.09375 -18.5 C 15.09375 -15.75 15.769531 -13.628906 17.125 -12.140625 C 18.476562 -10.648438 20.46875 -9.90625 23.09375 -9.90625 C 25.71875 -9.90625 27.726562 -10.648438 29.125 -12.140625 C 30.53125 -13.628906 31.234375 -15.75 31.234375 -18.5 L 31.234375 -46.0625 L 42.453125 -46.0625 L 42.453125 -18.578125 C 42.453125 -14.460938 41.578125 -10.984375 39.828125 -8.140625 C 38.078125 -5.296875 35.722656 -3.148438 32.765625 -1.703125 C 29.816406 -0.265625 26.53125 0.453125 22.90625 0.453125 C 19.269531 0.453125 16.019531 -0.253906 13.15625 -1.671875 C 10.289062 -3.097656 8.023438 -5.242188 6.359375 -8.109375 C 4.703125 -10.972656 3.875 -14.460938 3.875 -18.578125 L 3.875 -46.0625 Z M 15.09375 -46.0625 "/></g></g></g><g fill="#f2f2f0" fill-opacity="1"><g transform="translate(621.329482, 694.188551)"><g><path d="M 15.296875 -8.65625 L 29.984375 -8.65625 L 29.984375 0 L 4.0625 0 L 4.0625 -46.0625 L 15.296875 -46.0625 Z M 15.296875 -8.65625 "/></g></g></g><g fill="#f2f2f0" fill-opacity="1"><g transform="translate(652.63193, 694.188551)"><g><path d="M 25.859375 0.453125 C 21.523438 0.453125 17.550781 -0.550781 13.9375 -2.5625 C 10.332031 -4.570312 7.46875 -7.378906 5.34375 -10.984375 C 3.226562 -14.597656 2.171875 -18.660156 2.171875 -23.171875 C 2.171875 -27.671875 3.226562 -31.710938 5.34375 -35.296875 C 7.46875 -38.890625 10.332031 -41.691406 13.9375 -43.703125 C 17.550781 -45.710938 21.523438 -46.71875 25.859375 -46.71875 C 30.191406 -46.71875 34.160156 -45.710938 37.765625 -43.703125 C 41.378906 -41.691406 44.222656 -38.890625 46.296875 -35.296875 C 48.378906 -31.710938 49.421875 -27.671875 49.421875 -23.171875 C 49.421875 -18.660156 48.367188 -14.597656 46.265625 -10.984375 C 44.160156 -7.378906 41.316406 -4.570312 37.734375 -2.5625 C 34.148438 -0.550781 30.191406 0.453125 25.859375 0.453125 Z M 25.859375 -9.78125 C 29.535156 -9.78125 32.476562 -11.003906 34.6875 -13.453125 C 36.894531 -15.898438 38 -19.140625 38 -23.171875 C 38 -27.234375 36.894531 -30.476562 34.6875 -32.90625 C 32.476562 -35.332031 29.535156 -36.546875 25.859375 -36.546875 C 22.140625 -36.546875 19.175781 -35.34375 16.96875 -32.9375 C 14.757812 -30.53125 13.65625 -27.273438 13.65625 -23.171875 C 13.65625 -19.097656 14.757812 -15.847656 16.96875 -13.421875 C 19.175781 -10.992188 22.140625 -9.78125 25.859375 -9.78125 Z M 25.859375 -9.78125 "/></g></g></g><g fill="#f2f2f0" fill-opacity="1"><g transform="translate(704.212048, 694.188551)"><g><path d="M 20.734375 0.453125 C 17.367188 0.453125 14.347656 -0.09375 11.671875 -1.1875 C 9.003906 -2.28125 6.875 -3.894531 5.28125 -6.03125 C 3.6875 -8.175781 2.84375 -10.757812 2.75 -13.78125 L 14.703125 -13.78125 C 14.878906 -12.070312 15.46875 -10.769531 16.46875 -9.875 C 17.476562 -8.976562 18.789062 -8.53125 20.40625 -8.53125 C 22.070312 -8.53125 23.382812 -8.910156 24.34375 -9.671875 C 25.3125 -10.441406 25.796875 -11.503906 25.796875 -12.859375 C 25.796875 -13.992188 25.410156 -14.929688 24.640625 -15.671875 C 23.878906 -16.421875 22.9375 -17.035156 21.8125 -17.515625 C 20.695312 -18.003906 19.113281 -18.550781 17.0625 -19.15625 C 14.082031 -20.082031 11.648438 -21.003906 9.765625 -21.921875 C 7.890625 -22.835938 6.273438 -24.191406 4.921875 -25.984375 C 3.566406 -27.773438 2.890625 -30.117188 2.890625 -33.015625 C 2.890625 -37.296875 4.441406 -40.648438 7.546875 -43.078125 C 10.648438 -45.503906 14.695312 -46.71875 19.6875 -46.71875 C 24.757812 -46.71875 28.847656 -45.503906 31.953125 -43.078125 C 35.066406 -40.648438 36.734375 -37.269531 36.953125 -32.9375 L 24.8125 -32.9375 C 24.71875 -34.425781 24.164062 -35.597656 23.15625 -36.453125 C 22.15625 -37.304688 20.867188 -37.734375 19.296875 -37.734375 C 17.941406 -37.734375 16.847656 -37.367188 16.015625 -36.640625 C 15.179688 -35.921875 14.765625 -34.882812 14.765625 -33.53125 C 14.765625 -32.039062 15.460938 -30.878906 16.859375 -30.046875 C 18.265625 -29.222656 20.453125 -28.328125 23.421875 -27.359375 C 26.398438 -26.359375 28.816406 -25.394531 30.671875 -24.46875 C 32.535156 -23.550781 34.144531 -22.21875 35.5 -20.46875 C 36.851562 -18.71875 37.53125 -16.46875 37.53125 -13.71875 C 37.53125 -11.09375 36.863281 -8.707031 35.53125 -6.5625 C 34.195312 -4.414062 32.257812 -2.707031 29.71875 -1.4375 C 27.1875 -0.175781 24.191406 0.453125 20.734375 0.453125 Z M 20.734375 0.453125 "/></g></g></g><g fill="#f2f2f0" fill-opacity="1"><g transform="translate(744.570548, 694.188551)"><g><path d="M 37.203125 -46.0625 L 37.203125 -37.078125 L 25 -37.078125 L 25 0 L 13.78125 0 L 13.78125 -37.078125 L 1.578125 -37.078125 L 1.578125 -46.0625 Z M 37.203125 -46.0625 "/></g></g></g><g fill="#f2f2f0" fill-opacity="1"><g transform="translate(783.354069, 694.188551)"><g><path d="M 17.515625 -48.625 C 22.203125 -48.625 25.957031 -47.398438 28.78125 -44.953125 C 31.601562 -42.503906 33.015625 -39.046875 33.015625 -34.578125 C 33.015625 -30.472656 31.664062 -27.269531 28.96875 -24.96875 C 26.28125 -22.675781 22.726562 -21.503906 18.3125 -21.453125 L 17.984375 -16.53125 L 8.140625 -16.53125 L 7.8125 -28.75 L 11.75 -28.75 C 15.113281 -28.75 17.679688 -29.160156 19.453125 -29.984375 C 21.222656 -30.816406 22.109375 -32.328125 22.109375 -34.515625 C 22.109375 -36.046875 21.691406 -37.25 20.859375 -38.125 C 20.035156 -39 18.878906 -39.4375 17.390625 -39.4375 C 15.816406 -39.4375 14.59375 -38.988281 13.71875 -38.09375 C 12.84375 -37.195312 12.40625 -35.984375 12.40625 -34.453125 L 1.84375 -34.453125 C 1.75 -37.117188 2.300781 -39.523438 3.5 -41.671875 C 4.707031 -43.816406 6.503906 -45.507812 8.890625 -46.75 C 11.273438 -48 14.148438 -48.625 17.515625 -48.625 Z M 13.1875 0.53125 C 11.21875 0.53125 9.609375 -0.046875 8.359375 -1.203125 C 7.117188 -2.367188 6.5 -3.804688 6.5 -5.515625 C 6.5 -7.265625 7.117188 -8.726562 8.359375 -9.90625 C 9.609375 -11.09375 11.21875 -11.6875 13.1875 -11.6875 C 15.113281 -11.6875 16.695312 -11.09375 17.9375 -9.90625 C 19.1875 -8.726562 19.8125 -7.265625 19.8125 -5.515625 C 19.8125 -3.804688 19.1875 -2.367188 17.9375 -1.203125 C 16.695312 -0.046875 15.113281 0.53125 13.1875 0.53125 Z M 13.1875 0.53125 "/></g></g></g></svg>