<svg xmlns="http://www.w3.org/2000/svg" xmlns:xlink="http://www.w3.org/1999/xlink" width="1920" zoomAndPan="magnify" viewBox="0 0 1440 809.999993" height="1080" preserveAspectRatio="xMidYMid meet" version="1.0"><defs><clipPath id="d1893145f8"><path d="M 708.15625 404 L 732 404 L 732 406 L 708.15625 406 Z M 708.15625 404 " clip-rule="nonzero"/></clipPath><clipPath id="0eaf4fda07"><path d="M 708.15625 411.269531 L 731.839844 411.269531 L 731.839844 413.148438 L 708.15625 413.148438 Z M 708.15625 411.269531 " clip-rule="nonzero"/></clipPath><clipPath id="bff7d2e656"><path d="M 708.15625 396.648438 L 732 396.648438 L 732 399 L 708.15625 399 Z M 708.15625 396.648438 " clip-rule="nonzero"/></clipPath></defs><g clip-path="url(#d1893145f8)"><path fill="#f2f2f0" d="M 730.960938 404.117188 L 709.03125 404.117188 C 708.546875 404.117188 708.15625 404.511719 708.15625 404.996094 C 708.15625 405.480469 708.546875 405.875 709.03125 405.875 L 730.960938 405.875 C 731.449219 405.875 731.839844 405.480469 731.839844 404.996094 C 731.839844 404.511719 731.449219 404.117188 730.960938 404.117188 " fill-opacity="1" fill-rule="nonzero"/></g><g clip-path="url(#0eaf4fda07)"><path fill="#f2f2f0" d="M 730.960938 411.5 L 709.03125 411.5 C 708.546875 411.5 708.15625 411.894531 708.15625 412.378906 C 708.15625 412.863281 708.546875 413.257812 709.03125 413.257812 L 730.960938 413.257812 C 731.449219 413.257812 731.839844 412.863281 731.839844 412.378906 C 731.839844 411.894531 731.449219 411.5 730.960938 411.5 " fill-opacity="1" fill-rule="nonzero"/></g><g clip-path="url(#bff7d2e656)"><path fill="#f2f2f0" d="M 709.03125 398.492188 L 730.960938 398.492188 C 731.449219 398.492188 731.839844 398.097656 731.839844 397.617188 C 731.839844 397.132812 731.449219 396.738281 730.960938 396.738281 L 709.03125 396.738281 C 708.546875 396.738281 708.15625 397.132812 708.15625 397.617188 C 708.15625 398.097656 708.546875 398.492188 709.03125 398.492188 " fill-opacity="1" fill-rule="nonzero"/></g></svg>