<svg xmlns="http://www.w3.org/2000/svg" xmlns:xlink="http://www.w3.org/1999/xlink" width="1920" zoomAndPan="magnify" viewBox="0 0 1440 809.999993" height="1080" preserveAspectRatio="xMidYMid meet" version="1.0"><defs><clipPath id="e9f5efb405"><path d="M 624.578125 93.421875 L 815.078125 93.421875 L 815.078125 237 L 624.578125 237 Z M 624.578125 93.421875 " clip-rule="nonzero"/></clipPath><clipPath id="95c4196acc"><path d="M 672 708 L 765 708 L 765 716.671875 L 672 716.671875 Z M 672 708 " clip-rule="nonzero"/></clipPath></defs><g clip-path="url(#e9f5efb405)"><path fill="#0cb1f2" d="M 815.328125 236.453125 L 720 236.257812 L 624.667969 236.453125 L 672.527344 164.96875 L 720 93.289062 L 767.46875 164.96875 Z M 815.328125 236.453125 " fill-opacity="1" fill-rule="nonzero"/></g><path fill="#0cb1f2" d="M 668.742188 334.914062 L 668.742188 234.910156 C 668.742188 225.695312 676.160156 218.277344 685.371094 218.277344 L 749.800781 218.277344 C 759.011719 218.277344 766.429688 225.695312 766.429688 234.910156 L 766.429688 334.914062 C 766.429688 344.125 759.011719 351.542969 749.800781 351.542969 L 685.371094 351.542969 C 676.160156 351.542969 668.742188 344.125 668.742188 334.914062 Z M 668.742188 334.914062 " fill-opacity="1" fill-rule="nonzero"/><path fill="#0cb1f2" d="M 668.742188 384.359375 L 668.742188 375.105469 C 668.742188 370.90625 672.125 367.523438 676.328125 367.523438 L 758.84375 367.523438 C 763.046875 367.523438 766.429688 370.90625 766.429688 375.105469 L 766.429688 384.359375 C 766.429688 388.5625 763.046875 391.945312 758.84375 391.945312 L 676.328125 391.945312 C 672.125 391.945312 668.742188 388.5625 668.742188 384.359375 Z M 668.742188 384.359375 " fill-opacity="1" fill-rule="nonzero"/><path fill="#0cb1f2" d="M 668.742188 425.0625 L 668.742188 415.808594 C 668.742188 411.609375 672.125 408.226562 676.328125 408.226562 L 758.84375 408.226562 C 763.046875 408.226562 766.429688 411.609375 766.429688 415.808594 L 766.429688 425.0625 C 766.429688 429.265625 763.046875 432.644531 758.84375 432.644531 L 676.328125 432.644531 C 672.125 432.644531 668.742188 429.265625 668.742188 425.0625 Z M 668.742188 425.0625 " fill-opacity="1" fill-rule="nonzero"/><path fill="#0cb1f2" d="M 668.742188 467.273438 L 668.742188 458.019531 C 668.742188 453.816406 672.125 450.433594 676.328125 450.433594 L 758.84375 450.433594 C 763.046875 450.433594 766.429688 453.816406 766.429688 458.019531 L 766.429688 467.273438 C 766.429688 471.472656 763.046875 474.855469 758.84375 474.855469 L 676.328125 474.855469 C 672.125 474.855469 668.742188 471.472656 668.742188 467.273438 Z M 668.742188 467.273438 " fill-opacity="1" fill-rule="nonzero"/><path fill="#0cb1f2" d="M 668.742188 502.144531 C 668.742188 498.050781 672.125 494.757812 676.328125 494.757812 L 758.84375 494.757812 C 763.046875 494.757812 766.429688 498.050781 766.429688 502.144531 C 766.429688 506.234375 763.046875 509.53125 758.84375 509.53125 L 676.328125 509.53125 C 672.125 509.53125 668.742188 506.234375 668.742188 502.144531 Z M 668.742188 502.144531 " fill-opacity="1" fill-rule="nonzero"/><path fill="#0cb1f2" d="M 668.742188 545.257812 C 668.742188 541.164062 672.125 537.871094 676.328125 537.871094 L 758.84375 537.871094 C 763.046875 537.871094 766.429688 541.164062 766.429688 545.257812 C 766.429688 549.347656 763.046875 552.644531 758.84375 552.644531 L 676.328125 552.644531 C 672.125 552.644531 668.742188 549.347656 668.742188 545.257812 Z M 668.742188 545.257812 " fill-opacity="1" fill-rule="nonzero"/><path fill="#0cb1f2" d="M 668.742188 587.769531 C 668.742188 583.675781 672.125 580.382812 676.328125 580.382812 L 758.84375 580.382812 C 763.046875 580.382812 766.429688 583.675781 766.429688 587.769531 C 766.429688 591.859375 763.046875 595.15625 758.84375 595.15625 L 676.328125 595.15625 C 672.125 595.15625 668.742188 591.859375 668.742188 587.769531 Z M 668.742188 587.769531 " fill-opacity="1" fill-rule="nonzero"/><path fill="#0cb1f2" d="M 672.363281 626.359375 C 672.363281 624.105469 675.535156 622.289062 679.476562 622.289062 L 756.902344 622.289062 C 760.84375 622.289062 764.019531 624.105469 764.019531 626.359375 C 764.019531 628.617188 760.84375 630.429688 756.902344 630.429688 L 679.476562 630.429688 C 675.535156 630.429688 672.363281 628.617188 672.363281 626.359375 Z M 672.363281 626.359375 " fill-opacity="1" fill-rule="nonzero"/><path fill="#0cb1f2" d="M 672.363281 668.871094 C 672.363281 666.617188 675.535156 664.800781 679.476562 664.800781 L 756.902344 664.800781 C 760.84375 664.800781 764.019531 666.617188 764.019531 668.871094 C 764.019531 671.128906 760.84375 672.941406 756.902344 672.941406 L 679.476562 672.941406 C 675.535156 672.941406 672.363281 671.128906 672.363281 668.871094 Z M 672.363281 668.871094 " fill-opacity="1" fill-rule="nonzero"/><g clip-path="url(#95c4196acc)"><path fill="#0cb1f2" d="M 672.363281 712.589844 C 672.363281 710.335938 675.535156 708.519531 679.476562 708.519531 L 756.902344 708.519531 C 760.84375 708.519531 764.019531 710.335938 764.019531 712.589844 C 764.019531 714.84375 760.84375 716.660156 756.902344 716.660156 L 679.476562 716.660156 C 675.535156 716.660156 672.363281 714.84375 672.363281 712.589844 Z M 672.363281 712.589844 " fill-opacity="1" fill-rule="nonzero"/></g></svg>