<svg xmlns="http://www.w3.org/2000/svg" xmlns:xlink="http://www.w3.org/1999/xlink" width="1920" zoomAndPan="magnify" viewBox="0 0 1440 809.999993" height="1080" preserveAspectRatio="xMidYMid meet" version="1.0"><defs><g/><clipPath id="41e7cb87f9"><path d="M 430 133 L 641 133 L 641 218 L 430 218 Z M 430 133 " clip-rule="nonzero"/></clipPath><clipPath id="22d56260bd"><path d="M 476 81 L 663.207031 162.753906 L 610.089844 284.390625 L 422.882812 202.636719 Z M 476 81 " clip-rule="nonzero"/></clipPath><clipPath id="3c6d91a8c5"><path d="M 476 81 L 663.207031 162.753906 L 610.089844 284.390625 L 422.882812 202.636719 Z M 476 81 " clip-rule="nonzero"/></clipPath><clipPath id="772957ec60"><path d="M 783 133 L 994 133 L 994 218 L 783 218 Z M 783 133 " clip-rule="nonzero"/></clipPath><clipPath id="79ca3c5756"><path d="M 829.394531 81 L 1016.601562 162.753906 L 963.480469 284.390625 L 776.273438 202.636719 Z M 829.394531 81 " clip-rule="nonzero"/></clipPath><clipPath id="6f47f6d0d8"><path d="M 829.394531 81 L 1016.601562 162.753906 L 963.480469 284.390625 L 776.273438 202.636719 Z M 829.394531 81 " clip-rule="nonzero"/></clipPath></defs><path stroke-linecap="butt" transform="matrix(1.03695, 0, 0, 1.03695, 541.227171, 284.461294)" fill="none" stroke-linejoin="miter" d="M 1.99972 -0.000344268 L 1.99972 400.949976 C 1.99972 414.202477 12.743362 424.949886 25.99963 424.949886 L 318.801554 424.949886 C 332.054055 424.949886 342.801464 414.202477 342.801464 400.949976 L 342.801464 -0.000344268 " stroke="#024873" stroke-width="4" stroke-opacity="1" stroke-miterlimit="4"/><g clip-path="url(#41e7cb87f9)"><g clip-path="url(#22d56260bd)"><g clip-path="url(#3c6d91a8c5)"><path fill="#024873" d="M 622.863281 156.78125 C 621.8125 149.921875 621.589844 144.652344 626.191406 148.316406 C 627.691406 149.570312 629.539062 152.613281 631.601562 158.476562 C 633.628906 164.335938 635.921875 173.003906 637.609375 185.207031 C 640.308594 206.316406 640.6875 215.5 639.339844 216.71875 C 638.414062 217.457031 635.492188 217.085938 628.335938 215.128906 C 621.214844 213.316406 609.699219 209.460938 592.242188 206.417969 C 587.25 205.480469 577.5 203.582031 575.988281 200.472656 C 574.640625 197.773438 580.382812 196.917969 586.289062 197.476562 C 604.273438 199.273438 617.257812 204.238281 619.613281 204.203125 C 621.035156 204.269531 617.527344 201.414062 613.449219 196.757812 C 605.625 187.738281 596.9375 179.125 588.277344 171.933594 C 575.308594 161.335938 561.066406 153.042969 546.339844 148.039062 C 531.65625 142.957031 516.714844 141.167969 503.285156 142.410156 C 489.792969 143.636719 478.109375 147.992188 469.003906 153.679688 C 459.875 159.359375 453.316406 166.003906 448.902344 171.578125 C 441.582031 181.195312 438.640625 189.28125 437.160156 194.570312 C 435.71875 199.917969 435.410156 202.601562 435.3125 203.183594 C 434.9375 204.976562 433.789062 206.898438 432.582031 206.535156 C 431.984375 206.347656 431.367188 205.574219 430.835938 203.832031 C 430.578125 202.957031 430.308594 201.835938 430.128906 200.433594 C 430.039062 199.039062 430.011719 197.359375 430.070312 195.339844 C 430.46875 186.726562 434.558594 175.890625 441.796875 166.304688 C 450.082031 155.148438 461.890625 145.96875 475.050781 140.210938 C 488.300781 134.355469 502.628906 132.640625 515.695312 133.066406 C 532.882812 133.746094 548.25 138.34375 561.261719 144.269531 C 574.351562 150.207031 585.003906 157.746094 593.90625 164.949219 C 605.265625 174.492188 612.871094 182.855469 618.152344 188.648438 C 623.375 194.503906 626.261719 197.863281 627.1875 198.5 C 629.511719 200.125 627.46875 187.183594 626.003906 175.421875 C 625.640625 172.125 623.980469 163.648438 622.863281 156.78125 Z M 622.863281 156.78125 " fill-opacity="1" fill-rule="nonzero"/></g></g></g><g clip-path="url(#772957ec60)"><g clip-path="url(#79ca3c5756)"><g clip-path="url(#6f47f6d0d8)"><path fill="#024873" d="M 976.253906 156.78125 C 975.207031 149.921875 974.984375 144.652344 979.582031 148.316406 C 981.082031 149.570312 982.933594 152.613281 984.992188 158.476562 C 987.023438 164.335938 989.3125 173.003906 991 185.207031 C 993.703125 206.316406 994.082031 215.5 992.730469 216.71875 C 991.804688 217.457031 988.886719 217.085938 981.730469 215.128906 C 974.605469 213.316406 963.09375 209.460938 945.632812 206.417969 C 940.644531 205.480469 930.890625 203.582031 929.382812 200.472656 C 928.035156 197.773438 933.777344 196.917969 939.683594 197.476562 C 957.667969 199.273438 970.652344 204.238281 973.007812 204.203125 C 974.429688 204.269531 970.917969 201.414062 966.84375 196.757812 C 959.019531 187.738281 950.332031 179.125 941.671875 171.933594 C 928.703125 161.335938 914.457031 153.042969 899.730469 148.039062 C 885.050781 142.957031 870.109375 141.167969 856.679688 142.410156 C 843.183594 143.636719 831.5 147.992188 822.394531 153.679688 C 813.269531 159.359375 806.707031 166.003906 802.292969 171.578125 C 794.972656 181.195312 792.03125 189.28125 790.554688 194.570312 C 789.109375 199.917969 788.804688 202.601562 788.703125 203.183594 C 788.332031 204.976562 787.179688 206.898438 785.976562 206.535156 C 785.378906 206.347656 784.761719 205.574219 784.226562 203.832031 C 783.96875 202.957031 783.699219 201.835938 783.519531 200.433594 C 783.433594 199.039062 783.40625 197.359375 783.464844 195.339844 C 783.863281 186.726562 787.949219 175.890625 795.1875 166.304688 C 803.476562 155.148438 815.285156 145.96875 828.441406 140.210938 C 841.695312 134.355469 856.023438 132.640625 869.089844 133.066406 C 886.273438 133.746094 901.640625 138.34375 914.65625 144.269531 C 927.742188 150.207031 938.394531 157.746094 947.296875 164.949219 C 958.65625 174.492188 966.261719 182.855469 971.546875 188.648438 C 976.765625 194.503906 979.65625 197.863281 980.582031 198.5 C 982.902344 200.125 980.859375 187.183594 979.398438 175.421875 C 979.03125 172.125 977.375 163.648438 976.253906 156.78125 Z M 976.253906 156.78125 " fill-opacity="1" fill-rule="nonzero"/></g></g></g><g fill="#a6a6a6" fill-opacity="1"><g transform="translate(274.143858, 281.714409)"><g><path d="M 46.328125 -44.09375 C 52.054688 -42.0625 55.988281 -39 58.125 -34.90625 C 60.269531 -30.820312 60.492188 -26.375 58.796875 -21.5625 C 57.066406 -16.6875 54.085938 -13.347656 49.859375 -11.546875 C 45.640625 -9.742188 40.664062 -9.859375 34.9375 -11.890625 L 23.53125 -15.921875 L 17.921875 -0.0625 L 23.5625 3.09375 L 21.921875 7.75 L 2.625 0.921875 L 4.265625 -3.734375 L 10.640625 -2.640625 L 25.609375 -44.96875 L 19.984375 -48.125 L 21.640625 -52.828125 L 27.640625 -50.703125 Z M 25.546875 -21.609375 L 36.953125 -17.578125 C 40.597656 -16.285156 43.671875 -16.296875 46.171875 -17.609375 C 48.671875 -18.929688 50.445312 -21.082031 51.5 -24.0625 C 52.550781 -27.03125 52.523438 -29.832031 51.421875 -32.46875 C 50.316406 -35.101562 47.941406 -37.066406 44.296875 -38.359375 L 32.890625 -42.390625 Z M 25.546875 -21.609375 "/></g></g></g><g fill="#a6a6a6" fill-opacity="1"><g transform="translate(322.164077, 298.707079)"><g><path d="M 33.953125 5.375 C 31.929688 7.0625 29.722656 8.132812 27.328125 8.59375 C 24.941406 9.050781 22.457031 8.820312 19.875 7.90625 C 15.539062 6.375 12.644531 3.785156 11.1875 0.140625 C 9.738281 -3.503906 10.054688 -8.265625 12.140625 -14.140625 L 18.453125 -31.96875 L 14.234375 -34.625 L 15.890625 -39.3125 L 20.46875 -37.6875 L 27.75 -35.109375 L 19.40625 -11.5 C 17.894531 -7.226562 17.476562 -4.070312 18.15625 -2.03125 C 18.84375 0.0078125 20.519531 1.5 23.1875 2.4375 C 25.769531 3.351562 28.085938 3.582031 30.140625 3.125 C 32.191406 2.675781 33.992188 1.644531 35.546875 0.03125 L 43.703125 -23.03125 L 38.71875 -25.96875 L 40.375 -30.65625 L 45.71875 -28.75 L 53 -26.1875 L 40.890625 8.0625 L 45.078125 10.71875 L 43.4375 15.375 L 32.328125 11.4375 Z M 33.953125 5.375 "/></g></g></g><g fill="#a6a6a6" fill-opacity="1"><g transform="translate(368.080406, 314.955257)"><g><path d="M 43.53125 -15.390625 L 38.078125 -17.328125 L 38.59375 -22.5625 C 38 -23.707031 37.117188 -24.769531 35.953125 -25.75 C 34.796875 -26.726562 33.375 -27.519531 31.6875 -28.125 C 29.09375 -29.039062 26.96875 -29.15625 25.3125 -28.46875 C 23.664062 -27.78125 22.5625 -26.640625 22 -25.046875 C 21.4375 -23.460938 21.546875 -22.019531 22.328125 -20.71875 C 23.109375 -19.414062 25.070312 -17.804688 28.21875 -15.890625 C 32.875 -13.023438 36.101562 -10.226562 37.90625 -7.5 C 39.71875 -4.78125 40.070312 -1.851562 38.96875 1.28125 C 37.707031 4.832031 35.253906 7.191406 31.609375 8.359375 C 27.960938 9.535156 23.828125 9.304688 19.203125 7.671875 C 16.179688 6.609375 13.585938 5.296875 11.421875 3.734375 C 9.265625 2.179688 7.472656 0.398438 6.046875 -1.609375 L 9.234375 -10.734375 L 14.703125 -8.796875 L 14.171875 -2.953125 C 14.734375 -1.890625 15.671875 -0.929688 16.984375 -0.078125 C 18.304688 0.765625 19.71875 1.453125 21.21875 1.984375 C 23.800781 2.898438 26.007812 3.09375 27.84375 2.5625 C 29.675781 2.03125 30.894531 0.914062 31.5 -0.78125 C 32.0625 -2.375 31.914062 -3.898438 31.0625 -5.359375 C 30.21875 -6.828125 28.234375 -8.539062 25.109375 -10.5 C 20.628906 -13.28125 17.484375 -16.015625 15.671875 -18.703125 C 13.859375 -21.398438 13.5 -24.296875 14.59375 -27.390625 C 15.75 -30.640625 18.113281 -32.914062 21.6875 -34.21875 C 25.269531 -35.53125 29.273438 -35.40625 33.703125 -33.84375 C 36.722656 -32.769531 39.300781 -31.410156 41.4375 -29.765625 C 43.570312 -28.128906 45.191406 -26.328125 46.296875 -24.359375 Z M 43.53125 -15.390625 "/></g></g></g><g fill="#a6a6a6" fill-opacity="1"><g transform="translate(406.614688, 328.591188)"><g><path d="M 3.921875 -3.84375 L 10.328125 -2.75 L 26.671875 -48.921875 L 21 -52.078125 L 22.65625 -56.765625 L 35.9375 -52.0625 L 27.8125 -29.09375 C 29.875 -30.53125 32.085938 -31.425781 34.453125 -31.78125 C 36.828125 -32.132812 39.234375 -31.878906 41.671875 -31.015625 C 45.953125 -29.503906 48.816406 -27.050781 50.265625 -23.65625 C 51.722656 -20.257812 51.515625 -15.90625 49.640625 -10.59375 L 42.796875 8.75 L 48.4375 11.90625 L 46.796875 16.5625 L 27.5 9.734375 L 29.140625 5.078125 L 35.53125 6.171875 L 42.390625 -13.234375 C 43.566406 -16.535156 43.722656 -19.222656 42.859375 -21.296875 C 42.003906 -23.378906 40.175781 -24.921875 37.375 -25.921875 C 35.382812 -26.617188 33.398438 -26.78125 31.421875 -26.40625 C 29.441406 -26.039062 27.632812 -25.226562 26 -23.96875 L 17.578125 -0.171875 L 23.234375 2.984375 L 21.59375 7.640625 L 2.28125 0.8125 Z M 3.921875 -3.84375 "/></g></g></g><g fill="#a6a6a6" fill-opacity="1"><g transform="translate(1007.653418, 338.480115)"><g><path d="M 7.625 -63.484375 C 13.34375 -65.578125 18.328125 -65.734375 22.578125 -63.953125 C 26.828125 -62.171875 29.832031 -58.878906 31.59375 -54.078125 C 33.363281 -49.222656 33.195312 -44.753906 31.09375 -40.671875 C 28.988281 -36.585938 25.078125 -33.5 19.359375 -31.40625 L 8 -27.265625 L 13.765625 -11.46875 L 20.15625 -12.625 L 21.84375 -7.984375 L 2.609375 -0.953125 L 0.921875 -5.59375 L 6.515625 -8.8125 L -8.890625 -50.984375 L -15.25 -49.828125 L -16.96875 -54.5 L -10.984375 -56.6875 Z M 5.921875 -32.9375 L 17.28125 -37.078125 C 20.914062 -38.410156 23.273438 -40.378906 24.359375 -42.984375 C 25.453125 -45.585938 25.457031 -48.375 24.375 -51.34375 C 23.289062 -54.3125 21.484375 -56.457031 18.953125 -57.78125 C 16.429688 -59.113281 13.351562 -59.113281 9.71875 -57.78125 L -1.640625 -53.640625 Z M 5.921875 -32.9375 "/></g></g></g><g fill="#a6a6a6" fill-opacity="1"><g transform="translate(1055.496184, 320.994051)"><g><path d="M -4.09375 -21.484375 C -6.238281 -27.367188 -6.414062 -32.796875 -4.625 -37.765625 C -2.832031 -42.734375 0.796875 -46.21875 6.265625 -48.21875 C 11.753906 -50.226562 16.789062 -49.914062 21.375 -47.28125 C 25.96875 -44.65625 29.34375 -40.390625 31.5 -34.484375 L 31.796875 -33.671875 C 33.960938 -27.734375 34.140625 -22.296875 32.328125 -17.359375 C 30.523438 -12.421875 26.890625 -8.953125 21.421875 -6.953125 C 15.910156 -4.929688 10.867188 -5.234375 6.296875 -7.859375 C 1.722656 -10.492188 -1.640625 -14.765625 -3.796875 -20.671875 Z M 3.4375 -23.3125 C 4.976562 -19.101562 7.140625 -15.945312 9.921875 -13.84375 C 12.710938 -11.75 15.859375 -11.34375 19.359375 -12.625 C 22.796875 -13.875 24.90625 -16.203125 25.6875 -19.609375 C 26.476562 -23.015625 26.101562 -26.820312 24.5625 -31.03125 L 24.265625 -31.84375 C 22.742188 -36.007812 20.578125 -39.148438 17.765625 -41.265625 C 14.960938 -43.378906 11.820312 -43.800781 8.34375 -42.53125 C 4.851562 -41.257812 2.734375 -38.914062 1.984375 -35.5 C 1.234375 -32.082031 1.617188 -28.289062 3.140625 -24.125 Z M 3.4375 -23.3125 "/></g></g></g><g fill="#a6a6a6" fill-opacity="1"><g transform="translate(1097.749326, 305.550941)"><g><path d="M 6.28125 9.75 L 11.890625 6.53125 L -4.078125 -37.15625 L -10.4375 -36 L -12.15625 -40.65625 L 0.0625 -45.125 L 2.5 -40.515625 C 3.15625 -42.804688 4.257812 -44.773438 5.8125 -46.421875 C 7.363281 -48.078125 9.382812 -49.359375 11.875 -50.265625 C 16.8125 -52.066406 21.359375 -51.515625 25.515625 -48.609375 C 29.679688 -45.703125 32.941406 -41.039062 35.296875 -34.625 L 35.578125 -33.84375 C 37.671875 -28.101562 37.984375 -22.96875 36.515625 -18.4375 C 35.054688 -13.914062 31.914062 -10.773438 27.09375 -9.015625 C 24.632812 -8.117188 22.332031 -7.742188 20.1875 -7.890625 C 18.039062 -8.035156 16.019531 -8.6875 14.125 -9.84375 L 19.140625 3.875 L 25.5 2.71875 L 27.203125 7.390625 L 7.984375 14.421875 Z M 28.015625 -31.96875 C 26.359375 -36.488281 24.117188 -39.875 21.296875 -42.125 C 18.472656 -44.382812 15.320312 -44.878906 11.84375 -43.609375 C 9.769531 -42.847656 8.171875 -41.734375 7.046875 -40.265625 C 5.921875 -38.796875 5.195312 -37.085938 4.875 -35.140625 L 11.953125 -15.75 C 13.472656 -14.445312 15.125 -13.613281 16.90625 -13.25 C 18.695312 -12.882812 20.65625 -13.09375 22.78125 -13.875 C 26.21875 -15.125 28.359375 -17.320312 29.203125 -20.46875 C 30.054688 -23.613281 29.753906 -27.1875 28.296875 -31.1875 Z M 28.015625 -31.96875 "/></g></g></g><path stroke-linecap="butt" transform="matrix(1.03695, 0, 0, 1.03695, 543.301035, 417.552719)" fill="none" stroke-linejoin="miter" d="M -0.000244601 1.998438 L 340.8015 1.998438 " stroke="#024873" stroke-width="4" stroke-opacity="1" stroke-miterlimit="4"/><path stroke-linecap="butt" transform="matrix(1.03695, 0, 0, 1.03695, 543.301035, 580.049751)" fill="none" stroke-linejoin="miter" d="M -0.000244601 2.0013 L 340.8015 2.0013 " stroke="#024873" stroke-width="4" stroke-opacity="1" stroke-miterlimit="4"/><g fill="#0cb1f2" fill-opacity="1"><g transform="translate(643.565531, 370.709041)"><g><path d="M 2.28125 -3.234375 L 6.46875 -3.953125 L 6.46875 -23.78125 L 2.28125 -24.5 L 2.28125 -27.75 L 11.515625 -27.75 L 11.515625 -3.953125 L 15.703125 -3.234375 L 15.703125 0 L 2.28125 0 Z M 11.515625 -34.859375 L 6.46875 -34.859375 L 6.46875 -40.015625 L 11.515625 -40.015625 Z M 11.515625 -34.859375 "/></g></g></g><g fill="#0cb1f2" fill-opacity="1"><g transform="translate(660.826937, 370.709041)"><g><path d="M 11.109375 -34.453125 L 11.109375 -27.75 L 16.359375 -27.75 L 16.359375 -24.015625 L 11.109375 -24.015625 L 11.109375 -7.15625 C 11.109375 -5.851562 11.375 -4.9375 11.90625 -4.40625 C 12.445312 -3.875 13.164062 -3.609375 14.0625 -3.609375 C 14.5 -3.609375 14.992188 -3.644531 15.546875 -3.71875 C 16.109375 -3.800781 16.578125 -3.882812 16.953125 -3.96875 L 17.640625 -0.515625 C 17.160156 -0.203125 16.457031 0.046875 15.53125 0.234375 C 14.613281 0.429688 13.695312 0.53125 12.78125 0.53125 C 10.726562 0.53125 9.09375 -0.0859375 7.875 -1.328125 C 6.65625 -2.566406 6.046875 -4.507812 6.046875 -7.15625 L 6.046875 -24.015625 L 1.671875 -24.015625 L 1.671875 -27.75 L 6.046875 -27.75 L 6.046875 -34.453125 Z M 11.109375 -34.453125 "/></g></g></g><g fill="#0cb1f2" fill-opacity="1"><g transform="translate(680.063273, 370.709041)"><g><path d="M 14.953125 0.53125 C 11.085938 0.53125 8.015625 -0.753906 5.734375 -3.328125 C 3.453125 -5.898438 2.3125 -9.238281 2.3125 -13.34375 L 2.3125 -14.46875 C 2.3125 -18.414062 3.484375 -21.703125 5.828125 -24.328125 C 8.179688 -26.953125 10.96875 -28.265625 14.1875 -28.265625 C 17.914062 -28.265625 20.738281 -27.132812 22.65625 -24.875 C 24.582031 -22.625 25.546875 -19.617188 25.546875 -15.859375 L 25.546875 -12.703125 L 7.546875 -12.703125 L 7.46875 -12.5625 C 7.519531 -9.894531 8.191406 -7.703125 9.484375 -5.984375 C 10.785156 -4.265625 12.609375 -3.40625 14.953125 -3.40625 C 16.660156 -3.40625 18.160156 -3.648438 19.453125 -4.140625 C 20.742188 -4.628906 21.859375 -5.300781 22.796875 -6.15625 L 24.78125 -2.875 C 23.789062 -1.914062 22.476562 -1.109375 20.84375 -0.453125 C 19.207031 0.203125 17.242188 0.53125 14.953125 0.53125 Z M 14.1875 -24.296875 C 12.488281 -24.296875 11.039062 -23.578125 9.84375 -22.140625 C 8.644531 -20.710938 7.910156 -18.925781 7.640625 -16.78125 L 7.6875 -16.640625 L 20.5 -16.640625 L 20.5 -17.3125 C 20.5 -19.300781 19.96875 -20.960938 18.90625 -22.296875 C 17.84375 -23.628906 16.269531 -24.296875 14.1875 -24.296875 Z M 14.1875 -24.296875 "/></g></g></g><g fill="#0cb1f2" fill-opacity="1"><g transform="translate(708.302215, 370.709041)"><g><path d="M 1.28125 -3.234375 L 5.46875 -3.953125 L 5.46875 -23.78125 L 1.28125 -24.5 L 1.28125 -27.75 L 10 -27.75 L 10.34375 -24.140625 C 11.226562 -25.453125 12.367188 -26.46875 13.765625 -27.1875 C 15.171875 -27.90625 16.796875 -28.265625 18.640625 -28.265625 C 20.492188 -28.265625 22.082031 -27.835938 23.40625 -26.984375 C 24.726562 -26.128906 25.722656 -24.847656 26.390625 -23.140625 C 27.265625 -24.710938 28.421875 -25.957031 29.859375 -26.875 C 31.296875 -27.800781 32.972656 -28.265625 34.890625 -28.265625 C 37.722656 -28.265625 39.957031 -27.289062 41.59375 -25.34375 C 43.238281 -23.40625 44.0625 -20.488281 44.0625 -16.59375 L 44.0625 -3.953125 L 48.25 -3.234375 L 48.25 0 L 34.8125 0 L 34.8125 -3.234375 L 38.984375 -3.953125 L 38.984375 -16.640625 C 38.984375 -19.378906 38.515625 -21.316406 37.578125 -22.453125 C 36.640625 -23.585938 35.242188 -24.15625 33.390625 -24.15625 C 31.628906 -24.15625 30.210938 -23.535156 29.140625 -22.296875 C 28.078125 -21.054688 27.460938 -19.5 27.296875 -17.625 L 27.296875 -3.953125 L 31.46875 -3.234375 L 31.46875 0 L 18.0625 0 L 18.0625 -3.234375 L 22.234375 -3.953125 L 22.234375 -16.640625 C 22.234375 -19.242188 21.75 -21.144531 20.78125 -22.34375 C 19.820312 -23.550781 18.425781 -24.15625 16.59375 -24.15625 C 15.050781 -24.15625 13.785156 -23.835938 12.796875 -23.203125 C 11.804688 -22.578125 11.046875 -21.691406 10.515625 -20.546875 L 10.515625 -3.953125 L 14.703125 -3.234375 L 14.703125 0 L 1.28125 0 Z M 1.28125 -3.234375 "/></g></g></g><g fill="#0cb1f2" fill-opacity="1"><g transform="translate(757.931963, 370.709041)"><g><path d="M 1.40625 -3.234375 L 4.1875 -3.609375 L 17.234375 -37.34375 L 21.578125 -37.34375 L 34.390625 -3.609375 L 37.140625 -3.234375 L 37.140625 0 L 26.421875 0 L 26.421875 -3.234375 L 29.234375 -3.71875 L 26.78125 -10.59375 L 11.828125 -10.59375 L 9.28125 -3.71875 L 12.109375 -3.234375 L 12.109375 0 L 1.40625 0 Z M 13.390625 -14.828125 L 25.234375 -14.828125 L 19.4375 -30.859375 L 19.28125 -30.859375 Z M 13.390625 -14.828125 "/></g></g></g><g fill="#0cb1f2" fill-opacity="1"><g transform="translate(645.55842, 525.525826)"><g><path d="M 2.28125 -3.234375 L 6.46875 -3.953125 L 6.46875 -23.78125 L 2.28125 -24.5 L 2.28125 -27.75 L 11.515625 -27.75 L 11.515625 -3.953125 L 15.703125 -3.234375 L 15.703125 0 L 2.28125 0 Z M 11.515625 -34.859375 L 6.46875 -34.859375 L 6.46875 -40.015625 L 11.515625 -40.015625 Z M 11.515625 -34.859375 "/></g></g></g><g fill="#0cb1f2" fill-opacity="1"><g transform="translate(662.819826, 525.525826)"><g><path d="M 11.109375 -34.453125 L 11.109375 -27.75 L 16.359375 -27.75 L 16.359375 -24.015625 L 11.109375 -24.015625 L 11.109375 -7.15625 C 11.109375 -5.851562 11.375 -4.9375 11.90625 -4.40625 C 12.445312 -3.875 13.164062 -3.609375 14.0625 -3.609375 C 14.5 -3.609375 14.992188 -3.644531 15.546875 -3.71875 C 16.109375 -3.800781 16.578125 -3.882812 16.953125 -3.96875 L 17.640625 -0.515625 C 17.160156 -0.203125 16.457031 0.046875 15.53125 0.234375 C 14.613281 0.429688 13.695312 0.53125 12.78125 0.53125 C 10.726562 0.53125 9.09375 -0.0859375 7.875 -1.328125 C 6.65625 -2.566406 6.046875 -4.507812 6.046875 -7.15625 L 6.046875 -24.015625 L 1.671875 -24.015625 L 1.671875 -27.75 L 6.046875 -27.75 L 6.046875 -34.453125 Z M 11.109375 -34.453125 "/></g></g></g><g fill="#0cb1f2" fill-opacity="1"><g transform="translate(682.056163, 525.525826)"><g><path d="M 14.953125 0.53125 C 11.085938 0.53125 8.015625 -0.753906 5.734375 -3.328125 C 3.453125 -5.898438 2.3125 -9.238281 2.3125 -13.34375 L 2.3125 -14.46875 C 2.3125 -18.414062 3.484375 -21.703125 5.828125 -24.328125 C 8.179688 -26.953125 10.96875 -28.265625 14.1875 -28.265625 C 17.914062 -28.265625 20.738281 -27.132812 22.65625 -24.875 C 24.582031 -22.625 25.546875 -19.617188 25.546875 -15.859375 L 25.546875 -12.703125 L 7.546875 -12.703125 L 7.46875 -12.5625 C 7.519531 -9.894531 8.191406 -7.703125 9.484375 -5.984375 C 10.785156 -4.265625 12.609375 -3.40625 14.953125 -3.40625 C 16.660156 -3.40625 18.160156 -3.648438 19.453125 -4.140625 C 20.742188 -4.628906 21.859375 -5.300781 22.796875 -6.15625 L 24.78125 -2.875 C 23.789062 -1.914062 22.476562 -1.109375 20.84375 -0.453125 C 19.207031 0.203125 17.242188 0.53125 14.953125 0.53125 Z M 14.1875 -24.296875 C 12.488281 -24.296875 11.039062 -23.578125 9.84375 -22.140625 C 8.644531 -20.710938 7.910156 -18.925781 7.640625 -16.78125 L 7.6875 -16.640625 L 20.5 -16.640625 L 20.5 -17.3125 C 20.5 -19.300781 19.96875 -20.960938 18.90625 -22.296875 C 17.84375 -23.628906 16.269531 -24.296875 14.1875 -24.296875 Z M 14.1875 -24.296875 "/></g></g></g><g fill="#0cb1f2" fill-opacity="1"><g transform="translate(710.295104, 525.525826)"><g><path d="M 1.28125 -3.234375 L 5.46875 -3.953125 L 5.46875 -23.78125 L 1.28125 -24.5 L 1.28125 -27.75 L 10 -27.75 L 10.34375 -24.140625 C 11.226562 -25.453125 12.367188 -26.46875 13.765625 -27.1875 C 15.171875 -27.90625 16.796875 -28.265625 18.640625 -28.265625 C 20.492188 -28.265625 22.082031 -27.835938 23.40625 -26.984375 C 24.726562 -26.128906 25.722656 -24.847656 26.390625 -23.140625 C 27.265625 -24.710938 28.421875 -25.957031 29.859375 -26.875 C 31.296875 -27.800781 32.972656 -28.265625 34.890625 -28.265625 C 37.722656 -28.265625 39.957031 -27.289062 41.59375 -25.34375 C 43.238281 -23.40625 44.0625 -20.488281 44.0625 -16.59375 L 44.0625 -3.953125 L 48.25 -3.234375 L 48.25 0 L 34.8125 0 L 34.8125 -3.234375 L 38.984375 -3.953125 L 38.984375 -16.640625 C 38.984375 -19.378906 38.515625 -21.316406 37.578125 -22.453125 C 36.640625 -23.585938 35.242188 -24.15625 33.390625 -24.15625 C 31.628906 -24.15625 30.210938 -23.535156 29.140625 -22.296875 C 28.078125 -21.054688 27.460938 -19.5 27.296875 -17.625 L 27.296875 -3.953125 L 31.46875 -3.234375 L 31.46875 0 L 18.0625 0 L 18.0625 -3.234375 L 22.234375 -3.953125 L 22.234375 -16.640625 C 22.234375 -19.242188 21.75 -21.144531 20.78125 -22.34375 C 19.820312 -23.550781 18.425781 -24.15625 16.59375 -24.15625 C 15.050781 -24.15625 13.785156 -23.835938 12.796875 -23.203125 C 11.804688 -22.578125 11.046875 -21.691406 10.515625 -20.546875 L 10.515625 -3.953125 L 14.703125 -3.234375 L 14.703125 0 L 1.28125 0 Z M 1.28125 -3.234375 "/></g></g></g><g fill="#0cb1f2" fill-opacity="1"><g transform="translate(759.924852, 525.525826)"><g><path d="M 18.1875 -37.34375 C 22.082031 -37.34375 25.128906 -36.5 27.328125 -34.8125 C 29.523438 -33.132812 30.625 -30.609375 30.625 -27.234375 C 30.625 -25.578125 30.097656 -24.09375 29.046875 -22.78125 C 27.992188 -21.476562 26.601562 -20.507812 24.875 -19.875 C 27.113281 -19.394531 28.882812 -18.289062 30.1875 -16.5625 C 31.488281 -14.84375 32.140625 -12.835938 32.140625 -10.546875 C 32.140625 -7.117188 31.023438 -4.503906 28.796875 -2.703125 C 26.578125 -0.898438 23.570312 0 19.78125 0 L 1.828125 0 L 1.828125 -3.234375 L 6 -3.953125 L 6 -33.375 L 1.828125 -34.09375 L 1.828125 -37.34375 Z M 11.0625 -17.515625 L 11.0625 -3.953125 L 19.78125 -3.953125 C 22.082031 -3.953125 23.867188 -4.519531 25.140625 -5.65625 C 26.421875 -6.789062 27.0625 -8.398438 27.0625 -10.484375 C 27.0625 -12.679688 26.523438 -14.398438 25.453125 -15.640625 C 24.390625 -16.890625 22.753906 -17.515625 20.546875 -17.515625 Z M 11.0625 -21.46875 L 19.5 -21.46875 C 21.3125 -21.519531 22.773438 -22.054688 23.890625 -23.078125 C 25.015625 -24.109375 25.578125 -25.53125 25.578125 -27.34375 C 25.578125 -29.363281 24.941406 -30.875 23.671875 -31.875 C 22.410156 -32.875 20.582031 -33.375 18.1875 -33.375 L 11.0625 -33.375 Z M 11.0625 -21.46875 "/></g></g></g><g fill="#0cb1f2" fill-opacity="1"><g transform="translate(645.868905, 670.195323)"><g><path d="M 2.28125 -3.234375 L 6.46875 -3.953125 L 6.46875 -23.78125 L 2.28125 -24.5 L 2.28125 -27.75 L 11.515625 -27.75 L 11.515625 -3.953125 L 15.703125 -3.234375 L 15.703125 0 L 2.28125 0 Z M 11.515625 -34.859375 L 6.46875 -34.859375 L 6.46875 -40.015625 L 11.515625 -40.015625 Z M 11.515625 -34.859375 "/></g></g></g><g fill="#0cb1f2" fill-opacity="1"><g transform="translate(663.130311, 670.195323)"><g><path d="M 11.109375 -34.453125 L 11.109375 -27.75 L 16.359375 -27.75 L 16.359375 -24.015625 L 11.109375 -24.015625 L 11.109375 -7.15625 C 11.109375 -5.851562 11.375 -4.9375 11.90625 -4.40625 C 12.445312 -3.875 13.164062 -3.609375 14.0625 -3.609375 C 14.5 -3.609375 14.992188 -3.644531 15.546875 -3.71875 C 16.109375 -3.800781 16.578125 -3.882812 16.953125 -3.96875 L 17.640625 -0.515625 C 17.160156 -0.203125 16.457031 0.046875 15.53125 0.234375 C 14.613281 0.429688 13.695312 0.53125 12.78125 0.53125 C 10.726562 0.53125 9.09375 -0.0859375 7.875 -1.328125 C 6.65625 -2.566406 6.046875 -4.507812 6.046875 -7.15625 L 6.046875 -24.015625 L 1.671875 -24.015625 L 1.671875 -27.75 L 6.046875 -27.75 L 6.046875 -34.453125 Z M 11.109375 -34.453125 "/></g></g></g><g fill="#0cb1f2" fill-opacity="1"><g transform="translate(682.366647, 670.195323)"><g><path d="M 14.953125 0.53125 C 11.085938 0.53125 8.015625 -0.753906 5.734375 -3.328125 C 3.453125 -5.898438 2.3125 -9.238281 2.3125 -13.34375 L 2.3125 -14.46875 C 2.3125 -18.414062 3.484375 -21.703125 5.828125 -24.328125 C 8.179688 -26.953125 10.96875 -28.265625 14.1875 -28.265625 C 17.914062 -28.265625 20.738281 -27.132812 22.65625 -24.875 C 24.582031 -22.625 25.546875 -19.617188 25.546875 -15.859375 L 25.546875 -12.703125 L 7.546875 -12.703125 L 7.46875 -12.5625 C 7.519531 -9.894531 8.191406 -7.703125 9.484375 -5.984375 C 10.785156 -4.265625 12.609375 -3.40625 14.953125 -3.40625 C 16.660156 -3.40625 18.160156 -3.648438 19.453125 -4.140625 C 20.742188 -4.628906 21.859375 -5.300781 22.796875 -6.15625 L 24.78125 -2.875 C 23.789062 -1.914062 22.476562 -1.109375 20.84375 -0.453125 C 19.207031 0.203125 17.242188 0.53125 14.953125 0.53125 Z M 14.1875 -24.296875 C 12.488281 -24.296875 11.039062 -23.578125 9.84375 -22.140625 C 8.644531 -20.710938 7.910156 -18.925781 7.640625 -16.78125 L 7.6875 -16.640625 L 20.5 -16.640625 L 20.5 -17.3125 C 20.5 -19.300781 19.96875 -20.960938 18.90625 -22.296875 C 17.84375 -23.628906 16.269531 -24.296875 14.1875 -24.296875 Z M 14.1875 -24.296875 "/></g></g></g><g fill="#0cb1f2" fill-opacity="1"><g transform="translate(710.605589, 670.195323)"><g><path d="M 1.28125 -3.234375 L 5.46875 -3.953125 L 5.46875 -23.78125 L 1.28125 -24.5 L 1.28125 -27.75 L 10 -27.75 L 10.34375 -24.140625 C 11.226562 -25.453125 12.367188 -26.46875 13.765625 -27.1875 C 15.171875 -27.90625 16.796875 -28.265625 18.640625 -28.265625 C 20.492188 -28.265625 22.082031 -27.835938 23.40625 -26.984375 C 24.726562 -26.128906 25.722656 -24.847656 26.390625 -23.140625 C 27.265625 -24.710938 28.421875 -25.957031 29.859375 -26.875 C 31.296875 -27.800781 32.972656 -28.265625 34.890625 -28.265625 C 37.722656 -28.265625 39.957031 -27.289062 41.59375 -25.34375 C 43.238281 -23.40625 44.0625 -20.488281 44.0625 -16.59375 L 44.0625 -3.953125 L 48.25 -3.234375 L 48.25 0 L 34.8125 0 L 34.8125 -3.234375 L 38.984375 -3.953125 L 38.984375 -16.640625 C 38.984375 -19.378906 38.515625 -21.316406 37.578125 -22.453125 C 36.640625 -23.585938 35.242188 -24.15625 33.390625 -24.15625 C 31.628906 -24.15625 30.210938 -23.535156 29.140625 -22.296875 C 28.078125 -21.054688 27.460938 -19.5 27.296875 -17.625 L 27.296875 -3.953125 L 31.46875 -3.234375 L 31.46875 0 L 18.0625 0 L 18.0625 -3.234375 L 22.234375 -3.953125 L 22.234375 -16.640625 C 22.234375 -19.242188 21.75 -21.144531 20.78125 -22.34375 C 19.820312 -23.550781 18.425781 -24.15625 16.59375 -24.15625 C 15.050781 -24.15625 13.785156 -23.835938 12.796875 -23.203125 C 11.804688 -22.578125 11.046875 -21.691406 10.515625 -20.546875 L 10.515625 -3.953125 L 14.703125 -3.234375 L 14.703125 0 L 1.28125 0 Z M 1.28125 -3.234375 "/></g></g></g><g fill="#0cb1f2" fill-opacity="1"><g transform="translate(760.235337, 670.195323)"><g><path d="M 30.78125 -25.875 L 27.21875 -25.875 L 26.265625 -31.171875 C 25.441406 -31.972656 24.429688 -32.628906 23.234375 -33.140625 C 22.035156 -33.648438 20.609375 -33.90625 18.953125 -33.90625 C 15.078125 -33.90625 12.09375 -32.5 10 -29.6875 C 7.914062 -26.875 6.875 -23.304688 6.875 -18.984375 L 6.875 -18.390625 C 6.875 -14.066406 7.894531 -10.488281 9.9375 -7.65625 C 11.976562 -4.820312 14.8125 -3.40625 18.4375 -3.40625 C 20.132812 -3.40625 21.675781 -3.671875 23.0625 -4.203125 C 24.445312 -4.734375 25.515625 -5.382812 26.265625 -6.15625 L 27.21875 -11.4375 L 30.78125 -11.4375 L 30.78125 -4.796875 C 29.707031 -3.410156 28.09375 -2.175781 25.9375 -1.09375 C 23.78125 -0.0078125 21.28125 0.53125 18.4375 0.53125 C 13.582031 0.53125 9.597656 -1.257812 6.484375 -4.84375 C 3.378906 -8.4375 1.828125 -12.953125 1.828125 -18.390625 L 1.828125 -18.9375 C 1.828125 -24.40625 3.351562 -28.929688 6.40625 -32.515625 C 9.46875 -36.097656 13.476562 -37.890625 18.4375 -37.890625 C 21.28125 -37.890625 23.78125 -37.335938 25.9375 -36.234375 C 28.09375 -35.128906 29.707031 -33.894531 30.78125 -32.53125 Z M 30.78125 -25.875 "/></g></g></g></svg>