<svg xmlns="http://www.w3.org/2000/svg" xmlns:xlink="http://www.w3.org/1999/xlink" width="1920" zoomAndPan="magnify" viewBox="0 0 1440 809.999993" height="1080" preserveAspectRatio="xMidYMid meet" version="1.0"><defs><g/><clipPath id="1a1808c7b8"><path d="M 259.359375 92.78125 L 485.917969 92.78125 L 485.917969 297.40625 L 259.359375 297.40625 Z M 259.359375 92.78125 " clip-rule="nonzero"/></clipPath><clipPath id="1e66dbfe5e"><path d="M 491.167969 302.722656 L 717.730469 302.722656 L 717.730469 507.34375 L 491.167969 507.34375 Z M 491.167969 302.722656 " clip-rule="nonzero"/></clipPath><clipPath id="f09bb21bcd"><path d="M 491.167969 92.78125 L 717.730469 92.78125 L 717.730469 297.40625 L 491.167969 297.40625 Z M 491.167969 92.78125 " clip-rule="nonzero"/></clipPath><clipPath id="6523dff55d"><path d="M 722.625 302.722656 L 949 302.722656 L 949 507.34375 L 722.625 507.34375 Z M 722.625 302.722656 " clip-rule="nonzero"/></clipPath><clipPath id="8aa603be46"><path d="M 722.625 92.78125 L 949 92.78125 L 949 297.40625 L 722.625 297.40625 Z M 722.625 92.78125 " clip-rule="nonzero"/></clipPath><clipPath id="ec2769ea77"><path d="M 954.082031 302.722656 L 1180.640625 302.722656 L 1180.640625 507.34375 L 954.082031 507.34375 Z M 954.082031 302.722656 " clip-rule="nonzero"/></clipPath><clipPath id="875e305761"><path d="M 954.082031 92.78125 L 1180.640625 92.78125 L 1180.640625 297.40625 L 954.082031 297.40625 Z M 954.082031 92.78125 " clip-rule="nonzero"/></clipPath><clipPath id="d9d1356e0e"><path d="M 259.359375 302.722656 L 485.917969 302.722656 L 485.917969 507.34375 L 259.359375 507.34375 Z M 259.359375 302.722656 " clip-rule="nonzero"/></clipPath><clipPath id="5545915b55"><path d="M 259.359375 512.59375 L 485.917969 512.59375 L 485.917969 717.21875 L 259.359375 717.21875 Z M 259.359375 512.59375 " clip-rule="nonzero"/></clipPath><clipPath id="487462d045"><path d="M 491.167969 512.59375 L 717.730469 512.59375 L 717.730469 717.21875 L 491.167969 717.21875 Z M 491.167969 512.59375 " clip-rule="nonzero"/></clipPath><clipPath id="5c42f870fd"><path d="M 722.625 512.59375 L 949 512.59375 L 949 717.21875 L 722.625 717.21875 Z M 722.625 512.59375 " clip-rule="nonzero"/></clipPath><clipPath id="2f03cda2a4"><path d="M 954.082031 512.59375 L 1180.640625 512.59375 L 1180.640625 717.21875 L 954.082031 717.21875 Z M 954.082031 512.59375 " clip-rule="nonzero"/></clipPath></defs><g clip-path="url(#1a1808c7b8)"><path fill="#a6a6a6" d="M 259.359375 92.78125 L 485.5625 92.78125 L 485.5625 297.40625 L 259.359375 297.40625 Z M 259.359375 92.78125 " fill-opacity="1" fill-rule="nonzero"/></g><g fill="#ffffff" fill-opacity="1"><g transform="translate(333.654686, 205.282085)"><g><path d="M 0.78125 -18.125 L 0.78125 -20.625 L 9.3125 -20.625 L 9.3125 -18.125 L 7.109375 -17.703125 L 7.109375 -2.90625 L 9.3125 -2.484375 L 9.3125 0 L 0.78125 0 L 0.78125 -2.484375 L 2.984375 -2.90625 L 2.984375 -17.703125 Z M 0.78125 -18.125 "/></g></g></g><g fill="#ffffff" fill-opacity="1"><g transform="translate(343.748157, 205.282085)"><g><path d="M 0.671875 -2.484375 L 2.640625 -2.90625 L 2.640625 -12.40625 L 0.453125 -12.828125 L 0.453125 -15.328125 L 6.5 -15.328125 L 6.6875 -13.125 C 7.195312 -13.90625 7.820312 -14.515625 8.5625 -14.953125 C 9.3125 -15.390625 10.148438 -15.609375 11.078125 -15.609375 C 12.617188 -15.609375 13.820312 -15.117188 14.6875 -14.140625 C 15.5625 -13.171875 16 -11.648438 16 -9.578125 L 16 -2.90625 L 17.984375 -2.484375 L 17.984375 0 L 10.078125 0 L 10.078125 -2.484375 L 11.859375 -2.90625 L 11.859375 -9.5625 C 11.859375 -10.59375 11.648438 -11.320312 11.234375 -11.75 C 10.816406 -12.175781 10.1875 -12.390625 9.34375 -12.390625 C 8.800781 -12.390625 8.3125 -12.273438 7.875 -12.046875 C 7.4375 -11.828125 7.070312 -11.515625 6.78125 -11.109375 L 6.78125 -2.90625 L 8.453125 -2.484375 L 8.453125 0 L 0.671875 0 Z M 0.671875 -2.484375 "/></g></g></g><g fill="#ffffff" fill-opacity="1"><g transform="translate(362.1514, 205.282085)"><g><path d="M 10.859375 -1.875 C 10.378906 -1.164062 9.8125 -0.625 9.15625 -0.25 C 8.5 0.113281 7.75 0.296875 6.90625 0.296875 C 5.019531 0.296875 3.554688 -0.390625 2.515625 -1.765625 C 1.472656 -3.148438 0.953125 -4.972656 0.953125 -7.234375 L 0.953125 -7.53125 C 0.953125 -9.945312 1.472656 -11.894531 2.515625 -13.375 C 3.566406 -14.863281 5.039062 -15.609375 6.9375 -15.609375 C 7.695312 -15.609375 8.382812 -15.4375 9 -15.09375 C 9.613281 -14.757812 10.15625 -14.285156 10.625 -13.671875 L 10.625 -19.171875 L 8.40625 -19.59375 L 8.40625 -22.09375 L 14.75 -22.09375 L 14.75 -2.90625 L 16.734375 -2.484375 L 16.734375 0 L 11.171875 0 Z M 5.078125 -7.234375 C 5.078125 -5.890625 5.300781 -4.832031 5.75 -4.0625 C 6.195312 -3.300781 6.929688 -2.921875 7.953125 -2.921875 C 8.554688 -2.921875 9.082031 -3.039062 9.53125 -3.28125 C 9.976562 -3.53125 10.34375 -3.882812 10.625 -4.34375 L 10.625 -10.84375 C 10.34375 -11.332031 9.976562 -11.710938 9.53125 -11.984375 C 9.09375 -12.253906 8.578125 -12.390625 7.984375 -12.390625 C 6.972656 -12.390625 6.234375 -11.941406 5.765625 -11.046875 C 5.304688 -10.148438 5.078125 -8.976562 5.078125 -7.53125 Z M 5.078125 -7.234375 "/></g></g></g><g fill="#ffffff" fill-opacity="1"><g transform="translate(379.308885, 205.282085)"><g><path d="M 8.234375 0.296875 C 6.015625 0.296875 4.242188 -0.410156 2.921875 -1.828125 C 1.609375 -3.242188 0.953125 -5.039062 0.953125 -7.21875 L 0.953125 -7.78125 C 0.953125 -10.0625 1.578125 -11.9375 2.828125 -13.40625 C 4.078125 -14.882812 5.753906 -15.617188 7.859375 -15.609375 C 9.921875 -15.609375 11.523438 -14.984375 12.671875 -13.734375 C 13.816406 -12.484375 14.390625 -10.800781 14.390625 -8.6875 L 14.390625 -6.421875 L 5.234375 -6.421875 L 5.21875 -6.34375 C 5.289062 -5.332031 5.625 -4.5 6.21875 -3.84375 C 6.820312 -3.195312 7.640625 -2.875 8.671875 -2.875 C 9.585938 -2.875 10.347656 -2.960938 10.953125 -3.140625 C 11.554688 -3.328125 12.210938 -3.617188 12.921875 -4.015625 L 14.046875 -1.46875 C 13.410156 -0.96875 12.585938 -0.546875 11.578125 -0.203125 C 10.578125 0.128906 9.460938 0.296875 8.234375 0.296875 Z M 7.859375 -12.421875 C 7.097656 -12.421875 6.492188 -12.125 6.046875 -11.53125 C 5.597656 -10.945312 5.320312 -10.179688 5.21875 -9.234375 L 5.265625 -9.15625 L 10.34375 -9.15625 L 10.34375 -9.53125 C 10.34375 -10.40625 10.132812 -11.101562 9.71875 -11.625 C 9.3125 -12.15625 8.691406 -12.421875 7.859375 -12.421875 Z M 7.859375 -12.421875 "/></g></g></g><g fill="#ffffff" fill-opacity="1"><g transform="translate(394.753453, 205.282085)"><g><path d="M 0.453125 -2.484375 L 1.890625 -2.703125 L 6.046875 -7.75 L 2.03125 -12.59375 L 0.59375 -12.828125 L 0.59375 -15.328125 L 7.484375 -15.328125 L 7.484375 -12.921875 L 6.09375 -12.765625 L 8.40625 -9.8125 L 10.6875 -12.765625 L 9.265625 -12.921875 L 9.265625 -15.328125 L 16.1875 -15.328125 L 16.1875 -12.828125 L 14.796875 -12.59375 L 10.859375 -7.75 L 15.015625 -2.703125 L 16.453125 -2.484375 L 16.453125 0 L 9.4375 0 L 9.4375 -2.375 L 10.84375 -2.546875 L 8.46875 -5.640625 L 6.046875 -2.53125 L 7.28125 -2.375 L 7.28125 0 L 0.453125 0 Z M 0.453125 -2.484375 "/></g></g></g><g clip-path="url(#1e66dbfe5e)"><path fill="#d9d9d9" d="M 491.167969 302.722656 L 717.371094 302.722656 L 717.371094 507.34375 L 491.167969 507.34375 Z M 491.167969 302.722656 " fill-opacity="1" fill-rule="nonzero"/></g><g fill="#000000" fill-opacity="1"><g transform="translate(562.26661, 415.222821)"><g><path d="M 1.265625 -1.78125 L 3.5625 -2.1875 L 3.5625 -13.125 L 1.265625 -13.515625 L 1.265625 -15.328125 L 6.359375 -15.328125 L 6.359375 -2.1875 L 8.671875 -1.78125 L 8.671875 0 L 1.265625 0 Z M 6.359375 -19.25 L 3.5625 -19.25 L 3.5625 -22.09375 L 6.359375 -22.09375 Z M 6.359375 -19.25 "/></g></g></g><g fill="#000000" fill-opacity="1"><g transform="translate(571.793828, 415.222821)"><g><path d="M 6.125 -19.015625 L 6.125 -15.328125 L 9.03125 -15.328125 L 9.03125 -13.25 L 6.125 -13.25 L 6.125 -3.953125 C 6.125 -3.234375 6.273438 -2.726562 6.578125 -2.4375 C 6.878906 -2.144531 7.273438 -2 7.765625 -2 C 8.003906 -2 8.273438 -2.019531 8.578125 -2.0625 C 8.890625 -2.101562 9.148438 -2.144531 9.359375 -2.1875 L 9.75 -0.28125 C 9.476562 -0.113281 9.085938 0.0195312 8.578125 0.125 C 8.066406 0.238281 7.554688 0.296875 7.046875 0.296875 C 5.921875 0.296875 5.019531 -0.0390625 4.34375 -0.71875 C 3.675781 -1.40625 3.34375 -2.484375 3.34375 -3.953125 L 3.34375 -13.25 L 0.921875 -13.25 L 0.921875 -15.328125 L 3.34375 -15.328125 L 3.34375 -19.015625 Z M 6.125 -19.015625 "/></g></g></g><g fill="#000000" fill-opacity="1"><g transform="translate(582.411083, 415.222821)"><g><path d="M 8.25 0.296875 C 6.125 0.296875 4.429688 -0.410156 3.171875 -1.828125 C 1.910156 -3.253906 1.28125 -5.097656 1.28125 -7.359375 L 1.28125 -7.984375 C 1.28125 -10.160156 1.925781 -11.972656 3.21875 -13.421875 C 4.519531 -14.878906 6.054688 -15.609375 7.828125 -15.609375 C 9.890625 -15.609375 11.453125 -14.984375 12.515625 -13.734375 C 13.578125 -12.484375 14.109375 -10.820312 14.109375 -8.75 L 14.109375 -7.015625 L 4.15625 -7.015625 L 4.125 -6.9375 C 4.144531 -5.46875 4.515625 -4.257812 5.234375 -3.3125 C 5.953125 -2.363281 6.957031 -1.890625 8.25 -1.890625 C 9.195312 -1.890625 10.023438 -2.019531 10.734375 -2.28125 C 11.453125 -2.550781 12.070312 -2.925781 12.59375 -3.40625 L 13.671875 -1.59375 C 13.128906 -1.0625 12.40625 -0.613281 11.5 -0.25 C 10.601562 0.113281 9.519531 0.296875 8.25 0.296875 Z M 7.828125 -13.40625 C 6.890625 -13.40625 6.09375 -13.007812 5.4375 -12.21875 C 4.78125 -11.4375 4.375 -10.453125 4.21875 -9.265625 L 4.25 -9.1875 L 11.3125 -9.1875 L 11.3125 -9.5625 C 11.3125 -10.65625 11.019531 -11.566406 10.4375 -12.296875 C 9.851562 -13.035156 8.984375 -13.40625 7.828125 -13.40625 Z M 7.828125 -13.40625 "/></g></g></g><g fill="#000000" fill-opacity="1"><g transform="translate(597.997214, 415.222821)"><g><path d="M 0.703125 -1.78125 L 3.015625 -2.1875 L 3.015625 -13.125 L 0.703125 -13.515625 L 0.703125 -15.328125 L 5.515625 -15.328125 L 5.703125 -13.328125 C 6.191406 -14.054688 6.820312 -14.617188 7.59375 -15.015625 C 8.375 -15.410156 9.273438 -15.609375 10.296875 -15.609375 C 11.316406 -15.609375 12.191406 -15.367188 12.921875 -14.890625 C 13.648438 -14.421875 14.203125 -13.710938 14.578125 -12.765625 C 15.054688 -13.640625 15.691406 -14.332031 16.484375 -14.84375 C 17.273438 -15.351562 18.203125 -15.609375 19.265625 -15.609375 C 20.828125 -15.609375 22.0625 -15.070312 22.96875 -14 C 23.875 -12.925781 24.328125 -11.3125 24.328125 -9.15625 L 24.328125 -2.1875 L 26.640625 -1.78125 L 26.640625 0 L 19.21875 0 L 19.21875 -1.78125 L 21.53125 -2.1875 L 21.53125 -9.1875 C 21.53125 -10.695312 21.269531 -11.765625 20.75 -12.390625 C 20.226562 -13.023438 19.457031 -13.34375 18.4375 -13.34375 C 17.46875 -13.34375 16.6875 -13 16.09375 -12.3125 C 15.5 -11.625 15.15625 -10.765625 15.0625 -9.734375 L 15.0625 -2.1875 L 17.375 -1.78125 L 17.375 0 L 9.96875 0 L 9.96875 -1.78125 L 12.28125 -2.1875 L 12.28125 -9.1875 C 12.28125 -10.625 12.007812 -11.675781 11.46875 -12.34375 C 10.9375 -13.007812 10.164062 -13.34375 9.15625 -13.34375 C 8.3125 -13.34375 7.613281 -13.164062 7.0625 -12.8125 C 6.519531 -12.46875 6.101562 -11.976562 5.8125 -11.34375 L 5.8125 -2.1875 L 8.109375 -1.78125 L 8.109375 0 L 0.703125 0 Z M 0.703125 -1.78125 "/></g></g></g><g fill="#000000" fill-opacity="1"><g transform="translate(625.389734, 415.222821)"><g><path d="M 0.78125 -1.78125 L 2.3125 -2 L 9.515625 -20.625 L 11.90625 -20.625 L 18.984375 -2 L 20.5 -1.78125 L 20.5 0 L 14.578125 0 L 14.578125 -1.78125 L 16.140625 -2.046875 L 14.78125 -5.84375 L 6.53125 -5.84375 L 5.125 -2.046875 L 6.6875 -1.78125 L 6.6875 0 L 0.78125 0 Z M 7.390625 -8.1875 L 13.9375 -8.1875 L 10.734375 -17.03125 L 10.65625 -17.03125 Z M 7.390625 -8.1875 "/></g></g></g><g clip-path="url(#f09bb21bcd)"><path fill="#a6a6a6" d="M 491.167969 92.78125 L 717.371094 92.78125 L 717.371094 297.40625 L 491.167969 297.40625 Z M 491.167969 92.78125 " fill-opacity="1" fill-rule="nonzero"/></g><g fill="#ffffff" fill-opacity="1"><g transform="translate(596.180671, 205.282085)"><g><path d="M 14.84375 -7.859375 C 14.84375 -5.222656 14.253906 -3.203125 13.078125 -1.796875 C 11.910156 -0.398438 10.3125 0.296875 8.28125 0.296875 C 6.257812 0.296875 4.660156 -0.40625 3.484375 -1.8125 C 2.304688 -3.21875 1.71875 -5.234375 1.71875 -7.859375 L 1.71875 -12.75 C 1.71875 -15.375 2.300781 -17.390625 3.46875 -18.796875 C 4.632812 -20.210938 6.226562 -20.921875 8.25 -20.921875 C 10.28125 -20.921875 11.882812 -20.210938 13.0625 -18.796875 C 14.25 -17.390625 14.84375 -15.375 14.84375 -12.75 Z M 12.046875 -13.34375 C 12.046875 -15.125 11.722656 -16.460938 11.078125 -17.359375 C 10.429688 -18.265625 9.488281 -18.71875 8.25 -18.71875 C 7.03125 -18.71875 6.097656 -18.265625 5.453125 -17.359375 C 4.816406 -16.460938 4.5 -15.125 4.5 -13.34375 L 4.5 -7.296875 C 4.5 -5.503906 4.820312 -4.15625 5.46875 -3.25 C 6.125 -2.34375 7.0625 -1.890625 8.28125 -1.890625 C 9.519531 -1.890625 10.457031 -2.34375 11.09375 -3.25 C 11.726562 -4.15625 12.046875 -5.503906 12.046875 -7.296875 Z M 12.046875 -13.34375 "/></g></g></g><g clip-path="url(#6523dff55d)"><path fill="#d9d9d9" d="M 722.625 302.722656 L 948.828125 302.722656 L 948.828125 507.34375 L 722.625 507.34375 Z M 722.625 302.722656 " fill-opacity="1" fill-rule="nonzero"/></g><g fill="#000000" fill-opacity="1"><g transform="translate(794.812466, 415.222821)"><g><path d="M 1.265625 -1.78125 L 3.5625 -2.1875 L 3.5625 -13.125 L 1.265625 -13.515625 L 1.265625 -15.328125 L 6.359375 -15.328125 L 6.359375 -2.1875 L 8.671875 -1.78125 L 8.671875 0 L 1.265625 0 Z M 6.359375 -19.25 L 3.5625 -19.25 L 3.5625 -22.09375 L 6.359375 -22.09375 Z M 6.359375 -19.25 "/></g></g></g><g fill="#000000" fill-opacity="1"><g transform="translate(804.339684, 415.222821)"><g><path d="M 6.125 -19.015625 L 6.125 -15.328125 L 9.03125 -15.328125 L 9.03125 -13.25 L 6.125 -13.25 L 6.125 -3.953125 C 6.125 -3.234375 6.273438 -2.726562 6.578125 -2.4375 C 6.878906 -2.144531 7.273438 -2 7.765625 -2 C 8.003906 -2 8.273438 -2.019531 8.578125 -2.0625 C 8.890625 -2.101562 9.148438 -2.144531 9.359375 -2.1875 L 9.75 -0.28125 C 9.476562 -0.113281 9.085938 0.0195312 8.578125 0.125 C 8.066406 0.238281 7.554688 0.296875 7.046875 0.296875 C 5.921875 0.296875 5.019531 -0.0390625 4.34375 -0.71875 C 3.675781 -1.40625 3.34375 -2.484375 3.34375 -3.953125 L 3.34375 -13.25 L 0.921875 -13.25 L 0.921875 -15.328125 L 3.34375 -15.328125 L 3.34375 -19.015625 Z M 6.125 -19.015625 "/></g></g></g><g fill="#000000" fill-opacity="1"><g transform="translate(814.956939, 415.222821)"><g><path d="M 8.25 0.296875 C 6.125 0.296875 4.429688 -0.410156 3.171875 -1.828125 C 1.910156 -3.253906 1.28125 -5.097656 1.28125 -7.359375 L 1.28125 -7.984375 C 1.28125 -10.160156 1.925781 -11.972656 3.21875 -13.421875 C 4.519531 -14.878906 6.054688 -15.609375 7.828125 -15.609375 C 9.890625 -15.609375 11.453125 -14.984375 12.515625 -13.734375 C 13.578125 -12.484375 14.109375 -10.820312 14.109375 -8.75 L 14.109375 -7.015625 L 4.15625 -7.015625 L 4.125 -6.9375 C 4.144531 -5.46875 4.515625 -4.257812 5.234375 -3.3125 C 5.953125 -2.363281 6.957031 -1.890625 8.25 -1.890625 C 9.195312 -1.890625 10.023438 -2.019531 10.734375 -2.28125 C 11.453125 -2.550781 12.070312 -2.925781 12.59375 -3.40625 L 13.671875 -1.59375 C 13.128906 -1.0625 12.40625 -0.613281 11.5 -0.25 C 10.601562 0.113281 9.519531 0.296875 8.25 0.296875 Z M 7.828125 -13.40625 C 6.890625 -13.40625 6.09375 -13.007812 5.4375 -12.21875 C 4.78125 -11.4375 4.375 -10.453125 4.21875 -9.265625 L 4.25 -9.1875 L 11.3125 -9.1875 L 11.3125 -9.5625 C 11.3125 -10.65625 11.019531 -11.566406 10.4375 -12.296875 C 9.851562 -13.035156 8.984375 -13.40625 7.828125 -13.40625 Z M 7.828125 -13.40625 "/></g></g></g><g fill="#000000" fill-opacity="1"><g transform="translate(830.54307, 415.222821)"><g><path d="M 0.703125 -1.78125 L 3.015625 -2.1875 L 3.015625 -13.125 L 0.703125 -13.515625 L 0.703125 -15.328125 L 5.515625 -15.328125 L 5.703125 -13.328125 C 6.191406 -14.054688 6.820312 -14.617188 7.59375 -15.015625 C 8.375 -15.410156 9.273438 -15.609375 10.296875 -15.609375 C 11.316406 -15.609375 12.191406 -15.367188 12.921875 -14.890625 C 13.648438 -14.421875 14.203125 -13.710938 14.578125 -12.765625 C 15.054688 -13.640625 15.691406 -14.332031 16.484375 -14.84375 C 17.273438 -15.351562 18.203125 -15.609375 19.265625 -15.609375 C 20.828125 -15.609375 22.0625 -15.070312 22.96875 -14 C 23.875 -12.925781 24.328125 -11.3125 24.328125 -9.15625 L 24.328125 -2.1875 L 26.640625 -1.78125 L 26.640625 0 L 19.21875 0 L 19.21875 -1.78125 L 21.53125 -2.1875 L 21.53125 -9.1875 C 21.53125 -10.695312 21.269531 -11.765625 20.75 -12.390625 C 20.226562 -13.023438 19.457031 -13.34375 18.4375 -13.34375 C 17.46875 -13.34375 16.6875 -13 16.09375 -12.3125 C 15.5 -11.625 15.15625 -10.765625 15.0625 -9.734375 L 15.0625 -2.1875 L 17.375 -1.78125 L 17.375 0 L 9.96875 0 L 9.96875 -1.78125 L 12.28125 -2.1875 L 12.28125 -9.1875 C 12.28125 -10.625 12.007812 -11.675781 11.46875 -12.34375 C 10.9375 -13.007812 10.164062 -13.34375 9.15625 -13.34375 C 8.3125 -13.34375 7.613281 -13.164062 7.0625 -12.8125 C 6.519531 -12.46875 6.101562 -11.976562 5.8125 -11.34375 L 5.8125 -2.1875 L 8.109375 -1.78125 L 8.109375 0 L 0.703125 0 Z M 0.703125 -1.78125 "/></g></g></g><g fill="#000000" fill-opacity="1"><g transform="translate(857.93559, 415.222821)"><g><path d="M 10.046875 -20.625 C 12.191406 -20.625 13.867188 -20.15625 15.078125 -19.21875 C 16.296875 -18.289062 16.90625 -16.894531 16.90625 -15.03125 C 16.90625 -14.125 16.613281 -13.304688 16.03125 -12.578125 C 15.457031 -11.859375 14.691406 -11.320312 13.734375 -10.96875 C 14.972656 -10.707031 15.953125 -10.097656 16.671875 -9.140625 C 17.390625 -8.191406 17.75 -7.082031 17.75 -5.8125 C 17.75 -3.925781 17.132812 -2.484375 15.90625 -1.484375 C 14.675781 -0.492188 13.015625 0 10.921875 0 L 1 0 L 1 -1.78125 L 3.3125 -2.1875 L 3.3125 -18.421875 L 1 -18.8125 L 1 -20.625 Z M 6.109375 -9.671875 L 6.109375 -2.1875 L 10.921875 -2.1875 C 12.191406 -2.1875 13.175781 -2.5 13.875 -3.125 C 14.582031 -3.75 14.9375 -4.640625 14.9375 -5.796875 C 14.9375 -7.003906 14.640625 -7.953125 14.046875 -8.640625 C 13.460938 -9.328125 12.5625 -9.671875 11.34375 -9.671875 Z M 6.109375 -11.859375 L 10.765625 -11.859375 C 11.765625 -11.878906 12.570312 -12.171875 13.1875 -12.734375 C 13.8125 -13.304688 14.125 -14.09375 14.125 -15.09375 C 14.125 -16.207031 13.769531 -17.039062 13.0625 -17.59375 C 12.363281 -18.144531 11.359375 -18.421875 10.046875 -18.421875 L 6.109375 -18.421875 Z M 6.109375 -11.859375 "/></g></g></g><g clip-path="url(#8aa603be46)"><path fill="#a6a6a6" d="M 722.625 92.78125 L 948.828125 92.78125 L 948.828125 297.40625 L 722.625 297.40625 Z M 722.625 92.78125 " fill-opacity="1" fill-rule="nonzero"/></g><g fill="#ffffff" fill-opacity="1"><g transform="translate(829.921839, 205.282085)"><g><path d="M 1.71875 -1.78125 L 4.90625 -2.1875 L 4.90625 -17.625 L 1.65625 -17.578125 L 1.65625 -19.3125 L 7.6875 -20.625 L 7.6875 -2.1875 L 10.859375 -1.78125 L 10.859375 0 L 1.71875 0 Z M 1.71875 -1.78125 "/></g></g></g><g clip-path="url(#ec2769ea77)"><path fill="#d9d9d9" d="M 954.082031 302.722656 L 1180.285156 302.722656 L 1180.285156 507.34375 L 954.082031 507.34375 Z M 954.082031 302.722656 " fill-opacity="1" fill-rule="nonzero"/></g><g fill="#000000" fill-opacity="1"><g transform="translate(1026.44426, 415.222821)"><g><path d="M 1.265625 -1.78125 L 3.5625 -2.1875 L 3.5625 -13.125 L 1.265625 -13.515625 L 1.265625 -15.328125 L 6.359375 -15.328125 L 6.359375 -2.1875 L 8.671875 -1.78125 L 8.671875 0 L 1.265625 0 Z M 6.359375 -19.25 L 3.5625 -19.25 L 3.5625 -22.09375 L 6.359375 -22.09375 Z M 6.359375 -19.25 "/></g></g></g><g fill="#000000" fill-opacity="1"><g transform="translate(1035.971477, 415.222821)"><g><path d="M 6.125 -19.015625 L 6.125 -15.328125 L 9.03125 -15.328125 L 9.03125 -13.25 L 6.125 -13.25 L 6.125 -3.953125 C 6.125 -3.234375 6.273438 -2.726562 6.578125 -2.4375 C 6.878906 -2.144531 7.273438 -2 7.765625 -2 C 8.003906 -2 8.273438 -2.019531 8.578125 -2.0625 C 8.890625 -2.101562 9.148438 -2.144531 9.359375 -2.1875 L 9.75 -0.28125 C 9.476562 -0.113281 9.085938 0.0195312 8.578125 0.125 C 8.066406 0.238281 7.554688 0.296875 7.046875 0.296875 C 5.921875 0.296875 5.019531 -0.0390625 4.34375 -0.71875 C 3.675781 -1.40625 3.34375 -2.484375 3.34375 -3.953125 L 3.34375 -13.25 L 0.921875 -13.25 L 0.921875 -15.328125 L 3.34375 -15.328125 L 3.34375 -19.015625 Z M 6.125 -19.015625 "/></g></g></g><g fill="#000000" fill-opacity="1"><g transform="translate(1046.588733, 415.222821)"><g><path d="M 8.25 0.296875 C 6.125 0.296875 4.429688 -0.410156 3.171875 -1.828125 C 1.910156 -3.253906 1.28125 -5.097656 1.28125 -7.359375 L 1.28125 -7.984375 C 1.28125 -10.160156 1.925781 -11.972656 3.21875 -13.421875 C 4.519531 -14.878906 6.054688 -15.609375 7.828125 -15.609375 C 9.890625 -15.609375 11.453125 -14.984375 12.515625 -13.734375 C 13.578125 -12.484375 14.109375 -10.820312 14.109375 -8.75 L 14.109375 -7.015625 L 4.15625 -7.015625 L 4.125 -6.9375 C 4.144531 -5.46875 4.515625 -4.257812 5.234375 -3.3125 C 5.953125 -2.363281 6.957031 -1.890625 8.25 -1.890625 C 9.195312 -1.890625 10.023438 -2.019531 10.734375 -2.28125 C 11.453125 -2.550781 12.070312 -2.925781 12.59375 -3.40625 L 13.671875 -1.59375 C 13.128906 -1.0625 12.40625 -0.613281 11.5 -0.25 C 10.601562 0.113281 9.519531 0.296875 8.25 0.296875 Z M 7.828125 -13.40625 C 6.890625 -13.40625 6.09375 -13.007812 5.4375 -12.21875 C 4.78125 -11.4375 4.375 -10.453125 4.21875 -9.265625 L 4.25 -9.1875 L 11.3125 -9.1875 L 11.3125 -9.5625 C 11.3125 -10.65625 11.019531 -11.566406 10.4375 -12.296875 C 9.851562 -13.035156 8.984375 -13.40625 7.828125 -13.40625 Z M 7.828125 -13.40625 "/></g></g></g><g fill="#000000" fill-opacity="1"><g transform="translate(1062.174864, 415.222821)"><g><path d="M 0.703125 -1.78125 L 3.015625 -2.1875 L 3.015625 -13.125 L 0.703125 -13.515625 L 0.703125 -15.328125 L 5.515625 -15.328125 L 5.703125 -13.328125 C 6.191406 -14.054688 6.820312 -14.617188 7.59375 -15.015625 C 8.375 -15.410156 9.273438 -15.609375 10.296875 -15.609375 C 11.316406 -15.609375 12.191406 -15.367188 12.921875 -14.890625 C 13.648438 -14.421875 14.203125 -13.710938 14.578125 -12.765625 C 15.054688 -13.640625 15.691406 -14.332031 16.484375 -14.84375 C 17.273438 -15.351562 18.203125 -15.609375 19.265625 -15.609375 C 20.828125 -15.609375 22.0625 -15.070312 22.96875 -14 C 23.875 -12.925781 24.328125 -11.3125 24.328125 -9.15625 L 24.328125 -2.1875 L 26.640625 -1.78125 L 26.640625 0 L 19.21875 0 L 19.21875 -1.78125 L 21.53125 -2.1875 L 21.53125 -9.1875 C 21.53125 -10.695312 21.269531 -11.765625 20.75 -12.390625 C 20.226562 -13.023438 19.457031 -13.34375 18.4375 -13.34375 C 17.46875 -13.34375 16.6875 -13 16.09375 -12.3125 C 15.5 -11.625 15.15625 -10.765625 15.0625 -9.734375 L 15.0625 -2.1875 L 17.375 -1.78125 L 17.375 0 L 9.96875 0 L 9.96875 -1.78125 L 12.28125 -2.1875 L 12.28125 -9.1875 C 12.28125 -10.625 12.007812 -11.675781 11.46875 -12.34375 C 10.9375 -13.007812 10.164062 -13.34375 9.15625 -13.34375 C 8.3125 -13.34375 7.613281 -13.164062 7.0625 -12.8125 C 6.519531 -12.46875 6.101562 -11.976562 5.8125 -11.34375 L 5.8125 -2.1875 L 8.109375 -1.78125 L 8.109375 0 L 0.703125 0 Z M 0.703125 -1.78125 "/></g></g></g><g fill="#000000" fill-opacity="1"><g transform="translate(1089.567383, 415.222821)"><g><path d="M 17 -14.28125 L 15.03125 -14.28125 L 14.5 -17.203125 C 14.050781 -17.648438 13.492188 -18.015625 12.828125 -18.296875 C 12.171875 -18.578125 11.382812 -18.71875 10.46875 -18.71875 C 8.320312 -18.71875 6.671875 -17.941406 5.515625 -16.390625 C 4.367188 -14.835938 3.796875 -12.867188 3.796875 -10.484375 L 3.796875 -10.15625 C 3.796875 -7.769531 4.359375 -5.796875 5.484375 -4.234375 C 6.609375 -2.671875 8.175781 -1.890625 10.1875 -1.890625 C 11.113281 -1.890625 11.957031 -2.035156 12.71875 -2.328125 C 13.488281 -2.617188 14.082031 -2.976562 14.5 -3.40625 L 15.03125 -6.3125 L 17 -6.3125 L 17 -2.640625 C 16.394531 -1.878906 15.5 -1.195312 14.3125 -0.59375 C 13.125 0 11.75 0.296875 10.1875 0.296875 C 7.5 0.296875 5.296875 -0.691406 3.578125 -2.671875 C 1.859375 -4.660156 1 -7.15625 1 -10.15625 L 1 -10.453125 C 1 -13.472656 1.84375 -15.972656 3.53125 -17.953125 C 5.226562 -19.929688 7.445312 -20.921875 10.1875 -20.921875 C 11.75 -20.921875 13.125 -20.613281 14.3125 -20 C 15.5 -19.394531 16.394531 -18.710938 17 -17.953125 Z M 17 -14.28125 "/></g></g></g><g clip-path="url(#875e305761)"><path fill="#a6a6a6" d="M 954.082031 92.78125 L 1180.285156 92.78125 L 1180.285156 297.40625 L 954.082031 297.40625 Z M 954.082031 92.78125 " fill-opacity="1" fill-rule="nonzero"/></g><g fill="#ffffff" fill-opacity="1"><g transform="translate(1059.350508, 205.282085)"><g><path d="M 1.375 0 L 1.375 -1.90625 L 8.125 -9.421875 C 9.332031 -10.765625 10.148438 -11.832031 10.578125 -12.625 C 11.015625 -13.425781 11.234375 -14.238281 11.234375 -15.0625 C 11.234375 -16.09375 10.929688 -16.957031 10.328125 -17.65625 C 9.722656 -18.363281 8.925781 -18.71875 7.9375 -18.71875 C 6.507812 -18.71875 5.457031 -18.351562 4.78125 -17.625 C 4.113281 -16.90625 3.78125 -15.878906 3.78125 -14.546875 L 1.109375 -14.546875 L 1.078125 -14.625 C 1.023438 -16.40625 1.609375 -17.898438 2.828125 -19.109375 C 4.054688 -20.316406 5.757812 -20.921875 7.9375 -20.921875 C 9.789062 -20.921875 11.265625 -20.378906 12.359375 -19.296875 C 13.460938 -18.210938 14.015625 -16.835938 14.015625 -15.171875 C 14.015625 -14.046875 13.679688 -12.921875 13.015625 -11.796875 C 12.347656 -10.671875 11.410156 -9.457031 10.203125 -8.15625 L 4.78125 -2.25 L 4.8125 -2.1875 L 12.140625 -2.1875 L 12.359375 -4.546875 L 14.734375 -4.546875 L 14.734375 0 Z M 1.375 0 "/></g></g></g><g clip-path="url(#d9d1356e0e)"><path fill="#a6a6a6" d="M 259.359375 302.722656 L 485.5625 302.722656 L 485.5625 507.34375 L 259.359375 507.34375 Z M 259.359375 302.722656 " fill-opacity="1" fill-rule="nonzero"/></g><g fill="#ffffff" fill-opacity="1"><g transform="translate(364.369528, 415.222821)"><g><path d="M 14.84375 -7.859375 C 14.84375 -5.222656 14.253906 -3.203125 13.078125 -1.796875 C 11.910156 -0.398438 10.3125 0.296875 8.28125 0.296875 C 6.257812 0.296875 4.660156 -0.40625 3.484375 -1.8125 C 2.304688 -3.21875 1.71875 -5.234375 1.71875 -7.859375 L 1.71875 -12.75 C 1.71875 -15.375 2.300781 -17.390625 3.46875 -18.796875 C 4.632812 -20.210938 6.226562 -20.921875 8.25 -20.921875 C 10.28125 -20.921875 11.882812 -20.210938 13.0625 -18.796875 C 14.25 -17.390625 14.84375 -15.375 14.84375 -12.75 Z M 12.046875 -13.34375 C 12.046875 -15.125 11.722656 -16.460938 11.078125 -17.359375 C 10.429688 -18.265625 9.488281 -18.71875 8.25 -18.71875 C 7.03125 -18.71875 6.097656 -18.265625 5.453125 -17.359375 C 4.816406 -16.460938 4.5 -15.125 4.5 -13.34375 L 4.5 -7.296875 C 4.5 -5.503906 4.820312 -4.15625 5.46875 -3.25 C 6.125 -2.34375 7.0625 -1.890625 8.28125 -1.890625 C 9.519531 -1.890625 10.457031 -2.34375 11.09375 -3.25 C 11.726562 -4.15625 12.046875 -5.503906 12.046875 -7.296875 Z M 12.046875 -13.34375 "/></g></g></g><g clip-path="url(#5545915b55)"><path fill="#a6a6a6" d="M 259.359375 512.59375 L 485.5625 512.59375 L 485.5625 717.21875 L 259.359375 717.21875 Z M 259.359375 512.59375 " fill-opacity="1" fill-rule="nonzero"/></g><g fill="#ffffff" fill-opacity="1"><g transform="translate(366.654684, 625.095397)"><g><path d="M 1.71875 -1.78125 L 4.90625 -2.1875 L 4.90625 -17.625 L 1.65625 -17.578125 L 1.65625 -19.3125 L 7.6875 -20.625 L 7.6875 -2.1875 L 10.859375 -1.78125 L 10.859375 0 L 1.71875 0 Z M 1.71875 -1.78125 "/></g></g></g><g clip-path="url(#487462d045)"><path fill="#d9d9d9" d="M 491.167969 512.59375 L 717.371094 512.59375 L 717.371094 717.21875 L 491.167969 717.21875 Z M 491.167969 512.59375 " fill-opacity="1" fill-rule="nonzero"/></g><g fill="#000000" fill-opacity="1"><g transform="translate(562.840829, 625.095397)"><g><path d="M 1.265625 -1.78125 L 3.5625 -2.1875 L 3.5625 -13.125 L 1.265625 -13.515625 L 1.265625 -15.328125 L 6.359375 -15.328125 L 6.359375 -2.1875 L 8.671875 -1.78125 L 8.671875 0 L 1.265625 0 Z M 6.359375 -19.25 L 3.5625 -19.25 L 3.5625 -22.09375 L 6.359375 -22.09375 Z M 6.359375 -19.25 "/></g></g></g><g fill="#000000" fill-opacity="1"><g transform="translate(572.368046, 625.095397)"><g><path d="M 6.125 -19.015625 L 6.125 -15.328125 L 9.03125 -15.328125 L 9.03125 -13.25 L 6.125 -13.25 L 6.125 -3.953125 C 6.125 -3.234375 6.273438 -2.726562 6.578125 -2.4375 C 6.878906 -2.144531 7.273438 -2 7.765625 -2 C 8.003906 -2 8.273438 -2.019531 8.578125 -2.0625 C 8.890625 -2.101562 9.148438 -2.144531 9.359375 -2.1875 L 9.75 -0.28125 C 9.476562 -0.113281 9.085938 0.0195312 8.578125 0.125 C 8.066406 0.238281 7.554688 0.296875 7.046875 0.296875 C 5.921875 0.296875 5.019531 -0.0390625 4.34375 -0.71875 C 3.675781 -1.40625 3.34375 -2.484375 3.34375 -3.953125 L 3.34375 -13.25 L 0.921875 -13.25 L 0.921875 -15.328125 L 3.34375 -15.328125 L 3.34375 -19.015625 Z M 6.125 -19.015625 "/></g></g></g><g fill="#000000" fill-opacity="1"><g transform="translate(582.985302, 625.095397)"><g><path d="M 8.25 0.296875 C 6.125 0.296875 4.429688 -0.410156 3.171875 -1.828125 C 1.910156 -3.253906 1.28125 -5.097656 1.28125 -7.359375 L 1.28125 -7.984375 C 1.28125 -10.160156 1.925781 -11.972656 3.21875 -13.421875 C 4.519531 -14.878906 6.054688 -15.609375 7.828125 -15.609375 C 9.890625 -15.609375 11.453125 -14.984375 12.515625 -13.734375 C 13.578125 -12.484375 14.109375 -10.820312 14.109375 -8.75 L 14.109375 -7.015625 L 4.15625 -7.015625 L 4.125 -6.9375 C 4.144531 -5.46875 4.515625 -4.257812 5.234375 -3.3125 C 5.953125 -2.363281 6.957031 -1.890625 8.25 -1.890625 C 9.195312 -1.890625 10.023438 -2.019531 10.734375 -2.28125 C 11.453125 -2.550781 12.070312 -2.925781 12.59375 -3.40625 L 13.671875 -1.59375 C 13.128906 -1.0625 12.40625 -0.613281 11.5 -0.25 C 10.601562 0.113281 9.519531 0.296875 8.25 0.296875 Z M 7.828125 -13.40625 C 6.890625 -13.40625 6.09375 -13.007812 5.4375 -12.21875 C 4.78125 -11.4375 4.375 -10.453125 4.21875 -9.265625 L 4.25 -9.1875 L 11.3125 -9.1875 L 11.3125 -9.5625 C 11.3125 -10.65625 11.019531 -11.566406 10.4375 -12.296875 C 9.851562 -13.035156 8.984375 -13.40625 7.828125 -13.40625 Z M 7.828125 -13.40625 "/></g></g></g><g fill="#000000" fill-opacity="1"><g transform="translate(598.571433, 625.095397)"><g><path d="M 0.703125 -1.78125 L 3.015625 -2.1875 L 3.015625 -13.125 L 0.703125 -13.515625 L 0.703125 -15.328125 L 5.515625 -15.328125 L 5.703125 -13.328125 C 6.191406 -14.054688 6.820312 -14.617188 7.59375 -15.015625 C 8.375 -15.410156 9.273438 -15.609375 10.296875 -15.609375 C 11.316406 -15.609375 12.191406 -15.367188 12.921875 -14.890625 C 13.648438 -14.421875 14.203125 -13.710938 14.578125 -12.765625 C 15.054688 -13.640625 15.691406 -14.332031 16.484375 -14.84375 C 17.273438 -15.351562 18.203125 -15.609375 19.265625 -15.609375 C 20.828125 -15.609375 22.0625 -15.070312 22.96875 -14 C 23.875 -12.925781 24.328125 -11.3125 24.328125 -9.15625 L 24.328125 -2.1875 L 26.640625 -1.78125 L 26.640625 0 L 19.21875 0 L 19.21875 -1.78125 L 21.53125 -2.1875 L 21.53125 -9.1875 C 21.53125 -10.695312 21.269531 -11.765625 20.75 -12.390625 C 20.226562 -13.023438 19.457031 -13.34375 18.4375 -13.34375 C 17.46875 -13.34375 16.6875 -13 16.09375 -12.3125 C 15.5 -11.625 15.15625 -10.765625 15.0625 -9.734375 L 15.0625 -2.1875 L 17.375 -1.78125 L 17.375 0 L 9.96875 0 L 9.96875 -1.78125 L 12.28125 -2.1875 L 12.28125 -9.1875 C 12.28125 -10.625 12.007812 -11.675781 11.46875 -12.34375 C 10.9375 -13.007812 10.164062 -13.34375 9.15625 -13.34375 C 8.3125 -13.34375 7.613281 -13.164062 7.0625 -12.8125 C 6.519531 -12.46875 6.101562 -11.976562 5.8125 -11.34375 L 5.8125 -2.1875 L 8.109375 -1.78125 L 8.109375 0 L 0.703125 0 Z M 0.703125 -1.78125 "/></g></g></g><g fill="#000000" fill-opacity="1"><g transform="translate(625.963952, 625.095397)"><g><path d="M 9.640625 -20.625 C 12.328125 -20.625 14.488281 -19.789062 16.125 -18.125 C 17.769531 -16.46875 18.59375 -14.328125 18.59375 -11.703125 L 18.59375 -8.890625 C 18.59375 -6.253906 17.769531 -4.113281 16.125 -2.46875 C 14.488281 -0.820312 12.328125 0 9.640625 0 L 1 0 L 1 -1.78125 L 3.3125 -2.1875 L 3.3125 -18.421875 L 1 -18.8125 L 1 -20.625 Z M 6.109375 -18.421875 L 6.109375 -2.1875 L 9.640625 -2.1875 C 11.546875 -2.1875 13.046875 -2.8125 14.140625 -4.0625 C 15.242188 -5.320312 15.796875 -6.929688 15.796875 -8.890625 L 15.796875 -11.734375 C 15.796875 -13.679688 15.242188 -15.28125 14.140625 -16.53125 C 13.046875 -17.789062 11.546875 -18.421875 9.640625 -18.421875 Z M 6.109375 -18.421875 "/></g></g></g><g clip-path="url(#5c42f870fd)"><path fill="#d9d9d9" d="M 722.625 512.59375 L 948.828125 512.59375 L 948.828125 717.21875 L 722.625 717.21875 Z M 722.625 512.59375 " fill-opacity="1" fill-rule="nonzero"/></g><g fill="#000000" fill-opacity="1"><g transform="translate(795.093716, 625.095397)"><g><path d="M 1.265625 -1.78125 L 3.5625 -2.1875 L 3.5625 -13.125 L 1.265625 -13.515625 L 1.265625 -15.328125 L 6.359375 -15.328125 L 6.359375 -2.1875 L 8.671875 -1.78125 L 8.671875 0 L 1.265625 0 Z M 6.359375 -19.25 L 3.5625 -19.25 L 3.5625 -22.09375 L 6.359375 -22.09375 Z M 6.359375 -19.25 "/></g></g></g><g fill="#000000" fill-opacity="1"><g transform="translate(804.620934, 625.095397)"><g><path d="M 6.125 -19.015625 L 6.125 -15.328125 L 9.03125 -15.328125 L 9.03125 -13.25 L 6.125 -13.25 L 6.125 -3.953125 C 6.125 -3.234375 6.273438 -2.726562 6.578125 -2.4375 C 6.878906 -2.144531 7.273438 -2 7.765625 -2 C 8.003906 -2 8.273438 -2.019531 8.578125 -2.0625 C 8.890625 -2.101562 9.148438 -2.144531 9.359375 -2.1875 L 9.75 -0.28125 C 9.476562 -0.113281 9.085938 0.0195312 8.578125 0.125 C 8.066406 0.238281 7.554688 0.296875 7.046875 0.296875 C 5.921875 0.296875 5.019531 -0.0390625 4.34375 -0.71875 C 3.675781 -1.40625 3.34375 -2.484375 3.34375 -3.953125 L 3.34375 -13.25 L 0.921875 -13.25 L 0.921875 -15.328125 L 3.34375 -15.328125 L 3.34375 -19.015625 Z M 6.125 -19.015625 "/></g></g></g><g fill="#000000" fill-opacity="1"><g transform="translate(815.238189, 625.095397)"><g><path d="M 8.25 0.296875 C 6.125 0.296875 4.429688 -0.410156 3.171875 -1.828125 C 1.910156 -3.253906 1.28125 -5.097656 1.28125 -7.359375 L 1.28125 -7.984375 C 1.28125 -10.160156 1.925781 -11.972656 3.21875 -13.421875 C 4.519531 -14.878906 6.054688 -15.609375 7.828125 -15.609375 C 9.890625 -15.609375 11.453125 -14.984375 12.515625 -13.734375 C 13.578125 -12.484375 14.109375 -10.820312 14.109375 -8.75 L 14.109375 -7.015625 L 4.15625 -7.015625 L 4.125 -6.9375 C 4.144531 -5.46875 4.515625 -4.257812 5.234375 -3.3125 C 5.953125 -2.363281 6.957031 -1.890625 8.25 -1.890625 C 9.195312 -1.890625 10.023438 -2.019531 10.734375 -2.28125 C 11.453125 -2.550781 12.070312 -2.925781 12.59375 -3.40625 L 13.671875 -1.59375 C 13.128906 -1.0625 12.40625 -0.613281 11.5 -0.25 C 10.601562 0.113281 9.519531 0.296875 8.25 0.296875 Z M 7.828125 -13.40625 C 6.890625 -13.40625 6.09375 -13.007812 5.4375 -12.21875 C 4.78125 -11.4375 4.375 -10.453125 4.21875 -9.265625 L 4.25 -9.1875 L 11.3125 -9.1875 L 11.3125 -9.5625 C 11.3125 -10.65625 11.019531 -11.566406 10.4375 -12.296875 C 9.851562 -13.035156 8.984375 -13.40625 7.828125 -13.40625 Z M 7.828125 -13.40625 "/></g></g></g><g fill="#000000" fill-opacity="1"><g transform="translate(830.82432, 625.095397)"><g><path d="M 0.703125 -1.78125 L 3.015625 -2.1875 L 3.015625 -13.125 L 0.703125 -13.515625 L 0.703125 -15.328125 L 5.515625 -15.328125 L 5.703125 -13.328125 C 6.191406 -14.054688 6.820312 -14.617188 7.59375 -15.015625 C 8.375 -15.410156 9.273438 -15.609375 10.296875 -15.609375 C 11.316406 -15.609375 12.191406 -15.367188 12.921875 -14.890625 C 13.648438 -14.421875 14.203125 -13.710938 14.578125 -12.765625 C 15.054688 -13.640625 15.691406 -14.332031 16.484375 -14.84375 C 17.273438 -15.351562 18.203125 -15.609375 19.265625 -15.609375 C 20.828125 -15.609375 22.0625 -15.070312 22.96875 -14 C 23.875 -12.925781 24.328125 -11.3125 24.328125 -9.15625 L 24.328125 -2.1875 L 26.640625 -1.78125 L 26.640625 0 L 19.21875 0 L 19.21875 -1.78125 L 21.53125 -2.1875 L 21.53125 -9.1875 C 21.53125 -10.695312 21.269531 -11.765625 20.75 -12.390625 C 20.226562 -13.023438 19.457031 -13.34375 18.4375 -13.34375 C 17.46875 -13.34375 16.6875 -13 16.09375 -12.3125 C 15.5 -11.625 15.15625 -10.765625 15.0625 -9.734375 L 15.0625 -2.1875 L 17.375 -1.78125 L 17.375 0 L 9.96875 0 L 9.96875 -1.78125 L 12.28125 -2.1875 L 12.28125 -9.1875 C 12.28125 -10.625 12.007812 -11.675781 11.46875 -12.34375 C 10.9375 -13.007812 10.164062 -13.34375 9.15625 -13.34375 C 8.3125 -13.34375 7.613281 -13.164062 7.0625 -12.8125 C 6.519531 -12.46875 6.101562 -11.976562 5.8125 -11.34375 L 5.8125 -2.1875 L 8.109375 -1.78125 L 8.109375 0 L 0.703125 0 Z M 0.703125 -1.78125 "/></g></g></g><g fill="#000000" fill-opacity="1"><g transform="translate(858.21684, 625.095397)"><g><path d="M 1 0 L 1 -1.78125 L 3.3125 -2.1875 L 3.3125 -18.421875 L 1 -18.8125 L 1 -20.625 L 16.84375 -20.625 L 16.84375 -15.65625 L 14.4375 -15.65625 L 14.21875 -18.421875 L 6.109375 -18.421875 L 6.109375 -11.75 L 13.984375 -11.75 L 13.984375 -9.5625 L 6.109375 -9.5625 L 6.109375 -2.1875 L 14.390625 -2.1875 L 14.609375 -4.9375 L 17 -4.9375 L 17 0 Z M 1 0 "/></g></g></g><g clip-path="url(#2f03cda2a4)"><path fill="#d9d9d9" d="M 954.082031 512.59375 L 1180.285156 512.59375 L 1180.285156 717.21875 L 954.082031 717.21875 Z M 954.082031 512.59375 " fill-opacity="1" fill-rule="nonzero"/></g><g fill="#000000" fill-opacity="1"><g transform="translate(1026.784104, 625.095397)"><g><path d="M 1.265625 -1.78125 L 3.5625 -2.1875 L 3.5625 -13.125 L 1.265625 -13.515625 L 1.265625 -15.328125 L 6.359375 -15.328125 L 6.359375 -2.1875 L 8.671875 -1.78125 L 8.671875 0 L 1.265625 0 Z M 6.359375 -19.25 L 3.5625 -19.25 L 3.5625 -22.09375 L 6.359375 -22.09375 Z M 6.359375 -19.25 "/></g></g></g><g fill="#000000" fill-opacity="1"><g transform="translate(1036.311321, 625.095397)"><g><path d="M 6.125 -19.015625 L 6.125 -15.328125 L 9.03125 -15.328125 L 9.03125 -13.25 L 6.125 -13.25 L 6.125 -3.953125 C 6.125 -3.234375 6.273438 -2.726562 6.578125 -2.4375 C 6.878906 -2.144531 7.273438 -2 7.765625 -2 C 8.003906 -2 8.273438 -2.019531 8.578125 -2.0625 C 8.890625 -2.101562 9.148438 -2.144531 9.359375 -2.1875 L 9.75 -0.28125 C 9.476562 -0.113281 9.085938 0.0195312 8.578125 0.125 C 8.066406 0.238281 7.554688 0.296875 7.046875 0.296875 C 5.921875 0.296875 5.019531 -0.0390625 4.34375 -0.71875 C 3.675781 -1.40625 3.34375 -2.484375 3.34375 -3.953125 L 3.34375 -13.25 L 0.921875 -13.25 L 0.921875 -15.328125 L 3.34375 -15.328125 L 3.34375 -19.015625 Z M 6.125 -19.015625 "/></g></g></g><g fill="#000000" fill-opacity="1"><g transform="translate(1046.928577, 625.095397)"><g><path d="M 8.25 0.296875 C 6.125 0.296875 4.429688 -0.410156 3.171875 -1.828125 C 1.910156 -3.253906 1.28125 -5.097656 1.28125 -7.359375 L 1.28125 -7.984375 C 1.28125 -10.160156 1.925781 -11.972656 3.21875 -13.421875 C 4.519531 -14.878906 6.054688 -15.609375 7.828125 -15.609375 C 9.890625 -15.609375 11.453125 -14.984375 12.515625 -13.734375 C 13.578125 -12.484375 14.109375 -10.820312 14.109375 -8.75 L 14.109375 -7.015625 L 4.15625 -7.015625 L 4.125 -6.9375 C 4.144531 -5.46875 4.515625 -4.257812 5.234375 -3.3125 C 5.953125 -2.363281 6.957031 -1.890625 8.25 -1.890625 C 9.195312 -1.890625 10.023438 -2.019531 10.734375 -2.28125 C 11.453125 -2.550781 12.070312 -2.925781 12.59375 -3.40625 L 13.671875 -1.59375 C 13.128906 -1.0625 12.40625 -0.613281 11.5 -0.25 C 10.601562 0.113281 9.519531 0.296875 8.25 0.296875 Z M 7.828125 -13.40625 C 6.890625 -13.40625 6.09375 -13.007812 5.4375 -12.21875 C 4.78125 -11.4375 4.375 -10.453125 4.21875 -9.265625 L 4.25 -9.1875 L 11.3125 -9.1875 L 11.3125 -9.5625 C 11.3125 -10.65625 11.019531 -11.566406 10.4375 -12.296875 C 9.851562 -13.035156 8.984375 -13.40625 7.828125 -13.40625 Z M 7.828125 -13.40625 "/></g></g></g><g fill="#000000" fill-opacity="1"><g transform="translate(1062.514708, 625.095397)"><g><path d="M 0.703125 -1.78125 L 3.015625 -2.1875 L 3.015625 -13.125 L 0.703125 -13.515625 L 0.703125 -15.328125 L 5.515625 -15.328125 L 5.703125 -13.328125 C 6.191406 -14.054688 6.820312 -14.617188 7.59375 -15.015625 C 8.375 -15.410156 9.273438 -15.609375 10.296875 -15.609375 C 11.316406 -15.609375 12.191406 -15.367188 12.921875 -14.890625 C 13.648438 -14.421875 14.203125 -13.710938 14.578125 -12.765625 C 15.054688 -13.640625 15.691406 -14.332031 16.484375 -14.84375 C 17.273438 -15.351562 18.203125 -15.609375 19.265625 -15.609375 C 20.828125 -15.609375 22.0625 -15.070312 22.96875 -14 C 23.875 -12.925781 24.328125 -11.3125 24.328125 -9.15625 L 24.328125 -2.1875 L 26.640625 -1.78125 L 26.640625 0 L 19.21875 0 L 19.21875 -1.78125 L 21.53125 -2.1875 L 21.53125 -9.1875 C 21.53125 -10.695312 21.269531 -11.765625 20.75 -12.390625 C 20.226562 -13.023438 19.457031 -13.34375 18.4375 -13.34375 C 17.46875 -13.34375 16.6875 -13 16.09375 -12.3125 C 15.5 -11.625 15.15625 -10.765625 15.0625 -9.734375 L 15.0625 -2.1875 L 17.375 -1.78125 L 17.375 0 L 9.96875 0 L 9.96875 -1.78125 L 12.28125 -2.1875 L 12.28125 -9.1875 C 12.28125 -10.625 12.007812 -11.675781 11.46875 -12.34375 C 10.9375 -13.007812 10.164062 -13.34375 9.15625 -13.34375 C 8.3125 -13.34375 7.613281 -13.164062 7.0625 -12.8125 C 6.519531 -12.46875 6.101562 -11.976562 5.8125 -11.34375 L 5.8125 -2.1875 L 8.109375 -1.78125 L 8.109375 0 L 0.703125 0 Z M 0.703125 -1.78125 "/></g></g></g><g fill="#000000" fill-opacity="1"><g transform="translate(1089.907227, 625.095397)"><g><path d="M 1 -1.78125 L 3.3125 -2.1875 L 3.3125 -18.421875 L 1 -18.8125 L 1 -20.625 L 16.9375 -20.625 L 16.9375 -15.65625 L 14.5625 -15.65625 L 14.328125 -18.421875 L 6.109375 -18.421875 L 6.109375 -11.3125 L 14.078125 -11.3125 L 14.078125 -9.125 L 6.109375 -9.125 L 6.109375 -2.1875 L 8.40625 -1.78125 L 8.40625 0 L 1 0 Z M 1 -1.78125 "/></g></g></g></svg>