<svg xmlns="http://www.w3.org/2000/svg" xmlns:xlink="http://www.w3.org/1999/xlink" width="1920" zoomAndPan="magnify" viewBox="0 0 1440 809.999993" height="1080" preserveAspectRatio="xMidYMid meet" version="1.0"><defs><g/></defs><g fill="#5271ff" fill-opacity="1"><g transform="translate(393.143741, 350.622059)"><g><path d="M 26.890625 -54.296875 L 19.84375 -53.046875 L 27.859375 -22.40625 L 29.171875 -14.953125 L 29.515625 -14.953125 L 31.109375 -22.40625 L 43.390625 -61.53125 L 52.375 -61.53125 L 64.703125 -22.40625 L 66.46875 -14.109375 L 66.8125 -14.109375 L 68.46875 -22.40625 L 76.03125 -53.046875 L 68.859375 -54.296875 L 68.859375 -61.53125 L 92.28125 -61.53125 L 92.28125 -54.296875 L 86.9375 -53.5 L 71.421875 0 L 62.375 0 L 50.4375 -37.46875 L 47.875 -47.828125 L 47.53125 -47.765625 L 45.140625 -37.46875 L 33.4375 0 L 24.390625 0 L 8.875 -53.5 L 3.46875 -54.296875 L 3.46875 -61.53125 L 26.890625 -61.53125 Z M 26.890625 -54.296875 "/></g></g></g><g fill="#5271ff" fill-opacity="1"><g transform="translate(489.403412, 350.622059)"><g><path d="M 3.53125 -7.171875 L 12.796875 -8.75 L 12.796875 -79.890625 L 3.53125 -81.484375 L 3.53125 -88.703125 L 24 -88.703125 L 24 -53.34375 C 26.125 -56.289062 28.71875 -58.578125 31.78125 -60.203125 C 34.851562 -61.835938 38.265625 -62.65625 42.015625 -62.65625 C 48.617188 -62.65625 53.738281 -60.679688 57.375 -56.734375 C 61.007812 -52.796875 62.828125 -46.734375 62.828125 -38.546875 L 62.828125 -8.75 L 72.09375 -7.171875 L 72.09375 0 L 42.359375 0 L 42.359375 -7.171875 L 51.625 -8.75 L 51.625 -38.671875 C 51.625 -43.742188 50.535156 -47.492188 48.359375 -49.921875 C 46.179688 -52.347656 42.929688 -53.5625 38.609375 -53.5625 C 35.535156 -53.5625 32.738281 -52.832031 30.21875 -51.375 C 27.695312 -49.914062 25.625 -47.9375 24 -45.4375 L 24 -8.75 L 33.265625 -7.171875 L 33.265625 0 L 3.53125 0 Z M 3.53125 -7.171875 "/></g></g></g><g fill="#5271ff" fill-opacity="1"><g transform="translate(564.568967, 350.622059)"><g><path d="M 5.0625 -7.171875 L 14.328125 -8.75 L 14.328125 -52.71875 L 5.0625 -54.296875 L 5.0625 -61.53125 L 25.53125 -61.53125 L 25.53125 -8.75 L 34.796875 -7.171875 L 34.796875 0 L 5.0625 0 Z M 25.53125 -77.28125 L 14.328125 -77.28125 L 14.328125 -88.703125 L 25.53125 -88.703125 Z M 25.53125 -77.28125 "/></g></g></g><g fill="#5271ff" fill-opacity="1"><g transform="translate(602.834034, 350.622059)"><g><path d="M 3.53125 -81.484375 L 3.53125 -88.703125 L 24 -88.703125 L 24 -8.75 L 33.265625 -7.171875 L 33.265625 0 L 3.53125 0 L 3.53125 -7.171875 L 12.796875 -8.75 L 12.796875 -79.890625 Z M 3.53125 -81.484375 "/></g></g></g><g fill="#5271ff" fill-opacity="1"><g transform="translate(639.507092, 350.622059)"><g><path d="M 33.15625 1.1875 C 24.582031 1.1875 17.765625 -1.660156 12.703125 -7.359375 C 7.648438 -13.066406 5.125 -20.46875 5.125 -29.5625 L 5.125 -32.0625 C 5.125 -40.820312 7.726562 -48.109375 12.9375 -53.921875 C 18.144531 -59.742188 24.3125 -62.65625 31.4375 -62.65625 C 39.707031 -62.65625 45.972656 -60.15625 50.234375 -55.15625 C 54.503906 -50.15625 56.640625 -43.484375 56.640625 -35.140625 L 56.640625 -28.140625 L 16.71875 -28.140625 L 16.546875 -27.859375 C 16.660156 -21.941406 18.15625 -17.078125 21.03125 -13.265625 C 23.914062 -9.460938 27.957031 -7.5625 33.15625 -7.5625 C 36.945312 -7.5625 40.269531 -8.097656 43.125 -9.171875 C 45.988281 -10.253906 48.460938 -11.742188 50.546875 -13.640625 L 54.921875 -6.375 C 52.722656 -4.25 49.8125 -2.457031 46.1875 -1 C 42.570312 0.457031 38.226562 1.1875 33.15625 1.1875 Z M 31.4375 -53.84375 C 27.6875 -53.84375 24.484375 -52.257812 21.828125 -49.09375 C 19.179688 -45.9375 17.550781 -41.96875 16.9375 -37.1875 L 17.0625 -36.90625 L 45.4375 -36.90625 L 45.4375 -38.375 C 45.4375 -42.78125 44.257812 -46.457031 41.90625 -49.40625 C 39.550781 -52.363281 36.0625 -53.84375 31.4375 -53.84375 Z M 31.4375 -53.84375 "/></g></g></g><g fill="#ff5757" fill-opacity="1"><g transform="translate(946.533425, 350.622059)"><g><path d="M 46.5625 -66.421875 L 45.484375 -72.84375 L 20.75 -72.84375 L 18.078125 -49.578125 C 19.785156 -50.867188 21.707031 -51.941406 23.84375 -52.796875 C 25.988281 -53.648438 28.46875 -54.113281 31.28125 -54.1875 C 38.894531 -54.257812 44.890625 -51.773438 49.265625 -46.734375 C 53.648438 -41.691406 55.84375 -34.910156 55.84375 -26.390625 C 55.84375 -18.085938 53.613281 -11.414062 49.15625 -6.375 C 44.695312 -1.332031 38.207031 1.1875 29.6875 1.1875 C 22.664062 1.1875 16.832031 -0.722656 12.1875 -4.546875 C 7.550781 -8.378906 5.328125 -14.007812 5.515625 -21.4375 L 5.625 -21.78125 L 15.75 -21.78125 C 15.75 -17.300781 17.046875 -13.8125 19.640625 -11.3125 C 22.242188 -8.8125 25.59375 -7.5625 29.6875 -7.5625 C 34.425781 -7.5625 38.101562 -9.226562 40.71875 -12.5625 C 43.332031 -15.90625 44.640625 -20.472656 44.640625 -26.265625 C 44.640625 -31.609375 43.320312 -35.976562 40.6875 -39.375 C 38.050781 -42.769531 34.398438 -44.46875 29.734375 -44.46875 C 25.335938 -44.46875 22.144531 -43.800781 20.15625 -42.46875 C 18.164062 -41.144531 16.71875 -39.117188 15.8125 -36.390625 L 6.484375 -37.359375 L 11.265625 -82.796875 L 54.984375 -82.796875 L 54.984375 -66.421875 Z M 46.5625 -66.421875 "/></g></g></g><g fill="#a6a6a6" fill-opacity="1"><g transform="translate(1008.006529, 350.622059)"><g><path d="M 8.25 0 Z M 19.453125 0 L 8.25 0 L 8.25 -11.484375 L 19.453125 -11.484375 Z M 19.453125 -50.03125 L 8.25 -50.03125 L 8.25 -61.515625 L 19.453125 -61.515625 Z M 19.453125 -50.03125 "/></g></g></g><g fill="#f4b640" fill-opacity="1"><g transform="translate(582.614471, 516.155326)"><g><path d="M 3.703125 16.4375 L 12.96875 14.84375 L 12.96875 -52.71875 L 3.703125 -54.296875 L 3.703125 -61.53125 L 22.578125 -61.53125 L 23.59375 -54.015625 C 25.644531 -56.828125 28.140625 -58.96875 31.078125 -60.4375 C 34.015625 -61.914062 37.414062 -62.65625 41.28125 -62.65625 C 48.90625 -62.65625 54.828125 -59.628906 59.046875 -53.578125 C 63.273438 -47.535156 65.390625 -39.550781 65.390625 -29.625 L 65.390625 -28.4375 C 65.390625 -19.5625 63.265625 -12.40625 59.015625 -6.96875 C 54.773438 -1.53125 48.921875 1.1875 41.453125 1.1875 C 37.660156 1.1875 34.332031 0.554688 31.46875 -0.703125 C 28.613281 -1.972656 26.179688 -3.863281 24.171875 -6.375 L 24.171875 14.84375 L 33.4375 16.4375 L 33.4375 23.65625 L 3.703125 23.65625 Z M 54.125 -29.625 C 54.125 -36.632812 52.757812 -42.375 50.03125 -46.84375 C 47.300781 -51.320312 43.25 -53.5625 37.875 -53.5625 C 34.6875 -53.5625 31.953125 -52.84375 29.671875 -51.40625 C 27.398438 -49.96875 25.566406 -47.992188 24.171875 -45.484375 L 24.171875 -15.515625 C 25.566406 -12.984375 27.390625 -11.023438 29.640625 -9.640625 C 31.898438 -8.253906 34.679688 -7.5625 37.984375 -7.5625 C 43.285156 -7.5625 47.300781 -9.492188 50.03125 -13.359375 C 52.757812 -17.222656 54.125 -22.25 54.125 -28.4375 Z M 54.125 -29.625 "/></g></g></g><g fill="#f4b640" fill-opacity="1"><g transform="translate(653.117716, 516.155326)"><g><path d="M 5.0625 -54.296875 L 5.0625 -61.53125 L 24.34375 -61.53125 L 25.421875 -52.59375 C 27.160156 -55.738281 29.304688 -58.203125 31.859375 -59.984375 C 34.421875 -61.765625 37.351562 -62.65625 40.65625 -62.65625 C 41.53125 -62.65625 42.429688 -62.585938 43.359375 -62.453125 C 44.285156 -62.328125 44.992188 -62.1875 45.484375 -62.03125 L 44.015625 -51.625 L 37.640625 -51.96875 C 34.679688 -51.96875 32.195312 -51.273438 30.1875 -49.890625 C 28.1875 -48.515625 26.632812 -46.570312 25.53125 -44.0625 L 25.53125 -8.75 L 34.796875 -7.171875 L 34.796875 0 L 5.0625 0 L 5.0625 -7.171875 L 14.328125 -8.75 L 14.328125 -52.71875 Z M 5.0625 -54.296875 "/></g></g></g><g fill="#f4b640" fill-opacity="1"><g transform="translate(701.27598, 516.155326)"><g><path d="M 5.0625 -7.171875 L 14.328125 -8.75 L 14.328125 -52.71875 L 5.0625 -54.296875 L 5.0625 -61.53125 L 25.53125 -61.53125 L 25.53125 -8.75 L 34.796875 -7.171875 L 34.796875 0 L 5.0625 0 Z M 25.53125 -77.28125 L 14.328125 -77.28125 L 14.328125 -88.703125 L 25.53125 -88.703125 Z M 25.53125 -77.28125 "/></g></g></g><g fill="#f4b640" fill-opacity="1"><g transform="translate(739.541047, 516.155326)"><g><path d="M 3.40625 -7.171875 L 12.6875 -8.75 L 12.6875 -52.71875 L 3.40625 -54.296875 L 3.40625 -61.53125 L 22.6875 -61.53125 L 23.484375 -52.375 C 25.523438 -55.632812 28.09375 -58.160156 31.1875 -59.953125 C 34.28125 -61.753906 37.796875 -62.65625 41.734375 -62.65625 C 48.367188 -62.65625 53.503906 -60.710938 57.140625 -56.828125 C 60.785156 -52.941406 62.609375 -46.945312 62.609375 -38.84375 L 62.609375 -8.75 L 71.875 -7.171875 L 71.875 0 L 42.140625 0 L 42.140625 -7.171875 L 51.40625 -8.75 L 51.40625 -38.609375 C 51.40625 -44.023438 50.332031 -47.867188 48.1875 -50.140625 C 46.050781 -52.421875 42.78125 -53.5625 38.375 -53.5625 C 35.15625 -53.5625 32.300781 -52.785156 29.8125 -51.234375 C 27.332031 -49.679688 25.351562 -47.554688 23.875 -44.859375 L 23.875 -8.75 L 33.15625 -7.171875 L 33.15625 0 L 3.40625 0 Z M 3.40625 -7.171875 "/></g></g></g><g fill="#f4b640" fill-opacity="1"><g transform="translate(814.479172, 516.155326)"><g><path d="M 24.625 -76.359375 L 24.625 -61.53125 L 36.28125 -61.53125 L 36.28125 -53.21875 L 24.625 -53.21875 L 24.625 -15.859375 C 24.625 -12.984375 25.21875 -10.957031 26.40625 -9.78125 C 27.601562 -8.601562 29.1875 -8.015625 31.15625 -8.015625 C 32.144531 -8.015625 33.253906 -8.097656 34.484375 -8.265625 C 35.710938 -8.441406 36.742188 -8.625 37.578125 -8.8125 L 39.125 -1.140625 C 38.0625 -0.453125 36.503906 0.101562 34.453125 0.53125 C 32.410156 0.96875 30.363281 1.1875 28.3125 1.1875 C 23.769531 1.1875 20.148438 -0.179688 17.453125 -2.921875 C 14.765625 -5.671875 13.421875 -9.984375 13.421875 -15.859375 L 13.421875 -53.21875 L 3.703125 -53.21875 L 3.703125 -61.53125 L 13.421875 -61.53125 L 13.421875 -76.359375 Z M 24.625 -76.359375 "/></g></g></g><g fill="#a6a6a6" fill-opacity="1"><g transform="translate(857.134896, 516.155326)"><g><path d="M 6.484375 -33.609375 C 6.484375 -48.546875 9.492188 -61.300781 15.515625 -71.875 C 21.546875 -82.445312 27.878906 -89.5 34.515625 -93.03125 L 34.859375 -92.96875 L 36.953125 -86.375 C 31.765625 -82.3125 27.253906 -75.804688 23.421875 -66.859375 C 19.597656 -57.921875 17.6875 -46.875 17.6875 -33.71875 L 17.6875 -32.984375 C 17.6875 -19.785156 19.585938 -8.722656 23.390625 0.203125 C 27.203125 9.128906 31.722656 15.789062 36.953125 20.1875 L 34.859375 26.328125 L 34.515625 26.328125 C 27.878906 22.796875 21.546875 15.75 15.515625 5.1875 C 9.492188 -5.363281 6.484375 -18.125 6.484375 -33.09375 Z M 6.484375 -33.609375 "/></g></g></g><g fill="#a6a6a6" fill-opacity="1"><g transform="translate(894.774531, 516.155326)"><g><path d="M 5.0625 -7.171875 L 14.328125 -8.75 L 14.328125 -52.71875 L 5.0625 -54.296875 L 5.0625 -61.53125 L 25.53125 -61.53125 L 25.53125 -8.75 L 34.796875 -7.171875 L 34.796875 0 L 5.0625 0 Z M 25.53125 -77.28125 L 14.328125 -77.28125 L 14.328125 -88.703125 L 25.53125 -88.703125 Z M 25.53125 -77.28125 "/></g></g></g><g fill="#a6a6a6" fill-opacity="1"><g transform="translate(933.039598, 516.155326)"><g><path d="M 31.109375 -33.09375 C 31.109375 -18.125 28.082031 -5.363281 22.03125 5.1875 C 15.988281 15.75 9.671875 22.796875 3.078125 26.328125 L 2.734375 26.328125 L 0.625 20.1875 C 5.738281 16.207031 10.226562 9.65625 14.09375 0.53125 C 17.96875 -8.582031 19.90625 -19.753906 19.90625 -32.984375 L 19.90625 -33.71875 C 19.90625 -46.71875 17.910156 -57.785156 13.921875 -66.921875 C 9.941406 -76.054688 5.507812 -82.710938 0.625 -86.890625 L 2.734375 -93.03125 L 3.078125 -93.03125 C 9.671875 -89.5 15.988281 -82.445312 22.03125 -71.875 C 28.082031 -61.300781 31.109375 -48.546875 31.109375 -33.609375 Z M 31.109375 -33.09375 "/></g></g></g><g fill="#a6a6a6" fill-opacity="1"><g transform="translate(757.304054, 350.622059)"><g><path d="M 5.0625 -7.171875 L 14.328125 -8.75 L 14.328125 -52.71875 L 5.0625 -54.296875 L 5.0625 -61.53125 L 25.53125 -61.53125 L 25.53125 -8.75 L 34.796875 -7.171875 L 34.796875 0 L 5.0625 0 Z M 25.53125 -77.28125 L 14.328125 -77.28125 L 14.328125 -88.703125 L 25.53125 -88.703125 Z M 25.53125 -77.28125 "/></g></g></g><g fill="#a6a6a6" fill-opacity="1"><g transform="translate(845.440401, 350.622059)"><g><path d="M 18.9375 -32.921875 L 14.109375 -31.90625 L 14.109375 -31.5625 L 18.9375 -30.484375 L 50.71875 -17.515625 L 50.71875 -6.078125 L 4.328125 -27.640625 L 4.328125 -36.109375 L 50.71875 -57.59375 L 50.71875 -46.171875 Z M 18.9375 -32.921875 "/></g></g></g><g fill="#a6a6a6" fill-opacity="1"><g transform="translate(581.40651, 687.625329)"><g><path d="M 5.0625 -7.15625 L 14.328125 -8.75 L 14.328125 -52.703125 L 5.0625 -54.296875 L 5.0625 -61.515625 L 25.53125 -61.515625 L 25.53125 -8.75 L 34.796875 -7.15625 L 34.796875 0 L 5.0625 0 Z M 25.53125 -77.265625 L 14.328125 -77.265625 L 14.328125 -88.6875 L 25.53125 -88.6875 Z M 25.53125 -77.265625 "/></g></g></g><g fill="#a6a6a6" fill-opacity="1"><g transform="translate(619.669243, 687.625329)"><g/></g></g><g fill="#a6a6a6" fill-opacity="1"><g transform="translate(648.607923, 687.625329)"><g><path d="M 38.15625 -44.515625 L 60.890625 -44.515625 L 60.890625 -34.390625 L 38.15625 -34.390625 L 38.15625 -8.296875 L 26.953125 -8.296875 L 26.953125 -34.390625 L 4.15625 -34.390625 L 4.15625 -44.515625 L 26.953125 -44.515625 L 26.953125 -68.5625 L 38.15625 -68.5625 Z M 38.15625 -44.515625 "/></g></g></g><g fill="#a6a6a6" fill-opacity="1"><g transform="translate(713.705739, 687.625329)"><g><path d="M 55.78125 -46.796875 L 8.359375 -46.796875 L 8.359375 -56.109375 L 55.78125 -56.109375 Z M 55.78125 -23.140625 L 8.359375 -23.140625 L 8.359375 -32.46875 L 55.78125 -32.46875 Z M 55.78125 -23.140625 "/></g></g></g><g fill="#a6a6a6" fill-opacity="1"><g transform="translate(777.780183, 687.625329)"><g/></g></g><g fill="#ff5757" fill-opacity="1"><g transform="translate(806.725971, 687.625329)"><g><path d="M 6.875 -7.15625 L 19.671875 -8.75 L 19.671875 -70.78125 L 6.65625 -70.5625 L 6.65625 -77.546875 L 30.875 -82.78125 L 30.875 -8.75 L 43.609375 -7.15625 L 43.609375 0 L 6.875 0 Z M 6.875 -7.15625 "/></g></g></g><g fill="#a6a6a6" fill-opacity="1"><g transform="translate(382.816871, 210.799907)"><g><path d="M 5.0625 -7.15625 L 14.328125 -8.75 L 14.328125 -52.703125 L 5.0625 -54.296875 L 5.0625 -61.515625 L 25.53125 -61.515625 L 25.53125 -8.75 L 34.796875 -7.15625 L 34.796875 0 L 5.0625 0 Z M 25.53125 -77.265625 L 14.328125 -77.265625 L 14.328125 -88.6875 L 25.53125 -88.6875 Z M 25.53125 -77.265625 "/></g></g></g><g fill="#a6a6a6" fill-opacity="1"><g transform="translate(421.079604, 210.799907)"><g/></g></g><g fill="#a6a6a6" fill-opacity="1"><g transform="translate(450.018284, 210.799907)"><g><path d="M 55.78125 -46.796875 L 8.359375 -46.796875 L 8.359375 -56.109375 L 55.78125 -56.109375 Z M 55.78125 -23.140625 L 8.359375 -23.140625 L 8.359375 -32.46875 L 55.78125 -32.46875 Z M 55.78125 -23.140625 "/></g></g></g><g fill="#ff5757" fill-opacity="1"><g transform="translate(514.095376, 210.799907)"><g/></g></g><g fill="#ff5757" fill-opacity="1"><g transform="translate(543.034056, 210.799907)"><g><path d="M 59.578125 -31.546875 C 59.578125 -20.972656 57.226562 -12.875 52.53125 -7.25 C 47.832031 -1.625 41.410156 1.1875 33.265625 1.1875 C 25.148438 1.1875 18.722656 -1.632812 13.984375 -7.28125 C 9.242188 -12.925781 6.875 -21.015625 6.875 -31.546875 L 6.875 -51.171875 C 6.875 -61.703125 9.222656 -69.800781 13.921875 -75.46875 C 18.628906 -81.132812 25.035156 -83.96875 33.140625 -83.96875 C 41.296875 -83.96875 47.738281 -81.132812 52.46875 -75.46875 C 57.207031 -69.800781 59.578125 -61.703125 59.578125 -51.171875 Z M 48.390625 -53.5625 C 48.390625 -60.71875 47.085938 -66.101562 44.484375 -69.71875 C 41.890625 -73.34375 38.109375 -75.15625 33.140625 -75.15625 C 28.253906 -75.15625 24.519531 -73.34375 21.9375 -69.71875 C 19.363281 -66.101562 18.078125 -60.71875 18.078125 -53.5625 L 18.078125 -29.28125 C 18.078125 -22.113281 19.382812 -16.703125 22 -13.046875 C 24.613281 -9.390625 28.367188 -7.5625 33.265625 -7.5625 C 38.222656 -7.5625 41.984375 -9.378906 44.546875 -13.015625 C 47.109375 -16.660156 48.390625 -22.082031 48.390625 -29.28125 Z M 48.390625 -53.5625 "/></g></g></g></svg>