<svg xmlns="http://www.w3.org/2000/svg" xmlns:xlink="http://www.w3.org/1999/xlink" width="1920" zoomAndPan="magnify" viewBox="0 0 1440 809.999993" height="1080" preserveAspectRatio="xMidYMid meet" version="1.0"><defs><clipPath id="0f18e6d1a3"><path d="M 353.242188 64.917969 L 1086.742188 64.917969 L 1086.742188 745.167969 L 353.242188 745.167969 Z M 353.242188 64.917969 " clip-rule="nonzero"/></clipPath></defs><path fill="#f6f6ee" d="M 1069.191406 522.761719 L 1060.050781 608.824219 L 1031.78125 699.367188 L 1011.007812 720.390625 L 765.769531 725.519531 L 399.550781 712.4375 L 389.957031 686.285156 L 366.855469 686.285156 L 366.855469 666.652344 L 393.015625 603.914062 L 412.632812 542.382812 L 419.164062 435.195312 L 432.246094 143.402344 L 456.550781 130.335938 L 634.972656 104.167969 L 837.710938 91.082031 L 876.941406 110.714844 L 988.652344 110.703125 L 1049.210938 130.335938 L 1066.585938 200.089844 Z M 1069.191406 522.761719 " fill-opacity="1" fill-rule="nonzero"/><path fill="#d0d0d0" d="M 896.570312 110.714844 L 876.957031 110.714844 L 857.339844 95.199219 L 621.917969 91.082031 L 596.738281 117.25 L 589.222656 134.523438 L 602.304688 143.402344 L 602.304688 117.234375 L 641.550781 117.234375 L 641.550781 143.402344 L 602.304688 143.402344 L 628.46875 208.804688 L 863.890625 195.722656 L 892.910156 140.867188 L 900.527344 117.25 Z M 680.808594 130.320312 L 680.808594 143.402344 L 641.5625 143.402344 L 641.5625 117.234375 L 680.808594 117.234375 Z M 680.808594 130.320312 " fill-opacity="1" fill-rule="nonzero"/><g clip-path="url(#0f18e6d1a3)"><path fill="#090d0f" d="M 1086.199219 509.679688 L 1086.199219 234.972656 L 1073.132812 234.972656 L 1073.132812 117.234375 L 1049.210938 117.234375 L 1049.210938 104.167969 L 890.039062 104.167969 L 890.039062 78 L 837.710938 78 L 837.710938 64.917969 L 811.550781 64.917969 L 811.550781 78.015625 L 602.277344 78.015625 L 602.277344 104.183594 L 445.328125 104.183594 L 445.328125 130.335938 L 419.164062 130.335938 L 419.164062 378.890625 L 406.082031 378.890625 L 406.082031 496.609375 L 393.003906 496.609375 L 393.003906 575.113281 L 379.921875 575.113281 L 379.921875 614.332031 L 366.855469 614.332031 L 366.855469 653.582031 L 353.773438 653.582031 L 353.773438 692.832031 L 379.9375 692.832031 L 379.9375 719 L 406.097656 719 L 406.097656 745.167969 L 916.199219 745.167969 L 916.199219 732.082031 L 942.363281 732.082031 L 942.363281 745.167969 L 1033.917969 745.167969 L 1033.917969 705.917969 L 1047 705.917969 L 1047 666.667969 L 1060.082031 666.667969 L 1060.082031 627.417969 L 1073.164062 627.417969 L 1073.164062 548.914062 L 1086.214844 548.914062 L 1086.214844 522.75 Z M 1060.066406 522.761719 L 1060.050781 522.761719 L 1060.050781 548.929688 L 1046.96875 548.929688 L 1046.96875 627.417969 L 1033.890625 627.417969 L 1033.890625 666.667969 L 1020.808594 666.667969 L 1020.808594 705.917969 L 942.332031 705.917969 L 942.332031 692.832031 L 916.171875 692.832031 L 916.171875 705.917969 L 406.082031 705.917969 L 406.082031 679.75 L 379.921875 679.75 L 379.921875 653.582031 L 393.003906 653.582031 L 393.003906 614.332031 L 406.082031 614.332031 L 406.082031 575.082031 L 419.164062 575.082031 L 419.164062 496.582031 L 432.246094 496.582031 L 432.246094 378.859375 L 445.328125 378.859375 L 445.328125 143.417969 L 602.277344 143.417969 L 602.277344 221.902344 L 890.007812 221.902344 L 890.007812 143.402344 L 863.84375 143.402344 L 863.84375 182.652344 L 628.4375 182.652344 L 628.4375 143.402344 L 604.515625 143.402344 L 604.515625 117.25 L 811.550781 117.25 L 811.550781 104.152344 L 837.710938 104.152344 L 837.710938 117.234375 L 890.039062 117.234375 L 890.039062 143.402344 L 1046.984375 143.402344 L 1046.984375 234.972656 L 1060.050781 234.972656 L 1060.050781 509.679688 L 1060.066406 509.679688 Z M 863.859375 352.707031 L 863.859375 365.792969 L 837.710938 365.792969 L 837.710938 352.707031 Z M 837.710938 391.945312 L 837.710938 405.027344 L 824.628906 405.027344 L 824.628906 391.945312 Z M 863.859375 365.792969 L 876.941406 365.792969 L 876.941406 418.109375 L 837.710938 418.109375 L 837.710938 405.027344 L 863.859375 405.027344 L 863.859375 391.945312 L 837.710938 391.945312 L 837.710938 378.875 L 863.859375 378.875 Z M 772.304688 391.945312 L 772.304688 405.027344 L 759.238281 405.027344 L 759.238281 365.792969 L 772.304688 365.792969 Z M 785.386719 365.792969 L 772.304688 365.792969 L 772.304688 352.707031 L 798.46875 352.707031 L 798.46875 365.792969 Z M 798.46875 378.875 L 798.46875 365.792969 L 811.550781 365.792969 L 811.550781 378.875 Z M 785.386719 405.027344 L 798.46875 405.027344 L 798.46875 418.109375 L 772.304688 418.109375 L 772.304688 405.027344 Z M 811.550781 405.027344 L 798.46875 405.027344 L 798.46875 391.945312 L 811.550781 391.945312 Z M 929.265625 352.707031 L 929.265625 365.792969 L 903.105469 365.792969 L 903.105469 418.109375 L 890.023438 418.109375 L 890.023438 352.707031 Z M 929.265625 365.792969 L 942.347656 365.792969 L 942.347656 418.109375 L 929.265625 418.109375 Z M 615.355469 391.945312 L 615.355469 405.027344 L 602.277344 405.027344 L 602.277344 365.792969 L 615.355469 365.792969 Z M 628.4375 365.792969 L 615.355469 365.792969 L 615.355469 352.707031 L 641.519531 352.707031 L 641.519531 365.792969 Z M 641.519531 378.875 L 641.519531 365.792969 L 654.601562 365.792969 L 654.601562 405.027344 L 641.519531 405.027344 Z M 615.355469 418.109375 L 615.355469 405.027344 L 641.519531 405.027344 L 641.519531 418.109375 Z M 641.519531 522.761719 L 641.519531 535.847656 L 628.4375 535.847656 L 628.4375 496.597656 L 641.519531 496.597656 Z M 667.683594 457.359375 L 680.75 457.359375 L 680.75 548.929688 L 641.519531 548.929688 L 641.519531 535.847656 L 667.683594 535.847656 L 667.683594 496.597656 L 641.519531 496.597656 L 641.519531 483.511719 L 667.683594 483.511719 Z M 785.386719 470.445312 L 798.46875 470.445312 L 798.46875 483.527344 L 785.386719 483.527344 Z M 785.386719 496.597656 L 798.46875 496.597656 L 798.46875 548.914062 L 785.386719 548.914062 Z M 706.914062 522.761719 L 706.914062 535.847656 L 693.832031 535.847656 L 693.832031 496.597656 L 706.914062 496.597656 Z M 719.992188 496.597656 L 706.914062 496.597656 L 706.914062 483.511719 L 733.074219 483.511719 L 733.074219 496.597656 Z M 733.074219 496.597656 L 746.15625 496.597656 L 746.15625 535.847656 L 733.074219 535.847656 Z M 719.992188 535.847656 L 733.074219 535.847656 L 733.074219 548.929688 L 706.914062 548.929688 L 706.914062 535.847656 Z M 850.792969 483.511719 L 863.859375 483.511719 L 863.859375 496.597656 L 837.710938 496.597656 L 837.710938 535.847656 L 824.628906 535.847656 L 824.628906 496.597656 L 811.550781 496.597656 L 811.550781 483.511719 L 824.628906 483.511719 L 824.628906 457.359375 L 837.710938 457.359375 L 837.710938 483.511719 Z M 837.710938 548.929688 L 837.710938 535.847656 L 863.859375 535.847656 L 863.859375 548.929688 Z M 680.75 391.945312 L 680.75 405.027344 L 667.683594 405.027344 L 667.683594 352.707031 L 680.75 352.707031 Z M 680.75 418.109375 L 680.75 405.027344 L 706.914062 405.027344 L 706.914062 352.707031 L 719.992188 352.707031 L 719.992188 418.109375 Z M 549.964844 405.027344 L 536.882812 405.027344 L 536.882812 352.707031 L 549.964844 352.707031 Z M 576.128906 352.707031 L 589.195312 352.707031 L 589.195312 444.277344 L 576.128906 444.277344 L 576.128906 418.109375 L 550.332031 418.109375 L 550.332031 405.027344 L 576.128906 405.027344 Z M 563.046875 444.277344 L 576.128906 444.277344 L 576.128906 457.359375 L 549.964844 457.359375 L 549.964844 444.277344 Z M 549.964844 431.195312 L 549.964844 444.277344 L 536.882812 444.277344 L 536.882812 431.195312 Z M 549.964844 431.195312 " fill-opacity="1" fill-rule="nonzero"/></g></svg>